<?xml version="1.0" encoding="utf-8"?>
<!-- Generator: Adobe Illustrator 27.5.0, SVG Export Plug-In . SVG Version: 6.00 Build 0)  -->
<svg version="1.1" id="Layer_1" xmlns="http://www.w3.org/2000/svg" xmlns:xlink="http://www.w3.org/1999/xlink" x="0px" y="0px"
	 viewBox="0 0 648 648" style="enable-background:new 0 0 648 648;" xml:space="preserve">
<style type="text/css">
	.st0{fill:#FFFFFF;}
	.st1{fill:#9EA2A2;}
	.st2{fill:#363B37;}
	.st3{fill:#4891CE;}
	.st4{fill:#E3173E;}
</style>
<g>
	<path class="st0" d="M324.4,611.7c-52.6,0-103.4-19-143.1-53.5c-39.2-34.1-65-81.2-72.6-132.4l-57-390.1h545.1l-56.8,389.9
		c-7.6,51.3-33.4,98.4-72.6,132.5C427.8,592.7,377,611.7,324.4,611.7z"/>
	<path class="st1" d="M324.4,600.2c-49.8,0-98-18-135.5-50.7c-37.2-32.3-61.6-76.9-68.8-125.4L65.1,47.2h518.5L528.7,424
		c-7.2,48.6-31.6,93.2-68.8,125.5C422.4,582.2,374.2,600.2,324.4,600.2z"/>
	<path class="st2" d="M324.4,583.5c-45.8,0-90-16.5-124.5-46.6c-34.2-29.7-56.6-70.7-63.2-115.3L84.4,63.9h479.9l-52.1,357.7
		c-6.6,44.6-29,85.6-63.2,115.3C414.4,567,370.2,583.5,324.4,583.5z"/>
	<path class="st3" d="M294.1,430v-0.8h-14.5v0.8c0,20.2-10.2,38.5-27.3,49.1c-9.3-7.9-17.4-17.3-23.8-28H212
		c21.3,41.7,64.9,69,112.2,69c47.4,0,90.9-27.3,112.1-69h-16.6c-6.3,10.6-14.3,20-23.6,27.8c-17-10.7-27.1-28.9-27.1-49v-0.9h-14.5
		v0.9c0,23.2,10.8,44.5,29.3,58.1c-15.5,9.9-33.4,16-52.2,17.3v-94.8h-14.5v94.8c-18.8-1.2-36.8-7.3-52.4-17.2
		C283.2,474.6,294.1,453.3,294.1,430z"/>
	<g>
		<path class="st4" d="M324.4,547.5c-63.2,0-119.3-38.8-142.2-96.3h-15.5C190.4,517.1,253.3,562,324.4,562
			c71.1,0,134-44.9,157.6-110.8h-15.5C443.6,508.7,387.5,547.5,324.4,547.5z"/>
		<path class="st4" d="M206,292.8l2.1-5.4l22-57.4l-6.8-45.8l19.1,13.9l5.4-14l-91.1-66.4l27.9,190.5l-19.7,51.4l-38.3-258.6h153.1
			l5.6-14.5H109.8l48.8,330.1L206,292.8L206,292.8z M176,149.8l30.8,22.4l8.3,56.2l-19.9,52.1L176,149.8z"/>
		<path class="st4" d="M363.3,86.4l5.6,14.5H522l-38.3,258.6l-19.4-50.8l28-191.1l-91.4,66.5l5.4,14l19.2-14l-6.9,45.7l20.8,54.5
			l3.2,8.3l0,0l47.3,123.6l48.9-330.1H363.3z M433.5,228.4l8.4-56.1l31-22.6L453.6,281L433.5,228.4z"/>
	</g>
	<path class="st0" d="M226.3,133.7l31.9,23.2l16.5,12l7.1,5.2l-97.4,255.4l70.3-0.1l13.5-39.4h112.1L394,429l70.3-0.1l-98.2-254.3
		l7.8-5.7l16.5-12l32-23.2h-40.9h-21.1h-10.1l-18.1-46.9l-7.9-24.3l-0.7,2.1l0-0.1l-26.4,69.2h-9h-21.1H226.3z M323.9,227.6
		l36.3,104.3h-72.1L323.9,227.6z"/>
</g>
</svg>
