<?xml version="1.0" encoding="UTF-8" standalone="no"?>
<!-- Generator: Adobe Illustrator 28.0.0, SVG Export Plug-In . SVG Version: 6.00 Build 0)  -->

<svg
   version="1.1"
   id="Layer_2_1_"
   x="0px"
   y="0px"
   viewBox="0 0 400 400"
   style="enable-background:new 0 0 400 400;"
   xml:space="preserve"
   sodipodi:docname="LVA.svg"
   inkscape:export-filename="LVA.png"
   inkscape:export-xdpi="288"
   inkscape:export-ydpi="288"
   inkscape:version="1.2 (dc2aedaf03, 2022-05-15)"
   xmlns:inkscape="http://www.inkscape.org/namespaces/inkscape"
   xmlns:sodipodi="http://sodipodi.sourceforge.net/DTD/sodipodi-0.dtd"
   xmlns="http://www.w3.org/2000/svg"
   xmlns:svg="http://www.w3.org/2000/svg"><defs
   id="defs1115" /><sodipodi:namedview
   id="namedview1113"
   pagecolor="#ffffff"
   bordercolor="#000000"
   borderopacity="0.25"
   inkscape:showpageshadow="2"
   inkscape:pageopacity="0.0"
   inkscape:pagecheckerboard="0"
   inkscape:deskcolor="#d1d1d1"
   showgrid="false"
   inkscape:zoom="0.59"
   inkscape:cx="200"
   inkscape:cy="200"
   inkscape:window-width="2256"
   inkscape:window-height="1398"
   inkscape:window-x="-11"
   inkscape:window-y="-11"
   inkscape:window-maximized="1"
   inkscape:current-layer="Layer_2_1_" />
<style
   type="text/css"
   id="style1094">
	.st0{fill:#A7A8AA;}
	.st1{fill:#FFFFFF;}
</style>
<g
   id="g1110">
	<g
   id="g1100">
		<path
   class="st0"
   d="M296.2,192.7c-0.5-0.6-49.4-58-86.4-160.9l-9.9-27.5L190.4,32c-0.3,1-35,100.4-86.6,160.8l-5.8,6.7l5.8,6.7    c0.5,0.6,49.4,58,86.4,160.9l9.9,27.5l9.5-27.7c0.3-1,35-100.4,86.6-160.8l5.8-6.7L296.2,192.7z"
   id="path1096" />
		<path
   d="M205.6,33.3L200,17.6l-5.5,15.8c-0.3,1-35.2,101.2-87.4,162.3l-3.3,3.8l3.3,3.8c0.5,0.6,49.9,58.5,87.2,162.3l5.7,15.7    l5.5-15.8c0.3-1,35.2-101.2,87.4-162.3l3.3-3.8l-3.3-3.8C292.4,195.1,243,137.1,205.6,33.3z"
   id="path1098" />
	</g>
	<path
   class="st0"
   d="M227.6,234.5c-7-11.1-13.7-20.7-20.4-30h-25.9c0,0,16,18.6,34.5,50.2c3.9,6.6,7.9,13.9,11.8,21.6   c4-7.8,8-15,11.9-21.7c18.4-31.5,34.4-50.1,34.4-50.1h-25.9C241.1,214.2,234.5,223.6,227.6,234.5"
   id="path1102" />
	<path
   class="st0"
   d="M200.3,285.4c-17.8-37.4-32.9-59.9-48.1-80.9h-25.9c0,0,48.6,56.4,73.8,139.2c6.5-21.5,13.8-38.8,22.2-56.2   c-3.9-8-7.8-15.5-11.7-22.5C207,271.9,204.2,277,200.3,285.4"
   id="path1104" />
	<path
   class="st0"
   d="M186.2,167.9c7.2,2.8,12,9,13.6,22.5c1.7-13.5,6.4-19.7,13.6-22.5c-7.2-2.8-12-9-13.6-22.5   C198.2,158.9,193.4,165,186.2,167.9"
   id="path1106" />
	<path
   class="st1"
   d="M200.1,113.2c17.8,37.4,32.9,59.9,48.1,80.9h25.9c0,0-48.6-56.4-73.8-139.2c-25.2,82.9-73.8,139.2-73.8,139.2   h25.9C167.9,172.6,181.7,152.3,200.1,113.2"
   id="path1108" />
</g>
</svg>
