<svg width="256" height="144" xmlns="http://www.w3.org/2000/svg" xmlns:xlink="http://www.w3.org/1999/xlink" version="2.0"><style>
* {
font-family: "Merriweather Sans";
font-weight: 300;
}
#title {
font-weight: normal
}
</style><rect x="0" y="0" width="256" height="144" stroke="none" stroke-width="1" fill="#ffeceb" /><text x="128" y="12" stroke="none" fill="black" font-size="8" font-family="auto" text-anchor="middle" dx="0" dy="0" transform="none" id="title">NFL Graphical Standings &#8211; Week 5, 2025 &#8211; AFC East</text><text x="8" y="72" stroke="none" fill="black" font-size="6" font-family="auto" text-anchor="middle" dx="0" dy="0" transform="rotate(-90,8,72)" id="">Wins above .500</text><text x="122.0" y="140" stroke="none" fill="black" font-size="6" font-family="auto" text-anchor="middle" dx="0" dy="0" transform="none" id="">Week</text><g><g><line x1="24.291510142749814" x2="24.291510142749814" y1="128.0" y2="16.0" stroke="rgb(90%,90%,90%)" stroke-width="0.5" stroke-linecap="square" /><line x1="63.37490608564989" x2="63.37490608564989" y1="128.0" y2="16.0" stroke="rgb(90%,90%,90%)" stroke-width="0.5" stroke-linecap="square" /><line x1="102.45830202854997" x2="102.45830202854997" y1="128.0" y2="16.0" stroke="rgb(90%,90%,90%)" stroke-width="0.5" stroke-linecap="square" /><line x1="141.54169797145005" x2="141.54169797145005" y1="128.0" y2="16.0" stroke="rgb(90%,90%,90%)" stroke-width="0.5" stroke-linecap="square" /><line x1="180.62509391435012" x2="180.62509391435012" y1="128.0" y2="16.0" stroke="rgb(90%,90%,90%)" stroke-width="0.5" stroke-linecap="square" /><line x1="219.7084898572502" x2="219.7084898572502" y1="128.0" y2="16.0" stroke="rgb(90%,90%,90%)" stroke-width="0.5" stroke-linecap="square" /><line x1="20.0" x2="224.0" y1="123.85185185185185" y2="123.85185185185185" stroke="rgb(90%,90%,90%)" stroke-width="0.5" stroke-linecap="square" /><line x1="20.0" x2="224.0" y1="113.48148148148148" y2="113.48148148148148" stroke="rgb(90%,90%,90%)" stroke-width="0.5" stroke-linecap="square" /><line x1="20.0" x2="224.0" y1="103.11111111111111" y2="103.11111111111111" stroke="rgb(90%,90%,90%)" stroke-width="0.5" stroke-linecap="square" /><line x1="20.0" x2="224.0" y1="92.74074074074073" y2="92.74074074074073" stroke="rgb(90%,90%,90%)" stroke-width="0.5" stroke-linecap="square" /><line x1="20.0" x2="224.0" y1="82.37037037037037" y2="82.37037037037037" stroke="rgb(90%,90%,90%)" stroke-width="0.5" stroke-linecap="square" /><line x1="20.0" x2="224.0" y1="72.0" y2="72.0" stroke="rgb(90%,90%,90%)" stroke-width="0.5" stroke-linecap="square" /><line x1="20.0" x2="224.0" y1="61.62962962962963" y2="61.62962962962963" stroke="rgb(90%,90%,90%)" stroke-width="0.5" stroke-linecap="square" /><line x1="20.0" x2="224.0" y1="51.25925925925927" y2="51.25925925925927" stroke="rgb(90%,90%,90%)" stroke-width="0.5" stroke-linecap="square" /><line x1="20.0" x2="224.0" y1="40.888888888888886" y2="40.888888888888886" stroke="rgb(90%,90%,90%)" stroke-width="0.5" stroke-linecap="square" /><line x1="20.0" x2="224.0" y1="30.51851851851852" y2="30.51851851851852" stroke="rgb(90%,90%,90%)" stroke-width="0.5" stroke-linecap="square" /><line x1="20.0" x2="224.0" y1="20.148148148148152" y2="20.148148148148152" stroke="rgb(90%,90%,90%)" stroke-width="0.5" stroke-linecap="square" /></g><g><line x1="24.291510142749814" x2="24.291510142749814" y1="128.0" y2="16.0" stroke="rgb(80%,80%,80%)" stroke-width="0.5" stroke-linecap="square" /><line x1="63.37490608564989" x2="63.37490608564989" y1="128.0" y2="16.0" stroke="rgb(80%,80%,80%)" stroke-width="0.5" stroke-linecap="square" /><line x1="102.45830202854997" x2="102.45830202854997" y1="128.0" y2="16.0" stroke="rgb(80%,80%,80%)" stroke-width="0.5" stroke-linecap="square" /><line x1="141.54169797145005" x2="141.54169797145005" y1="128.0" y2="16.0" stroke="rgb(80%,80%,80%)" stroke-width="0.5" stroke-linecap="square" /><line x1="180.62509391435012" x2="180.62509391435012" y1="128.0" y2="16.0" stroke="rgb(80%,80%,80%)" stroke-width="0.5" stroke-linecap="square" /><line x1="219.7084898572502" x2="219.7084898572502" y1="128.0" y2="16.0" stroke="rgb(80%,80%,80%)" stroke-width="0.5" stroke-linecap="square" /><line x1="20.0" x2="224.0" y1="123.85185185185185" y2="123.85185185185185" stroke="rgb(80%,80%,80%)" stroke-width="0.5" stroke-linecap="square" /><line x1="20.0" x2="224.0" y1="113.48148148148148" y2="113.48148148148148" stroke="rgb(80%,80%,80%)" stroke-width="0.5" stroke-linecap="square" /><line x1="20.0" x2="224.0" y1="103.11111111111111" y2="103.11111111111111" stroke="rgb(80%,80%,80%)" stroke-width="0.5" stroke-linecap="square" /><line x1="20.0" x2="224.0" y1="92.74074074074073" y2="92.74074074074073" stroke="rgb(80%,80%,80%)" stroke-width="0.5" stroke-linecap="square" /><line x1="20.0" x2="224.0" y1="82.37037037037037" y2="82.37037037037037" stroke="rgb(80%,80%,80%)" stroke-width="0.5" stroke-linecap="square" /><line x1="20.0" x2="224.0" y1="72.0" y2="72.0" stroke="rgb(80%,80%,80%)" stroke-width="0.5" stroke-linecap="square" /><line x1="20.0" x2="224.0" y1="61.62962962962963" y2="61.62962962962963" stroke="rgb(80%,80%,80%)" stroke-width="0.5" stroke-linecap="square" /><line x1="20.0" x2="224.0" y1="51.25925925925927" y2="51.25925925925927" stroke="rgb(80%,80%,80%)" stroke-width="0.5" stroke-linecap="square" /><line x1="20.0" x2="224.0" y1="40.888888888888886" y2="40.888888888888886" stroke="rgb(80%,80%,80%)" stroke-width="0.5" stroke-linecap="square" /><line x1="20.0" x2="224.0" y1="30.51851851851852" y2="30.51851851851852" stroke="rgb(80%,80%,80%)" stroke-width="0.5" stroke-linecap="square" /><line x1="20.0" x2="224.0" y1="20.148148148148152" y2="20.148148148148152" stroke="rgb(80%,80%,80%)" stroke-width="0.5" stroke-linecap="square" /></g><g><line x1="24.291510142749814" x2="24.291510142749814" y1="128.0" y2="16.0" stroke="rgb(50%,50%,50%)" stroke-width="0.5" stroke-linecap="square" /><line x1="20.0" x2="224.0" y1="72.0" y2="72.0" stroke="rgb(50%,50%,50%)" stroke-width="0.5" stroke-linecap="square" /></g><g><text x="24.291510142749814" y="128.0" stroke="none" fill="rgb(30%,30%,30%)" font-size="5" font-family="auto" text-anchor="middle" dx="0" dy="1em" transform="none" id="">0</text><text x="63.37490608564989" y="128.0" stroke="none" fill="rgb(30%,30%,30%)" font-size="5" font-family="auto" text-anchor="middle" dx="0" dy="1em" transform="none" id="">1</text><text x="102.45830202854997" y="128.0" stroke="none" fill="rgb(30%,30%,30%)" font-size="5" font-family="auto" text-anchor="middle" dx="0" dy="1em" transform="none" id="">2</text><text x="141.54169797145005" y="128.0" stroke="none" fill="rgb(30%,30%,30%)" font-size="5" font-family="auto" text-anchor="middle" dx="0" dy="1em" transform="none" id="">3</text><text x="180.62509391435012" y="128.0" stroke="none" fill="rgb(30%,30%,30%)" font-size="5" font-family="auto" text-anchor="middle" dx="0" dy="1em" transform="none" id="">4</text><text x="219.7084898572502" y="128.0" stroke="none" fill="rgb(30%,30%,30%)" font-size="5" font-family="auto" text-anchor="middle" dx="0" dy="1em" transform="none" id="">5</text><text x="19.5" y="123.85185185185185" stroke="none" fill="rgb(30%,30%,30%)" font-size="5" font-family="auto" text-anchor="end" dx="0" dy="0.5ex" transform="none" id="">-5</text><text x="19.5" y="113.48148148148148" stroke="none" fill="rgb(30%,30%,30%)" font-size="5" font-family="auto" text-anchor="end" dx="0" dy="0.5ex" transform="none" id="">-4</text><text x="19.5" y="103.11111111111111" stroke="none" fill="rgb(30%,30%,30%)" font-size="5" font-family="auto" text-anchor="end" dx="0" dy="0.5ex" transform="none" id="">-3</text><text x="19.5" y="92.74074074074073" stroke="none" fill="rgb(30%,30%,30%)" font-size="5" font-family="auto" text-anchor="end" dx="0" dy="0.5ex" transform="none" id="">-2</text><text x="19.5" y="82.37037037037037" stroke="none" fill="rgb(30%,30%,30%)" font-size="5" font-family="auto" text-anchor="end" dx="0" dy="0.5ex" transform="none" id="">-1</text><text x="19.5" y="72.0" stroke="none" fill="rgb(30%,30%,30%)" font-size="5" font-family="auto" text-anchor="end" dx="0" dy="0.5ex" transform="none" id="">0</text><text x="19.5" y="61.62962962962963" stroke="none" fill="rgb(30%,30%,30%)" font-size="5" font-family="auto" text-anchor="end" dx="0" dy="0.5ex" transform="none" id="">1</text><text x="19.5" y="51.25925925925927" stroke="none" fill="rgb(30%,30%,30%)" font-size="5" font-family="auto" text-anchor="end" dx="0" dy="0.5ex" transform="none" id="">2</text><text x="19.5" y="40.888888888888886" stroke="none" fill="rgb(30%,30%,30%)" font-size="5" font-family="auto" text-anchor="end" dx="0" dy="0.5ex" transform="none" id="">3</text><text x="19.5" y="30.51851851851852" stroke="none" fill="rgb(30%,30%,30%)" font-size="5" font-family="auto" text-anchor="end" dx="0" dy="0.5ex" transform="none" id="">4</text><text x="19.5" y="20.148148148148152" stroke="none" fill="rgb(30%,30%,30%)" font-size="5" font-family="auto" text-anchor="end" dx="0" dy="0.5ex" transform="none" id="">5</text></g><polygon points="24.291510142749814,69.92592592592592 63.37490608564989,59.55555555555554 63.37490608564989,63.70370370370371 24.291510142749814,74.07407407407408" stroke="none" stroke-width="1" fill="#003087" /><polygon points="63.37490608564989,59.55555555555554 102.45830202854997,49.18518518518519 102.45830202854997,53.33333333333334 63.37490608564989,63.70370370370371" stroke="none" stroke-width="1" fill="#003087" /><polygon points="102.45830202854997,49.18518518518519 141.54169797145005,38.81481481481481 141.54169797145005,42.962962962962976 102.45830202854997,53.33333333333334" stroke="none" stroke-width="1" fill="#003087" /><polygon points="141.54169797145005,38.81481481481481 180.62509391435012,28.444444444444443 180.62509391435012,32.59259259259261 141.54169797145005,42.962962962962976" stroke="none" stroke-width="1" fill="#003087" /><polygon points="180.62509391435012,28.444444444444443 219.7084898572502,38.81481481481481 219.7084898572502,42.962962962962976 180.62509391435012,32.59259259259261" stroke="none" stroke-width="1" fill="#003087" /><polygon points="24.291510142749814,69.92592592592592 63.37490608564989,80.2962962962963 63.37490608564989,81.48148148148148 24.291510142749814,71.11111111111111" stroke="none" stroke-width="1" fill="#008C95" /><polygon points="63.37490608564989,80.2962962962963 102.45830202854997,90.66666666666666 102.45830202854997,92.51028806584362 63.37490608564989,82.13991769547326" stroke="none" stroke-width="1" fill="#008C95" /><polygon points="102.45830202854997,90.66666666666666 141.54169797145005,101.03703703703704 141.54169797145005,102.88065843621399 102.45830202854997,92.51028806584362" stroke="none" stroke-width="1" fill="#008C95" /><polygon points="141.54169797145005,101.03703703703704 180.62509391435012,90.66666666666666 180.62509391435012,94.81481481481481 141.54169797145005,105.18518518518519" stroke="none" stroke-width="1" fill="#008C95" /><polygon points="180.62509391435012,90.66666666666666 219.7084898572502,101.03703703703704 219.7084898572502,105.18518518518519 180.62509391435012,94.81481481481481" stroke="none" stroke-width="1" fill="#008C95" /><polygon points="24.291510142749814,71.40740740740742 63.37490608564989,81.77777777777777 63.37490608564989,82.96296296296296 24.291510142749814,72.5925925925926" stroke="none" stroke-width="1" fill="#C8102E" /><polygon points="63.37490608564989,80.2962962962963 102.45830202854997,69.92592592592592 102.45830202854997,74.07407407407408 63.37490608564989,84.44444444444444" stroke="none" stroke-width="1" fill="#C8102E" /><polygon points="102.45830202854997,69.92592592592592 141.54169797145005,80.2962962962963 141.54169797145005,84.44444444444444 102.45830202854997,74.07407407407408" stroke="none" stroke-width="1" fill="#C8102E" /><polygon points="141.54169797145005,80.2962962962963 180.62509391435012,69.92592592592592 180.62509391435012,74.07407407407408 141.54169797145005,84.44444444444444" stroke="none" stroke-width="1" fill="#C8102E" /><polygon points="180.62509391435012,69.92592592592592 219.7084898572502,59.55555555555554 219.7084898572502,63.70370370370371 180.62509391435012,74.07407407407408" stroke="none" stroke-width="1" fill="#C8102E" /><polygon points="24.291510142749814,72.88888888888889 63.37490608564989,83.25925925925925 63.37490608564989,84.44444444444444 24.291510142749814,74.07407407407408" stroke="none" stroke-width="1" fill="#115740" /><polygon points="63.37490608564989,82.60082304526749 102.45830202854997,92.97119341563786 102.45830202854997,94.81481481481481 63.37490608564989,84.44444444444444" stroke="none" stroke-width="1" fill="#115740" /><polygon points="102.45830202854997,92.97119341563786 141.54169797145005,103.34156378600822 141.54169797145005,105.18518518518519 102.45830202854997,94.81481481481481" stroke="none" stroke-width="1" fill="#115740" /><polygon points="141.54169797145005,101.03703703703704 180.62509391435012,111.4074074074074 180.62509391435012,115.55555555555556 141.54169797145005,105.18518518518519" stroke="none" stroke-width="1" fill="#115740" /><polygon points="180.62509391435012,111.4074074074074 219.7084898572502,121.77777777777777 219.7084898572502,125.92592592592592 180.62509391435012,115.55555555555556" stroke="none" stroke-width="1" fill="#115740" /><g><path d="M 23.669288,70.548148A0.622222,0.622222 0 0 1 24.913732,70.548148L24.913732,73.451852A0.622222,0.622222 0 0 1 23.669288,73.451852Z" fill="rgb(30%,30%,30%)" /><rect x="23.66928792052759" y="71.9274074074074" width="1.2444444444444442" height="0.14518518518518517" stroke="none" stroke-width="1" fill="white" /></g><g><path d="M 62.752684,60.177778A0.622222,0.622222 0 0 1 63.997128,60.177778L63.997128,63.081481A0.622222,0.622222 0 0 1 62.752684,63.081481Z" fill="rgb(30%,30%,30%)" /><rect x="62.75268386342767" y="61.55703703703704" width="1.2444444444444442" height="0.14518518518518517" stroke="none" stroke-width="1" fill="white" /></g><g><path d="M 101.836080,49.807407A0.622222,0.622222 0 0 1 103.080524,49.807407L103.080524,52.711111A0.622222,0.622222 0 0 1 101.836080,52.711111Z" fill="rgb(30%,30%,30%)" /><rect x="101.83607980632775" y="51.186666666666675" width="1.2444444444444442" height="0.14518518518518517" stroke="none" stroke-width="1" fill="white" /></g><g><path d="M 140.919476,39.437037A0.622222,0.622222 0 0 1 142.163920,39.437037L142.163920,42.340741A0.622222,0.622222 0 0 1 140.919476,42.340741Z" fill="rgb(30%,30%,30%)" /><rect x="140.91947574922781" y="40.816296296296294" width="1.2444444444444442" height="0.14518518518518517" stroke="none" stroke-width="1" fill="white" /></g><g><path d="M 180.002872,29.066667A0.622222,0.622222 0 0 1 181.247316,29.066667L181.247316,31.970370A0.622222,0.622222 0 0 1 180.002872,31.970370Z" fill="rgb(30%,30%,30%)" /><rect x="180.00287169212788" y="30.445925925925927" width="1.2444444444444442" height="0.14518518518518517" stroke="none" stroke-width="1" fill="white" /></g><g><path d="M 219.086268,39.437037A0.622222,0.622222 0 0 1 220.330712,39.437037L220.330712,42.340741A0.622222,0.622222 0 0 1 219.086268,42.340741Z" fill="rgb(30%,30%,30%)" /><rect x="219.08626763502798" y="40.816296296296294" width="1.2444444444444442" height="0.14518518518518517" stroke="none" stroke-width="1" fill="white" /></g><g><path d="M 23.669288,70.548148A0.622222,0.622222 0 0 1 24.913732,70.548148L24.913732,73.451852A0.622222,0.622222 0 0 1 23.669288,73.451852Z" fill="rgb(30%,30%,30%)" /><rect x="23.66928792052759" y="71.9274074074074" width="1.2444444444444442" height="0.14518518518518517" stroke="none" stroke-width="1" fill="white" /></g><g><path d="M 62.752684,80.918519A0.622222,0.622222 0 0 1 63.997128,80.918519L63.997128,83.822222A0.622222,0.622222 0 0 1 62.752684,83.822222Z" fill="rgb(30%,30%,30%)" /><rect x="62.75268386342767" y="82.29777777777777" width="1.2444444444444442" height="0.14518518518518517" stroke="none" stroke-width="1" fill="white" /></g><g><path d="M 101.836080,91.288889A0.622222,0.622222 0 0 1 103.080524,91.288889L103.080524,94.192593A0.622222,0.622222 0 0 1 101.836080,94.192593Z" fill="rgb(30%,30%,30%)" /><rect x="101.83607980632775" y="92.66814814814813" width="1.2444444444444442" height="0.14518518518518517" stroke="none" stroke-width="1" fill="white" /></g><g><path d="M 140.919476,101.659259A0.622222,0.622222 0 0 1 142.163920,101.659259L142.163920,104.562963A0.622222,0.622222 0 0 1 140.919476,104.562963Z" fill="rgb(30%,30%,30%)" /><rect x="140.91947574922781" y="103.03851851851852" width="1.2444444444444442" height="0.14518518518518517" stroke="none" stroke-width="1" fill="white" /></g><g><path d="M 180.002872,91.288889A0.622222,0.622222 0 0 1 181.247316,91.288889L181.247316,94.192593A0.622222,0.622222 0 0 1 180.002872,94.192593Z" fill="rgb(30%,30%,30%)" /><rect x="180.00287169212788" y="92.66814814814813" width="1.2444444444444442" height="0.14518518518518517" stroke="none" stroke-width="1" fill="white" /></g><g><path d="M 219.086268,101.659259A0.622222,0.622222 0 0 1 220.330712,101.659259L220.330712,104.562963A0.622222,0.622222 0 0 1 219.086268,104.562963Z" fill="rgb(30%,30%,30%)" /><rect x="219.08626763502798" y="103.03851851851852" width="1.2444444444444442" height="0.14518518518518517" stroke="none" stroke-width="1" fill="white" /></g><g><path d="M 23.669288,70.548148A0.622222,0.622222 0 0 1 24.913732,70.548148L24.913732,73.451852A0.622222,0.622222 0 0 1 23.669288,73.451852Z" fill="rgb(30%,30%,30%)" /><rect x="23.66928792052759" y="71.9274074074074" width="1.2444444444444442" height="0.14518518518518517" stroke="none" stroke-width="1" fill="white" /></g><g><path d="M 62.752684,80.918519A0.622222,0.622222 0 0 1 63.997128,80.918519L63.997128,83.822222A0.622222,0.622222 0 0 1 62.752684,83.822222Z" fill="rgb(30%,30%,30%)" /><rect x="62.75268386342767" y="82.29777777777777" width="1.2444444444444442" height="0.14518518518518517" stroke="none" stroke-width="1" fill="white" /></g><g><path d="M 101.836080,70.548148A0.622222,0.622222 0 0 1 103.080524,70.548148L103.080524,73.451852A0.622222,0.622222 0 0 1 101.836080,73.451852Z" fill="rgb(30%,30%,30%)" /><rect x="101.83607980632775" y="71.9274074074074" width="1.2444444444444442" height="0.14518518518518517" stroke="none" stroke-width="1" fill="white" /></g><g><path d="M 140.919476,80.918519A0.622222,0.622222 0 0 1 142.163920,80.918519L142.163920,83.822222A0.622222,0.622222 0 0 1 140.919476,83.822222Z" fill="rgb(30%,30%,30%)" /><rect x="140.91947574922781" y="82.29777777777777" width="1.2444444444444442" height="0.14518518518518517" stroke="none" stroke-width="1" fill="white" /></g><g><path d="M 180.002872,70.548148A0.622222,0.622222 0 0 1 181.247316,70.548148L181.247316,73.451852A0.622222,0.622222 0 0 1 180.002872,73.451852Z" fill="rgb(30%,30%,30%)" /><rect x="180.00287169212788" y="71.9274074074074" width="1.2444444444444442" height="0.14518518518518517" stroke="none" stroke-width="1" fill="white" /></g><g><path d="M 219.086268,60.177778A0.622222,0.622222 0 0 1 220.330712,60.177778L220.330712,63.081481A0.622222,0.622222 0 0 1 219.086268,63.081481Z" fill="rgb(30%,30%,30%)" /><rect x="219.08626763502798" y="61.55703703703704" width="1.2444444444444442" height="0.14518518518518517" stroke="none" stroke-width="1" fill="white" /></g><g><path d="M 23.669288,70.548148A0.622222,0.622222 0 0 1 24.913732,70.548148L24.913732,73.451852A0.622222,0.622222 0 0 1 23.669288,73.451852Z" fill="rgb(30%,30%,30%)" /><rect x="23.66928792052759" y="71.9274074074074" width="1.2444444444444442" height="0.14518518518518517" stroke="none" stroke-width="1" fill="white" /></g><g><path d="M 62.752684,80.918519A0.622222,0.622222 0 0 1 63.997128,80.918519L63.997128,83.822222A0.622222,0.622222 0 0 1 62.752684,83.822222Z" fill="rgb(30%,30%,30%)" /><rect x="62.75268386342767" y="82.29777777777777" width="1.2444444444444442" height="0.14518518518518517" stroke="none" stroke-width="1" fill="white" /></g><g><path d="M 101.836080,91.288889A0.622222,0.622222 0 0 1 103.080524,91.288889L103.080524,94.192593A0.622222,0.622222 0 0 1 101.836080,94.192593Z" fill="rgb(30%,30%,30%)" /><rect x="101.83607980632775" y="92.66814814814813" width="1.2444444444444442" height="0.14518518518518517" stroke="none" stroke-width="1" fill="white" /></g><g><path d="M 140.919476,101.659259A0.622222,0.622222 0 0 1 142.163920,101.659259L142.163920,104.562963A0.622222,0.622222 0 0 1 140.919476,104.562963Z" fill="rgb(30%,30%,30%)" /><rect x="140.91947574922781" y="103.03851851851852" width="1.2444444444444442" height="0.14518518518518517" stroke="none" stroke-width="1" fill="white" /></g><g><path d="M 180.002872,112.029630A0.622222,0.622222 0 0 1 181.247316,112.029630L181.247316,114.933333A0.622222,0.622222 0 0 1 180.002872,114.933333Z" fill="rgb(30%,30%,30%)" /><rect x="180.00287169212788" y="113.40888888888888" width="1.2444444444444442" height="0.14518518518518517" stroke="none" stroke-width="1" fill="white" /></g><g><path d="M 219.086268,122.400000A0.622222,0.622222 0 0 1 220.330712,122.400000L220.330712,125.303704A0.622222,0.622222 0 0 1 219.086268,125.303704Z" fill="rgb(30%,30%,30%)" /><rect x="219.08626763502798" y="123.77925925925925" width="1.2444444444444442" height="0.14518518518518517" stroke="none" stroke-width="1" fill="white" /></g><image x="124.35266716754322" y="35.70370370370371" width="204" height="10.37037037037037" xlink:href="./../outputs/logos/nfl/BUF.png" href="./../outputs/logos/nfl/BUF.png" /><image x="124.35266716754322" y="97.92592592592592" width="204" height="10.37037037037037" xlink:href="./../outputs/logos/nfl/MIA.png" href="./../outputs/logos/nfl/MIA.png" /><image x="124.35266716754322" y="56.44444444444446" width="204" height="10.37037037037037" xlink:href="./../outputs/logos/nfl/NE.png" href="./../outputs/logos/nfl/NE.png" /><image x="124.35266716754322" y="118.66666666666666" width="204" height="10.37037037037037" xlink:href="./../outputs/logos/nfl/NYJ.png" href="./../outputs/logos/nfl/NYJ.png" /></g><text x="254.5" y="142" stroke="none" fill="black" font-size="3" font-family="auto" text-anchor="end" dx="0" dy="0" transform="none" id="">Graphic by Vivian (vbbcla)</text><text x="254.5" y="138" stroke="none" fill="black" font-size="3" font-family="auto" text-anchor="end" dx="0" dy="0" transform="none" id="">Note: Tiebreakers not visualized</text></svg>