<svg width="256" height="144" xmlns="http://www.w3.org/2000/svg" xmlns:xlink="http://www.w3.org/1999/xlink" version="2.0"><style>
* {
font-family: "Merriweather Sans";
font-weight: 300;
}
#title {
font-weight: normal
}
</style><rect x="0" y="0" width="256" height="144" stroke="none" stroke-width="1" fill="#ffeceb" /><text x="128" y="12" stroke="none" fill="black" font-size="8" font-family="auto" text-anchor="middle" dx="0" dy="0" transform="none" id="title">NFL Graphical Standings &#8211; Week 1, 2025 &#8211; AFC East</text><text x="8" y="72" stroke="none" fill="black" font-size="6" font-family="auto" text-anchor="middle" dx="0" dy="0" transform="rotate(-90,8,72)" id="">Wins above .500</text><text x="108.0" y="140" stroke="none" fill="black" font-size="6" font-family="auto" text-anchor="middle" dx="0" dy="0" transform="none" id="">Week</text><g><g><line x1="37.855072463768124" x2="37.855072463768124" y1="128.0" y2="16.0" stroke="rgb(90%,90%,90%)" stroke-width="0.5" stroke-linecap="square" /><line x1="178.14492753623188" x2="178.14492753623188" y1="128.0" y2="16.0" stroke="rgb(90%,90%,90%)" stroke-width="0.5" stroke-linecap="square" /><line x1="20.0" x2="196.0" y1="112.0" y2="112.0" stroke="rgb(90%,90%,90%)" stroke-width="0.5" stroke-linecap="square" /><line x1="20.0" x2="196.0" y1="72.0" y2="72.0" stroke="rgb(90%,90%,90%)" stroke-width="0.5" stroke-linecap="square" /><line x1="20.0" x2="196.0" y1="32.0" y2="32.0" stroke="rgb(90%,90%,90%)" stroke-width="0.5" stroke-linecap="square" /></g><g><line x1="37.855072463768124" x2="37.855072463768124" y1="128.0" y2="16.0" stroke="rgb(80%,80%,80%)" stroke-width="0.5" stroke-linecap="square" /><line x1="178.14492753623188" x2="178.14492753623188" y1="128.0" y2="16.0" stroke="rgb(80%,80%,80%)" stroke-width="0.5" stroke-linecap="square" /><line x1="20.0" x2="196.0" y1="112.0" y2="112.0" stroke="rgb(80%,80%,80%)" stroke-width="0.5" stroke-linecap="square" /><line x1="20.0" x2="196.0" y1="72.0" y2="72.0" stroke="rgb(80%,80%,80%)" stroke-width="0.5" stroke-linecap="square" /><line x1="20.0" x2="196.0" y1="32.0" y2="32.0" stroke="rgb(80%,80%,80%)" stroke-width="0.5" stroke-linecap="square" /></g><g><line x1="37.855072463768124" x2="37.855072463768124" y1="128.0" y2="16.0" stroke="rgb(50%,50%,50%)" stroke-width="0.5" stroke-linecap="square" /><line x1="20.0" x2="196.0" y1="72.0" y2="72.0" stroke="rgb(50%,50%,50%)" stroke-width="0.5" stroke-linecap="square" /></g><g><text x="37.855072463768124" y="128.0" stroke="none" fill="rgb(30%,30%,30%)" font-size="5" font-family="auto" text-anchor="middle" dx="0" dy="1em" transform="none" id="">0</text><text x="178.14492753623188" y="128.0" stroke="none" fill="rgb(30%,30%,30%)" font-size="5" font-family="auto" text-anchor="middle" dx="0" dy="1em" transform="none" id="">1</text><text x="20.0" y="112.0" stroke="none" fill="rgb(30%,30%,30%)" font-size="5" font-family="auto" text-anchor="end" dx="-0.5ex" dy="0.5ex" transform="none" id="">-1</text><text x="20.0" y="72.0" stroke="none" fill="rgb(30%,30%,30%)" font-size="5" font-family="auto" text-anchor="end" dx="-0.5ex" dy="0.5ex" transform="none" id="">0</text><text x="20.0" y="32.0" stroke="none" fill="rgb(30%,30%,30%)" font-size="5" font-family="auto" text-anchor="end" dx="-0.5ex" dy="0.5ex" transform="none" id="">1</text></g><polygon points="37.855072463768124,66.0 178.14492753623188,26.0 178.14492753623188,38.0 37.855072463768124,78.0" stroke="none" stroke-width="1" fill="#003087" /><polygon points="37.855072463768124,66.0 178.14492753623188,106.0 178.14492753623188,109.42857142857143 37.855072463768124,69.42857142857143" stroke="none" stroke-width="1" fill="#008C95" /><polygon points="37.855072463768124,70.28571428571428 178.14492753623188,110.28571428571428 178.14492753623188,113.71428571428572 37.855072463768124,73.71428571428572" stroke="none" stroke-width="1" fill="#C8102E" /><polygon points="37.855072463768124,74.57142857142857 178.14492753623188,114.57142857142857 178.14492753623188,118.0 37.855072463768124,78.0" stroke="none" stroke-width="1" fill="#115740" /><g><path d="M 36.055072,67.800000A1.800000,1.800000 0 0 1 39.655072,67.800000L39.655072,76.200000A1.800000,1.800000 0 0 1 36.055072,76.200000Z" fill="rgb(30%,30%,30%)" /><rect x="36.05507246376813" y="71.78999999999999" width="3.6" height="0.42000000000000004" stroke="none" stroke-width="1" fill="white" /></g><g><path d="M 176.344928,27.800000A1.800000,1.800000 0 0 1 179.944928,27.800000L179.944928,36.200000A1.800000,1.800000 0 0 1 176.344928,36.200000Z" fill="rgb(30%,30%,30%)" /><rect x="176.34492753623186" y="31.79" width="3.6" height="0.42000000000000004" stroke="none" stroke-width="1" fill="white" /></g><g><path d="M 36.055072,67.800000A1.800000,1.800000 0 0 1 39.655072,67.800000L39.655072,76.200000A1.800000,1.800000 0 0 1 36.055072,76.200000Z" fill="rgb(30%,30%,30%)" /><rect x="36.05507246376813" y="71.78999999999999" width="3.6" height="0.42000000000000004" stroke="none" stroke-width="1" fill="white" /></g><g><path d="M 176.344928,107.800000A1.800000,1.800000 0 0 1 179.944928,107.800000L179.944928,116.200000A1.800000,1.800000 0 0 1 176.344928,116.200000Z" fill="rgb(30%,30%,30%)" /><rect x="176.34492753623186" y="111.78999999999999" width="3.6" height="0.42000000000000004" stroke="none" stroke-width="1" fill="white" /></g><g><path d="M 36.055072,67.800000A1.800000,1.800000 0 0 1 39.655072,67.800000L39.655072,76.200000A1.800000,1.800000 0 0 1 36.055072,76.200000Z" fill="rgb(30%,30%,30%)" /><rect x="36.05507246376813" y="71.78999999999999" width="3.6" height="0.42000000000000004" stroke="none" stroke-width="1" fill="white" /></g><g><path d="M 176.344928,107.800000A1.800000,1.800000 0 0 1 179.944928,107.800000L179.944928,116.200000A1.800000,1.800000 0 0 1 176.344928,116.200000Z" fill="rgb(30%,30%,30%)" /><rect x="176.34492753623186" y="111.78999999999999" width="3.6" height="0.42000000000000004" stroke="none" stroke-width="1" fill="white" /></g><g><path d="M 36.055072,67.800000A1.800000,1.800000 0 0 1 39.655072,67.800000L39.655072,76.200000A1.800000,1.800000 0 0 1 36.055072,76.200000Z" fill="rgb(30%,30%,30%)" /><rect x="36.05507246376813" y="71.78999999999999" width="3.6" height="0.42000000000000004" stroke="none" stroke-width="1" fill="white" /></g><g><path d="M 176.344928,107.800000A1.800000,1.800000 0 0 1 179.944928,107.800000L179.944928,116.200000A1.800000,1.800000 0 0 1 176.344928,116.200000Z" fill="rgb(30%,30%,30%)" /><rect x="176.34492753623186" y="111.78999999999999" width="3.6" height="0.42000000000000004" stroke="none" stroke-width="1" fill="white" /></g><image x="164.11594202898553" y="24.000000000000014" width="56.115942028985515" height="16.000000000000004" xlink:href="./../outputs/logos/nfl/BUF.png" href="./../outputs/logos/nfl/BUF.png" /><image x="164.11594202898553" y="104.0" width="56.115942028985515" height="16.000000000000004" xlink:href="./../outputs/logos/nfl/MIA.png" href="./../outputs/logos/nfl/MIA.png" /><image x="180.9507246376812" y="104.0" width="56.115942028985515" height="16.000000000000004" xlink:href="./../outputs/logos/nfl/NE.png" href="./../outputs/logos/nfl/NE.png" /><image x="197.78550724637682" y="104.0" width="56.115942028985515" height="16.000000000000004" xlink:href="./../outputs/logos/nfl/NYJ.png" href="./../outputs/logos/nfl/NYJ.png" /></g><text x="254.5" y="142" stroke="none" fill="black" font-size="4" font-family="auto" text-anchor="end" dx="0" dy="0" transform="none" id="">Graphic by Vivian (vbbcla)</text></svg>