<svg width="256" height="144" xmlns="http://www.w3.org/2000/svg" xmlns:xlink="http://www.w3.org/1999/xlink" version="2.0"><style>
* {
font-family: "Merriweather Sans";
font-weight: 300;
}
#title {
font-weight: normal
}
</style><rect x="0" y="0" width="256" height="144" stroke="none" stroke-width="1" fill="#ffeceb" /><text x="128" y="12" stroke="none" fill="black" font-size="8" font-family="auto" text-anchor="middle" dx="0" dy="0" transform="none" id="title">NFL Graphical Standings &#8211; Week 5, 2025 &#8211; NFC North</text><text x="8" y="72" stroke="none" fill="black" font-size="6" font-family="auto" text-anchor="middle" dx="0" dy="0" transform="rotate(-90,8,72)" id="">Wins above .500</text><text x="122.0" y="140" stroke="none" fill="black" font-size="6" font-family="auto" text-anchor="middle" dx="0" dy="0" transform="none" id="">Week</text><g><g><line x1="24.291510142749814" x2="24.291510142749814" y1="128.0" y2="16.0" stroke="rgb(90%,90%,90%)" stroke-width="0.5" stroke-linecap="square" /><line x1="63.37490608564989" x2="63.37490608564989" y1="128.0" y2="16.0" stroke="rgb(90%,90%,90%)" stroke-width="0.5" stroke-linecap="square" /><line x1="102.45830202854997" x2="102.45830202854997" y1="128.0" y2="16.0" stroke="rgb(90%,90%,90%)" stroke-width="0.5" stroke-linecap="square" /><line x1="141.54169797145005" x2="141.54169797145005" y1="128.0" y2="16.0" stroke="rgb(90%,90%,90%)" stroke-width="0.5" stroke-linecap="square" /><line x1="180.62509391435012" x2="180.62509391435012" y1="128.0" y2="16.0" stroke="rgb(90%,90%,90%)" stroke-width="0.5" stroke-linecap="square" /><line x1="219.7084898572502" x2="219.7084898572502" y1="128.0" y2="16.0" stroke="rgb(90%,90%,90%)" stroke-width="0.5" stroke-linecap="square" /><line x1="20.0" x2="224.0" y1="123.85185185185185" y2="123.85185185185185" stroke="rgb(90%,90%,90%)" stroke-width="0.5" stroke-linecap="square" /><line x1="20.0" x2="224.0" y1="113.48148148148148" y2="113.48148148148148" stroke="rgb(90%,90%,90%)" stroke-width="0.5" stroke-linecap="square" /><line x1="20.0" x2="224.0" y1="103.11111111111111" y2="103.11111111111111" stroke="rgb(90%,90%,90%)" stroke-width="0.5" stroke-linecap="square" /><line x1="20.0" x2="224.0" y1="92.74074074074073" y2="92.74074074074073" stroke="rgb(90%,90%,90%)" stroke-width="0.5" stroke-linecap="square" /><line x1="20.0" x2="224.0" y1="82.37037037037037" y2="82.37037037037037" stroke="rgb(90%,90%,90%)" stroke-width="0.5" stroke-linecap="square" /><line x1="20.0" x2="224.0" y1="72.0" y2="72.0" stroke="rgb(90%,90%,90%)" stroke-width="0.5" stroke-linecap="square" /><line x1="20.0" x2="224.0" y1="61.62962962962963" y2="61.62962962962963" stroke="rgb(90%,90%,90%)" stroke-width="0.5" stroke-linecap="square" /><line x1="20.0" x2="224.0" y1="51.25925925925927" y2="51.25925925925927" stroke="rgb(90%,90%,90%)" stroke-width="0.5" stroke-linecap="square" /><line x1="20.0" x2="224.0" y1="40.888888888888886" y2="40.888888888888886" stroke="rgb(90%,90%,90%)" stroke-width="0.5" stroke-linecap="square" /><line x1="20.0" x2="224.0" y1="30.51851851851852" y2="30.51851851851852" stroke="rgb(90%,90%,90%)" stroke-width="0.5" stroke-linecap="square" /><line x1="20.0" x2="224.0" y1="20.148148148148152" y2="20.148148148148152" stroke="rgb(90%,90%,90%)" stroke-width="0.5" stroke-linecap="square" /></g><g><line x1="24.291510142749814" x2="24.291510142749814" y1="128.0" y2="16.0" stroke="rgb(80%,80%,80%)" stroke-width="0.5" stroke-linecap="square" /><line x1="63.37490608564989" x2="63.37490608564989" y1="128.0" y2="16.0" stroke="rgb(80%,80%,80%)" stroke-width="0.5" stroke-linecap="square" /><line x1="102.45830202854997" x2="102.45830202854997" y1="128.0" y2="16.0" stroke="rgb(80%,80%,80%)" stroke-width="0.5" stroke-linecap="square" /><line x1="141.54169797145005" x2="141.54169797145005" y1="128.0" y2="16.0" stroke="rgb(80%,80%,80%)" stroke-width="0.5" stroke-linecap="square" /><line x1="180.62509391435012" x2="180.62509391435012" y1="128.0" y2="16.0" stroke="rgb(80%,80%,80%)" stroke-width="0.5" stroke-linecap="square" /><line x1="219.7084898572502" x2="219.7084898572502" y1="128.0" y2="16.0" stroke="rgb(80%,80%,80%)" stroke-width="0.5" stroke-linecap="square" /><line x1="20.0" x2="224.0" y1="123.85185185185185" y2="123.85185185185185" stroke="rgb(80%,80%,80%)" stroke-width="0.5" stroke-linecap="square" /><line x1="20.0" x2="224.0" y1="113.48148148148148" y2="113.48148148148148" stroke="rgb(80%,80%,80%)" stroke-width="0.5" stroke-linecap="square" /><line x1="20.0" x2="224.0" y1="103.11111111111111" y2="103.11111111111111" stroke="rgb(80%,80%,80%)" stroke-width="0.5" stroke-linecap="square" /><line x1="20.0" x2="224.0" y1="92.74074074074073" y2="92.74074074074073" stroke="rgb(80%,80%,80%)" stroke-width="0.5" stroke-linecap="square" /><line x1="20.0" x2="224.0" y1="82.37037037037037" y2="82.37037037037037" stroke="rgb(80%,80%,80%)" stroke-width="0.5" stroke-linecap="square" /><line x1="20.0" x2="224.0" y1="72.0" y2="72.0" stroke="rgb(80%,80%,80%)" stroke-width="0.5" stroke-linecap="square" /><line x1="20.0" x2="224.0" y1="61.62962962962963" y2="61.62962962962963" stroke="rgb(80%,80%,80%)" stroke-width="0.5" stroke-linecap="square" /><line x1="20.0" x2="224.0" y1="51.25925925925927" y2="51.25925925925927" stroke="rgb(80%,80%,80%)" stroke-width="0.5" stroke-linecap="square" /><line x1="20.0" x2="224.0" y1="40.888888888888886" y2="40.888888888888886" stroke="rgb(80%,80%,80%)" stroke-width="0.5" stroke-linecap="square" /><line x1="20.0" x2="224.0" y1="30.51851851851852" y2="30.51851851851852" stroke="rgb(80%,80%,80%)" stroke-width="0.5" stroke-linecap="square" /><line x1="20.0" x2="224.0" y1="20.148148148148152" y2="20.148148148148152" stroke="rgb(80%,80%,80%)" stroke-width="0.5" stroke-linecap="square" /></g><g><line x1="24.291510142749814" x2="24.291510142749814" y1="128.0" y2="16.0" stroke="rgb(50%,50%,50%)" stroke-width="0.5" stroke-linecap="square" /><line x1="20.0" x2="224.0" y1="72.0" y2="72.0" stroke="rgb(50%,50%,50%)" stroke-width="0.5" stroke-linecap="square" /></g><g><text x="24.291510142749814" y="128.0" stroke="none" fill="rgb(30%,30%,30%)" font-size="5" font-family="auto" text-anchor="middle" dx="0" dy="1em" transform="none" id="">0</text><text x="63.37490608564989" y="128.0" stroke="none" fill="rgb(30%,30%,30%)" font-size="5" font-family="auto" text-anchor="middle" dx="0" dy="1em" transform="none" id="">1</text><text x="102.45830202854997" y="128.0" stroke="none" fill="rgb(30%,30%,30%)" font-size="5" font-family="auto" text-anchor="middle" dx="0" dy="1em" transform="none" id="">2</text><text x="141.54169797145005" y="128.0" stroke="none" fill="rgb(30%,30%,30%)" font-size="5" font-family="auto" text-anchor="middle" dx="0" dy="1em" transform="none" id="">3</text><text x="180.62509391435012" y="128.0" stroke="none" fill="rgb(30%,30%,30%)" font-size="5" font-family="auto" text-anchor="middle" dx="0" dy="1em" transform="none" id="">4</text><text x="219.7084898572502" y="128.0" stroke="none" fill="rgb(30%,30%,30%)" font-size="5" font-family="auto" text-anchor="middle" dx="0" dy="1em" transform="none" id="">5</text><text x="19.5" y="123.85185185185185" stroke="none" fill="rgb(30%,30%,30%)" font-size="5" font-family="auto" text-anchor="end" dx="0" dy="0.5ex" transform="none" id="">-5</text><text x="19.5" y="113.48148148148148" stroke="none" fill="rgb(30%,30%,30%)" font-size="5" font-family="auto" text-anchor="end" dx="0" dy="0.5ex" transform="none" id="">-4</text><text x="19.5" y="103.11111111111111" stroke="none" fill="rgb(30%,30%,30%)" font-size="5" font-family="auto" text-anchor="end" dx="0" dy="0.5ex" transform="none" id="">-3</text><text x="19.5" y="92.74074074074073" stroke="none" fill="rgb(30%,30%,30%)" font-size="5" font-family="auto" text-anchor="end" dx="0" dy="0.5ex" transform="none" id="">-2</text><text x="19.5" y="82.37037037037037" stroke="none" fill="rgb(30%,30%,30%)" font-size="5" font-family="auto" text-anchor="end" dx="0" dy="0.5ex" transform="none" id="">-1</text><text x="19.5" y="72.0" stroke="none" fill="rgb(30%,30%,30%)" font-size="5" font-family="auto" text-anchor="end" dx="0" dy="0.5ex" transform="none" id="">0</text><text x="19.5" y="61.62962962962963" stroke="none" fill="rgb(30%,30%,30%)" font-size="5" font-family="auto" text-anchor="end" dx="0" dy="0.5ex" transform="none" id="">1</text><text x="19.5" y="51.25925925925927" stroke="none" fill="rgb(30%,30%,30%)" font-size="5" font-family="auto" text-anchor="end" dx="0" dy="0.5ex" transform="none" id="">2</text><text x="19.5" y="40.888888888888886" stroke="none" fill="rgb(30%,30%,30%)" font-size="5" font-family="auto" text-anchor="end" dx="0" dy="0.5ex" transform="none" id="">3</text><text x="19.5" y="30.51851851851852" stroke="none" fill="rgb(30%,30%,30%)" font-size="5" font-family="auto" text-anchor="end" dx="0" dy="0.5ex" transform="none" id="">4</text><text x="19.5" y="20.148148148148152" stroke="none" fill="rgb(30%,30%,30%)" font-size="5" font-family="auto" text-anchor="end" dx="0" dy="0.5ex" transform="none" id="">5</text></g><polygon points="24.291510142749814,69.92592592592592 63.37490608564989,80.2962962962963 63.37490608564989,82.13991769547326 24.291510142749814,71.76954732510288" stroke="none" stroke-width="1" fill="#DC4405" /><polygon points="63.37490608564989,80.2962962962963 102.45830202854997,90.66666666666666 102.45830202854997,94.81481481481481 63.37490608564989,84.44444444444444" stroke="none" stroke-width="1" fill="#DC4405" /><polygon points="102.45830202854997,90.66666666666666 141.54169797145005,80.2962962962963 141.54169797145005,84.44444444444444 102.45830202854997,94.81481481481481" stroke="none" stroke-width="1" fill="#DC4405" /><polygon points="141.54169797145005,80.2962962962963 180.62509391435012,69.92592592592592 180.62509391435012,74.07407407407408 141.54169797145005,84.44444444444444" stroke="none" stroke-width="1" fill="#DC4405" /><polygon points="180.62509391435012,69.92592592592592 186.2084361919073,69.92592592592592 186.2084361919073,74.07407407407408 180.62509391435012,74.07407407407408" stroke="none" stroke-width="1" fill="#DC4405" /><polygon points="189.00010733068586,69.92592592592592 194.583449608243,69.92592592592592 194.583449608243,74.07407407407408 189.00010733068586,74.07407407407408" stroke="none" stroke-width="1" fill="#DC4405" /><polygon points="197.37512074702158,69.92592592592592 202.95846302457872,69.92592592592592 202.95846302457872,74.07407407407408 197.37512074702158,74.07407407407408" stroke="none" stroke-width="1" fill="#DC4405" /><polygon points="205.75013416335733,69.92592592592592 211.33347644091447,69.92592592592592 211.33347644091447,74.07407407407408 205.75013416335733,74.07407407407408" stroke="none" stroke-width="1" fill="#DC4405" /><polygon points="214.12514757969305,69.92592592592592 219.7084898572502,69.92592592592592 219.7084898572502,74.07407407407408 214.12514757969305,74.07407407407408" stroke="none" stroke-width="1" fill="#DC4405" /><polygon points="24.291510142749814,72.23045267489712 63.37490608564989,82.60082304526749 63.37490608564989,84.44444444444444 24.291510142749814,74.07407407407408" stroke="none" stroke-width="1" fill="#0069B1" /><polygon points="63.37490608564989,80.2962962962963 102.45830202854997,69.92592592592592 102.45830202854997,74.07407407407408 63.37490608564989,84.44444444444444" stroke="none" stroke-width="1" fill="#0069B1" /><polygon points="102.45830202854997,69.92592592592592 141.54169797145005,59.55555555555554 141.54169797145005,61.39917695473251 102.45830202854997,71.76954732510288" stroke="none" stroke-width="1" fill="#0069B1" /><polygon points="141.54169797145005,59.55555555555554 180.62509391435012,49.18518518518519 180.62509391435012,53.33333333333334 141.54169797145005,63.70370370370371" stroke="none" stroke-width="1" fill="#0069B1" /><polygon points="180.62509391435012,49.18518518518519 219.7084898572502,38.81481481481481 219.7084898572502,42.962962962962976 180.62509391435012,53.33333333333334" stroke="none" stroke-width="1" fill="#0069B1" /><polygon points="24.291510142749814,69.92592592592592 63.37490608564989,59.55555555555554 63.37490608564989,61.39917695473251 24.291510142749814,71.76954732510288" stroke="none" stroke-width="1" fill="#387362" /><polygon points="63.37490608564989,59.55555555555554 102.45830202854997,49.18518518518519 102.45830202854997,53.33333333333334 63.37490608564989,63.70370370370371" stroke="none" stroke-width="1" fill="#387362" /><polygon points="102.45830202854997,49.18518518518519 141.54169797145005,59.55555555555554 141.54169797145005,63.70370370370371 102.45830202854997,53.33333333333334" stroke="none" stroke-width="1" fill="#387362" /><polygon points="141.54169797145005,59.55555555555554 180.62509391435012,59.55555555555554 180.62509391435012,63.70370370370371 141.54169797145005,63.70370370370371" stroke="none" stroke-width="1" fill="#387362" /><polygon points="180.62509391435012,59.55555555555554 186.2084361919073,59.55555555555554 186.2084361919073,63.70370370370371 180.62509391435012,63.70370370370371" stroke="none" stroke-width="1" fill="#387362" /><polygon points="189.00010733068586,59.55555555555554 194.583449608243,59.55555555555554 194.583449608243,63.70370370370371 189.00010733068586,63.70370370370371" stroke="none" stroke-width="1" fill="#387362" /><polygon points="197.37512074702158,59.55555555555554 202.95846302457872,59.55555555555554 202.95846302457872,63.70370370370371 197.37512074702158,63.70370370370371" stroke="none" stroke-width="1" fill="#387362" /><polygon points="205.75013416335733,59.55555555555554 211.33347644091447,59.55555555555554 211.33347644091447,63.70370370370371 205.75013416335733,63.70370370370371" stroke="none" stroke-width="1" fill="#387362" /><polygon points="214.12514757969305,59.55555555555554 219.7084898572502,59.55555555555554 219.7084898572502,63.70370370370371 214.12514757969305,63.70370370370371" stroke="none" stroke-width="1" fill="#387362" /><polygon points="24.291510142749814,72.23045267489712 63.37490608564989,61.86008230452674 63.37490608564989,63.70370370370371 24.291510142749814,74.07407407407408" stroke="none" stroke-width="1" fill="#582C83" /><polygon points="63.37490608564989,59.55555555555554 102.45830202854997,69.92592592592592 102.45830202854997,74.07407407407408 63.37490608564989,63.70370370370371" stroke="none" stroke-width="1" fill="#582C83" /><polygon points="102.45830202854997,72.23045267489712 141.54169797145005,61.86008230452674 141.54169797145005,63.70370370370371 102.45830202854997,74.07407407407408" stroke="none" stroke-width="1" fill="#582C83" /><polygon points="141.54169797145005,59.55555555555554 180.62509391435012,69.92592592592592 180.62509391435012,74.07407407407408 141.54169797145005,63.70370370370371" stroke="none" stroke-width="1" fill="#582C83" /><polygon points="180.62509391435012,69.92592592592592 219.7084898572502,59.55555555555554 219.7084898572502,63.70370370370371 180.62509391435012,74.07407407407408" stroke="none" stroke-width="1" fill="#582C83" /><g><path d="M 23.669288,70.548148A0.622222,0.622222 0 0 1 24.913732,70.548148L24.913732,73.451852A0.622222,0.622222 0 0 1 23.669288,73.451852Z" fill="rgb(30%,30%,30%)" /><rect x="23.66928792052759" y="71.9274074074074" width="1.2444444444444442" height="0.14518518518518517" stroke="none" stroke-width="1" fill="white" /></g><g><path d="M 62.752684,80.918519A0.622222,0.622222 0 0 1 63.997128,80.918519L63.997128,83.822222A0.622222,0.622222 0 0 1 62.752684,83.822222Z" fill="rgb(30%,30%,30%)" /><rect x="62.75268386342767" y="82.29777777777777" width="1.2444444444444442" height="0.14518518518518517" stroke="none" stroke-width="1" fill="white" /></g><g><path d="M 101.836080,91.288889A0.622222,0.622222 0 0 1 103.080524,91.288889L103.080524,94.192593A0.622222,0.622222 0 0 1 101.836080,94.192593Z" fill="rgb(30%,30%,30%)" /><rect x="101.83607980632775" y="92.66814814814813" width="1.2444444444444442" height="0.14518518518518517" stroke="none" stroke-width="1" fill="white" /></g><g><path d="M 140.919476,80.918519A0.622222,0.622222 0 0 1 142.163920,80.918519L142.163920,83.822222A0.622222,0.622222 0 0 1 140.919476,83.822222Z" fill="rgb(30%,30%,30%)" /><rect x="140.91947574922781" y="82.29777777777777" width="1.2444444444444442" height="0.14518518518518517" stroke="none" stroke-width="1" fill="white" /></g><g><path d="M 180.002872,70.548148A0.622222,0.622222 0 0 1 181.247316,70.548148L181.247316,73.451852A0.622222,0.622222 0 0 1 180.002872,73.451852Z" fill="rgb(30%,30%,30%)" /><rect x="180.00287169212788" y="71.9274074074074" width="1.2444444444444442" height="0.14518518518518517" stroke="none" stroke-width="1" fill="white" /></g><g><path d="M 219.086268,70.548148A0.622222,0.622222 0 0 1 220.330712,70.548148L220.330712,73.451852A0.622222,0.622222 0 0 1 219.086268,73.451852Z" fill="rgb(30%,30%,30%)" /><rect x="219.08626763502798" y="71.9274074074074" width="1.2444444444444442" height="0.14518518518518517" stroke="none" stroke-width="1" fill="white" /></g><g><path d="M 23.669288,70.548148A0.622222,0.622222 0 0 1 24.913732,70.548148L24.913732,73.451852A0.622222,0.622222 0 0 1 23.669288,73.451852Z" fill="rgb(30%,30%,30%)" /><rect x="23.66928792052759" y="71.9274074074074" width="1.2444444444444442" height="0.14518518518518517" stroke="none" stroke-width="1" fill="white" /></g><g><path d="M 62.752684,80.918519A0.622222,0.622222 0 0 1 63.997128,80.918519L63.997128,83.822222A0.622222,0.622222 0 0 1 62.752684,83.822222Z" fill="rgb(30%,30%,30%)" /><rect x="62.75268386342767" y="82.29777777777777" width="1.2444444444444442" height="0.14518518518518517" stroke="none" stroke-width="1" fill="white" /></g><g><path d="M 101.836080,70.548148A0.622222,0.622222 0 0 1 103.080524,70.548148L103.080524,73.451852A0.622222,0.622222 0 0 1 101.836080,73.451852Z" fill="rgb(30%,30%,30%)" /><rect x="101.83607980632775" y="71.9274074074074" width="1.2444444444444442" height="0.14518518518518517" stroke="none" stroke-width="1" fill="white" /></g><g><path d="M 140.919476,60.177778A0.622222,0.622222 0 0 1 142.163920,60.177778L142.163920,63.081481A0.622222,0.622222 0 0 1 140.919476,63.081481Z" fill="rgb(30%,30%,30%)" /><rect x="140.91947574922781" y="61.55703703703704" width="1.2444444444444442" height="0.14518518518518517" stroke="none" stroke-width="1" fill="white" /></g><g><path d="M 180.002872,49.807407A0.622222,0.622222 0 0 1 181.247316,49.807407L181.247316,52.711111A0.622222,0.622222 0 0 1 180.002872,52.711111Z" fill="rgb(30%,30%,30%)" /><rect x="180.00287169212788" y="51.186666666666675" width="1.2444444444444442" height="0.14518518518518517" stroke="none" stroke-width="1" fill="white" /></g><g><path d="M 219.086268,39.437037A0.622222,0.622222 0 0 1 220.330712,39.437037L220.330712,42.340741A0.622222,0.622222 0 0 1 219.086268,42.340741Z" fill="rgb(30%,30%,30%)" /><rect x="219.08626763502798" y="40.816296296296294" width="1.2444444444444442" height="0.14518518518518517" stroke="none" stroke-width="1" fill="white" /></g><g><path d="M 23.669288,70.548148A0.622222,0.622222 0 0 1 24.913732,70.548148L24.913732,73.451852A0.622222,0.622222 0 0 1 23.669288,73.451852Z" fill="rgb(30%,30%,30%)" /><rect x="23.66928792052759" y="71.9274074074074" width="1.2444444444444442" height="0.14518518518518517" stroke="none" stroke-width="1" fill="white" /></g><g><path d="M 62.752684,60.177778A0.622222,0.622222 0 0 1 63.997128,60.177778L63.997128,63.081481A0.622222,0.622222 0 0 1 62.752684,63.081481Z" fill="rgb(30%,30%,30%)" /><rect x="62.75268386342767" y="61.55703703703704" width="1.2444444444444442" height="0.14518518518518517" stroke="none" stroke-width="1" fill="white" /></g><g><path d="M 101.836080,49.807407A0.622222,0.622222 0 0 1 103.080524,49.807407L103.080524,52.711111A0.622222,0.622222 0 0 1 101.836080,52.711111Z" fill="rgb(30%,30%,30%)" /><rect x="101.83607980632775" y="51.186666666666675" width="1.2444444444444442" height="0.14518518518518517" stroke="none" stroke-width="1" fill="white" /></g><g><path d="M 140.919476,60.177778A0.622222,0.622222 0 0 1 142.163920,60.177778L142.163920,63.081481A0.622222,0.622222 0 0 1 140.919476,63.081481Z" fill="rgb(30%,30%,30%)" /><rect x="140.91947574922781" y="61.55703703703704" width="1.2444444444444442" height="0.14518518518518517" stroke="none" stroke-width="1" fill="white" /></g><g><path d="M 180.002872,60.177778A0.622222,0.622222 0 0 1 181.247316,60.177778L181.247316,63.081481A0.622222,0.622222 0 0 1 180.002872,63.081481Z" fill="rgb(30%,30%,30%)" /><rect x="180.00287169212788" y="61.55703703703704" width="1.2444444444444442" height="0.14518518518518517" stroke="none" stroke-width="1" fill="white" /></g><g><path d="M 219.086268,60.177778A0.622222,0.622222 0 0 1 220.330712,60.177778L220.330712,63.081481A0.622222,0.622222 0 0 1 219.086268,63.081481Z" fill="rgb(30%,30%,30%)" /><rect x="219.08626763502798" y="61.55703703703704" width="1.2444444444444442" height="0.14518518518518517" stroke="none" stroke-width="1" fill="white" /></g><g><path d="M 23.669288,70.548148A0.622222,0.622222 0 0 1 24.913732,70.548148L24.913732,73.451852A0.622222,0.622222 0 0 1 23.669288,73.451852Z" fill="rgb(30%,30%,30%)" /><rect x="23.66928792052759" y="71.9274074074074" width="1.2444444444444442" height="0.14518518518518517" stroke="none" stroke-width="1" fill="white" /></g><g><path d="M 62.752684,60.177778A0.622222,0.622222 0 0 1 63.997128,60.177778L63.997128,63.081481A0.622222,0.622222 0 0 1 62.752684,63.081481Z" fill="rgb(30%,30%,30%)" /><rect x="62.75268386342767" y="61.55703703703704" width="1.2444444444444442" height="0.14518518518518517" stroke="none" stroke-width="1" fill="white" /></g><g><path d="M 101.836080,70.548148A0.622222,0.622222 0 0 1 103.080524,70.548148L103.080524,73.451852A0.622222,0.622222 0 0 1 101.836080,73.451852Z" fill="rgb(30%,30%,30%)" /><rect x="101.83607980632775" y="71.9274074074074" width="1.2444444444444442" height="0.14518518518518517" stroke="none" stroke-width="1" fill="white" /></g><g><path d="M 140.919476,60.177778A0.622222,0.622222 0 0 1 142.163920,60.177778L142.163920,63.081481A0.622222,0.622222 0 0 1 140.919476,63.081481Z" fill="rgb(30%,30%,30%)" /><rect x="140.91947574922781" y="61.55703703703704" width="1.2444444444444442" height="0.14518518518518517" stroke="none" stroke-width="1" fill="white" /></g><g><path d="M 180.002872,70.548148A0.622222,0.622222 0 0 1 181.247316,70.548148L181.247316,73.451852A0.622222,0.622222 0 0 1 180.002872,73.451852Z" fill="rgb(30%,30%,30%)" /><rect x="180.00287169212788" y="71.9274074074074" width="1.2444444444444442" height="0.14518518518518517" stroke="none" stroke-width="1" fill="white" /></g><g><path d="M 219.086268,60.177778A0.622222,0.622222 0 0 1 220.330712,60.177778L220.330712,63.081481A0.622222,0.622222 0 0 1 219.086268,63.081481Z" fill="rgb(30%,30%,30%)" /><rect x="219.08626763502798" y="61.55703703703704" width="1.2444444444444442" height="0.14518518518518517" stroke="none" stroke-width="1" fill="white" /></g><image x="124.35266716754322" y="66.81481481481481" width="204" height="10.37037037037037" xlink:href="./../outputs/logos/nfl/CHI.png" href="./../outputs/logos/nfl/CHI.png" /><image x="124.35266716754322" y="35.70370370370371" width="204" height="10.37037037037037" xlink:href="./../outputs/logos/nfl/DET.png" href="./../outputs/logos/nfl/DET.png" /><image x="124.35266716754322" y="56.44444444444446" width="204" height="10.37037037037037" xlink:href="./../outputs/logos/nfl/GB.png" href="./../outputs/logos/nfl/GB.png" /><image x="132.16934635612324" y="56.44444444444446" width="204" height="10.37037037037037" xlink:href="./../outputs/logos/nfl/MIN.png" href="./../outputs/logos/nfl/MIN.png" /></g><text x="254.5" y="142" stroke="none" fill="black" font-size="3" font-family="auto" text-anchor="end" dx="0" dy="0" transform="none" id="">Graphic by Vivian (vbbcla)</text><text x="254.5" y="138" stroke="none" fill="black" font-size="3" font-family="auto" text-anchor="end" dx="0" dy="0" transform="none" id="">Note: Tiebreakers not visualized</text></svg>