<svg width="256" height="144" xmlns="http://www.w3.org/2000/svg" xmlns:xlink="http://www.w3.org/1999/xlink" version="2.0"><style>
* {
font-family: "Merriweather Sans";
font-weight: 300;
}
#title {
font-weight: normal
}
</style><rect x="0" y="0" width="256" height="144" stroke="none" stroke-width="1" fill="#ffeceb" /><text x="128" y="12" stroke="none" fill="black" font-size="8" font-family="auto" text-anchor="middle" dx="0" dy="0" transform="none" id="title">NFL Graphical Standings &#8211; Week 5, 2025 &#8211; AFC West</text><text x="8" y="72" stroke="none" fill="black" font-size="6" font-family="auto" text-anchor="middle" dx="0" dy="0" transform="rotate(-90,8,72)" id="">Wins above .500</text><text x="126.0" y="140" stroke="none" fill="black" font-size="6" font-family="auto" text-anchor="middle" dx="0" dy="0" transform="none" id="">Week</text><g><g><line x1="24.298334540188268" x2="24.298334540188268" y1="128.0" y2="16.0" stroke="rgb(90%,90%,90%)" stroke-width="0.5" stroke-linecap="square" /><line x1="64.97900072411295" x2="64.97900072411295" y1="128.0" y2="16.0" stroke="rgb(90%,90%,90%)" stroke-width="0.5" stroke-linecap="square" /><line x1="105.65966690803766" x2="105.65966690803766" y1="128.0" y2="16.0" stroke="rgb(90%,90%,90%)" stroke-width="0.5" stroke-linecap="square" /><line x1="146.34033309196235" x2="146.34033309196235" y1="128.0" y2="16.0" stroke="rgb(90%,90%,90%)" stroke-width="0.5" stroke-linecap="square" /><line x1="187.02099927588705" x2="187.02099927588705" y1="128.0" y2="16.0" stroke="rgb(90%,90%,90%)" stroke-width="0.5" stroke-linecap="square" /><line x1="227.70166545981175" x2="227.70166545981175" y1="128.0" y2="16.0" stroke="rgb(90%,90%,90%)" stroke-width="0.5" stroke-linecap="square" /><line x1="20.0" x2="232.0" y1="123.85185185185185" y2="123.85185185185185" stroke="rgb(90%,90%,90%)" stroke-width="0.5" stroke-linecap="square" /><line x1="20.0" x2="232.0" y1="113.48148148148148" y2="113.48148148148148" stroke="rgb(90%,90%,90%)" stroke-width="0.5" stroke-linecap="square" /><line x1="20.0" x2="232.0" y1="103.11111111111111" y2="103.11111111111111" stroke="rgb(90%,90%,90%)" stroke-width="0.5" stroke-linecap="square" /><line x1="20.0" x2="232.0" y1="92.74074074074073" y2="92.74074074074073" stroke="rgb(90%,90%,90%)" stroke-width="0.5" stroke-linecap="square" /><line x1="20.0" x2="232.0" y1="82.37037037037037" y2="82.37037037037037" stroke="rgb(90%,90%,90%)" stroke-width="0.5" stroke-linecap="square" /><line x1="20.0" x2="232.0" y1="72.0" y2="72.0" stroke="rgb(90%,90%,90%)" stroke-width="0.5" stroke-linecap="square" /><line x1="20.0" x2="232.0" y1="61.62962962962963" y2="61.62962962962963" stroke="rgb(90%,90%,90%)" stroke-width="0.5" stroke-linecap="square" /><line x1="20.0" x2="232.0" y1="51.25925925925927" y2="51.25925925925927" stroke="rgb(90%,90%,90%)" stroke-width="0.5" stroke-linecap="square" /><line x1="20.0" x2="232.0" y1="40.888888888888886" y2="40.888888888888886" stroke="rgb(90%,90%,90%)" stroke-width="0.5" stroke-linecap="square" /><line x1="20.0" x2="232.0" y1="30.51851851851852" y2="30.51851851851852" stroke="rgb(90%,90%,90%)" stroke-width="0.5" stroke-linecap="square" /><line x1="20.0" x2="232.0" y1="20.148148148148152" y2="20.148148148148152" stroke="rgb(90%,90%,90%)" stroke-width="0.5" stroke-linecap="square" /></g><g><line x1="24.298334540188268" x2="24.298334540188268" y1="128.0" y2="16.0" stroke="rgb(80%,80%,80%)" stroke-width="0.5" stroke-linecap="square" /><line x1="64.97900072411295" x2="64.97900072411295" y1="128.0" y2="16.0" stroke="rgb(80%,80%,80%)" stroke-width="0.5" stroke-linecap="square" /><line x1="105.65966690803766" x2="105.65966690803766" y1="128.0" y2="16.0" stroke="rgb(80%,80%,80%)" stroke-width="0.5" stroke-linecap="square" /><line x1="146.34033309196235" x2="146.34033309196235" y1="128.0" y2="16.0" stroke="rgb(80%,80%,80%)" stroke-width="0.5" stroke-linecap="square" /><line x1="187.02099927588705" x2="187.02099927588705" y1="128.0" y2="16.0" stroke="rgb(80%,80%,80%)" stroke-width="0.5" stroke-linecap="square" /><line x1="227.70166545981175" x2="227.70166545981175" y1="128.0" y2="16.0" stroke="rgb(80%,80%,80%)" stroke-width="0.5" stroke-linecap="square" /><line x1="20.0" x2="232.0" y1="123.85185185185185" y2="123.85185185185185" stroke="rgb(80%,80%,80%)" stroke-width="0.5" stroke-linecap="square" /><line x1="20.0" x2="232.0" y1="113.48148148148148" y2="113.48148148148148" stroke="rgb(80%,80%,80%)" stroke-width="0.5" stroke-linecap="square" /><line x1="20.0" x2="232.0" y1="103.11111111111111" y2="103.11111111111111" stroke="rgb(80%,80%,80%)" stroke-width="0.5" stroke-linecap="square" /><line x1="20.0" x2="232.0" y1="92.74074074074073" y2="92.74074074074073" stroke="rgb(80%,80%,80%)" stroke-width="0.5" stroke-linecap="square" /><line x1="20.0" x2="232.0" y1="82.37037037037037" y2="82.37037037037037" stroke="rgb(80%,80%,80%)" stroke-width="0.5" stroke-linecap="square" /><line x1="20.0" x2="232.0" y1="72.0" y2="72.0" stroke="rgb(80%,80%,80%)" stroke-width="0.5" stroke-linecap="square" /><line x1="20.0" x2="232.0" y1="61.62962962962963" y2="61.62962962962963" stroke="rgb(80%,80%,80%)" stroke-width="0.5" stroke-linecap="square" /><line x1="20.0" x2="232.0" y1="51.25925925925927" y2="51.25925925925927" stroke="rgb(80%,80%,80%)" stroke-width="0.5" stroke-linecap="square" /><line x1="20.0" x2="232.0" y1="40.888888888888886" y2="40.888888888888886" stroke="rgb(80%,80%,80%)" stroke-width="0.5" stroke-linecap="square" /><line x1="20.0" x2="232.0" y1="30.51851851851852" y2="30.51851851851852" stroke="rgb(80%,80%,80%)" stroke-width="0.5" stroke-linecap="square" /><line x1="20.0" x2="232.0" y1="20.148148148148152" y2="20.148148148148152" stroke="rgb(80%,80%,80%)" stroke-width="0.5" stroke-linecap="square" /></g><g><line x1="24.298334540188268" x2="24.298334540188268" y1="128.0" y2="16.0" stroke="rgb(50%,50%,50%)" stroke-width="0.5" stroke-linecap="square" /><line x1="20.0" x2="232.0" y1="72.0" y2="72.0" stroke="rgb(50%,50%,50%)" stroke-width="0.5" stroke-linecap="square" /></g><g><text x="24.298334540188268" y="128.0" stroke="none" fill="rgb(30%,30%,30%)" font-size="5" font-family="auto" text-anchor="middle" dx="0" dy="1em" transform="none" id="">0</text><text x="64.97900072411295" y="128.0" stroke="none" fill="rgb(30%,30%,30%)" font-size="5" font-family="auto" text-anchor="middle" dx="0" dy="1em" transform="none" id="">1</text><text x="105.65966690803766" y="128.0" stroke="none" fill="rgb(30%,30%,30%)" font-size="5" font-family="auto" text-anchor="middle" dx="0" dy="1em" transform="none" id="">2</text><text x="146.34033309196235" y="128.0" stroke="none" fill="rgb(30%,30%,30%)" font-size="5" font-family="auto" text-anchor="middle" dx="0" dy="1em" transform="none" id="">3</text><text x="187.02099927588705" y="128.0" stroke="none" fill="rgb(30%,30%,30%)" font-size="5" font-family="auto" text-anchor="middle" dx="0" dy="1em" transform="none" id="">4</text><text x="227.70166545981175" y="128.0" stroke="none" fill="rgb(30%,30%,30%)" font-size="5" font-family="auto" text-anchor="middle" dx="0" dy="1em" transform="none" id="">5</text><text x="19.5" y="123.85185185185185" stroke="none" fill="rgb(30%,30%,30%)" font-size="5" font-family="auto" text-anchor="end" dx="0" dy="0.5ex" transform="none" id="">-5</text><text x="19.5" y="113.48148148148148" stroke="none" fill="rgb(30%,30%,30%)" font-size="5" font-family="auto" text-anchor="end" dx="0" dy="0.5ex" transform="none" id="">-4</text><text x="19.5" y="103.11111111111111" stroke="none" fill="rgb(30%,30%,30%)" font-size="5" font-family="auto" text-anchor="end" dx="0" dy="0.5ex" transform="none" id="">-3</text><text x="19.5" y="92.74074074074073" stroke="none" fill="rgb(30%,30%,30%)" font-size="5" font-family="auto" text-anchor="end" dx="0" dy="0.5ex" transform="none" id="">-2</text><text x="19.5" y="82.37037037037037" stroke="none" fill="rgb(30%,30%,30%)" font-size="5" font-family="auto" text-anchor="end" dx="0" dy="0.5ex" transform="none" id="">-1</text><text x="19.5" y="72.0" stroke="none" fill="rgb(30%,30%,30%)" font-size="5" font-family="auto" text-anchor="end" dx="0" dy="0.5ex" transform="none" id="">0</text><text x="19.5" y="61.62962962962963" stroke="none" fill="rgb(30%,30%,30%)" font-size="5" font-family="auto" text-anchor="end" dx="0" dy="0.5ex" transform="none" id="">1</text><text x="19.5" y="51.25925925925927" stroke="none" fill="rgb(30%,30%,30%)" font-size="5" font-family="auto" text-anchor="end" dx="0" dy="0.5ex" transform="none" id="">2</text><text x="19.5" y="40.888888888888886" stroke="none" fill="rgb(30%,30%,30%)" font-size="5" font-family="auto" text-anchor="end" dx="0" dy="0.5ex" transform="none" id="">3</text><text x="19.5" y="30.51851851851852" stroke="none" fill="rgb(30%,30%,30%)" font-size="5" font-family="auto" text-anchor="end" dx="0" dy="0.5ex" transform="none" id="">4</text><text x="19.5" y="20.148148148148152" stroke="none" fill="rgb(30%,30%,30%)" font-size="5" font-family="auto" text-anchor="end" dx="0" dy="0.5ex" transform="none" id="">5</text></g><polygon points="24.298334540188268,69.92592592592592 64.97900072411295,59.55555555555554 64.97900072411295,60.74074074074075 24.298334540188268,71.11111111111111" stroke="none" stroke-width="1" fill="#FC6602" /><polygon points="64.97900072411295,59.55555555555554 105.65966690803766,69.92592592592592 105.65966690803766,71.76954732510288 64.97900072411295,61.39917695473251" stroke="none" stroke-width="1" fill="#FC6602" /><polygon points="105.65966690803766,69.92592592592592 146.34033309196235,80.2962962962963 146.34033309196235,82.13991769547326 105.65966690803766,71.76954732510288" stroke="none" stroke-width="1" fill="#FC6602" /><polygon points="146.34033309196235,80.2962962962963 187.02099927588705,69.92592592592592 187.02099927588705,71.76954732510288 146.34033309196235,82.13991769547326" stroke="none" stroke-width="1" fill="#FC6602" /><polygon points="187.02099927588705,69.92592592592592 227.70166545981175,59.55555555555554 227.70166545981175,63.70370370370371 187.02099927588705,74.07407407407408" stroke="none" stroke-width="1" fill="#FC6602" /><polygon points="24.298334540188268,69.92592592592592 64.97900072411295,80.2962962962963 64.97900072411295,84.44444444444444 24.298334540188268,74.07407407407408" stroke="none" stroke-width="1" fill="#D9627B" /><polygon points="64.97900072411295,80.2962962962963 105.65966690803766,90.66666666666666 105.65966690803766,94.81481481481481 64.97900072411295,84.44444444444444" stroke="none" stroke-width="1" fill="#D9627B" /><polygon points="105.65966690803766,90.66666666666666 146.34033309196235,80.2962962962963 146.34033309196235,84.44444444444444 105.65966690803766,94.81481481481481" stroke="none" stroke-width="1" fill="#D9627B" /><polygon points="146.34033309196235,82.60082304526749 187.02099927588705,72.23045267489712 187.02099927588705,74.07407407407408 146.34033309196235,84.44444444444444" stroke="none" stroke-width="1" fill="#D9627B" /><polygon points="187.02099927588705,69.92592592592592 227.70166545981175,80.2962962962963 227.70166545981175,84.44444444444444 187.02099927588705,74.07407407407408" stroke="none" stroke-width="1" fill="#D9627B" /><polygon points="24.298334540188268,71.40740740740742 64.97900072411295,61.03703703703704 64.97900072411295,62.222222222222214 24.298334540188268,72.5925925925926" stroke="none" stroke-width="1" fill="#010101" /><polygon points="64.97900072411295,61.86008230452674 105.65966690803766,72.23045267489712 105.65966690803766,74.07407407407408 64.97900072411295,63.70370370370371" stroke="none" stroke-width="1" fill="#010101" /><polygon points="105.65966690803766,72.23045267489712 146.34033309196235,82.60082304526749 146.34033309196235,84.44444444444444 105.65966690803766,74.07407407407408" stroke="none" stroke-width="1" fill="#010101" /><polygon points="146.34033309196235,80.2962962962963 187.02099927588705,90.66666666666666 187.02099927588705,94.81481481481481 146.34033309196235,84.44444444444444" stroke="none" stroke-width="1" fill="#010101" /><polygon points="187.02099927588705,90.66666666666666 227.70166545981175,101.03703703703704 227.70166545981175,105.18518518518519 187.02099927588705,94.81481481481481" stroke="none" stroke-width="1" fill="#010101" /><polygon points="24.298334540188268,72.88888888888889 64.97900072411295,62.51851851851852 64.97900072411295,63.70370370370371 24.298334540188268,74.07407407407408" stroke="none" stroke-width="1" fill="#0072CE" /><polygon points="64.97900072411295,59.55555555555554 105.65966690803766,49.18518518518519 105.65966690803766,53.33333333333334 64.97900072411295,63.70370370370371" stroke="none" stroke-width="1" fill="#0072CE" /><polygon points="105.65966690803766,49.18518518518519 146.34033309196235,38.81481481481481 146.34033309196235,42.962962962962976 105.65966690803766,53.33333333333334" stroke="none" stroke-width="1" fill="#0072CE" /><polygon points="146.34033309196235,38.81481481481481 187.02099927588705,49.18518518518519 187.02099927588705,53.33333333333334 146.34033309196235,42.962962962962976" stroke="none" stroke-width="1" fill="#0072CE" /><polygon points="187.02099927588705,49.18518518518519 227.70166545981175,59.55555555555554 227.70166545981175,63.70370370370371 187.02099927588705,53.33333333333334" stroke="none" stroke-width="1" fill="#0072CE" /><g><path d="M 23.676112,70.548148A0.622222,0.622222 0 0 1 24.920557,70.548148L24.920557,73.451852A0.622222,0.622222 0 0 1 23.676112,73.451852Z" fill="rgb(30%,30%,30%)" /><rect x="23.676112317966044" y="71.9274074074074" width="1.2444444444444442" height="0.14518518518518517" stroke="none" stroke-width="1" fill="white" /></g><g><path d="M 64.356779,60.177778A0.622222,0.622222 0 0 1 65.601223,60.177778L65.601223,63.081481A0.622222,0.622222 0 0 1 64.356779,63.081481Z" fill="rgb(30%,30%,30%)" /><rect x="64.35677850189073" y="61.55703703703704" width="1.2444444444444442" height="0.14518518518518517" stroke="none" stroke-width="1" fill="white" /></g><g><path d="M 105.037445,70.548148A0.622222,0.622222 0 0 1 106.281889,70.548148L106.281889,73.451852A0.622222,0.622222 0 0 1 105.037445,73.451852Z" fill="rgb(30%,30%,30%)" /><rect x="105.03744468581544" y="71.9274074074074" width="1.2444444444444442" height="0.14518518518518517" stroke="none" stroke-width="1" fill="white" /></g><g><path d="M 145.718111,80.918519A0.622222,0.622222 0 0 1 146.962555,80.918519L146.962555,83.822222A0.622222,0.622222 0 0 1 145.718111,83.822222Z" fill="rgb(30%,30%,30%)" /><rect x="145.71811086974012" y="82.29777777777777" width="1.2444444444444442" height="0.14518518518518517" stroke="none" stroke-width="1" fill="white" /></g><g><path d="M 186.398777,70.548148A0.622222,0.622222 0 0 1 187.643221,70.548148L187.643221,73.451852A0.622222,0.622222 0 0 1 186.398777,73.451852Z" fill="rgb(30%,30%,30%)" /><rect x="186.39877705366482" y="71.9274074074074" width="1.2444444444444442" height="0.14518518518518517" stroke="none" stroke-width="1" fill="white" /></g><g><path d="M 227.079443,60.177778A0.622222,0.622222 0 0 1 228.323888,60.177778L228.323888,63.081481A0.622222,0.622222 0 0 1 227.079443,63.081481Z" fill="rgb(30%,30%,30%)" /><rect x="227.07944323758952" y="61.55703703703704" width="1.2444444444444442" height="0.14518518518518517" stroke="none" stroke-width="1" fill="white" /></g><g><path d="M 23.676112,70.548148A0.622222,0.622222 0 0 1 24.920557,70.548148L24.920557,73.451852A0.622222,0.622222 0 0 1 23.676112,73.451852Z" fill="rgb(30%,30%,30%)" /><rect x="23.676112317966044" y="71.9274074074074" width="1.2444444444444442" height="0.14518518518518517" stroke="none" stroke-width="1" fill="white" /></g><g><path d="M 64.356779,80.918519A0.622222,0.622222 0 0 1 65.601223,80.918519L65.601223,83.822222A0.622222,0.622222 0 0 1 64.356779,83.822222Z" fill="rgb(30%,30%,30%)" /><rect x="64.35677850189073" y="82.29777777777777" width="1.2444444444444442" height="0.14518518518518517" stroke="none" stroke-width="1" fill="white" /></g><g><path d="M 105.037445,91.288889A0.622222,0.622222 0 0 1 106.281889,91.288889L106.281889,94.192593A0.622222,0.622222 0 0 1 105.037445,94.192593Z" fill="rgb(30%,30%,30%)" /><rect x="105.03744468581544" y="92.66814814814813" width="1.2444444444444442" height="0.14518518518518517" stroke="none" stroke-width="1" fill="white" /></g><g><path d="M 145.718111,80.918519A0.622222,0.622222 0 0 1 146.962555,80.918519L146.962555,83.822222A0.622222,0.622222 0 0 1 145.718111,83.822222Z" fill="rgb(30%,30%,30%)" /><rect x="145.71811086974012" y="82.29777777777777" width="1.2444444444444442" height="0.14518518518518517" stroke="none" stroke-width="1" fill="white" /></g><g><path d="M 186.398777,70.548148A0.622222,0.622222 0 0 1 187.643221,70.548148L187.643221,73.451852A0.622222,0.622222 0 0 1 186.398777,73.451852Z" fill="rgb(30%,30%,30%)" /><rect x="186.39877705366482" y="71.9274074074074" width="1.2444444444444442" height="0.14518518518518517" stroke="none" stroke-width="1" fill="white" /></g><g><path d="M 227.079443,80.918519A0.622222,0.622222 0 0 1 228.323888,80.918519L228.323888,83.822222A0.622222,0.622222 0 0 1 227.079443,83.822222Z" fill="rgb(30%,30%,30%)" /><rect x="227.07944323758952" y="82.29777777777777" width="1.2444444444444442" height="0.14518518518518517" stroke="none" stroke-width="1" fill="white" /></g><g><path d="M 23.676112,70.548148A0.622222,0.622222 0 0 1 24.920557,70.548148L24.920557,73.451852A0.622222,0.622222 0 0 1 23.676112,73.451852Z" fill="rgb(30%,30%,30%)" /><rect x="23.676112317966044" y="71.9274074074074" width="1.2444444444444442" height="0.14518518518518517" stroke="none" stroke-width="1" fill="white" /></g><g><path d="M 64.356779,60.177778A0.622222,0.622222 0 0 1 65.601223,60.177778L65.601223,63.081481A0.622222,0.622222 0 0 1 64.356779,63.081481Z" fill="rgb(30%,30%,30%)" /><rect x="64.35677850189073" y="61.55703703703704" width="1.2444444444444442" height="0.14518518518518517" stroke="none" stroke-width="1" fill="white" /></g><g><path d="M 105.037445,70.548148A0.622222,0.622222 0 0 1 106.281889,70.548148L106.281889,73.451852A0.622222,0.622222 0 0 1 105.037445,73.451852Z" fill="rgb(30%,30%,30%)" /><rect x="105.03744468581544" y="71.9274074074074" width="1.2444444444444442" height="0.14518518518518517" stroke="none" stroke-width="1" fill="white" /></g><g><path d="M 145.718111,80.918519A0.622222,0.622222 0 0 1 146.962555,80.918519L146.962555,83.822222A0.622222,0.622222 0 0 1 145.718111,83.822222Z" fill="rgb(30%,30%,30%)" /><rect x="145.71811086974012" y="82.29777777777777" width="1.2444444444444442" height="0.14518518518518517" stroke="none" stroke-width="1" fill="white" /></g><g><path d="M 186.398777,91.288889A0.622222,0.622222 0 0 1 187.643221,91.288889L187.643221,94.192593A0.622222,0.622222 0 0 1 186.398777,94.192593Z" fill="rgb(30%,30%,30%)" /><rect x="186.39877705366482" y="92.66814814814813" width="1.2444444444444442" height="0.14518518518518517" stroke="none" stroke-width="1" fill="white" /></g><g><path d="M 227.079443,101.659259A0.622222,0.622222 0 0 1 228.323888,101.659259L228.323888,104.562963A0.622222,0.622222 0 0 1 227.079443,104.562963Z" fill="rgb(30%,30%,30%)" /><rect x="227.07944323758952" y="103.03851851851852" width="1.2444444444444442" height="0.14518518518518517" stroke="none" stroke-width="1" fill="white" /></g><g><path d="M 23.676112,70.548148A0.622222,0.622222 0 0 1 24.920557,70.548148L24.920557,73.451852A0.622222,0.622222 0 0 1 23.676112,73.451852Z" fill="rgb(30%,30%,30%)" /><rect x="23.676112317966044" y="71.9274074074074" width="1.2444444444444442" height="0.14518518518518517" stroke="none" stroke-width="1" fill="white" /></g><g><path d="M 64.356779,60.177778A0.622222,0.622222 0 0 1 65.601223,60.177778L65.601223,63.081481A0.622222,0.622222 0 0 1 64.356779,63.081481Z" fill="rgb(30%,30%,30%)" /><rect x="64.35677850189073" y="61.55703703703704" width="1.2444444444444442" height="0.14518518518518517" stroke="none" stroke-width="1" fill="white" /></g><g><path d="M 105.037445,49.807407A0.622222,0.622222 0 0 1 106.281889,49.807407L106.281889,52.711111A0.622222,0.622222 0 0 1 105.037445,52.711111Z" fill="rgb(30%,30%,30%)" /><rect x="105.03744468581544" y="51.186666666666675" width="1.2444444444444442" height="0.14518518518518517" stroke="none" stroke-width="1" fill="white" /></g><g><path d="M 145.718111,39.437037A0.622222,0.622222 0 0 1 146.962555,39.437037L146.962555,42.340741A0.622222,0.622222 0 0 1 145.718111,42.340741Z" fill="rgb(30%,30%,30%)" /><rect x="145.71811086974012" y="40.816296296296294" width="1.2444444444444442" height="0.14518518518518517" stroke="none" stroke-width="1" fill="white" /></g><g><path d="M 186.398777,49.807407A0.622222,0.622222 0 0 1 187.643221,49.807407L187.643221,52.711111A0.622222,0.622222 0 0 1 186.398777,52.711111Z" fill="rgb(30%,30%,30%)" /><rect x="186.39877705366482" y="51.186666666666675" width="1.2444444444444442" height="0.14518518518518517" stroke="none" stroke-width="1" fill="white" /></g><g><path d="M 227.079443,60.177778A0.622222,0.622222 0 0 1 228.323888,60.177778L228.323888,63.081481A0.622222,0.622222 0 0 1 227.079443,63.081481Z" fill="rgb(30%,30%,30%)" /><rect x="227.07944323758952" y="61.55703703703704" width="1.2444444444444442" height="0.14518518518518517" stroke="none" stroke-width="1" fill="white" /></g><image x="125.76973207820419" y="58.0" width="212" height="7.259259259259258" xlink:href="./../outputs/logos/nfl/DEN.png" href="./../outputs/logos/nfl/DEN.png" /><image x="125.76973207820419" y="78.74074074074075" width="212" height="7.259259259259258" xlink:href="./../outputs/logos/nfl/KC.png" href="./../outputs/logos/nfl/KC.png" /><image x="125.76973207820419" y="99.48148148148148" width="212" height="7.259259259259258" xlink:href="./../outputs/logos/nfl/LV.png" href="./../outputs/logos/nfl/LV.png" /><image x="131.8718320057929" y="58.0" width="212" height="7.259259259259258" xlink:href="./../outputs/logos/nfl/LAC.png" href="./../outputs/logos/nfl/LAC.png" /></g><text x="254.5" y="142" stroke="none" fill="black" font-size="3" font-family="auto" text-anchor="end" dx="0" dy="0" transform="none" id="">Graphic by Vivian (vbbcla)</text><text x="254.5" y="138" stroke="none" fill="black" font-size="3" font-family="auto" text-anchor="end" dx="0" dy="0" transform="none" id="">Note: Tiebreakers not visualized</text></svg>