<svg width="256" height="144" xmlns="http://www.w3.org/2000/svg" xmlns:xlink="http://www.w3.org/1999/xlink" version="2.0"><style>
* {
font-family: "Merriweather Sans";
font-weight: 300;
}
#title {
font-weight: normal
}
</style><rect x="0" y="0" width="256" height="144" stroke="none" stroke-width="1" fill="#ffeceb" /><text x="128" y="12" stroke="none" fill="black" font-size="8" font-family="auto" text-anchor="middle" dx="0" dy="0" transform="none" id="title">NFL Graphical Standings &#8211; Week 5, 2025 &#8211; AFC</text><text x="8" y="72" stroke="none" fill="black" font-size="6" font-family="auto" text-anchor="middle" dx="0" dy="0" transform="rotate(-90,8,72)" id="">Wins above .500</text><text x="122.0" y="140" stroke="none" fill="black" font-size="6" font-family="auto" text-anchor="middle" dx="0" dy="0" transform="none" id="">Week</text><g><g><line x1="24.291510142749814" x2="24.291510142749814" y1="128.0" y2="16.0" stroke="rgb(90%,90%,90%)" stroke-width="0.5" stroke-linecap="square" /><line x1="63.37490608564989" x2="63.37490608564989" y1="128.0" y2="16.0" stroke="rgb(90%,90%,90%)" stroke-width="0.5" stroke-linecap="square" /><line x1="102.45830202854997" x2="102.45830202854997" y1="128.0" y2="16.0" stroke="rgb(90%,90%,90%)" stroke-width="0.5" stroke-linecap="square" /><line x1="141.54169797145005" x2="141.54169797145005" y1="128.0" y2="16.0" stroke="rgb(90%,90%,90%)" stroke-width="0.5" stroke-linecap="square" /><line x1="180.62509391435012" x2="180.62509391435012" y1="128.0" y2="16.0" stroke="rgb(90%,90%,90%)" stroke-width="0.5" stroke-linecap="square" /><line x1="219.7084898572502" x2="219.7084898572502" y1="128.0" y2="16.0" stroke="rgb(90%,90%,90%)" stroke-width="0.5" stroke-linecap="square" /><line x1="20.0" x2="224.0" y1="123.85185185185185" y2="123.85185185185185" stroke="rgb(90%,90%,90%)" stroke-width="0.5" stroke-linecap="square" /><line x1="20.0" x2="224.0" y1="113.48148148148148" y2="113.48148148148148" stroke="rgb(90%,90%,90%)" stroke-width="0.5" stroke-linecap="square" /><line x1="20.0" x2="224.0" y1="103.11111111111111" y2="103.11111111111111" stroke="rgb(90%,90%,90%)" stroke-width="0.5" stroke-linecap="square" /><line x1="20.0" x2="224.0" y1="92.74074074074073" y2="92.74074074074073" stroke="rgb(90%,90%,90%)" stroke-width="0.5" stroke-linecap="square" /><line x1="20.0" x2="224.0" y1="82.37037037037037" y2="82.37037037037037" stroke="rgb(90%,90%,90%)" stroke-width="0.5" stroke-linecap="square" /><line x1="20.0" x2="224.0" y1="72.0" y2="72.0" stroke="rgb(90%,90%,90%)" stroke-width="0.5" stroke-linecap="square" /><line x1="20.0" x2="224.0" y1="61.62962962962963" y2="61.62962962962963" stroke="rgb(90%,90%,90%)" stroke-width="0.5" stroke-linecap="square" /><line x1="20.0" x2="224.0" y1="51.25925925925927" y2="51.25925925925927" stroke="rgb(90%,90%,90%)" stroke-width="0.5" stroke-linecap="square" /><line x1="20.0" x2="224.0" y1="40.888888888888886" y2="40.888888888888886" stroke="rgb(90%,90%,90%)" stroke-width="0.5" stroke-linecap="square" /><line x1="20.0" x2="224.0" y1="30.51851851851852" y2="30.51851851851852" stroke="rgb(90%,90%,90%)" stroke-width="0.5" stroke-linecap="square" /><line x1="20.0" x2="224.0" y1="20.148148148148152" y2="20.148148148148152" stroke="rgb(90%,90%,90%)" stroke-width="0.5" stroke-linecap="square" /></g><g><line x1="24.291510142749814" x2="24.291510142749814" y1="128.0" y2="16.0" stroke="rgb(80%,80%,80%)" stroke-width="0.5" stroke-linecap="square" /><line x1="63.37490608564989" x2="63.37490608564989" y1="128.0" y2="16.0" stroke="rgb(80%,80%,80%)" stroke-width="0.5" stroke-linecap="square" /><line x1="102.45830202854997" x2="102.45830202854997" y1="128.0" y2="16.0" stroke="rgb(80%,80%,80%)" stroke-width="0.5" stroke-linecap="square" /><line x1="141.54169797145005" x2="141.54169797145005" y1="128.0" y2="16.0" stroke="rgb(80%,80%,80%)" stroke-width="0.5" stroke-linecap="square" /><line x1="180.62509391435012" x2="180.62509391435012" y1="128.0" y2="16.0" stroke="rgb(80%,80%,80%)" stroke-width="0.5" stroke-linecap="square" /><line x1="219.7084898572502" x2="219.7084898572502" y1="128.0" y2="16.0" stroke="rgb(80%,80%,80%)" stroke-width="0.5" stroke-linecap="square" /><line x1="20.0" x2="224.0" y1="123.85185185185185" y2="123.85185185185185" stroke="rgb(80%,80%,80%)" stroke-width="0.5" stroke-linecap="square" /><line x1="20.0" x2="224.0" y1="113.48148148148148" y2="113.48148148148148" stroke="rgb(80%,80%,80%)" stroke-width="0.5" stroke-linecap="square" /><line x1="20.0" x2="224.0" y1="103.11111111111111" y2="103.11111111111111" stroke="rgb(80%,80%,80%)" stroke-width="0.5" stroke-linecap="square" /><line x1="20.0" x2="224.0" y1="92.74074074074073" y2="92.74074074074073" stroke="rgb(80%,80%,80%)" stroke-width="0.5" stroke-linecap="square" /><line x1="20.0" x2="224.0" y1="82.37037037037037" y2="82.37037037037037" stroke="rgb(80%,80%,80%)" stroke-width="0.5" stroke-linecap="square" /><line x1="20.0" x2="224.0" y1="72.0" y2="72.0" stroke="rgb(80%,80%,80%)" stroke-width="0.5" stroke-linecap="square" /><line x1="20.0" x2="224.0" y1="61.62962962962963" y2="61.62962962962963" stroke="rgb(80%,80%,80%)" stroke-width="0.5" stroke-linecap="square" /><line x1="20.0" x2="224.0" y1="51.25925925925927" y2="51.25925925925927" stroke="rgb(80%,80%,80%)" stroke-width="0.5" stroke-linecap="square" /><line x1="20.0" x2="224.0" y1="40.888888888888886" y2="40.888888888888886" stroke="rgb(80%,80%,80%)" stroke-width="0.5" stroke-linecap="square" /><line x1="20.0" x2="224.0" y1="30.51851851851852" y2="30.51851851851852" stroke="rgb(80%,80%,80%)" stroke-width="0.5" stroke-linecap="square" /><line x1="20.0" x2="224.0" y1="20.148148148148152" y2="20.148148148148152" stroke="rgb(80%,80%,80%)" stroke-width="0.5" stroke-linecap="square" /></g><g><line x1="24.291510142749814" x2="24.291510142749814" y1="128.0" y2="16.0" stroke="rgb(50%,50%,50%)" stroke-width="0.5" stroke-linecap="square" /><line x1="20.0" x2="224.0" y1="72.0" y2="72.0" stroke="rgb(50%,50%,50%)" stroke-width="0.5" stroke-linecap="square" /></g><g><text x="24.291510142749814" y="128.0" stroke="none" fill="rgb(30%,30%,30%)" font-size="5" font-family="auto" text-anchor="middle" dx="0" dy="1em" transform="none" id="">0</text><text x="63.37490608564989" y="128.0" stroke="none" fill="rgb(30%,30%,30%)" font-size="5" font-family="auto" text-anchor="middle" dx="0" dy="1em" transform="none" id="">1</text><text x="102.45830202854997" y="128.0" stroke="none" fill="rgb(30%,30%,30%)" font-size="5" font-family="auto" text-anchor="middle" dx="0" dy="1em" transform="none" id="">2</text><text x="141.54169797145005" y="128.0" stroke="none" fill="rgb(30%,30%,30%)" font-size="5" font-family="auto" text-anchor="middle" dx="0" dy="1em" transform="none" id="">3</text><text x="180.62509391435012" y="128.0" stroke="none" fill="rgb(30%,30%,30%)" font-size="5" font-family="auto" text-anchor="middle" dx="0" dy="1em" transform="none" id="">4</text><text x="219.7084898572502" y="128.0" stroke="none" fill="rgb(30%,30%,30%)" font-size="5" font-family="auto" text-anchor="middle" dx="0" dy="1em" transform="none" id="">5</text><text x="19.5" y="123.85185185185185" stroke="none" fill="rgb(30%,30%,30%)" font-size="5" font-family="auto" text-anchor="end" dx="0" dy="0.5ex" transform="none" id="">-5</text><text x="19.5" y="113.48148148148148" stroke="none" fill="rgb(30%,30%,30%)" font-size="5" font-family="auto" text-anchor="end" dx="0" dy="0.5ex" transform="none" id="">-4</text><text x="19.5" y="103.11111111111111" stroke="none" fill="rgb(30%,30%,30%)" font-size="5" font-family="auto" text-anchor="end" dx="0" dy="0.5ex" transform="none" id="">-3</text><text x="19.5" y="92.74074074074073" stroke="none" fill="rgb(30%,30%,30%)" font-size="5" font-family="auto" text-anchor="end" dx="0" dy="0.5ex" transform="none" id="">-2</text><text x="19.5" y="82.37037037037037" stroke="none" fill="rgb(30%,30%,30%)" font-size="5" font-family="auto" text-anchor="end" dx="0" dy="0.5ex" transform="none" id="">-1</text><text x="19.5" y="72.0" stroke="none" fill="rgb(30%,30%,30%)" font-size="5" font-family="auto" text-anchor="end" dx="0" dy="0.5ex" transform="none" id="">0</text><text x="19.5" y="61.62962962962963" stroke="none" fill="rgb(30%,30%,30%)" font-size="5" font-family="auto" text-anchor="end" dx="0" dy="0.5ex" transform="none" id="">1</text><text x="19.5" y="51.25925925925927" stroke="none" fill="rgb(30%,30%,30%)" font-size="5" font-family="auto" text-anchor="end" dx="0" dy="0.5ex" transform="none" id="">2</text><text x="19.5" y="40.888888888888886" stroke="none" fill="rgb(30%,30%,30%)" font-size="5" font-family="auto" text-anchor="end" dx="0" dy="0.5ex" transform="none" id="">3</text><text x="19.5" y="30.51851851851852" stroke="none" fill="rgb(30%,30%,30%)" font-size="5" font-family="auto" text-anchor="end" dx="0" dy="0.5ex" transform="none" id="">4</text><text x="19.5" y="20.148148148148152" stroke="none" fill="rgb(30%,30%,30%)" font-size="5" font-family="auto" text-anchor="end" dx="0" dy="0.5ex" transform="none" id="">5</text></g><polygon points="24.291510142749814,69.92592592592592 63.37490608564989,80.2962962962963 63.37490608564989,80.72174738841406 24.291510142749814,70.35137701804368" stroke="none" stroke-width="1" fill="#4422B3" /><polygon points="63.37490608564989,80.2962962962963 102.45830202854997,69.92592592592592 102.45830202854997,71.76954732510288 63.37490608564989,82.13991769547326" stroke="none" stroke-width="1" fill="#4422B3" /><polygon points="102.45830202854997,69.92592592592592 141.54169797145005,80.2962962962963 141.54169797145005,81.16959064327486 102.45830202854997,70.79922027290448" stroke="none" stroke-width="1" fill="#4422B3" /><polygon points="141.54169797145005,80.2962962962963 180.62509391435012,90.66666666666666 180.62509391435012,91.85185185185185 141.54169797145005,81.48148148148148" stroke="none" stroke-width="1" fill="#4422B3" /><polygon points="180.62509391435012,90.66666666666666 219.7084898572502,101.03703703703704 219.7084898572502,101.91033138401559 180.62509391435012,91.53996101364523" stroke="none" stroke-width="1" fill="#4422B3" /><polygon points="24.291510142749814,69.92592592592592 63.37490608564989,59.55555555555554 63.37490608564989,59.981006647673325 24.291510142749814,70.35137701804368" stroke="none" stroke-width="1" fill="#003087" /><polygon points="63.37490608564989,59.55555555555554 102.45830202854997,49.18518518518519 102.45830202854997,50.058479532163744 63.37490608564989,60.428849902534125" stroke="none" stroke-width="1" fill="#003087" /><polygon points="102.45830202854997,49.18518518518519 141.54169797145005,38.81481481481481 141.54169797145005,40.0 102.45830202854997,50.37037037037038" stroke="none" stroke-width="1" fill="#003087" /><polygon points="141.54169797145005,38.81481481481481 180.62509391435012,28.444444444444443 180.62509391435012,32.59259259259261 141.54169797145005,42.962962962962976" stroke="none" stroke-width="1" fill="#003087" /><polygon points="180.62509391435012,28.444444444444443 219.7084898572502,38.81481481481481 219.7084898572502,42.962962962962976 180.62509391435012,32.59259259259261" stroke="none" stroke-width="1" fill="#003087" /><polygon points="24.291510142749814,70.45773979107312 63.37490608564989,60.08736942070276 63.37490608564989,60.51282051282051 24.291510142749814,70.88319088319088" stroke="none" stroke-width="1" fill="#C23D04" /><polygon points="63.37490608564989,60.64717348927876 102.45830202854997,50.27680311890839 102.45830202854997,51.150097465886944 63.37490608564989,61.52046783625731" stroke="none" stroke-width="1" fill="#C23D04" /><polygon points="102.45830202854997,49.18518518518519 141.54169797145005,59.55555555555554 141.54169797145005,63.70370370370371 102.45830202854997,53.33333333333334" stroke="none" stroke-width="1" fill="#C23D04" /><polygon points="141.54169797145005,59.55555555555554 180.62509391435012,69.92592592592592 180.62509391435012,74.07407407407408 141.54169797145005,63.70370370370371" stroke="none" stroke-width="1" fill="#C23D04" /><polygon points="180.62509391435012,69.92592592592592 219.7084898572502,80.2962962962963 219.7084898572502,82.13991769547326 180.62509391435012,71.76954732510288" stroke="none" stroke-width="1" fill="#C23D04" /><polygon points="24.291510142749814,70.45773979107312 63.37490608564989,80.8281101614435 63.37490608564989,81.25356125356126 24.291510142749814,70.88319088319088" stroke="none" stroke-width="1" fill="#804D00" /><polygon points="63.37490608564989,80.2962962962963 102.45830202854997,90.66666666666666 102.45830202854997,91.23882503192849 63.37490608564989,80.8684546615581" stroke="none" stroke-width="1" fill="#804D00" /><polygon points="102.45830202854997,90.66666666666666 141.54169797145005,80.2962962962963 141.54169797145005,82.13991769547326 102.45830202854997,92.51028806584362" stroke="none" stroke-width="1" fill="#804D00" /><polygon points="141.54169797145005,81.77777777777777 180.62509391435012,92.14814814814815 180.62509391435012,93.33333333333333 141.54169797145005,82.96296296296296" stroke="none" stroke-width="1" fill="#804D00" /><polygon points="180.62509391435012,91.75828460038986 219.7084898572502,102.12865497076024 219.7084898572502,103.00194931773879 180.62509391435012,92.63157894736841" stroke="none" stroke-width="1" fill="#804D00" /><polygon points="24.291510142749814,70.98955365622032 63.37490608564989,60.61918328584996 63.37490608564989,61.04463437796771 24.291510142749814,71.41500474833808" stroke="none" stroke-width="1" fill="#FC6602" /><polygon points="63.37490608564989,59.55555555555554 102.45830202854997,69.92592592592592 102.45830202854997,70.79922027290448 63.37490608564989,60.428849902534125" stroke="none" stroke-width="1" fill="#FC6602" /><polygon points="102.45830202854997,71.01754385964912 141.54169797145005,81.38791423001949 141.54169797145005,82.26120857699806 102.45830202854997,71.89083820662769" stroke="none" stroke-width="1" fill="#FC6602" /><polygon points="141.54169797145005,80.2962962962963 180.62509391435012,69.92592592592592 180.62509391435012,71.11111111111111 141.54169797145005,81.48148148148148" stroke="none" stroke-width="1" fill="#FC6602" /><polygon points="180.62509391435012,69.92592592592592 219.7084898572502,59.55555555555554 219.7084898572502,61.39917695473251 180.62509391435012,71.76954732510288" stroke="none" stroke-width="1" fill="#FC6602" /><polygon points="24.291510142749814,70.98955365622032 63.37490608564989,81.3599240265907 63.37490608564989,81.78537511870846 24.291510142749814,71.41500474833808" stroke="none" stroke-width="1" fill="#E4002B" /><polygon points="63.37490608564989,81.01149425287356 102.45830202854997,91.38186462324393 102.45830202854997,91.95402298850576 63.37490608564989,81.58365261813537" stroke="none" stroke-width="1" fill="#E4002B" /><polygon points="102.45830202854997,90.66666666666666 141.54169797145005,101.03703703703704 141.54169797145005,101.91033138401559 102.45830202854997,91.53996101364523" stroke="none" stroke-width="1" fill="#E4002B" /><polygon points="141.54169797145005,101.03703703703704 180.62509391435012,90.66666666666666 180.62509391435012,92.51028806584362 141.54169797145005,102.88065843621399" stroke="none" stroke-width="1" fill="#E4002B" /><polygon points="180.62509391435012,90.66666666666666 219.7084898572502,80.2962962962963 219.7084898572502,84.44444444444444 180.62509391435012,94.81481481481481" stroke="none" stroke-width="1" fill="#E4002B" /><polygon points="24.291510142749814,71.52136752136752 63.37490608564989,61.150997150997156 63.37490608564989,61.57644824311491 24.291510142749814,71.94681861348528" stroke="none" stroke-width="1" fill="#004E96" /><polygon points="63.37490608564989,61.73879142300194 102.45830202854997,51.368421052631575 102.45830202854997,52.24171539961013 63.37490608564989,62.612085769980496" stroke="none" stroke-width="1" fill="#004E96" /><polygon points="102.45830202854997,50.66666666666667 141.54169797145005,40.296296296296305 141.54169797145005,41.48148148148148 102.45830202854997,51.85185185185185" stroke="none" stroke-width="1" fill="#004E96" /><polygon points="141.54169797145005,38.81481481481481 180.62509391435012,49.18518518518519 180.62509391435012,51.028806584362144 141.54169797145005,40.65843621399178" stroke="none" stroke-width="1" fill="#004E96" /><polygon points="180.62509391435012,49.18518518518519 219.7084898572502,38.81481481481481 219.7084898572502,40.65843621399178 180.62509391435012,51.028806584362144" stroke="none" stroke-width="1" fill="#004E96" /><polygon points="24.291510142749814,72.05318138651472 63.37490608564989,61.682811016144356 63.37490608564989,62.10826210826211 24.291510142749814,72.47863247863248" stroke="none" stroke-width="1" fill="#006271" /><polygon points="63.37490608564989,60.64717348927876 102.45830202854997,71.01754385964912 102.45830202854997,71.89083820662769 63.37490608564989,61.52046783625731" stroke="none" stroke-width="1" fill="#006271" /><polygon points="102.45830202854997,69.92592592592592 141.54169797145005,59.55555555555554 141.54169797145005,61.39917695473251 102.45830202854997,71.76954732510288" stroke="none" stroke-width="1" fill="#006271" /><polygon points="141.54169797145005,59.55555555555554 180.62509391435012,49.18518518518519 180.62509391435012,51.028806584362144 141.54169797145005,61.39917695473251" stroke="none" stroke-width="1" fill="#006271" /><polygon points="180.62509391435012,51.489711934156375 219.7084898572502,41.11934156378601 219.7084898572502,42.962962962962976 180.62509391435012,53.33333333333334" stroke="none" stroke-width="1" fill="#006271" /><polygon points="24.291510142749814,71.52136752136752 63.37490608564989,81.89173789173789 63.37490608564989,82.31718898385566 24.291510142749814,71.94681861348528" stroke="none" stroke-width="1" fill="#D9627B" /><polygon points="63.37490608564989,81.72669220945083 102.45830202854997,92.0970625798212 102.45830202854997,92.66922094508303 63.37490608564989,82.29885057471265" stroke="none" stroke-width="1" fill="#D9627B" /><polygon points="102.45830202854997,92.97119341563786 141.54169797145005,82.60082304526749 141.54169797145005,84.44444444444444 102.45830202854997,94.81481481481481" stroke="none" stroke-width="1" fill="#D9627B" /><polygon points="141.54169797145005,81.77777777777777 180.62509391435012,71.40740740740742 180.62509391435012,72.5925925925926 141.54169797145005,82.96296296296296" stroke="none" stroke-width="1" fill="#D9627B" /><polygon points="180.62509391435012,72.23045267489712 219.7084898572502,82.60082304526749 219.7084898572502,84.44444444444444 180.62509391435012,74.07407407407408" stroke="none" stroke-width="1" fill="#D9627B" /><polygon points="24.291510142749814,72.58499525166192 63.37490608564989,62.214624881291556 63.37490608564989,62.64007597340931 24.291510142749814,73.01044634377968" stroke="none" stroke-width="1" fill="#010101" /><polygon points="63.37490608564989,61.73879142300194 102.45830202854997,72.10916179337232 102.45830202854997,72.98245614035088 63.37490608564989,62.612085769980496" stroke="none" stroke-width="1" fill="#010101" /><polygon points="102.45830202854997,72.10916179337232 141.54169797145005,82.47953216374268 141.54169797145005,83.35282651072124 102.45830202854997,72.98245614035088" stroke="none" stroke-width="1" fill="#010101" /><polygon points="141.54169797145005,83.25925925925925 180.62509391435012,93.62962962962963 180.62509391435012,94.81481481481481 141.54169797145005,84.44444444444444" stroke="none" stroke-width="1" fill="#010101" /><polygon points="180.62509391435012,92.84990253411306 219.7084898572502,103.22027290448344 219.7084898572502,104.09356725146199 180.62509391435012,93.72319688109161" stroke="none" stroke-width="1" fill="#010101" /><polygon points="24.291510142749814,73.11680911680911 63.37490608564989,62.74643874643874 63.37490608564989,63.17188983855651 24.291510142749814,73.54226020892688" stroke="none" stroke-width="1" fill="#0072CE" /><polygon points="63.37490608564989,62.83040935672514 102.45830202854997,52.460038986354775 102.45830202854997,53.33333333333334 63.37490608564989,63.70370370370371" stroke="none" stroke-width="1" fill="#0072CE" /><polygon points="102.45830202854997,52.14814814814815 141.54169797145005,41.77777777777777 141.54169797145005,42.962962962962976 102.45830202854997,53.33333333333334" stroke="none" stroke-width="1" fill="#0072CE" /><polygon points="141.54169797145005,41.11934156378601 180.62509391435012,51.489711934156375 180.62509391435012,53.33333333333334 141.54169797145005,42.962962962962976" stroke="none" stroke-width="1" fill="#0072CE" /><polygon points="180.62509391435012,49.18518518518519 219.7084898572502,59.55555555555554 219.7084898572502,63.70370370370371 180.62509391435012,53.33333333333334" stroke="none" stroke-width="1" fill="#0072CE" /><polygon points="24.291510142749814,72.05318138651472 63.37490608564989,82.42355175688509 63.37490608564989,82.84900284900284 24.291510142749814,72.47863247863248" stroke="none" stroke-width="1" fill="#008C95" /><polygon points="63.37490608564989,82.44189016602809 102.45830202854997,92.81226053639847 102.45830202854997,93.38441890166028 63.37490608564989,83.01404853128992" stroke="none" stroke-width="1" fill="#008C95" /><polygon points="102.45830202854997,91.75828460038986 141.54169797145005,102.12865497076024 141.54169797145005,103.00194931773879 102.45830202854997,92.63157894736841" stroke="none" stroke-width="1" fill="#008C95" /><polygon points="141.54169797145005,103.34156378600822 180.62509391435012,92.97119341563786 180.62509391435012,94.81481481481481 141.54169797145005,105.18518518518519" stroke="none" stroke-width="1" fill="#008C95" /><polygon points="180.62509391435012,93.94152046783626 219.7084898572502,104.31189083820662 219.7084898572502,105.18518518518519 180.62509391435012,94.81481481481481" stroke="none" stroke-width="1" fill="#008C95" /><polygon points="24.291510142749814,72.58499525166192 63.37490608564989,82.95536562203229 63.37490608564989,83.38081671415004 24.291510142749814,73.01044634377968" stroke="none" stroke-width="1" fill="#C8102E" /><polygon points="63.37490608564989,82.60082304526749 102.45830202854997,72.23045267489712 102.45830202854997,74.07407407407408 63.37490608564989,84.44444444444444" stroke="none" stroke-width="1" fill="#C8102E" /><polygon points="102.45830202854997,73.20077972709552 141.54169797145005,83.57115009746589 141.54169797145005,84.44444444444444 102.45830202854997,74.07407407407408" stroke="none" stroke-width="1" fill="#C8102E" /><polygon points="141.54169797145005,83.25925925925925 180.62509391435012,72.88888888888889 180.62509391435012,74.07407407407408 141.54169797145005,84.44444444444444" stroke="none" stroke-width="1" fill="#C8102E" /><polygon points="180.62509391435012,72.23045267489712 219.7084898572502,61.86008230452674 219.7084898572502,63.70370370370371 180.62509391435012,74.07407407407408" stroke="none" stroke-width="1" fill="#C8102E" /><polygon points="24.291510142749814,73.11680911680911 63.37490608564989,83.48717948717947 63.37490608564989,83.91263057929724 24.291510142749814,73.54226020892688" stroke="none" stroke-width="1" fill="#115740" /><polygon points="63.37490608564989,83.15708812260536 102.45830202854997,93.52745849297574 102.45830202854997,94.09961685823754 63.37490608564989,83.72924648786717" stroke="none" stroke-width="1" fill="#115740" /><polygon points="102.45830202854997,92.84990253411306 141.54169797145005,103.22027290448344 141.54169797145005,104.09356725146199 102.45830202854997,93.72319688109161" stroke="none" stroke-width="1" fill="#115740" /><polygon points="141.54169797145005,101.03703703703704 180.62509391435012,111.4074074074074 180.62509391435012,113.25102880658436 141.54169797145005,102.88065843621399" stroke="none" stroke-width="1" fill="#115740" /><polygon points="180.62509391435012,111.4074074074074 219.7084898572502,121.77777777777777 219.7084898572502,125.92592592592592 180.62509391435012,115.55555555555556" stroke="none" stroke-width="1" fill="#115740" /><polygon points="24.291510142749814,73.64862298195632 63.37490608564989,63.27825261158594 63.37490608564989,63.70370370370371 24.291510142749814,74.07407407407408" stroke="none" stroke-width="1" fill="#FFB81C" /><polygon points="63.37490608564989,62.83040935672514 102.45830202854997,73.20077972709552 102.45830202854997,74.07407407407408 63.37490608564989,63.70370370370371" stroke="none" stroke-width="1" fill="#FFB81C" /><polygon points="102.45830202854997,72.23045267489712 141.54169797145005,61.86008230452674 141.54169797145005,63.70370370370371 102.45830202854997,74.07407407407408" stroke="none" stroke-width="1" fill="#FFB81C" /><polygon points="141.54169797145005,61.86008230452674 180.62509391435012,51.489711934156375 180.62509391435012,53.33333333333334 141.54169797145005,63.70370370370371" stroke="none" stroke-width="1" fill="#FFB81C" /><polygon points="180.62509391435012,49.18518518518519 186.2084361919073,49.18518518518519 186.2084361919073,53.33333333333334 180.62509391435012,53.33333333333334" stroke="none" stroke-width="1" fill="#FFB81C" /><polygon points="189.00010733068586,49.18518518518519 194.583449608243,49.18518518518519 194.583449608243,53.33333333333334 189.00010733068586,53.33333333333334" stroke="none" stroke-width="1" fill="#FFB81C" /><polygon points="197.37512074702158,49.18518518518519 202.95846302457872,49.18518518518519 202.95846302457872,53.33333333333334 197.37512074702158,53.33333333333334" stroke="none" stroke-width="1" fill="#FFB81C" /><polygon points="205.75013416335733,49.18518518518519 211.33347644091447,49.18518518518519 211.33347644091447,53.33333333333334 205.75013416335733,53.33333333333334" stroke="none" stroke-width="1" fill="#FFB81C" /><polygon points="214.12514757969305,49.18518518518519 219.7084898572502,49.18518518518519 219.7084898572502,53.33333333333334 214.12514757969305,53.33333333333334" stroke="none" stroke-width="1" fill="#FFB81C" /><polygon points="24.291510142749814,73.64862298195632 63.37490608564989,84.01899335232669 63.37490608564989,84.44444444444444 24.291510142749814,74.07407407407408" stroke="none" stroke-width="1" fill="#418FDE" /><polygon points="63.37490608564989,83.87228607918263 102.45830202854997,94.24265644955301 102.45830202854997,94.81481481481481 63.37490608564989,84.44444444444444" stroke="none" stroke-width="1" fill="#418FDE" /><polygon points="102.45830202854997,93.94152046783626 141.54169797145005,104.31189083820662 141.54169797145005,105.18518518518519 102.45830202854997,94.81481481481481" stroke="none" stroke-width="1" fill="#418FDE" /><polygon points="141.54169797145005,103.34156378600822 180.62509391435012,113.71193415637859 180.62509391435012,115.55555555555556 141.54169797145005,105.18518518518519" stroke="none" stroke-width="1" fill="#418FDE" /><polygon points="180.62509391435012,111.4074074074074 219.7084898572502,101.03703703703704 219.7084898572502,105.18518518518519 180.62509391435012,115.55555555555556" stroke="none" stroke-width="1" fill="#418FDE" /><g><path d="M 23.669288,70.548148A0.622222,0.622222 0 0 1 24.913732,70.548148L24.913732,73.451852A0.622222,0.622222 0 0 1 23.669288,73.451852Z" fill="rgb(30%,30%,30%)" /><rect x="23.66928792052759" y="71.9274074074074" width="1.2444444444444442" height="0.14518518518518517" stroke="none" stroke-width="1" fill="white" /></g><g><path d="M 62.752684,80.918519A0.622222,0.622222 0 0 1 63.997128,80.918519L63.997128,83.822222A0.622222,0.622222 0 0 1 62.752684,83.822222Z" fill="rgb(30%,30%,30%)" /><rect x="62.75268386342767" y="82.29777777777777" width="1.2444444444444442" height="0.14518518518518517" stroke="none" stroke-width="1" fill="white" /></g><g><path d="M 101.836080,70.548148A0.622222,0.622222 0 0 1 103.080524,70.548148L103.080524,73.451852A0.622222,0.622222 0 0 1 101.836080,73.451852Z" fill="rgb(30%,30%,30%)" /><rect x="101.83607980632775" y="71.9274074074074" width="1.2444444444444442" height="0.14518518518518517" stroke="none" stroke-width="1" fill="white" /></g><g><path d="M 140.919476,80.918519A0.622222,0.622222 0 0 1 142.163920,80.918519L142.163920,83.822222A0.622222,0.622222 0 0 1 140.919476,83.822222Z" fill="rgb(30%,30%,30%)" /><rect x="140.91947574922781" y="82.29777777777777" width="1.2444444444444442" height="0.14518518518518517" stroke="none" stroke-width="1" fill="white" /></g><g><path d="M 180.002872,91.288889A0.622222,0.622222 0 0 1 181.247316,91.288889L181.247316,94.192593A0.622222,0.622222 0 0 1 180.002872,94.192593Z" fill="rgb(30%,30%,30%)" /><rect x="180.00287169212788" y="92.66814814814813" width="1.2444444444444442" height="0.14518518518518517" stroke="none" stroke-width="1" fill="white" /></g><g><path d="M 219.086268,101.659259A0.622222,0.622222 0 0 1 220.330712,101.659259L220.330712,104.562963A0.622222,0.622222 0 0 1 219.086268,104.562963Z" fill="rgb(30%,30%,30%)" /><rect x="219.08626763502798" y="103.03851851851852" width="1.2444444444444442" height="0.14518518518518517" stroke="none" stroke-width="1" fill="white" /></g><g><path d="M 23.669288,70.548148A0.622222,0.622222 0 0 1 24.913732,70.548148L24.913732,73.451852A0.622222,0.622222 0 0 1 23.669288,73.451852Z" fill="rgb(30%,30%,30%)" /><rect x="23.66928792052759" y="71.9274074074074" width="1.2444444444444442" height="0.14518518518518517" stroke="none" stroke-width="1" fill="white" /></g><g><path d="M 62.752684,60.177778A0.622222,0.622222 0 0 1 63.997128,60.177778L63.997128,63.081481A0.622222,0.622222 0 0 1 62.752684,63.081481Z" fill="rgb(30%,30%,30%)" /><rect x="62.75268386342767" y="61.55703703703704" width="1.2444444444444442" height="0.14518518518518517" stroke="none" stroke-width="1" fill="white" /></g><g><path d="M 101.836080,49.807407A0.622222,0.622222 0 0 1 103.080524,49.807407L103.080524,52.711111A0.622222,0.622222 0 0 1 101.836080,52.711111Z" fill="rgb(30%,30%,30%)" /><rect x="101.83607980632775" y="51.186666666666675" width="1.2444444444444442" height="0.14518518518518517" stroke="none" stroke-width="1" fill="white" /></g><g><path d="M 140.919476,39.437037A0.622222,0.622222 0 0 1 142.163920,39.437037L142.163920,42.340741A0.622222,0.622222 0 0 1 140.919476,42.340741Z" fill="rgb(30%,30%,30%)" /><rect x="140.91947574922781" y="40.816296296296294" width="1.2444444444444442" height="0.14518518518518517" stroke="none" stroke-width="1" fill="white" /></g><g><path d="M 180.002872,29.066667A0.622222,0.622222 0 0 1 181.247316,29.066667L181.247316,31.970370A0.622222,0.622222 0 0 1 180.002872,31.970370Z" fill="rgb(30%,30%,30%)" /><rect x="180.00287169212788" y="30.445925925925927" width="1.2444444444444442" height="0.14518518518518517" stroke="none" stroke-width="1" fill="white" /></g><g><path d="M 219.086268,39.437037A0.622222,0.622222 0 0 1 220.330712,39.437037L220.330712,42.340741A0.622222,0.622222 0 0 1 219.086268,42.340741Z" fill="rgb(30%,30%,30%)" /><rect x="219.08626763502798" y="40.816296296296294" width="1.2444444444444442" height="0.14518518518518517" stroke="none" stroke-width="1" fill="white" /></g><g><path d="M 23.669288,70.548148A0.622222,0.622222 0 0 1 24.913732,70.548148L24.913732,73.451852A0.622222,0.622222 0 0 1 23.669288,73.451852Z" fill="rgb(30%,30%,30%)" /><rect x="23.66928792052759" y="71.9274074074074" width="1.2444444444444442" height="0.14518518518518517" stroke="none" stroke-width="1" fill="white" /></g><g><path d="M 62.752684,60.177778A0.622222,0.622222 0 0 1 63.997128,60.177778L63.997128,63.081481A0.622222,0.622222 0 0 1 62.752684,63.081481Z" fill="rgb(30%,30%,30%)" /><rect x="62.75268386342767" y="61.55703703703704" width="1.2444444444444442" height="0.14518518518518517" stroke="none" stroke-width="1" fill="white" /></g><g><path d="M 101.836080,49.807407A0.622222,0.622222 0 0 1 103.080524,49.807407L103.080524,52.711111A0.622222,0.622222 0 0 1 101.836080,52.711111Z" fill="rgb(30%,30%,30%)" /><rect x="101.83607980632775" y="51.186666666666675" width="1.2444444444444442" height="0.14518518518518517" stroke="none" stroke-width="1" fill="white" /></g><g><path d="M 140.919476,60.177778A0.622222,0.622222 0 0 1 142.163920,60.177778L142.163920,63.081481A0.622222,0.622222 0 0 1 140.919476,63.081481Z" fill="rgb(30%,30%,30%)" /><rect x="140.91947574922781" y="61.55703703703704" width="1.2444444444444442" height="0.14518518518518517" stroke="none" stroke-width="1" fill="white" /></g><g><path d="M 180.002872,70.548148A0.622222,0.622222 0 0 1 181.247316,70.548148L181.247316,73.451852A0.622222,0.622222 0 0 1 180.002872,73.451852Z" fill="rgb(30%,30%,30%)" /><rect x="180.00287169212788" y="71.9274074074074" width="1.2444444444444442" height="0.14518518518518517" stroke="none" stroke-width="1" fill="white" /></g><g><path d="M 219.086268,80.918519A0.622222,0.622222 0 0 1 220.330712,80.918519L220.330712,83.822222A0.622222,0.622222 0 0 1 219.086268,83.822222Z" fill="rgb(30%,30%,30%)" /><rect x="219.08626763502798" y="82.29777777777777" width="1.2444444444444442" height="0.14518518518518517" stroke="none" stroke-width="1" fill="white" /></g><g><path d="M 23.669288,70.548148A0.622222,0.622222 0 0 1 24.913732,70.548148L24.913732,73.451852A0.622222,0.622222 0 0 1 23.669288,73.451852Z" fill="rgb(30%,30%,30%)" /><rect x="23.66928792052759" y="71.9274074074074" width="1.2444444444444442" height="0.14518518518518517" stroke="none" stroke-width="1" fill="white" /></g><g><path d="M 62.752684,80.918519A0.622222,0.622222 0 0 1 63.997128,80.918519L63.997128,83.822222A0.622222,0.622222 0 0 1 62.752684,83.822222Z" fill="rgb(30%,30%,30%)" /><rect x="62.75268386342767" y="82.29777777777777" width="1.2444444444444442" height="0.14518518518518517" stroke="none" stroke-width="1" fill="white" /></g><g><path d="M 101.836080,91.288889A0.622222,0.622222 0 0 1 103.080524,91.288889L103.080524,94.192593A0.622222,0.622222 0 0 1 101.836080,94.192593Z" fill="rgb(30%,30%,30%)" /><rect x="101.83607980632775" y="92.66814814814813" width="1.2444444444444442" height="0.14518518518518517" stroke="none" stroke-width="1" fill="white" /></g><g><path d="M 140.919476,80.918519A0.622222,0.622222 0 0 1 142.163920,80.918519L142.163920,83.822222A0.622222,0.622222 0 0 1 140.919476,83.822222Z" fill="rgb(30%,30%,30%)" /><rect x="140.91947574922781" y="82.29777777777777" width="1.2444444444444442" height="0.14518518518518517" stroke="none" stroke-width="1" fill="white" /></g><g><path d="M 180.002872,91.288889A0.622222,0.622222 0 0 1 181.247316,91.288889L181.247316,94.192593A0.622222,0.622222 0 0 1 180.002872,94.192593Z" fill="rgb(30%,30%,30%)" /><rect x="180.00287169212788" y="92.66814814814813" width="1.2444444444444442" height="0.14518518518518517" stroke="none" stroke-width="1" fill="white" /></g><g><path d="M 219.086268,101.659259A0.622222,0.622222 0 0 1 220.330712,101.659259L220.330712,104.562963A0.622222,0.622222 0 0 1 219.086268,104.562963Z" fill="rgb(30%,30%,30%)" /><rect x="219.08626763502798" y="103.03851851851852" width="1.2444444444444442" height="0.14518518518518517" stroke="none" stroke-width="1" fill="white" /></g><g><path d="M 23.669288,70.548148A0.622222,0.622222 0 0 1 24.913732,70.548148L24.913732,73.451852A0.622222,0.622222 0 0 1 23.669288,73.451852Z" fill="rgb(30%,30%,30%)" /><rect x="23.66928792052759" y="71.9274074074074" width="1.2444444444444442" height="0.14518518518518517" stroke="none" stroke-width="1" fill="white" /></g><g><path d="M 62.752684,60.177778A0.622222,0.622222 0 0 1 63.997128,60.177778L63.997128,63.081481A0.622222,0.622222 0 0 1 62.752684,63.081481Z" fill="rgb(30%,30%,30%)" /><rect x="62.75268386342767" y="61.55703703703704" width="1.2444444444444442" height="0.14518518518518517" stroke="none" stroke-width="1" fill="white" /></g><g><path d="M 101.836080,70.548148A0.622222,0.622222 0 0 1 103.080524,70.548148L103.080524,73.451852A0.622222,0.622222 0 0 1 101.836080,73.451852Z" fill="rgb(30%,30%,30%)" /><rect x="101.83607980632775" y="71.9274074074074" width="1.2444444444444442" height="0.14518518518518517" stroke="none" stroke-width="1" fill="white" /></g><g><path d="M 140.919476,80.918519A0.622222,0.622222 0 0 1 142.163920,80.918519L142.163920,83.822222A0.622222,0.622222 0 0 1 140.919476,83.822222Z" fill="rgb(30%,30%,30%)" /><rect x="140.91947574922781" y="82.29777777777777" width="1.2444444444444442" height="0.14518518518518517" stroke="none" stroke-width="1" fill="white" /></g><g><path d="M 180.002872,70.548148A0.622222,0.622222 0 0 1 181.247316,70.548148L181.247316,73.451852A0.622222,0.622222 0 0 1 180.002872,73.451852Z" fill="rgb(30%,30%,30%)" /><rect x="180.00287169212788" y="71.9274074074074" width="1.2444444444444442" height="0.14518518518518517" stroke="none" stroke-width="1" fill="white" /></g><g><path d="M 219.086268,60.177778A0.622222,0.622222 0 0 1 220.330712,60.177778L220.330712,63.081481A0.622222,0.622222 0 0 1 219.086268,63.081481Z" fill="rgb(30%,30%,30%)" /><rect x="219.08626763502798" y="61.55703703703704" width="1.2444444444444442" height="0.14518518518518517" stroke="none" stroke-width="1" fill="white" /></g><g><path d="M 23.669288,70.548148A0.622222,0.622222 0 0 1 24.913732,70.548148L24.913732,73.451852A0.622222,0.622222 0 0 1 23.669288,73.451852Z" fill="rgb(30%,30%,30%)" /><rect x="23.66928792052759" y="71.9274074074074" width="1.2444444444444442" height="0.14518518518518517" stroke="none" stroke-width="1" fill="white" /></g><g><path d="M 62.752684,80.918519A0.622222,0.622222 0 0 1 63.997128,80.918519L63.997128,83.822222A0.622222,0.622222 0 0 1 62.752684,83.822222Z" fill="rgb(30%,30%,30%)" /><rect x="62.75268386342767" y="82.29777777777777" width="1.2444444444444442" height="0.14518518518518517" stroke="none" stroke-width="1" fill="white" /></g><g><path d="M 101.836080,91.288889A0.622222,0.622222 0 0 1 103.080524,91.288889L103.080524,94.192593A0.622222,0.622222 0 0 1 101.836080,94.192593Z" fill="rgb(30%,30%,30%)" /><rect x="101.83607980632775" y="92.66814814814813" width="1.2444444444444442" height="0.14518518518518517" stroke="none" stroke-width="1" fill="white" /></g><g><path d="M 140.919476,101.659259A0.622222,0.622222 0 0 1 142.163920,101.659259L142.163920,104.562963A0.622222,0.622222 0 0 1 140.919476,104.562963Z" fill="rgb(30%,30%,30%)" /><rect x="140.91947574922781" y="103.03851851851852" width="1.2444444444444442" height="0.14518518518518517" stroke="none" stroke-width="1" fill="white" /></g><g><path d="M 180.002872,91.288889A0.622222,0.622222 0 0 1 181.247316,91.288889L181.247316,94.192593A0.622222,0.622222 0 0 1 180.002872,94.192593Z" fill="rgb(30%,30%,30%)" /><rect x="180.00287169212788" y="92.66814814814813" width="1.2444444444444442" height="0.14518518518518517" stroke="none" stroke-width="1" fill="white" /></g><g><path d="M 219.086268,80.918519A0.622222,0.622222 0 0 1 220.330712,80.918519L220.330712,83.822222A0.622222,0.622222 0 0 1 219.086268,83.822222Z" fill="rgb(30%,30%,30%)" /><rect x="219.08626763502798" y="82.29777777777777" width="1.2444444444444442" height="0.14518518518518517" stroke="none" stroke-width="1" fill="white" /></g><g><path d="M 23.669288,70.548148A0.622222,0.622222 0 0 1 24.913732,70.548148L24.913732,73.451852A0.622222,0.622222 0 0 1 23.669288,73.451852Z" fill="rgb(30%,30%,30%)" /><rect x="23.66928792052759" y="71.9274074074074" width="1.2444444444444442" height="0.14518518518518517" stroke="none" stroke-width="1" fill="white" /></g><g><path d="M 62.752684,60.177778A0.622222,0.622222 0 0 1 63.997128,60.177778L63.997128,63.081481A0.622222,0.622222 0 0 1 62.752684,63.081481Z" fill="rgb(30%,30%,30%)" /><rect x="62.75268386342767" y="61.55703703703704" width="1.2444444444444442" height="0.14518518518518517" stroke="none" stroke-width="1" fill="white" /></g><g><path d="M 101.836080,49.807407A0.622222,0.622222 0 0 1 103.080524,49.807407L103.080524,52.711111A0.622222,0.622222 0 0 1 101.836080,52.711111Z" fill="rgb(30%,30%,30%)" /><rect x="101.83607980632775" y="51.186666666666675" width="1.2444444444444442" height="0.14518518518518517" stroke="none" stroke-width="1" fill="white" /></g><g><path d="M 140.919476,39.437037A0.622222,0.622222 0 0 1 142.163920,39.437037L142.163920,42.340741A0.622222,0.622222 0 0 1 140.919476,42.340741Z" fill="rgb(30%,30%,30%)" /><rect x="140.91947574922781" y="40.816296296296294" width="1.2444444444444442" height="0.14518518518518517" stroke="none" stroke-width="1" fill="white" /></g><g><path d="M 180.002872,49.807407A0.622222,0.622222 0 0 1 181.247316,49.807407L181.247316,52.711111A0.622222,0.622222 0 0 1 180.002872,52.711111Z" fill="rgb(30%,30%,30%)" /><rect x="180.00287169212788" y="51.186666666666675" width="1.2444444444444442" height="0.14518518518518517" stroke="none" stroke-width="1" fill="white" /></g><g><path d="M 219.086268,39.437037A0.622222,0.622222 0 0 1 220.330712,39.437037L220.330712,42.340741A0.622222,0.622222 0 0 1 219.086268,42.340741Z" fill="rgb(30%,30%,30%)" /><rect x="219.08626763502798" y="40.816296296296294" width="1.2444444444444442" height="0.14518518518518517" stroke="none" stroke-width="1" fill="white" /></g><g><path d="M 23.669288,70.548148A0.622222,0.622222 0 0 1 24.913732,70.548148L24.913732,73.451852A0.622222,0.622222 0 0 1 23.669288,73.451852Z" fill="rgb(30%,30%,30%)" /><rect x="23.66928792052759" y="71.9274074074074" width="1.2444444444444442" height="0.14518518518518517" stroke="none" stroke-width="1" fill="white" /></g><g><path d="M 62.752684,60.177778A0.622222,0.622222 0 0 1 63.997128,60.177778L63.997128,63.081481A0.622222,0.622222 0 0 1 62.752684,63.081481Z" fill="rgb(30%,30%,30%)" /><rect x="62.75268386342767" y="61.55703703703704" width="1.2444444444444442" height="0.14518518518518517" stroke="none" stroke-width="1" fill="white" /></g><g><path d="M 101.836080,70.548148A0.622222,0.622222 0 0 1 103.080524,70.548148L103.080524,73.451852A0.622222,0.622222 0 0 1 101.836080,73.451852Z" fill="rgb(30%,30%,30%)" /><rect x="101.83607980632775" y="71.9274074074074" width="1.2444444444444442" height="0.14518518518518517" stroke="none" stroke-width="1" fill="white" /></g><g><path d="M 140.919476,60.177778A0.622222,0.622222 0 0 1 142.163920,60.177778L142.163920,63.081481A0.622222,0.622222 0 0 1 140.919476,63.081481Z" fill="rgb(30%,30%,30%)" /><rect x="140.91947574922781" y="61.55703703703704" width="1.2444444444444442" height="0.14518518518518517" stroke="none" stroke-width="1" fill="white" /></g><g><path d="M 180.002872,49.807407A0.622222,0.622222 0 0 1 181.247316,49.807407L181.247316,52.711111A0.622222,0.622222 0 0 1 180.002872,52.711111Z" fill="rgb(30%,30%,30%)" /><rect x="180.00287169212788" y="51.186666666666675" width="1.2444444444444442" height="0.14518518518518517" stroke="none" stroke-width="1" fill="white" /></g><g><path d="M 219.086268,39.437037A0.622222,0.622222 0 0 1 220.330712,39.437037L220.330712,42.340741A0.622222,0.622222 0 0 1 219.086268,42.340741Z" fill="rgb(30%,30%,30%)" /><rect x="219.08626763502798" y="40.816296296296294" width="1.2444444444444442" height="0.14518518518518517" stroke="none" stroke-width="1" fill="white" /></g><g><path d="M 23.669288,70.548148A0.622222,0.622222 0 0 1 24.913732,70.548148L24.913732,73.451852A0.622222,0.622222 0 0 1 23.669288,73.451852Z" fill="rgb(30%,30%,30%)" /><rect x="23.66928792052759" y="71.9274074074074" width="1.2444444444444442" height="0.14518518518518517" stroke="none" stroke-width="1" fill="white" /></g><g><path d="M 62.752684,80.918519A0.622222,0.622222 0 0 1 63.997128,80.918519L63.997128,83.822222A0.622222,0.622222 0 0 1 62.752684,83.822222Z" fill="rgb(30%,30%,30%)" /><rect x="62.75268386342767" y="82.29777777777777" width="1.2444444444444442" height="0.14518518518518517" stroke="none" stroke-width="1" fill="white" /></g><g><path d="M 101.836080,91.288889A0.622222,0.622222 0 0 1 103.080524,91.288889L103.080524,94.192593A0.622222,0.622222 0 0 1 101.836080,94.192593Z" fill="rgb(30%,30%,30%)" /><rect x="101.83607980632775" y="92.66814814814813" width="1.2444444444444442" height="0.14518518518518517" stroke="none" stroke-width="1" fill="white" /></g><g><path d="M 140.919476,80.918519A0.622222,0.622222 0 0 1 142.163920,80.918519L142.163920,83.822222A0.622222,0.622222 0 0 1 140.919476,83.822222Z" fill="rgb(30%,30%,30%)" /><rect x="140.91947574922781" y="82.29777777777777" width="1.2444444444444442" height="0.14518518518518517" stroke="none" stroke-width="1" fill="white" /></g><g><path d="M 180.002872,70.548148A0.622222,0.622222 0 0 1 181.247316,70.548148L181.247316,73.451852A0.622222,0.622222 0 0 1 180.002872,73.451852Z" fill="rgb(30%,30%,30%)" /><rect x="180.00287169212788" y="71.9274074074074" width="1.2444444444444442" height="0.14518518518518517" stroke="none" stroke-width="1" fill="white" /></g><g><path d="M 219.086268,80.918519A0.622222,0.622222 0 0 1 220.330712,80.918519L220.330712,83.822222A0.622222,0.622222 0 0 1 219.086268,83.822222Z" fill="rgb(30%,30%,30%)" /><rect x="219.08626763502798" y="82.29777777777777" width="1.2444444444444442" height="0.14518518518518517" stroke="none" stroke-width="1" fill="white" /></g><g><path d="M 23.669288,70.548148A0.622222,0.622222 0 0 1 24.913732,70.548148L24.913732,73.451852A0.622222,0.622222 0 0 1 23.669288,73.451852Z" fill="rgb(30%,30%,30%)" /><rect x="23.66928792052759" y="71.9274074074074" width="1.2444444444444442" height="0.14518518518518517" stroke="none" stroke-width="1" fill="white" /></g><g><path d="M 62.752684,60.177778A0.622222,0.622222 0 0 1 63.997128,60.177778L63.997128,63.081481A0.622222,0.622222 0 0 1 62.752684,63.081481Z" fill="rgb(30%,30%,30%)" /><rect x="62.75268386342767" y="61.55703703703704" width="1.2444444444444442" height="0.14518518518518517" stroke="none" stroke-width="1" fill="white" /></g><g><path d="M 101.836080,70.548148A0.622222,0.622222 0 0 1 103.080524,70.548148L103.080524,73.451852A0.622222,0.622222 0 0 1 101.836080,73.451852Z" fill="rgb(30%,30%,30%)" /><rect x="101.83607980632775" y="71.9274074074074" width="1.2444444444444442" height="0.14518518518518517" stroke="none" stroke-width="1" fill="white" /></g><g><path d="M 140.919476,80.918519A0.622222,0.622222 0 0 1 142.163920,80.918519L142.163920,83.822222A0.622222,0.622222 0 0 1 140.919476,83.822222Z" fill="rgb(30%,30%,30%)" /><rect x="140.91947574922781" y="82.29777777777777" width="1.2444444444444442" height="0.14518518518518517" stroke="none" stroke-width="1" fill="white" /></g><g><path d="M 180.002872,91.288889A0.622222,0.622222 0 0 1 181.247316,91.288889L181.247316,94.192593A0.622222,0.622222 0 0 1 180.002872,94.192593Z" fill="rgb(30%,30%,30%)" /><rect x="180.00287169212788" y="92.66814814814813" width="1.2444444444444442" height="0.14518518518518517" stroke="none" stroke-width="1" fill="white" /></g><g><path d="M 219.086268,101.659259A0.622222,0.622222 0 0 1 220.330712,101.659259L220.330712,104.562963A0.622222,0.622222 0 0 1 219.086268,104.562963Z" fill="rgb(30%,30%,30%)" /><rect x="219.08626763502798" y="103.03851851851852" width="1.2444444444444442" height="0.14518518518518517" stroke="none" stroke-width="1" fill="white" /></g><g><path d="M 23.669288,70.548148A0.622222,0.622222 0 0 1 24.913732,70.548148L24.913732,73.451852A0.622222,0.622222 0 0 1 23.669288,73.451852Z" fill="rgb(30%,30%,30%)" /><rect x="23.66928792052759" y="71.9274074074074" width="1.2444444444444442" height="0.14518518518518517" stroke="none" stroke-width="1" fill="white" /></g><g><path d="M 62.752684,60.177778A0.622222,0.622222 0 0 1 63.997128,60.177778L63.997128,63.081481A0.622222,0.622222 0 0 1 62.752684,63.081481Z" fill="rgb(30%,30%,30%)" /><rect x="62.75268386342767" y="61.55703703703704" width="1.2444444444444442" height="0.14518518518518517" stroke="none" stroke-width="1" fill="white" /></g><g><path d="M 101.836080,49.807407A0.622222,0.622222 0 0 1 103.080524,49.807407L103.080524,52.711111A0.622222,0.622222 0 0 1 101.836080,52.711111Z" fill="rgb(30%,30%,30%)" /><rect x="101.83607980632775" y="51.186666666666675" width="1.2444444444444442" height="0.14518518518518517" stroke="none" stroke-width="1" fill="white" /></g><g><path d="M 140.919476,39.437037A0.622222,0.622222 0 0 1 142.163920,39.437037L142.163920,42.340741A0.622222,0.622222 0 0 1 140.919476,42.340741Z" fill="rgb(30%,30%,30%)" /><rect x="140.91947574922781" y="40.816296296296294" width="1.2444444444444442" height="0.14518518518518517" stroke="none" stroke-width="1" fill="white" /></g><g><path d="M 180.002872,49.807407A0.622222,0.622222 0 0 1 181.247316,49.807407L181.247316,52.711111A0.622222,0.622222 0 0 1 180.002872,52.711111Z" fill="rgb(30%,30%,30%)" /><rect x="180.00287169212788" y="51.186666666666675" width="1.2444444444444442" height="0.14518518518518517" stroke="none" stroke-width="1" fill="white" /></g><g><path d="M 219.086268,60.177778A0.622222,0.622222 0 0 1 220.330712,60.177778L220.330712,63.081481A0.622222,0.622222 0 0 1 219.086268,63.081481Z" fill="rgb(30%,30%,30%)" /><rect x="219.08626763502798" y="61.55703703703704" width="1.2444444444444442" height="0.14518518518518517" stroke="none" stroke-width="1" fill="white" /></g><g><path d="M 23.669288,70.548148A0.622222,0.622222 0 0 1 24.913732,70.548148L24.913732,73.451852A0.622222,0.622222 0 0 1 23.669288,73.451852Z" fill="rgb(30%,30%,30%)" /><rect x="23.66928792052759" y="71.9274074074074" width="1.2444444444444442" height="0.14518518518518517" stroke="none" stroke-width="1" fill="white" /></g><g><path d="M 62.752684,80.918519A0.622222,0.622222 0 0 1 63.997128,80.918519L63.997128,83.822222A0.622222,0.622222 0 0 1 62.752684,83.822222Z" fill="rgb(30%,30%,30%)" /><rect x="62.75268386342767" y="82.29777777777777" width="1.2444444444444442" height="0.14518518518518517" stroke="none" stroke-width="1" fill="white" /></g><g><path d="M 101.836080,91.288889A0.622222,0.622222 0 0 1 103.080524,91.288889L103.080524,94.192593A0.622222,0.622222 0 0 1 101.836080,94.192593Z" fill="rgb(30%,30%,30%)" /><rect x="101.83607980632775" y="92.66814814814813" width="1.2444444444444442" height="0.14518518518518517" stroke="none" stroke-width="1" fill="white" /></g><g><path d="M 140.919476,101.659259A0.622222,0.622222 0 0 1 142.163920,101.659259L142.163920,104.562963A0.622222,0.622222 0 0 1 140.919476,104.562963Z" fill="rgb(30%,30%,30%)" /><rect x="140.91947574922781" y="103.03851851851852" width="1.2444444444444442" height="0.14518518518518517" stroke="none" stroke-width="1" fill="white" /></g><g><path d="M 180.002872,91.288889A0.622222,0.622222 0 0 1 181.247316,91.288889L181.247316,94.192593A0.622222,0.622222 0 0 1 180.002872,94.192593Z" fill="rgb(30%,30%,30%)" /><rect x="180.00287169212788" y="92.66814814814813" width="1.2444444444444442" height="0.14518518518518517" stroke="none" stroke-width="1" fill="white" /></g><g><path d="M 219.086268,101.659259A0.622222,0.622222 0 0 1 220.330712,101.659259L220.330712,104.562963A0.622222,0.622222 0 0 1 219.086268,104.562963Z" fill="rgb(30%,30%,30%)" /><rect x="219.08626763502798" y="103.03851851851852" width="1.2444444444444442" height="0.14518518518518517" stroke="none" stroke-width="1" fill="white" /></g><g><path d="M 23.669288,70.548148A0.622222,0.622222 0 0 1 24.913732,70.548148L24.913732,73.451852A0.622222,0.622222 0 0 1 23.669288,73.451852Z" fill="rgb(30%,30%,30%)" /><rect x="23.66928792052759" y="71.9274074074074" width="1.2444444444444442" height="0.14518518518518517" stroke="none" stroke-width="1" fill="white" /></g><g><path d="M 62.752684,80.918519A0.622222,0.622222 0 0 1 63.997128,80.918519L63.997128,83.822222A0.622222,0.622222 0 0 1 62.752684,83.822222Z" fill="rgb(30%,30%,30%)" /><rect x="62.75268386342767" y="82.29777777777777" width="1.2444444444444442" height="0.14518518518518517" stroke="none" stroke-width="1" fill="white" /></g><g><path d="M 101.836080,70.548148A0.622222,0.622222 0 0 1 103.080524,70.548148L103.080524,73.451852A0.622222,0.622222 0 0 1 101.836080,73.451852Z" fill="rgb(30%,30%,30%)" /><rect x="101.83607980632775" y="71.9274074074074" width="1.2444444444444442" height="0.14518518518518517" stroke="none" stroke-width="1" fill="white" /></g><g><path d="M 140.919476,80.918519A0.622222,0.622222 0 0 1 142.163920,80.918519L142.163920,83.822222A0.622222,0.622222 0 0 1 140.919476,83.822222Z" fill="rgb(30%,30%,30%)" /><rect x="140.91947574922781" y="82.29777777777777" width="1.2444444444444442" height="0.14518518518518517" stroke="none" stroke-width="1" fill="white" /></g><g><path d="M 180.002872,70.548148A0.622222,0.622222 0 0 1 181.247316,70.548148L181.247316,73.451852A0.622222,0.622222 0 0 1 180.002872,73.451852Z" fill="rgb(30%,30%,30%)" /><rect x="180.00287169212788" y="71.9274074074074" width="1.2444444444444442" height="0.14518518518518517" stroke="none" stroke-width="1" fill="white" /></g><g><path d="M 219.086268,60.177778A0.622222,0.622222 0 0 1 220.330712,60.177778L220.330712,63.081481A0.622222,0.622222 0 0 1 219.086268,63.081481Z" fill="rgb(30%,30%,30%)" /><rect x="219.08626763502798" y="61.55703703703704" width="1.2444444444444442" height="0.14518518518518517" stroke="none" stroke-width="1" fill="white" /></g><g><path d="M 23.669288,70.548148A0.622222,0.622222 0 0 1 24.913732,70.548148L24.913732,73.451852A0.622222,0.622222 0 0 1 23.669288,73.451852Z" fill="rgb(30%,30%,30%)" /><rect x="23.66928792052759" y="71.9274074074074" width="1.2444444444444442" height="0.14518518518518517" stroke="none" stroke-width="1" fill="white" /></g><g><path d="M 62.752684,80.918519A0.622222,0.622222 0 0 1 63.997128,80.918519L63.997128,83.822222A0.622222,0.622222 0 0 1 62.752684,83.822222Z" fill="rgb(30%,30%,30%)" /><rect x="62.75268386342767" y="82.29777777777777" width="1.2444444444444442" height="0.14518518518518517" stroke="none" stroke-width="1" fill="white" /></g><g><path d="M 101.836080,91.288889A0.622222,0.622222 0 0 1 103.080524,91.288889L103.080524,94.192593A0.622222,0.622222 0 0 1 101.836080,94.192593Z" fill="rgb(30%,30%,30%)" /><rect x="101.83607980632775" y="92.66814814814813" width="1.2444444444444442" height="0.14518518518518517" stroke="none" stroke-width="1" fill="white" /></g><g><path d="M 140.919476,101.659259A0.622222,0.622222 0 0 1 142.163920,101.659259L142.163920,104.562963A0.622222,0.622222 0 0 1 140.919476,104.562963Z" fill="rgb(30%,30%,30%)" /><rect x="140.91947574922781" y="103.03851851851852" width="1.2444444444444442" height="0.14518518518518517" stroke="none" stroke-width="1" fill="white" /></g><g><path d="M 180.002872,112.029630A0.622222,0.622222 0 0 1 181.247316,112.029630L181.247316,114.933333A0.622222,0.622222 0 0 1 180.002872,114.933333Z" fill="rgb(30%,30%,30%)" /><rect x="180.00287169212788" y="113.40888888888888" width="1.2444444444444442" height="0.14518518518518517" stroke="none" stroke-width="1" fill="white" /></g><g><path d="M 219.086268,122.400000A0.622222,0.622222 0 0 1 220.330712,122.400000L220.330712,125.303704A0.622222,0.622222 0 0 1 219.086268,125.303704Z" fill="rgb(30%,30%,30%)" /><rect x="219.08626763502798" y="123.77925925925925" width="1.2444444444444442" height="0.14518518518518517" stroke="none" stroke-width="1" fill="white" /></g><g><path d="M 23.669288,70.548148A0.622222,0.622222 0 0 1 24.913732,70.548148L24.913732,73.451852A0.622222,0.622222 0 0 1 23.669288,73.451852Z" fill="rgb(30%,30%,30%)" /><rect x="23.66928792052759" y="71.9274074074074" width="1.2444444444444442" height="0.14518518518518517" stroke="none" stroke-width="1" fill="white" /></g><g><path d="M 62.752684,60.177778A0.622222,0.622222 0 0 1 63.997128,60.177778L63.997128,63.081481A0.622222,0.622222 0 0 1 62.752684,63.081481Z" fill="rgb(30%,30%,30%)" /><rect x="62.75268386342767" y="61.55703703703704" width="1.2444444444444442" height="0.14518518518518517" stroke="none" stroke-width="1" fill="white" /></g><g><path d="M 101.836080,70.548148A0.622222,0.622222 0 0 1 103.080524,70.548148L103.080524,73.451852A0.622222,0.622222 0 0 1 101.836080,73.451852Z" fill="rgb(30%,30%,30%)" /><rect x="101.83607980632775" y="71.9274074074074" width="1.2444444444444442" height="0.14518518518518517" stroke="none" stroke-width="1" fill="white" /></g><g><path d="M 140.919476,60.177778A0.622222,0.622222 0 0 1 142.163920,60.177778L142.163920,63.081481A0.622222,0.622222 0 0 1 140.919476,63.081481Z" fill="rgb(30%,30%,30%)" /><rect x="140.91947574922781" y="61.55703703703704" width="1.2444444444444442" height="0.14518518518518517" stroke="none" stroke-width="1" fill="white" /></g><g><path d="M 180.002872,49.807407A0.622222,0.622222 0 0 1 181.247316,49.807407L181.247316,52.711111A0.622222,0.622222 0 0 1 180.002872,52.711111Z" fill="rgb(30%,30%,30%)" /><rect x="180.00287169212788" y="51.186666666666675" width="1.2444444444444442" height="0.14518518518518517" stroke="none" stroke-width="1" fill="white" /></g><g><path d="M 219.086268,49.807407A0.622222,0.622222 0 0 1 220.330712,49.807407L220.330712,52.711111A0.622222,0.622222 0 0 1 219.086268,52.711111Z" fill="rgb(30%,30%,30%)" /><rect x="219.08626763502798" y="51.186666666666675" width="1.2444444444444442" height="0.14518518518518517" stroke="none" stroke-width="1" fill="white" /></g><g><path d="M 23.669288,70.548148A0.622222,0.622222 0 0 1 24.913732,70.548148L24.913732,73.451852A0.622222,0.622222 0 0 1 23.669288,73.451852Z" fill="rgb(30%,30%,30%)" /><rect x="23.66928792052759" y="71.9274074074074" width="1.2444444444444442" height="0.14518518518518517" stroke="none" stroke-width="1" fill="white" /></g><g><path d="M 62.752684,80.918519A0.622222,0.622222 0 0 1 63.997128,80.918519L63.997128,83.822222A0.622222,0.622222 0 0 1 62.752684,83.822222Z" fill="rgb(30%,30%,30%)" /><rect x="62.75268386342767" y="82.29777777777777" width="1.2444444444444442" height="0.14518518518518517" stroke="none" stroke-width="1" fill="white" /></g><g><path d="M 101.836080,91.288889A0.622222,0.622222 0 0 1 103.080524,91.288889L103.080524,94.192593A0.622222,0.622222 0 0 1 101.836080,94.192593Z" fill="rgb(30%,30%,30%)" /><rect x="101.83607980632775" y="92.66814814814813" width="1.2444444444444442" height="0.14518518518518517" stroke="none" stroke-width="1" fill="white" /></g><g><path d="M 140.919476,101.659259A0.622222,0.622222 0 0 1 142.163920,101.659259L142.163920,104.562963A0.622222,0.622222 0 0 1 140.919476,104.562963Z" fill="rgb(30%,30%,30%)" /><rect x="140.91947574922781" y="103.03851851851852" width="1.2444444444444442" height="0.14518518518518517" stroke="none" stroke-width="1" fill="white" /></g><g><path d="M 180.002872,112.029630A0.622222,0.622222 0 0 1 181.247316,112.029630L181.247316,114.933333A0.622222,0.622222 0 0 1 180.002872,114.933333Z" fill="rgb(30%,30%,30%)" /><rect x="180.00287169212788" y="113.40888888888888" width="1.2444444444444442" height="0.14518518518518517" stroke="none" stroke-width="1" fill="white" /></g><g><path d="M 219.086268,101.659259A0.622222,0.622222 0 0 1 220.330712,101.659259L220.330712,104.562963A0.622222,0.622222 0 0 1 219.086268,104.562963Z" fill="rgb(30%,30%,30%)" /><rect x="219.08626763502798" y="103.03851851851852" width="1.2444444444444442" height="0.14518518518518517" stroke="none" stroke-width="1" fill="white" /></g><image x="124.35266716754322" y="95.5925925925926" width="204" height="10.37037037037037" xlink:href="./../outputs/logos/nfl/BAL.png" href="./../outputs/logos/nfl/BAL.png" /><image x="124.35266716754322" y="35.70370370370371" width="204" height="10.37037037037037" xlink:href="./../outputs/logos/nfl/BUF.png" href="./../outputs/logos/nfl/BUF.png" /><image x="124.35266716754322" y="77.18518518518519" width="204" height="10.37037037037037" xlink:href="./../outputs/logos/nfl/CIN.png" href="./../outputs/logos/nfl/CIN.png" /><image x="132.16934635612324" y="95.5925925925926" width="204" height="10.37037037037037" xlink:href="./../outputs/logos/nfl/CLE.png" href="./../outputs/logos/nfl/CLE.png" /><image x="124.35266716754322" y="56.44444444444446" width="204" height="10.37037037037037" xlink:href="./../outputs/logos/nfl/DEN.png" href="./../outputs/logos/nfl/DEN.png" /><image x="132.16934635612324" y="77.18518518518519" width="204" height="10.37037037037037" xlink:href="./../outputs/logos/nfl/HOU.png" href="./../outputs/logos/nfl/HOU.png" /><image x="132.16934635612324" y="35.70370370370371" width="204" height="10.37037037037037" xlink:href="./../outputs/logos/nfl/IND.png" href="./../outputs/logos/nfl/IND.png" /><image x="139.98602554470324" y="35.70370370370371" width="204" height="10.37037037037037" xlink:href="./../outputs/logos/nfl/JAX.png" href="./../outputs/logos/nfl/JAX.png" /><image x="139.98602554470324" y="77.18518518518519" width="204" height="10.37037037037037" xlink:href="./../outputs/logos/nfl/KC.png" href="./../outputs/logos/nfl/KC.png" /><image x="139.98602554470324" y="95.5925925925926" width="204" height="10.37037037037037" xlink:href="./../outputs/logos/nfl/LV.png" href="./../outputs/logos/nfl/LV.png" /><image x="132.16934635612324" y="56.44444444444446" width="204" height="10.37037037037037" xlink:href="./../outputs/logos/nfl/LAC.png" href="./../outputs/logos/nfl/LAC.png" /><image x="147.80270473328324" y="95.5925925925926" width="204" height="10.37037037037037" xlink:href="./../outputs/logos/nfl/MIA.png" href="./../outputs/logos/nfl/MIA.png" /><image x="139.98602554470324" y="56.44444444444446" width="204" height="10.37037037037037" xlink:href="./../outputs/logos/nfl/NE.png" href="./../outputs/logos/nfl/NE.png" /><image x="124.35266716754322" y="118.66666666666666" width="204" height="10.37037037037037" xlink:href="./../outputs/logos/nfl/NYJ.png" href="./../outputs/logos/nfl/NYJ.png" /><image x="124.35266716754322" y="46.074074074074076" width="204" height="10.37037037037037" xlink:href="./../outputs/logos/nfl/PIT.png" href="./../outputs/logos/nfl/PIT.png" /><image x="124.35266716754322" y="100.25925925925925" width="204" height="10.37037037037037" xlink:href="./../outputs/logos/nfl/TEN.png" href="./../outputs/logos/nfl/TEN.png" /></g><text x="254.5" y="142" stroke="none" fill="black" font-size="3" font-family="auto" text-anchor="end" dx="0" dy="0" transform="none" id="">Graphic by Vivian (vbbcla)</text><text x="254.5" y="138" stroke="none" fill="black" font-size="3" font-family="auto" text-anchor="end" dx="0" dy="0" transform="none" id="">Note: Tiebreakers not visualized</text></svg>