<svg width="256" height="144" xmlns="http://www.w3.org/2000/svg" xmlns:xlink="http://www.w3.org/1999/xlink" version="2.0"><style>
* {
font-family: "Merriweather Sans";
font-weight: 300;
}
#title {
font-weight: normal
}
</style><rect x="0" y="0" width="256" height="144" stroke="none" stroke-width="1" fill="#ffeceb" /><text x="128" y="12" stroke="none" fill="black" font-size="8" font-family="auto" text-anchor="middle" dx="0" dy="0" transform="none" id="title">NFL Graphical Standings &#8211; Week 5, 2025 &#8211; AFC</text><text x="8" y="72" stroke="none" fill="black" font-size="6" font-family="auto" text-anchor="middle" dx="0" dy="0" transform="rotate(-90,8,72)" id="">Wins above .500</text><text x="126.0" y="140" stroke="none" fill="black" font-size="6" font-family="auto" text-anchor="middle" dx="0" dy="0" transform="none" id="">Week</text><g><g><line x1="24.298334540188268" x2="24.298334540188268" y1="128.0" y2="16.0" stroke="rgb(90%,90%,90%)" stroke-width="0.5" stroke-linecap="square" /><line x1="64.97900072411295" x2="64.97900072411295" y1="128.0" y2="16.0" stroke="rgb(90%,90%,90%)" stroke-width="0.5" stroke-linecap="square" /><line x1="105.65966690803766" x2="105.65966690803766" y1="128.0" y2="16.0" stroke="rgb(90%,90%,90%)" stroke-width="0.5" stroke-linecap="square" /><line x1="146.34033309196235" x2="146.34033309196235" y1="128.0" y2="16.0" stroke="rgb(90%,90%,90%)" stroke-width="0.5" stroke-linecap="square" /><line x1="187.02099927588705" x2="187.02099927588705" y1="128.0" y2="16.0" stroke="rgb(90%,90%,90%)" stroke-width="0.5" stroke-linecap="square" /><line x1="227.70166545981175" x2="227.70166545981175" y1="128.0" y2="16.0" stroke="rgb(90%,90%,90%)" stroke-width="0.5" stroke-linecap="square" /><line x1="20.0" x2="232.0" y1="123.85185185185185" y2="123.85185185185185" stroke="rgb(90%,90%,90%)" stroke-width="0.5" stroke-linecap="square" /><line x1="20.0" x2="232.0" y1="113.48148148148148" y2="113.48148148148148" stroke="rgb(90%,90%,90%)" stroke-width="0.5" stroke-linecap="square" /><line x1="20.0" x2="232.0" y1="103.11111111111111" y2="103.11111111111111" stroke="rgb(90%,90%,90%)" stroke-width="0.5" stroke-linecap="square" /><line x1="20.0" x2="232.0" y1="92.74074074074073" y2="92.74074074074073" stroke="rgb(90%,90%,90%)" stroke-width="0.5" stroke-linecap="square" /><line x1="20.0" x2="232.0" y1="82.37037037037037" y2="82.37037037037037" stroke="rgb(90%,90%,90%)" stroke-width="0.5" stroke-linecap="square" /><line x1="20.0" x2="232.0" y1="72.0" y2="72.0" stroke="rgb(90%,90%,90%)" stroke-width="0.5" stroke-linecap="square" /><line x1="20.0" x2="232.0" y1="61.62962962962963" y2="61.62962962962963" stroke="rgb(90%,90%,90%)" stroke-width="0.5" stroke-linecap="square" /><line x1="20.0" x2="232.0" y1="51.25925925925927" y2="51.25925925925927" stroke="rgb(90%,90%,90%)" stroke-width="0.5" stroke-linecap="square" /><line x1="20.0" x2="232.0" y1="40.888888888888886" y2="40.888888888888886" stroke="rgb(90%,90%,90%)" stroke-width="0.5" stroke-linecap="square" /><line x1="20.0" x2="232.0" y1="30.51851851851852" y2="30.51851851851852" stroke="rgb(90%,90%,90%)" stroke-width="0.5" stroke-linecap="square" /><line x1="20.0" x2="232.0" y1="20.148148148148152" y2="20.148148148148152" stroke="rgb(90%,90%,90%)" stroke-width="0.5" stroke-linecap="square" /></g><g><line x1="24.298334540188268" x2="24.298334540188268" y1="128.0" y2="16.0" stroke="rgb(80%,80%,80%)" stroke-width="0.5" stroke-linecap="square" /><line x1="64.97900072411295" x2="64.97900072411295" y1="128.0" y2="16.0" stroke="rgb(80%,80%,80%)" stroke-width="0.5" stroke-linecap="square" /><line x1="105.65966690803766" x2="105.65966690803766" y1="128.0" y2="16.0" stroke="rgb(80%,80%,80%)" stroke-width="0.5" stroke-linecap="square" /><line x1="146.34033309196235" x2="146.34033309196235" y1="128.0" y2="16.0" stroke="rgb(80%,80%,80%)" stroke-width="0.5" stroke-linecap="square" /><line x1="187.02099927588705" x2="187.02099927588705" y1="128.0" y2="16.0" stroke="rgb(80%,80%,80%)" stroke-width="0.5" stroke-linecap="square" /><line x1="227.70166545981175" x2="227.70166545981175" y1="128.0" y2="16.0" stroke="rgb(80%,80%,80%)" stroke-width="0.5" stroke-linecap="square" /><line x1="20.0" x2="232.0" y1="123.85185185185185" y2="123.85185185185185" stroke="rgb(80%,80%,80%)" stroke-width="0.5" stroke-linecap="square" /><line x1="20.0" x2="232.0" y1="113.48148148148148" y2="113.48148148148148" stroke="rgb(80%,80%,80%)" stroke-width="0.5" stroke-linecap="square" /><line x1="20.0" x2="232.0" y1="103.11111111111111" y2="103.11111111111111" stroke="rgb(80%,80%,80%)" stroke-width="0.5" stroke-linecap="square" /><line x1="20.0" x2="232.0" y1="92.74074074074073" y2="92.74074074074073" stroke="rgb(80%,80%,80%)" stroke-width="0.5" stroke-linecap="square" /><line x1="20.0" x2="232.0" y1="82.37037037037037" y2="82.37037037037037" stroke="rgb(80%,80%,80%)" stroke-width="0.5" stroke-linecap="square" /><line x1="20.0" x2="232.0" y1="72.0" y2="72.0" stroke="rgb(80%,80%,80%)" stroke-width="0.5" stroke-linecap="square" /><line x1="20.0" x2="232.0" y1="61.62962962962963" y2="61.62962962962963" stroke="rgb(80%,80%,80%)" stroke-width="0.5" stroke-linecap="square" /><line x1="20.0" x2="232.0" y1="51.25925925925927" y2="51.25925925925927" stroke="rgb(80%,80%,80%)" stroke-width="0.5" stroke-linecap="square" /><line x1="20.0" x2="232.0" y1="40.888888888888886" y2="40.888888888888886" stroke="rgb(80%,80%,80%)" stroke-width="0.5" stroke-linecap="square" /><line x1="20.0" x2="232.0" y1="30.51851851851852" y2="30.51851851851852" stroke="rgb(80%,80%,80%)" stroke-width="0.5" stroke-linecap="square" /><line x1="20.0" x2="232.0" y1="20.148148148148152" y2="20.148148148148152" stroke="rgb(80%,80%,80%)" stroke-width="0.5" stroke-linecap="square" /></g><g><line x1="24.298334540188268" x2="24.298334540188268" y1="128.0" y2="16.0" stroke="rgb(50%,50%,50%)" stroke-width="0.5" stroke-linecap="square" /><line x1="20.0" x2="232.0" y1="72.0" y2="72.0" stroke="rgb(50%,50%,50%)" stroke-width="0.5" stroke-linecap="square" /></g><g><text x="24.298334540188268" y="128.0" stroke="none" fill="rgb(30%,30%,30%)" font-size="5" font-family="auto" text-anchor="middle" dx="0" dy="1em" transform="none" id="">0</text><text x="64.97900072411295" y="128.0" stroke="none" fill="rgb(30%,30%,30%)" font-size="5" font-family="auto" text-anchor="middle" dx="0" dy="1em" transform="none" id="">1</text><text x="105.65966690803766" y="128.0" stroke="none" fill="rgb(30%,30%,30%)" font-size="5" font-family="auto" text-anchor="middle" dx="0" dy="1em" transform="none" id="">2</text><text x="146.34033309196235" y="128.0" stroke="none" fill="rgb(30%,30%,30%)" font-size="5" font-family="auto" text-anchor="middle" dx="0" dy="1em" transform="none" id="">3</text><text x="187.02099927588705" y="128.0" stroke="none" fill="rgb(30%,30%,30%)" font-size="5" font-family="auto" text-anchor="middle" dx="0" dy="1em" transform="none" id="">4</text><text x="227.70166545981175" y="128.0" stroke="none" fill="rgb(30%,30%,30%)" font-size="5" font-family="auto" text-anchor="middle" dx="0" dy="1em" transform="none" id="">5</text><text x="19.5" y="123.85185185185185" stroke="none" fill="rgb(30%,30%,30%)" font-size="5" font-family="auto" text-anchor="end" dx="0" dy="0.5ex" transform="none" id="">-5</text><text x="19.5" y="113.48148148148148" stroke="none" fill="rgb(30%,30%,30%)" font-size="5" font-family="auto" text-anchor="end" dx="0" dy="0.5ex" transform="none" id="">-4</text><text x="19.5" y="103.11111111111111" stroke="none" fill="rgb(30%,30%,30%)" font-size="5" font-family="auto" text-anchor="end" dx="0" dy="0.5ex" transform="none" id="">-3</text><text x="19.5" y="92.74074074074073" stroke="none" fill="rgb(30%,30%,30%)" font-size="5" font-family="auto" text-anchor="end" dx="0" dy="0.5ex" transform="none" id="">-2</text><text x="19.5" y="82.37037037037037" stroke="none" fill="rgb(30%,30%,30%)" font-size="5" font-family="auto" text-anchor="end" dx="0" dy="0.5ex" transform="none" id="">-1</text><text x="19.5" y="72.0" stroke="none" fill="rgb(30%,30%,30%)" font-size="5" font-family="auto" text-anchor="end" dx="0" dy="0.5ex" transform="none" id="">0</text><text x="19.5" y="61.62962962962963" stroke="none" fill="rgb(30%,30%,30%)" font-size="5" font-family="auto" text-anchor="end" dx="0" dy="0.5ex" transform="none" id="">1</text><text x="19.5" y="51.25925925925927" stroke="none" fill="rgb(30%,30%,30%)" font-size="5" font-family="auto" text-anchor="end" dx="0" dy="0.5ex" transform="none" id="">2</text><text x="19.5" y="40.888888888888886" stroke="none" fill="rgb(30%,30%,30%)" font-size="5" font-family="auto" text-anchor="end" dx="0" dy="0.5ex" transform="none" id="">3</text><text x="19.5" y="30.51851851851852" stroke="none" fill="rgb(30%,30%,30%)" font-size="5" font-family="auto" text-anchor="end" dx="0" dy="0.5ex" transform="none" id="">4</text><text x="19.5" y="20.148148148148152" stroke="none" fill="rgb(30%,30%,30%)" font-size="5" font-family="auto" text-anchor="end" dx="0" dy="0.5ex" transform="none" id="">5</text></g><polygon points="24.298334540188268,69.92592592592592 64.97900072411295,80.2962962962963 64.97900072411295,80.72174738841406 24.298334540188268,70.35137701804368" stroke="none" stroke-width="1" fill="#4422B3" /><polygon points="64.97900072411295,80.2962962962963 105.65966690803766,69.92592592592592 105.65966690803766,71.76954732510288 64.97900072411295,82.13991769547326" stroke="none" stroke-width="1" fill="#4422B3" /><polygon points="105.65966690803766,69.92592592592592 146.34033309196235,80.2962962962963 146.34033309196235,81.16959064327486 105.65966690803766,70.79922027290448" stroke="none" stroke-width="1" fill="#4422B3" /><polygon points="146.34033309196235,80.2962962962963 187.02099927588705,90.66666666666666 187.02099927588705,91.85185185185185 146.34033309196235,81.48148148148148" stroke="none" stroke-width="1" fill="#4422B3" /><polygon points="187.02099927588705,90.66666666666666 227.70166545981175,101.03703703703704 227.70166545981175,101.91033138401559 187.02099927588705,91.53996101364523" stroke="none" stroke-width="1" fill="#4422B3" /><polygon points="24.298334540188268,69.92592592592592 64.97900072411295,59.55555555555554 64.97900072411295,59.981006647673325 24.298334540188268,70.35137701804368" stroke="none" stroke-width="1" fill="#003087" /><polygon points="64.97900072411295,59.55555555555554 105.65966690803766,49.18518518518519 105.65966690803766,50.058479532163744 64.97900072411295,60.428849902534125" stroke="none" stroke-width="1" fill="#003087" /><polygon points="105.65966690803766,49.18518518518519 146.34033309196235,38.81481481481481 146.34033309196235,40.0 105.65966690803766,50.37037037037038" stroke="none" stroke-width="1" fill="#003087" /><polygon points="146.34033309196235,38.81481481481481 187.02099927588705,28.444444444444443 187.02099927588705,32.59259259259261 146.34033309196235,42.962962962962976" stroke="none" stroke-width="1" fill="#003087" /><polygon points="187.02099927588705,28.444444444444443 227.70166545981175,38.81481481481481 227.70166545981175,42.962962962962976 187.02099927588705,32.59259259259261" stroke="none" stroke-width="1" fill="#003087" /><polygon points="24.298334540188268,70.45773979107312 64.97900072411295,60.08736942070276 64.97900072411295,60.51282051282051 24.298334540188268,70.88319088319088" stroke="none" stroke-width="1" fill="#C23D04" /><polygon points="64.97900072411295,60.64717348927876 105.65966690803766,50.27680311890839 105.65966690803766,51.150097465886944 64.97900072411295,61.52046783625731" stroke="none" stroke-width="1" fill="#C23D04" /><polygon points="105.65966690803766,49.18518518518519 146.34033309196235,59.55555555555554 146.34033309196235,63.70370370370371 105.65966690803766,53.33333333333334" stroke="none" stroke-width="1" fill="#C23D04" /><polygon points="146.34033309196235,59.55555555555554 187.02099927588705,69.92592592592592 187.02099927588705,74.07407407407408 146.34033309196235,63.70370370370371" stroke="none" stroke-width="1" fill="#C23D04" /><polygon points="187.02099927588705,69.92592592592592 227.70166545981175,80.2962962962963 227.70166545981175,82.13991769547326 187.02099927588705,71.76954732510288" stroke="none" stroke-width="1" fill="#C23D04" /><polygon points="24.298334540188268,70.45773979107312 64.97900072411295,80.8281101614435 64.97900072411295,81.25356125356126 24.298334540188268,70.88319088319088" stroke="none" stroke-width="1" fill="#804D00" /><polygon points="64.97900072411295,80.2962962962963 105.65966690803766,90.66666666666666 105.65966690803766,91.23882503192849 64.97900072411295,80.8684546615581" stroke="none" stroke-width="1" fill="#804D00" /><polygon points="105.65966690803766,90.66666666666666 146.34033309196235,80.2962962962963 146.34033309196235,82.13991769547326 105.65966690803766,92.51028806584362" stroke="none" stroke-width="1" fill="#804D00" /><polygon points="146.34033309196235,81.77777777777777 187.02099927588705,92.14814814814815 187.02099927588705,93.33333333333333 146.34033309196235,82.96296296296296" stroke="none" stroke-width="1" fill="#804D00" /><polygon points="187.02099927588705,91.75828460038986 227.70166545981175,102.12865497076024 227.70166545981175,103.00194931773879 187.02099927588705,92.63157894736841" stroke="none" stroke-width="1" fill="#804D00" /><polygon points="24.298334540188268,70.98955365622032 64.97900072411295,60.61918328584996 64.97900072411295,61.04463437796771 24.298334540188268,71.41500474833808" stroke="none" stroke-width="1" fill="#FC6602" /><polygon points="64.97900072411295,59.55555555555554 105.65966690803766,69.92592592592592 105.65966690803766,70.79922027290448 64.97900072411295,60.428849902534125" stroke="none" stroke-width="1" fill="#FC6602" /><polygon points="105.65966690803766,71.01754385964912 146.34033309196235,81.38791423001949 146.34033309196235,82.26120857699806 105.65966690803766,71.89083820662769" stroke="none" stroke-width="1" fill="#FC6602" /><polygon points="146.34033309196235,80.2962962962963 187.02099927588705,69.92592592592592 187.02099927588705,71.11111111111111 146.34033309196235,81.48148148148148" stroke="none" stroke-width="1" fill="#FC6602" /><polygon points="187.02099927588705,69.92592592592592 227.70166545981175,59.55555555555554 227.70166545981175,61.39917695473251 187.02099927588705,71.76954732510288" stroke="none" stroke-width="1" fill="#FC6602" /><polygon points="24.298334540188268,70.98955365622032 64.97900072411295,81.3599240265907 64.97900072411295,81.78537511870846 24.298334540188268,71.41500474833808" stroke="none" stroke-width="1" fill="#E4002B" /><polygon points="64.97900072411295,81.01149425287356 105.65966690803766,91.38186462324393 105.65966690803766,91.95402298850576 64.97900072411295,81.58365261813537" stroke="none" stroke-width="1" fill="#E4002B" /><polygon points="105.65966690803766,90.66666666666666 146.34033309196235,101.03703703703704 146.34033309196235,101.91033138401559 105.65966690803766,91.53996101364523" stroke="none" stroke-width="1" fill="#E4002B" /><polygon points="146.34033309196235,101.03703703703704 187.02099927588705,90.66666666666666 187.02099927588705,92.51028806584362 146.34033309196235,102.88065843621399" stroke="none" stroke-width="1" fill="#E4002B" /><polygon points="187.02099927588705,90.66666666666666 227.70166545981175,80.2962962962963 227.70166545981175,84.44444444444444 187.02099927588705,94.81481481481481" stroke="none" stroke-width="1" fill="#E4002B" /><polygon points="24.298334540188268,71.52136752136752 64.97900072411295,61.150997150997156 64.97900072411295,61.57644824311491 24.298334540188268,71.94681861348528" stroke="none" stroke-width="1" fill="#004E96" /><polygon points="64.97900072411295,61.73879142300194 105.65966690803766,51.368421052631575 105.65966690803766,52.24171539961013 64.97900072411295,62.612085769980496" stroke="none" stroke-width="1" fill="#004E96" /><polygon points="105.65966690803766,50.66666666666667 146.34033309196235,40.296296296296305 146.34033309196235,41.48148148148148 105.65966690803766,51.85185185185185" stroke="none" stroke-width="1" fill="#004E96" /><polygon points="146.34033309196235,38.81481481481481 187.02099927588705,49.18518518518519 187.02099927588705,51.028806584362144 146.34033309196235,40.65843621399178" stroke="none" stroke-width="1" fill="#004E96" /><polygon points="187.02099927588705,49.18518518518519 227.70166545981175,38.81481481481481 227.70166545981175,40.65843621399178 187.02099927588705,51.028806584362144" stroke="none" stroke-width="1" fill="#004E96" /><polygon points="24.298334540188268,72.05318138651472 64.97900072411295,61.682811016144356 64.97900072411295,62.10826210826211 24.298334540188268,72.47863247863248" stroke="none" stroke-width="1" fill="#006271" /><polygon points="64.97900072411295,60.64717348927876 105.65966690803766,71.01754385964912 105.65966690803766,71.89083820662769 64.97900072411295,61.52046783625731" stroke="none" stroke-width="1" fill="#006271" /><polygon points="105.65966690803766,69.92592592592592 146.34033309196235,59.55555555555554 146.34033309196235,61.39917695473251 105.65966690803766,71.76954732510288" stroke="none" stroke-width="1" fill="#006271" /><polygon points="146.34033309196235,59.55555555555554 187.02099927588705,49.18518518518519 187.02099927588705,51.028806584362144 146.34033309196235,61.39917695473251" stroke="none" stroke-width="1" fill="#006271" /><polygon points="187.02099927588705,51.489711934156375 227.70166545981175,41.11934156378601 227.70166545981175,42.962962962962976 187.02099927588705,53.33333333333334" stroke="none" stroke-width="1" fill="#006271" /><polygon points="24.298334540188268,71.52136752136752 64.97900072411295,81.89173789173789 64.97900072411295,82.31718898385566 24.298334540188268,71.94681861348528" stroke="none" stroke-width="1" fill="#D9627B" /><polygon points="64.97900072411295,81.72669220945083 105.65966690803766,92.0970625798212 105.65966690803766,92.66922094508303 64.97900072411295,82.29885057471265" stroke="none" stroke-width="1" fill="#D9627B" /><polygon points="105.65966690803766,92.97119341563786 146.34033309196235,82.60082304526749 146.34033309196235,84.44444444444444 105.65966690803766,94.81481481481481" stroke="none" stroke-width="1" fill="#D9627B" /><polygon points="146.34033309196235,81.77777777777777 187.02099927588705,71.40740740740742 187.02099927588705,72.5925925925926 146.34033309196235,82.96296296296296" stroke="none" stroke-width="1" fill="#D9627B" /><polygon points="187.02099927588705,72.23045267489712 227.70166545981175,82.60082304526749 227.70166545981175,84.44444444444444 187.02099927588705,74.07407407407408" stroke="none" stroke-width="1" fill="#D9627B" /><polygon points="24.298334540188268,72.58499525166192 64.97900072411295,62.214624881291556 64.97900072411295,62.64007597340931 24.298334540188268,73.01044634377968" stroke="none" stroke-width="1" fill="#010101" /><polygon points="64.97900072411295,61.73879142300194 105.65966690803766,72.10916179337232 105.65966690803766,72.98245614035088 64.97900072411295,62.612085769980496" stroke="none" stroke-width="1" fill="#010101" /><polygon points="105.65966690803766,72.10916179337232 146.34033309196235,82.47953216374268 146.34033309196235,83.35282651072124 105.65966690803766,72.98245614035088" stroke="none" stroke-width="1" fill="#010101" /><polygon points="146.34033309196235,83.25925925925925 187.02099927588705,93.62962962962963 187.02099927588705,94.81481481481481 146.34033309196235,84.44444444444444" stroke="none" stroke-width="1" fill="#010101" /><polygon points="187.02099927588705,92.84990253411306 227.70166545981175,103.22027290448344 227.70166545981175,104.09356725146199 187.02099927588705,93.72319688109161" stroke="none" stroke-width="1" fill="#010101" /><polygon points="24.298334540188268,73.11680911680911 64.97900072411295,62.74643874643874 64.97900072411295,63.17188983855651 24.298334540188268,73.54226020892688" stroke="none" stroke-width="1" fill="#0072CE" /><polygon points="64.97900072411295,62.83040935672514 105.65966690803766,52.460038986354775 105.65966690803766,53.33333333333334 64.97900072411295,63.70370370370371" stroke="none" stroke-width="1" fill="#0072CE" /><polygon points="105.65966690803766,52.14814814814815 146.34033309196235,41.77777777777777 146.34033309196235,42.962962962962976 105.65966690803766,53.33333333333334" stroke="none" stroke-width="1" fill="#0072CE" /><polygon points="146.34033309196235,41.11934156378601 187.02099927588705,51.489711934156375 187.02099927588705,53.33333333333334 146.34033309196235,42.962962962962976" stroke="none" stroke-width="1" fill="#0072CE" /><polygon points="187.02099927588705,49.18518518518519 227.70166545981175,59.55555555555554 227.70166545981175,63.70370370370371 187.02099927588705,53.33333333333334" stroke="none" stroke-width="1" fill="#0072CE" /><polygon points="24.298334540188268,72.05318138651472 64.97900072411295,82.42355175688509 64.97900072411295,82.84900284900284 24.298334540188268,72.47863247863248" stroke="none" stroke-width="1" fill="#008C95" /><polygon points="64.97900072411295,82.44189016602809 105.65966690803766,92.81226053639847 105.65966690803766,93.38441890166028 64.97900072411295,83.01404853128992" stroke="none" stroke-width="1" fill="#008C95" /><polygon points="105.65966690803766,91.75828460038986 146.34033309196235,102.12865497076024 146.34033309196235,103.00194931773879 105.65966690803766,92.63157894736841" stroke="none" stroke-width="1" fill="#008C95" /><polygon points="146.34033309196235,103.34156378600822 187.02099927588705,92.97119341563786 187.02099927588705,94.81481481481481 146.34033309196235,105.18518518518519" stroke="none" stroke-width="1" fill="#008C95" /><polygon points="187.02099927588705,93.94152046783626 227.70166545981175,104.31189083820662 227.70166545981175,105.18518518518519 187.02099927588705,94.81481481481481" stroke="none" stroke-width="1" fill="#008C95" /><polygon points="24.298334540188268,72.58499525166192 64.97900072411295,82.95536562203229 64.97900072411295,83.38081671415004 24.298334540188268,73.01044634377968" stroke="none" stroke-width="1" fill="#C8102E" /><polygon points="64.97900072411295,82.60082304526749 105.65966690803766,72.23045267489712 105.65966690803766,74.07407407407408 64.97900072411295,84.44444444444444" stroke="none" stroke-width="1" fill="#C8102E" /><polygon points="105.65966690803766,73.20077972709552 146.34033309196235,83.57115009746589 146.34033309196235,84.44444444444444 105.65966690803766,74.07407407407408" stroke="none" stroke-width="1" fill="#C8102E" /><polygon points="146.34033309196235,83.25925925925925 187.02099927588705,72.88888888888889 187.02099927588705,74.07407407407408 146.34033309196235,84.44444444444444" stroke="none" stroke-width="1" fill="#C8102E" /><polygon points="187.02099927588705,72.23045267489712 227.70166545981175,61.86008230452674 227.70166545981175,63.70370370370371 187.02099927588705,74.07407407407408" stroke="none" stroke-width="1" fill="#C8102E" /><polygon points="24.298334540188268,73.11680911680911 64.97900072411295,83.48717948717947 64.97900072411295,83.91263057929724 24.298334540188268,73.54226020892688" stroke="none" stroke-width="1" fill="#115740" /><polygon points="64.97900072411295,83.15708812260536 105.65966690803766,93.52745849297574 105.65966690803766,94.09961685823754 64.97900072411295,83.72924648786717" stroke="none" stroke-width="1" fill="#115740" /><polygon points="105.65966690803766,92.84990253411306 146.34033309196235,103.22027290448344 146.34033309196235,104.09356725146199 105.65966690803766,93.72319688109161" stroke="none" stroke-width="1" fill="#115740" /><polygon points="146.34033309196235,101.03703703703704 187.02099927588705,111.4074074074074 187.02099927588705,113.25102880658436 146.34033309196235,102.88065843621399" stroke="none" stroke-width="1" fill="#115740" /><polygon points="187.02099927588705,111.4074074074074 227.70166545981175,121.77777777777777 227.70166545981175,125.92592592592592 187.02099927588705,115.55555555555556" stroke="none" stroke-width="1" fill="#115740" /><polygon points="24.298334540188268,73.64862298195632 64.97900072411295,63.27825261158594 64.97900072411295,63.70370370370371 24.298334540188268,74.07407407407408" stroke="none" stroke-width="1" fill="#FFB81C" /><polygon points="64.97900072411295,62.83040935672514 105.65966690803766,73.20077972709552 105.65966690803766,74.07407407407408 64.97900072411295,63.70370370370371" stroke="none" stroke-width="1" fill="#FFB81C" /><polygon points="105.65966690803766,72.23045267489712 146.34033309196235,61.86008230452674 146.34033309196235,63.70370370370371 105.65966690803766,74.07407407407408" stroke="none" stroke-width="1" fill="#FFB81C" /><polygon points="146.34033309196235,61.86008230452674 187.02099927588705,51.489711934156375 187.02099927588705,53.33333333333334 146.34033309196235,63.70370370370371" stroke="none" stroke-width="1" fill="#FFB81C" /><polygon points="187.02099927588705,49.18518518518519 192.83252301644774,49.18518518518519 192.83252301644774,53.33333333333334 187.02099927588705,53.33333333333334" stroke="none" stroke-width="1" fill="#FFB81C" /><polygon points="195.73828488672805,49.18518518518519 201.54980862728868,49.18518518518519 201.54980862728868,53.33333333333334 195.73828488672805,53.33333333333334" stroke="none" stroke-width="1" fill="#FFB81C" /><polygon points="204.45557049756906,49.18518518518519 210.26709423812972,49.18518518518519 210.26709423812972,53.33333333333334 204.45557049756906,53.33333333333334" stroke="none" stroke-width="1" fill="#FFB81C" /><polygon points="213.17285610841006,49.18518518518519 218.98437984897072,49.18518518518519 218.98437984897072,53.33333333333334 213.17285610841006,53.33333333333334" stroke="none" stroke-width="1" fill="#FFB81C" /><polygon points="221.89014171925103,49.18518518518519 227.70166545981175,49.18518518518519 227.70166545981175,53.33333333333334 221.89014171925103,53.33333333333334" stroke="none" stroke-width="1" fill="#FFB81C" /><polygon points="24.298334540188268,73.64862298195632 64.97900072411295,84.01899335232669 64.97900072411295,84.44444444444444 24.298334540188268,74.07407407407408" stroke="none" stroke-width="1" fill="#418FDE" /><polygon points="64.97900072411295,83.87228607918263 105.65966690803766,94.24265644955301 105.65966690803766,94.81481481481481 64.97900072411295,84.44444444444444" stroke="none" stroke-width="1" fill="#418FDE" /><polygon points="105.65966690803766,93.94152046783626 146.34033309196235,104.31189083820662 146.34033309196235,105.18518518518519 105.65966690803766,94.81481481481481" stroke="none" stroke-width="1" fill="#418FDE" /><polygon points="146.34033309196235,103.34156378600822 187.02099927588705,113.71193415637859 187.02099927588705,115.55555555555556 146.34033309196235,105.18518518518519" stroke="none" stroke-width="1" fill="#418FDE" /><polygon points="187.02099927588705,111.4074074074074 227.70166545981175,101.03703703703704 227.70166545981175,105.18518518518519 187.02099927588705,115.55555555555556" stroke="none" stroke-width="1" fill="#418FDE" /><g><path d="M 23.676112,70.548148A0.622222,0.622222 0 0 1 24.920557,70.548148L24.920557,73.451852A0.622222,0.622222 0 0 1 23.676112,73.451852Z" fill="rgb(30%,30%,30%)" /><rect x="23.676112317966044" y="71.9274074074074" width="1.2444444444444442" height="0.14518518518518517" stroke="none" stroke-width="1" fill="white" /></g><g><path d="M 64.356779,80.918519A0.622222,0.622222 0 0 1 65.601223,80.918519L65.601223,83.822222A0.622222,0.622222 0 0 1 64.356779,83.822222Z" fill="rgb(30%,30%,30%)" /><rect x="64.35677850189073" y="82.29777777777777" width="1.2444444444444442" height="0.14518518518518517" stroke="none" stroke-width="1" fill="white" /></g><g><path d="M 105.037445,70.548148A0.622222,0.622222 0 0 1 106.281889,70.548148L106.281889,73.451852A0.622222,0.622222 0 0 1 105.037445,73.451852Z" fill="rgb(30%,30%,30%)" /><rect x="105.03744468581544" y="71.9274074074074" width="1.2444444444444442" height="0.14518518518518517" stroke="none" stroke-width="1" fill="white" /></g><g><path d="M 145.718111,80.918519A0.622222,0.622222 0 0 1 146.962555,80.918519L146.962555,83.822222A0.622222,0.622222 0 0 1 145.718111,83.822222Z" fill="rgb(30%,30%,30%)" /><rect x="145.71811086974012" y="82.29777777777777" width="1.2444444444444442" height="0.14518518518518517" stroke="none" stroke-width="1" fill="white" /></g><g><path d="M 186.398777,91.288889A0.622222,0.622222 0 0 1 187.643221,91.288889L187.643221,94.192593A0.622222,0.622222 0 0 1 186.398777,94.192593Z" fill="rgb(30%,30%,30%)" /><rect x="186.39877705366482" y="92.66814814814813" width="1.2444444444444442" height="0.14518518518518517" stroke="none" stroke-width="1" fill="white" /></g><g><path d="M 227.079443,101.659259A0.622222,0.622222 0 0 1 228.323888,101.659259L228.323888,104.562963A0.622222,0.622222 0 0 1 227.079443,104.562963Z" fill="rgb(30%,30%,30%)" /><rect x="227.07944323758952" y="103.03851851851852" width="1.2444444444444442" height="0.14518518518518517" stroke="none" stroke-width="1" fill="white" /></g><g><path d="M 23.676112,70.548148A0.622222,0.622222 0 0 1 24.920557,70.548148L24.920557,73.451852A0.622222,0.622222 0 0 1 23.676112,73.451852Z" fill="rgb(30%,30%,30%)" /><rect x="23.676112317966044" y="71.9274074074074" width="1.2444444444444442" height="0.14518518518518517" stroke="none" stroke-width="1" fill="white" /></g><g><path d="M 64.356779,60.177778A0.622222,0.622222 0 0 1 65.601223,60.177778L65.601223,63.081481A0.622222,0.622222 0 0 1 64.356779,63.081481Z" fill="rgb(30%,30%,30%)" /><rect x="64.35677850189073" y="61.55703703703704" width="1.2444444444444442" height="0.14518518518518517" stroke="none" stroke-width="1" fill="white" /></g><g><path d="M 105.037445,49.807407A0.622222,0.622222 0 0 1 106.281889,49.807407L106.281889,52.711111A0.622222,0.622222 0 0 1 105.037445,52.711111Z" fill="rgb(30%,30%,30%)" /><rect x="105.03744468581544" y="51.186666666666675" width="1.2444444444444442" height="0.14518518518518517" stroke="none" stroke-width="1" fill="white" /></g><g><path d="M 145.718111,39.437037A0.622222,0.622222 0 0 1 146.962555,39.437037L146.962555,42.340741A0.622222,0.622222 0 0 1 145.718111,42.340741Z" fill="rgb(30%,30%,30%)" /><rect x="145.71811086974012" y="40.816296296296294" width="1.2444444444444442" height="0.14518518518518517" stroke="none" stroke-width="1" fill="white" /></g><g><path d="M 186.398777,29.066667A0.622222,0.622222 0 0 1 187.643221,29.066667L187.643221,31.970370A0.622222,0.622222 0 0 1 186.398777,31.970370Z" fill="rgb(30%,30%,30%)" /><rect x="186.39877705366482" y="30.445925925925927" width="1.2444444444444442" height="0.14518518518518517" stroke="none" stroke-width="1" fill="white" /></g><g><path d="M 227.079443,39.437037A0.622222,0.622222 0 0 1 228.323888,39.437037L228.323888,42.340741A0.622222,0.622222 0 0 1 227.079443,42.340741Z" fill="rgb(30%,30%,30%)" /><rect x="227.07944323758952" y="40.816296296296294" width="1.2444444444444442" height="0.14518518518518517" stroke="none" stroke-width="1" fill="white" /></g><g><path d="M 23.676112,70.548148A0.622222,0.622222 0 0 1 24.920557,70.548148L24.920557,73.451852A0.622222,0.622222 0 0 1 23.676112,73.451852Z" fill="rgb(30%,30%,30%)" /><rect x="23.676112317966044" y="71.9274074074074" width="1.2444444444444442" height="0.14518518518518517" stroke="none" stroke-width="1" fill="white" /></g><g><path d="M 64.356779,60.177778A0.622222,0.622222 0 0 1 65.601223,60.177778L65.601223,63.081481A0.622222,0.622222 0 0 1 64.356779,63.081481Z" fill="rgb(30%,30%,30%)" /><rect x="64.35677850189073" y="61.55703703703704" width="1.2444444444444442" height="0.14518518518518517" stroke="none" stroke-width="1" fill="white" /></g><g><path d="M 105.037445,49.807407A0.622222,0.622222 0 0 1 106.281889,49.807407L106.281889,52.711111A0.622222,0.622222 0 0 1 105.037445,52.711111Z" fill="rgb(30%,30%,30%)" /><rect x="105.03744468581544" y="51.186666666666675" width="1.2444444444444442" height="0.14518518518518517" stroke="none" stroke-width="1" fill="white" /></g><g><path d="M 145.718111,60.177778A0.622222,0.622222 0 0 1 146.962555,60.177778L146.962555,63.081481A0.622222,0.622222 0 0 1 145.718111,63.081481Z" fill="rgb(30%,30%,30%)" /><rect x="145.71811086974012" y="61.55703703703704" width="1.2444444444444442" height="0.14518518518518517" stroke="none" stroke-width="1" fill="white" /></g><g><path d="M 186.398777,70.548148A0.622222,0.622222 0 0 1 187.643221,70.548148L187.643221,73.451852A0.622222,0.622222 0 0 1 186.398777,73.451852Z" fill="rgb(30%,30%,30%)" /><rect x="186.39877705366482" y="71.9274074074074" width="1.2444444444444442" height="0.14518518518518517" stroke="none" stroke-width="1" fill="white" /></g><g><path d="M 227.079443,80.918519A0.622222,0.622222 0 0 1 228.323888,80.918519L228.323888,83.822222A0.622222,0.622222 0 0 1 227.079443,83.822222Z" fill="rgb(30%,30%,30%)" /><rect x="227.07944323758952" y="82.29777777777777" width="1.2444444444444442" height="0.14518518518518517" stroke="none" stroke-width="1" fill="white" /></g><g><path d="M 23.676112,70.548148A0.622222,0.622222 0 0 1 24.920557,70.548148L24.920557,73.451852A0.622222,0.622222 0 0 1 23.676112,73.451852Z" fill="rgb(30%,30%,30%)" /><rect x="23.676112317966044" y="71.9274074074074" width="1.2444444444444442" height="0.14518518518518517" stroke="none" stroke-width="1" fill="white" /></g><g><path d="M 64.356779,80.918519A0.622222,0.622222 0 0 1 65.601223,80.918519L65.601223,83.822222A0.622222,0.622222 0 0 1 64.356779,83.822222Z" fill="rgb(30%,30%,30%)" /><rect x="64.35677850189073" y="82.29777777777777" width="1.2444444444444442" height="0.14518518518518517" stroke="none" stroke-width="1" fill="white" /></g><g><path d="M 105.037445,91.288889A0.622222,0.622222 0 0 1 106.281889,91.288889L106.281889,94.192593A0.622222,0.622222 0 0 1 105.037445,94.192593Z" fill="rgb(30%,30%,30%)" /><rect x="105.03744468581544" y="92.66814814814813" width="1.2444444444444442" height="0.14518518518518517" stroke="none" stroke-width="1" fill="white" /></g><g><path d="M 145.718111,80.918519A0.622222,0.622222 0 0 1 146.962555,80.918519L146.962555,83.822222A0.622222,0.622222 0 0 1 145.718111,83.822222Z" fill="rgb(30%,30%,30%)" /><rect x="145.71811086974012" y="82.29777777777777" width="1.2444444444444442" height="0.14518518518518517" stroke="none" stroke-width="1" fill="white" /></g><g><path d="M 186.398777,91.288889A0.622222,0.622222 0 0 1 187.643221,91.288889L187.643221,94.192593A0.622222,0.622222 0 0 1 186.398777,94.192593Z" fill="rgb(30%,30%,30%)" /><rect x="186.39877705366482" y="92.66814814814813" width="1.2444444444444442" height="0.14518518518518517" stroke="none" stroke-width="1" fill="white" /></g><g><path d="M 227.079443,101.659259A0.622222,0.622222 0 0 1 228.323888,101.659259L228.323888,104.562963A0.622222,0.622222 0 0 1 227.079443,104.562963Z" fill="rgb(30%,30%,30%)" /><rect x="227.07944323758952" y="103.03851851851852" width="1.2444444444444442" height="0.14518518518518517" stroke="none" stroke-width="1" fill="white" /></g><g><path d="M 23.676112,70.548148A0.622222,0.622222 0 0 1 24.920557,70.548148L24.920557,73.451852A0.622222,0.622222 0 0 1 23.676112,73.451852Z" fill="rgb(30%,30%,30%)" /><rect x="23.676112317966044" y="71.9274074074074" width="1.2444444444444442" height="0.14518518518518517" stroke="none" stroke-width="1" fill="white" /></g><g><path d="M 64.356779,60.177778A0.622222,0.622222 0 0 1 65.601223,60.177778L65.601223,63.081481A0.622222,0.622222 0 0 1 64.356779,63.081481Z" fill="rgb(30%,30%,30%)" /><rect x="64.35677850189073" y="61.55703703703704" width="1.2444444444444442" height="0.14518518518518517" stroke="none" stroke-width="1" fill="white" /></g><g><path d="M 105.037445,70.548148A0.622222,0.622222 0 0 1 106.281889,70.548148L106.281889,73.451852A0.622222,0.622222 0 0 1 105.037445,73.451852Z" fill="rgb(30%,30%,30%)" /><rect x="105.03744468581544" y="71.9274074074074" width="1.2444444444444442" height="0.14518518518518517" stroke="none" stroke-width="1" fill="white" /></g><g><path d="M 145.718111,80.918519A0.622222,0.622222 0 0 1 146.962555,80.918519L146.962555,83.822222A0.622222,0.622222 0 0 1 145.718111,83.822222Z" fill="rgb(30%,30%,30%)" /><rect x="145.71811086974012" y="82.29777777777777" width="1.2444444444444442" height="0.14518518518518517" stroke="none" stroke-width="1" fill="white" /></g><g><path d="M 186.398777,70.548148A0.622222,0.622222 0 0 1 187.643221,70.548148L187.643221,73.451852A0.622222,0.622222 0 0 1 186.398777,73.451852Z" fill="rgb(30%,30%,30%)" /><rect x="186.39877705366482" y="71.9274074074074" width="1.2444444444444442" height="0.14518518518518517" stroke="none" stroke-width="1" fill="white" /></g><g><path d="M 227.079443,60.177778A0.622222,0.622222 0 0 1 228.323888,60.177778L228.323888,63.081481A0.622222,0.622222 0 0 1 227.079443,63.081481Z" fill="rgb(30%,30%,30%)" /><rect x="227.07944323758952" y="61.55703703703704" width="1.2444444444444442" height="0.14518518518518517" stroke="none" stroke-width="1" fill="white" /></g><g><path d="M 23.676112,70.548148A0.622222,0.622222 0 0 1 24.920557,70.548148L24.920557,73.451852A0.622222,0.622222 0 0 1 23.676112,73.451852Z" fill="rgb(30%,30%,30%)" /><rect x="23.676112317966044" y="71.9274074074074" width="1.2444444444444442" height="0.14518518518518517" stroke="none" stroke-width="1" fill="white" /></g><g><path d="M 64.356779,80.918519A0.622222,0.622222 0 0 1 65.601223,80.918519L65.601223,83.822222A0.622222,0.622222 0 0 1 64.356779,83.822222Z" fill="rgb(30%,30%,30%)" /><rect x="64.35677850189073" y="82.29777777777777" width="1.2444444444444442" height="0.14518518518518517" stroke="none" stroke-width="1" fill="white" /></g><g><path d="M 105.037445,91.288889A0.622222,0.622222 0 0 1 106.281889,91.288889L106.281889,94.192593A0.622222,0.622222 0 0 1 105.037445,94.192593Z" fill="rgb(30%,30%,30%)" /><rect x="105.03744468581544" y="92.66814814814813" width="1.2444444444444442" height="0.14518518518518517" stroke="none" stroke-width="1" fill="white" /></g><g><path d="M 145.718111,101.659259A0.622222,0.622222 0 0 1 146.962555,101.659259L146.962555,104.562963A0.622222,0.622222 0 0 1 145.718111,104.562963Z" fill="rgb(30%,30%,30%)" /><rect x="145.71811086974012" y="103.03851851851852" width="1.2444444444444442" height="0.14518518518518517" stroke="none" stroke-width="1" fill="white" /></g><g><path d="M 186.398777,91.288889A0.622222,0.622222 0 0 1 187.643221,91.288889L187.643221,94.192593A0.622222,0.622222 0 0 1 186.398777,94.192593Z" fill="rgb(30%,30%,30%)" /><rect x="186.39877705366482" y="92.66814814814813" width="1.2444444444444442" height="0.14518518518518517" stroke="none" stroke-width="1" fill="white" /></g><g><path d="M 227.079443,80.918519A0.622222,0.622222 0 0 1 228.323888,80.918519L228.323888,83.822222A0.622222,0.622222 0 0 1 227.079443,83.822222Z" fill="rgb(30%,30%,30%)" /><rect x="227.07944323758952" y="82.29777777777777" width="1.2444444444444442" height="0.14518518518518517" stroke="none" stroke-width="1" fill="white" /></g><g><path d="M 23.676112,70.548148A0.622222,0.622222 0 0 1 24.920557,70.548148L24.920557,73.451852A0.622222,0.622222 0 0 1 23.676112,73.451852Z" fill="rgb(30%,30%,30%)" /><rect x="23.676112317966044" y="71.9274074074074" width="1.2444444444444442" height="0.14518518518518517" stroke="none" stroke-width="1" fill="white" /></g><g><path d="M 64.356779,60.177778A0.622222,0.622222 0 0 1 65.601223,60.177778L65.601223,63.081481A0.622222,0.622222 0 0 1 64.356779,63.081481Z" fill="rgb(30%,30%,30%)" /><rect x="64.35677850189073" y="61.55703703703704" width="1.2444444444444442" height="0.14518518518518517" stroke="none" stroke-width="1" fill="white" /></g><g><path d="M 105.037445,49.807407A0.622222,0.622222 0 0 1 106.281889,49.807407L106.281889,52.711111A0.622222,0.622222 0 0 1 105.037445,52.711111Z" fill="rgb(30%,30%,30%)" /><rect x="105.03744468581544" y="51.186666666666675" width="1.2444444444444442" height="0.14518518518518517" stroke="none" stroke-width="1" fill="white" /></g><g><path d="M 145.718111,39.437037A0.622222,0.622222 0 0 1 146.962555,39.437037L146.962555,42.340741A0.622222,0.622222 0 0 1 145.718111,42.340741Z" fill="rgb(30%,30%,30%)" /><rect x="145.71811086974012" y="40.816296296296294" width="1.2444444444444442" height="0.14518518518518517" stroke="none" stroke-width="1" fill="white" /></g><g><path d="M 186.398777,49.807407A0.622222,0.622222 0 0 1 187.643221,49.807407L187.643221,52.711111A0.622222,0.622222 0 0 1 186.398777,52.711111Z" fill="rgb(30%,30%,30%)" /><rect x="186.39877705366482" y="51.186666666666675" width="1.2444444444444442" height="0.14518518518518517" stroke="none" stroke-width="1" fill="white" /></g><g><path d="M 227.079443,39.437037A0.622222,0.622222 0 0 1 228.323888,39.437037L228.323888,42.340741A0.622222,0.622222 0 0 1 227.079443,42.340741Z" fill="rgb(30%,30%,30%)" /><rect x="227.07944323758952" y="40.816296296296294" width="1.2444444444444442" height="0.14518518518518517" stroke="none" stroke-width="1" fill="white" /></g><g><path d="M 23.676112,70.548148A0.622222,0.622222 0 0 1 24.920557,70.548148L24.920557,73.451852A0.622222,0.622222 0 0 1 23.676112,73.451852Z" fill="rgb(30%,30%,30%)" /><rect x="23.676112317966044" y="71.9274074074074" width="1.2444444444444442" height="0.14518518518518517" stroke="none" stroke-width="1" fill="white" /></g><g><path d="M 64.356779,60.177778A0.622222,0.622222 0 0 1 65.601223,60.177778L65.601223,63.081481A0.622222,0.622222 0 0 1 64.356779,63.081481Z" fill="rgb(30%,30%,30%)" /><rect x="64.35677850189073" y="61.55703703703704" width="1.2444444444444442" height="0.14518518518518517" stroke="none" stroke-width="1" fill="white" /></g><g><path d="M 105.037445,70.548148A0.622222,0.622222 0 0 1 106.281889,70.548148L106.281889,73.451852A0.622222,0.622222 0 0 1 105.037445,73.451852Z" fill="rgb(30%,30%,30%)" /><rect x="105.03744468581544" y="71.9274074074074" width="1.2444444444444442" height="0.14518518518518517" stroke="none" stroke-width="1" fill="white" /></g><g><path d="M 145.718111,60.177778A0.622222,0.622222 0 0 1 146.962555,60.177778L146.962555,63.081481A0.622222,0.622222 0 0 1 145.718111,63.081481Z" fill="rgb(30%,30%,30%)" /><rect x="145.71811086974012" y="61.55703703703704" width="1.2444444444444442" height="0.14518518518518517" stroke="none" stroke-width="1" fill="white" /></g><g><path d="M 186.398777,49.807407A0.622222,0.622222 0 0 1 187.643221,49.807407L187.643221,52.711111A0.622222,0.622222 0 0 1 186.398777,52.711111Z" fill="rgb(30%,30%,30%)" /><rect x="186.39877705366482" y="51.186666666666675" width="1.2444444444444442" height="0.14518518518518517" stroke="none" stroke-width="1" fill="white" /></g><g><path d="M 227.079443,39.437037A0.622222,0.622222 0 0 1 228.323888,39.437037L228.323888,42.340741A0.622222,0.622222 0 0 1 227.079443,42.340741Z" fill="rgb(30%,30%,30%)" /><rect x="227.07944323758952" y="40.816296296296294" width="1.2444444444444442" height="0.14518518518518517" stroke="none" stroke-width="1" fill="white" /></g><g><path d="M 23.676112,70.548148A0.622222,0.622222 0 0 1 24.920557,70.548148L24.920557,73.451852A0.622222,0.622222 0 0 1 23.676112,73.451852Z" fill="rgb(30%,30%,30%)" /><rect x="23.676112317966044" y="71.9274074074074" width="1.2444444444444442" height="0.14518518518518517" stroke="none" stroke-width="1" fill="white" /></g><g><path d="M 64.356779,80.918519A0.622222,0.622222 0 0 1 65.601223,80.918519L65.601223,83.822222A0.622222,0.622222 0 0 1 64.356779,83.822222Z" fill="rgb(30%,30%,30%)" /><rect x="64.35677850189073" y="82.29777777777777" width="1.2444444444444442" height="0.14518518518518517" stroke="none" stroke-width="1" fill="white" /></g><g><path d="M 105.037445,91.288889A0.622222,0.622222 0 0 1 106.281889,91.288889L106.281889,94.192593A0.622222,0.622222 0 0 1 105.037445,94.192593Z" fill="rgb(30%,30%,30%)" /><rect x="105.03744468581544" y="92.66814814814813" width="1.2444444444444442" height="0.14518518518518517" stroke="none" stroke-width="1" fill="white" /></g><g><path d="M 145.718111,80.918519A0.622222,0.622222 0 0 1 146.962555,80.918519L146.962555,83.822222A0.622222,0.622222 0 0 1 145.718111,83.822222Z" fill="rgb(30%,30%,30%)" /><rect x="145.71811086974012" y="82.29777777777777" width="1.2444444444444442" height="0.14518518518518517" stroke="none" stroke-width="1" fill="white" /></g><g><path d="M 186.398777,70.548148A0.622222,0.622222 0 0 1 187.643221,70.548148L187.643221,73.451852A0.622222,0.622222 0 0 1 186.398777,73.451852Z" fill="rgb(30%,30%,30%)" /><rect x="186.39877705366482" y="71.9274074074074" width="1.2444444444444442" height="0.14518518518518517" stroke="none" stroke-width="1" fill="white" /></g><g><path d="M 227.079443,80.918519A0.622222,0.622222 0 0 1 228.323888,80.918519L228.323888,83.822222A0.622222,0.622222 0 0 1 227.079443,83.822222Z" fill="rgb(30%,30%,30%)" /><rect x="227.07944323758952" y="82.29777777777777" width="1.2444444444444442" height="0.14518518518518517" stroke="none" stroke-width="1" fill="white" /></g><g><path d="M 23.676112,70.548148A0.622222,0.622222 0 0 1 24.920557,70.548148L24.920557,73.451852A0.622222,0.622222 0 0 1 23.676112,73.451852Z" fill="rgb(30%,30%,30%)" /><rect x="23.676112317966044" y="71.9274074074074" width="1.2444444444444442" height="0.14518518518518517" stroke="none" stroke-width="1" fill="white" /></g><g><path d="M 64.356779,60.177778A0.622222,0.622222 0 0 1 65.601223,60.177778L65.601223,63.081481A0.622222,0.622222 0 0 1 64.356779,63.081481Z" fill="rgb(30%,30%,30%)" /><rect x="64.35677850189073" y="61.55703703703704" width="1.2444444444444442" height="0.14518518518518517" stroke="none" stroke-width="1" fill="white" /></g><g><path d="M 105.037445,70.548148A0.622222,0.622222 0 0 1 106.281889,70.548148L106.281889,73.451852A0.622222,0.622222 0 0 1 105.037445,73.451852Z" fill="rgb(30%,30%,30%)" /><rect x="105.03744468581544" y="71.9274074074074" width="1.2444444444444442" height="0.14518518518518517" stroke="none" stroke-width="1" fill="white" /></g><g><path d="M 145.718111,80.918519A0.622222,0.622222 0 0 1 146.962555,80.918519L146.962555,83.822222A0.622222,0.622222 0 0 1 145.718111,83.822222Z" fill="rgb(30%,30%,30%)" /><rect x="145.71811086974012" y="82.29777777777777" width="1.2444444444444442" height="0.14518518518518517" stroke="none" stroke-width="1" fill="white" /></g><g><path d="M 186.398777,91.288889A0.622222,0.622222 0 0 1 187.643221,91.288889L187.643221,94.192593A0.622222,0.622222 0 0 1 186.398777,94.192593Z" fill="rgb(30%,30%,30%)" /><rect x="186.39877705366482" y="92.66814814814813" width="1.2444444444444442" height="0.14518518518518517" stroke="none" stroke-width="1" fill="white" /></g><g><path d="M 227.079443,101.659259A0.622222,0.622222 0 0 1 228.323888,101.659259L228.323888,104.562963A0.622222,0.622222 0 0 1 227.079443,104.562963Z" fill="rgb(30%,30%,30%)" /><rect x="227.07944323758952" y="103.03851851851852" width="1.2444444444444442" height="0.14518518518518517" stroke="none" stroke-width="1" fill="white" /></g><g><path d="M 23.676112,70.548148A0.622222,0.622222 0 0 1 24.920557,70.548148L24.920557,73.451852A0.622222,0.622222 0 0 1 23.676112,73.451852Z" fill="rgb(30%,30%,30%)" /><rect x="23.676112317966044" y="71.9274074074074" width="1.2444444444444442" height="0.14518518518518517" stroke="none" stroke-width="1" fill="white" /></g><g><path d="M 64.356779,60.177778A0.622222,0.622222 0 0 1 65.601223,60.177778L65.601223,63.081481A0.622222,0.622222 0 0 1 64.356779,63.081481Z" fill="rgb(30%,30%,30%)" /><rect x="64.35677850189073" y="61.55703703703704" width="1.2444444444444442" height="0.14518518518518517" stroke="none" stroke-width="1" fill="white" /></g><g><path d="M 105.037445,49.807407A0.622222,0.622222 0 0 1 106.281889,49.807407L106.281889,52.711111A0.622222,0.622222 0 0 1 105.037445,52.711111Z" fill="rgb(30%,30%,30%)" /><rect x="105.03744468581544" y="51.186666666666675" width="1.2444444444444442" height="0.14518518518518517" stroke="none" stroke-width="1" fill="white" /></g><g><path d="M 145.718111,39.437037A0.622222,0.622222 0 0 1 146.962555,39.437037L146.962555,42.340741A0.622222,0.622222 0 0 1 145.718111,42.340741Z" fill="rgb(30%,30%,30%)" /><rect x="145.71811086974012" y="40.816296296296294" width="1.2444444444444442" height="0.14518518518518517" stroke="none" stroke-width="1" fill="white" /></g><g><path d="M 186.398777,49.807407A0.622222,0.622222 0 0 1 187.643221,49.807407L187.643221,52.711111A0.622222,0.622222 0 0 1 186.398777,52.711111Z" fill="rgb(30%,30%,30%)" /><rect x="186.39877705366482" y="51.186666666666675" width="1.2444444444444442" height="0.14518518518518517" stroke="none" stroke-width="1" fill="white" /></g><g><path d="M 227.079443,60.177778A0.622222,0.622222 0 0 1 228.323888,60.177778L228.323888,63.081481A0.622222,0.622222 0 0 1 227.079443,63.081481Z" fill="rgb(30%,30%,30%)" /><rect x="227.07944323758952" y="61.55703703703704" width="1.2444444444444442" height="0.14518518518518517" stroke="none" stroke-width="1" fill="white" /></g><g><path d="M 23.676112,70.548148A0.622222,0.622222 0 0 1 24.920557,70.548148L24.920557,73.451852A0.622222,0.622222 0 0 1 23.676112,73.451852Z" fill="rgb(30%,30%,30%)" /><rect x="23.676112317966044" y="71.9274074074074" width="1.2444444444444442" height="0.14518518518518517" stroke="none" stroke-width="1" fill="white" /></g><g><path d="M 64.356779,80.918519A0.622222,0.622222 0 0 1 65.601223,80.918519L65.601223,83.822222A0.622222,0.622222 0 0 1 64.356779,83.822222Z" fill="rgb(30%,30%,30%)" /><rect x="64.35677850189073" y="82.29777777777777" width="1.2444444444444442" height="0.14518518518518517" stroke="none" stroke-width="1" fill="white" /></g><g><path d="M 105.037445,91.288889A0.622222,0.622222 0 0 1 106.281889,91.288889L106.281889,94.192593A0.622222,0.622222 0 0 1 105.037445,94.192593Z" fill="rgb(30%,30%,30%)" /><rect x="105.03744468581544" y="92.66814814814813" width="1.2444444444444442" height="0.14518518518518517" stroke="none" stroke-width="1" fill="white" /></g><g><path d="M 145.718111,101.659259A0.622222,0.622222 0 0 1 146.962555,101.659259L146.962555,104.562963A0.622222,0.622222 0 0 1 145.718111,104.562963Z" fill="rgb(30%,30%,30%)" /><rect x="145.71811086974012" y="103.03851851851852" width="1.2444444444444442" height="0.14518518518518517" stroke="none" stroke-width="1" fill="white" /></g><g><path d="M 186.398777,91.288889A0.622222,0.622222 0 0 1 187.643221,91.288889L187.643221,94.192593A0.622222,0.622222 0 0 1 186.398777,94.192593Z" fill="rgb(30%,30%,30%)" /><rect x="186.39877705366482" y="92.66814814814813" width="1.2444444444444442" height="0.14518518518518517" stroke="none" stroke-width="1" fill="white" /></g><g><path d="M 227.079443,101.659259A0.622222,0.622222 0 0 1 228.323888,101.659259L228.323888,104.562963A0.622222,0.622222 0 0 1 227.079443,104.562963Z" fill="rgb(30%,30%,30%)" /><rect x="227.07944323758952" y="103.03851851851852" width="1.2444444444444442" height="0.14518518518518517" stroke="none" stroke-width="1" fill="white" /></g><g><path d="M 23.676112,70.548148A0.622222,0.622222 0 0 1 24.920557,70.548148L24.920557,73.451852A0.622222,0.622222 0 0 1 23.676112,73.451852Z" fill="rgb(30%,30%,30%)" /><rect x="23.676112317966044" y="71.9274074074074" width="1.2444444444444442" height="0.14518518518518517" stroke="none" stroke-width="1" fill="white" /></g><g><path d="M 64.356779,80.918519A0.622222,0.622222 0 0 1 65.601223,80.918519L65.601223,83.822222A0.622222,0.622222 0 0 1 64.356779,83.822222Z" fill="rgb(30%,30%,30%)" /><rect x="64.35677850189073" y="82.29777777777777" width="1.2444444444444442" height="0.14518518518518517" stroke="none" stroke-width="1" fill="white" /></g><g><path d="M 105.037445,70.548148A0.622222,0.622222 0 0 1 106.281889,70.548148L106.281889,73.451852A0.622222,0.622222 0 0 1 105.037445,73.451852Z" fill="rgb(30%,30%,30%)" /><rect x="105.03744468581544" y="71.9274074074074" width="1.2444444444444442" height="0.14518518518518517" stroke="none" stroke-width="1" fill="white" /></g><g><path d="M 145.718111,80.918519A0.622222,0.622222 0 0 1 146.962555,80.918519L146.962555,83.822222A0.622222,0.622222 0 0 1 145.718111,83.822222Z" fill="rgb(30%,30%,30%)" /><rect x="145.71811086974012" y="82.29777777777777" width="1.2444444444444442" height="0.14518518518518517" stroke="none" stroke-width="1" fill="white" /></g><g><path d="M 186.398777,70.548148A0.622222,0.622222 0 0 1 187.643221,70.548148L187.643221,73.451852A0.622222,0.622222 0 0 1 186.398777,73.451852Z" fill="rgb(30%,30%,30%)" /><rect x="186.39877705366482" y="71.9274074074074" width="1.2444444444444442" height="0.14518518518518517" stroke="none" stroke-width="1" fill="white" /></g><g><path d="M 227.079443,60.177778A0.622222,0.622222 0 0 1 228.323888,60.177778L228.323888,63.081481A0.622222,0.622222 0 0 1 227.079443,63.081481Z" fill="rgb(30%,30%,30%)" /><rect x="227.07944323758952" y="61.55703703703704" width="1.2444444444444442" height="0.14518518518518517" stroke="none" stroke-width="1" fill="white" /></g><g><path d="M 23.676112,70.548148A0.622222,0.622222 0 0 1 24.920557,70.548148L24.920557,73.451852A0.622222,0.622222 0 0 1 23.676112,73.451852Z" fill="rgb(30%,30%,30%)" /><rect x="23.676112317966044" y="71.9274074074074" width="1.2444444444444442" height="0.14518518518518517" stroke="none" stroke-width="1" fill="white" /></g><g><path d="M 64.356779,80.918519A0.622222,0.622222 0 0 1 65.601223,80.918519L65.601223,83.822222A0.622222,0.622222 0 0 1 64.356779,83.822222Z" fill="rgb(30%,30%,30%)" /><rect x="64.35677850189073" y="82.29777777777777" width="1.2444444444444442" height="0.14518518518518517" stroke="none" stroke-width="1" fill="white" /></g><g><path d="M 105.037445,91.288889A0.622222,0.622222 0 0 1 106.281889,91.288889L106.281889,94.192593A0.622222,0.622222 0 0 1 105.037445,94.192593Z" fill="rgb(30%,30%,30%)" /><rect x="105.03744468581544" y="92.66814814814813" width="1.2444444444444442" height="0.14518518518518517" stroke="none" stroke-width="1" fill="white" /></g><g><path d="M 145.718111,101.659259A0.622222,0.622222 0 0 1 146.962555,101.659259L146.962555,104.562963A0.622222,0.622222 0 0 1 145.718111,104.562963Z" fill="rgb(30%,30%,30%)" /><rect x="145.71811086974012" y="103.03851851851852" width="1.2444444444444442" height="0.14518518518518517" stroke="none" stroke-width="1" fill="white" /></g><g><path d="M 186.398777,112.029630A0.622222,0.622222 0 0 1 187.643221,112.029630L187.643221,114.933333A0.622222,0.622222 0 0 1 186.398777,114.933333Z" fill="rgb(30%,30%,30%)" /><rect x="186.39877705366482" y="113.40888888888888" width="1.2444444444444442" height="0.14518518518518517" stroke="none" stroke-width="1" fill="white" /></g><g><path d="M 227.079443,122.400000A0.622222,0.622222 0 0 1 228.323888,122.400000L228.323888,125.303704A0.622222,0.622222 0 0 1 227.079443,125.303704Z" fill="rgb(30%,30%,30%)" /><rect x="227.07944323758952" y="123.77925925925925" width="1.2444444444444442" height="0.14518518518518517" stroke="none" stroke-width="1" fill="white" /></g><g><path d="M 23.676112,70.548148A0.622222,0.622222 0 0 1 24.920557,70.548148L24.920557,73.451852A0.622222,0.622222 0 0 1 23.676112,73.451852Z" fill="rgb(30%,30%,30%)" /><rect x="23.676112317966044" y="71.9274074074074" width="1.2444444444444442" height="0.14518518518518517" stroke="none" stroke-width="1" fill="white" /></g><g><path d="M 64.356779,60.177778A0.622222,0.622222 0 0 1 65.601223,60.177778L65.601223,63.081481A0.622222,0.622222 0 0 1 64.356779,63.081481Z" fill="rgb(30%,30%,30%)" /><rect x="64.35677850189073" y="61.55703703703704" width="1.2444444444444442" height="0.14518518518518517" stroke="none" stroke-width="1" fill="white" /></g><g><path d="M 105.037445,70.548148A0.622222,0.622222 0 0 1 106.281889,70.548148L106.281889,73.451852A0.622222,0.622222 0 0 1 105.037445,73.451852Z" fill="rgb(30%,30%,30%)" /><rect x="105.03744468581544" y="71.9274074074074" width="1.2444444444444442" height="0.14518518518518517" stroke="none" stroke-width="1" fill="white" /></g><g><path d="M 145.718111,60.177778A0.622222,0.622222 0 0 1 146.962555,60.177778L146.962555,63.081481A0.622222,0.622222 0 0 1 145.718111,63.081481Z" fill="rgb(30%,30%,30%)" /><rect x="145.71811086974012" y="61.55703703703704" width="1.2444444444444442" height="0.14518518518518517" stroke="none" stroke-width="1" fill="white" /></g><g><path d="M 186.398777,49.807407A0.622222,0.622222 0 0 1 187.643221,49.807407L187.643221,52.711111A0.622222,0.622222 0 0 1 186.398777,52.711111Z" fill="rgb(30%,30%,30%)" /><rect x="186.39877705366482" y="51.186666666666675" width="1.2444444444444442" height="0.14518518518518517" stroke="none" stroke-width="1" fill="white" /></g><g><path d="M 227.079443,49.807407A0.622222,0.622222 0 0 1 228.323888,49.807407L228.323888,52.711111A0.622222,0.622222 0 0 1 227.079443,52.711111Z" fill="rgb(30%,30%,30%)" /><rect x="227.07944323758952" y="51.186666666666675" width="1.2444444444444442" height="0.14518518518518517" stroke="none" stroke-width="1" fill="white" /></g><g><path d="M 23.676112,70.548148A0.622222,0.622222 0 0 1 24.920557,70.548148L24.920557,73.451852A0.622222,0.622222 0 0 1 23.676112,73.451852Z" fill="rgb(30%,30%,30%)" /><rect x="23.676112317966044" y="71.9274074074074" width="1.2444444444444442" height="0.14518518518518517" stroke="none" stroke-width="1" fill="white" /></g><g><path d="M 64.356779,80.918519A0.622222,0.622222 0 0 1 65.601223,80.918519L65.601223,83.822222A0.622222,0.622222 0 0 1 64.356779,83.822222Z" fill="rgb(30%,30%,30%)" /><rect x="64.35677850189073" y="82.29777777777777" width="1.2444444444444442" height="0.14518518518518517" stroke="none" stroke-width="1" fill="white" /></g><g><path d="M 105.037445,91.288889A0.622222,0.622222 0 0 1 106.281889,91.288889L106.281889,94.192593A0.622222,0.622222 0 0 1 105.037445,94.192593Z" fill="rgb(30%,30%,30%)" /><rect x="105.03744468581544" y="92.66814814814813" width="1.2444444444444442" height="0.14518518518518517" stroke="none" stroke-width="1" fill="white" /></g><g><path d="M 145.718111,101.659259A0.622222,0.622222 0 0 1 146.962555,101.659259L146.962555,104.562963A0.622222,0.622222 0 0 1 145.718111,104.562963Z" fill="rgb(30%,30%,30%)" /><rect x="145.71811086974012" y="103.03851851851852" width="1.2444444444444442" height="0.14518518518518517" stroke="none" stroke-width="1" fill="white" /></g><g><path d="M 186.398777,112.029630A0.622222,0.622222 0 0 1 187.643221,112.029630L187.643221,114.933333A0.622222,0.622222 0 0 1 186.398777,114.933333Z" fill="rgb(30%,30%,30%)" /><rect x="186.39877705366482" y="113.40888888888888" width="1.2444444444444442" height="0.14518518518518517" stroke="none" stroke-width="1" fill="white" /></g><g><path d="M 227.079443,101.659259A0.622222,0.622222 0 0 1 228.323888,101.659259L228.323888,104.562963A0.622222,0.622222 0 0 1 227.079443,104.562963Z" fill="rgb(30%,30%,30%)" /><rect x="227.07944323758952" y="103.03851851851852" width="1.2444444444444442" height="0.14518518518518517" stroke="none" stroke-width="1" fill="white" /></g><image x="125.76973207820419" y="96.37037037037037" width="212" height="9.333333333333332" xlink:href="./../outputs/logos/nfl/BAL.png" href="./../outputs/logos/nfl/BAL.png" /><image x="125.76973207820419" y="36.222222222222214" width="212" height="9.333333333333332" xlink:href="./../outputs/logos/nfl/BUF.png" href="./../outputs/logos/nfl/BUF.png" /><image x="125.76973207820419" y="77.7037037037037" width="212" height="9.333333333333332" xlink:href="./../outputs/logos/nfl/CIN.png" href="./../outputs/logos/nfl/CIN.png" /><image x="131.8718320057929" y="96.37037037037037" width="212" height="9.333333333333332" xlink:href="./../outputs/logos/nfl/CLE.png" href="./../outputs/logos/nfl/CLE.png" /><image x="125.76973207820419" y="56.96296296296296" width="212" height="9.333333333333332" xlink:href="./../outputs/logos/nfl/DEN.png" href="./../outputs/logos/nfl/DEN.png" /><image x="131.8718320057929" y="77.7037037037037" width="212" height="9.333333333333332" xlink:href="./../outputs/logos/nfl/HOU.png" href="./../outputs/logos/nfl/HOU.png" /><image x="131.8718320057929" y="36.222222222222214" width="212" height="9.333333333333332" xlink:href="./../outputs/logos/nfl/IND.png" href="./../outputs/logos/nfl/IND.png" /><image x="137.97393193338158" y="36.222222222222214" width="212" height="9.333333333333332" xlink:href="./../outputs/logos/nfl/JAX.png" href="./../outputs/logos/nfl/JAX.png" /><image x="137.97393193338158" y="77.7037037037037" width="212" height="9.333333333333332" xlink:href="./../outputs/logos/nfl/KC.png" href="./../outputs/logos/nfl/KC.png" /><image x="137.97393193338158" y="96.37037037037037" width="212" height="9.333333333333332" xlink:href="./../outputs/logos/nfl/LV.png" href="./../outputs/logos/nfl/LV.png" /><image x="131.8718320057929" y="56.96296296296296" width="212" height="9.333333333333332" xlink:href="./../outputs/logos/nfl/LAC.png" href="./../outputs/logos/nfl/LAC.png" /><image x="144.0760318609703" y="96.37037037037037" width="212" height="9.333333333333332" xlink:href="./../outputs/logos/nfl/MIA.png" href="./../outputs/logos/nfl/MIA.png" /><image x="137.97393193338158" y="56.96296296296296" width="212" height="9.333333333333332" xlink:href="./../outputs/logos/nfl/NE.png" href="./../outputs/logos/nfl/NE.png" /><image x="125.76973207820419" y="119.18518518518518" width="212" height="9.333333333333332" xlink:href="./../outputs/logos/nfl/NYJ.png" href="./../outputs/logos/nfl/NYJ.png" /><image x="125.76973207820419" y="46.592592592592595" width="212" height="9.333333333333332" xlink:href="./../outputs/logos/nfl/PIT.png" href="./../outputs/logos/nfl/PIT.png" /><image x="125.76973207820419" y="100.51851851851852" width="212" height="9.333333333333332" xlink:href="./../outputs/logos/nfl/TEN.png" href="./../outputs/logos/nfl/TEN.png" /></g><text x="254.5" y="142" stroke="none" fill="black" font-size="3" font-family="auto" text-anchor="end" dx="0" dy="0" transform="none" id="">Graphic by Vivian (vbbcla)</text><text x="254.5" y="138" stroke="none" fill="black" font-size="3" font-family="auto" text-anchor="end" dx="0" dy="0" transform="none" id="">Note: Tiebreakers not visualized</text></svg>