<svg width="256" height="144" xmlns="http://www.w3.org/2000/svg" xmlns:xlink="http://www.w3.org/1999/xlink" version="2.0"><style>
* {
font-family: "Merriweather Sans";
font-weight: 300;
}
#title {
font-weight: normal
}
</style><rect x="0" y="0" width="256" height="144" stroke="none" stroke-width="1" fill="#ffeceb" /><text x="128" y="12" stroke="none" fill="black" font-size="8" font-family="auto" text-anchor="middle" dx="0" dy="0" transform="none" id="title">NFL Graphical Standings &#8211; Week 1, 2025</text><text x="8" y="72" stroke="none" fill="black" font-size="6" font-family="auto" text-anchor="middle" dx="0" dy="0" transform="rotate(-90,8,72)" id="">Wins above .500</text><text x="108.0" y="140" stroke="none" fill="black" font-size="6" font-family="auto" text-anchor="middle" dx="0" dy="0" transform="none" id="">Week</text><g><g><line x1="37.855072463768124" x2="37.855072463768124" y1="128.0" y2="16.0" stroke="rgb(90%,90%,90%)" stroke-width="0.5" stroke-linecap="square" /><line x1="178.14492753623188" x2="178.14492753623188" y1="128.0" y2="16.0" stroke="rgb(90%,90%,90%)" stroke-width="0.5" stroke-linecap="square" /><line x1="20.0" x2="196.0" y1="112.0" y2="112.0" stroke="rgb(90%,90%,90%)" stroke-width="0.5" stroke-linecap="square" /><line x1="20.0" x2="196.0" y1="72.0" y2="72.0" stroke="rgb(90%,90%,90%)" stroke-width="0.5" stroke-linecap="square" /><line x1="20.0" x2="196.0" y1="32.0" y2="32.0" stroke="rgb(90%,90%,90%)" stroke-width="0.5" stroke-linecap="square" /></g><g><line x1="37.855072463768124" x2="37.855072463768124" y1="128.0" y2="16.0" stroke="rgb(80%,80%,80%)" stroke-width="0.5" stroke-linecap="square" /><line x1="178.14492753623188" x2="178.14492753623188" y1="128.0" y2="16.0" stroke="rgb(80%,80%,80%)" stroke-width="0.5" stroke-linecap="square" /><line x1="20.0" x2="196.0" y1="112.0" y2="112.0" stroke="rgb(80%,80%,80%)" stroke-width="0.5" stroke-linecap="square" /><line x1="20.0" x2="196.0" y1="72.0" y2="72.0" stroke="rgb(80%,80%,80%)" stroke-width="0.5" stroke-linecap="square" /><line x1="20.0" x2="196.0" y1="32.0" y2="32.0" stroke="rgb(80%,80%,80%)" stroke-width="0.5" stroke-linecap="square" /></g><g><line x1="37.855072463768124" x2="37.855072463768124" y1="128.0" y2="16.0" stroke="rgb(50%,50%,50%)" stroke-width="0.5" stroke-linecap="square" /><line x1="20.0" x2="196.0" y1="72.0" y2="72.0" stroke="rgb(50%,50%,50%)" stroke-width="0.5" stroke-linecap="square" /></g><g><text x="37.855072463768124" y="128.0" stroke="none" fill="rgb(30%,30%,30%)" font-size="5" font-family="auto" text-anchor="middle" dx="0" dy="1em" transform="none" id="">0</text><text x="178.14492753623188" y="128.0" stroke="none" fill="rgb(30%,30%,30%)" font-size="5" font-family="auto" text-anchor="middle" dx="0" dy="1em" transform="none" id="">1</text><text x="20.0" y="112.0" stroke="none" fill="rgb(30%,30%,30%)" font-size="5" font-family="auto" text-anchor="end" dx="-0.5ex" dy="0.5ex" transform="none" id="">-1</text><text x="20.0" y="72.0" stroke="none" fill="rgb(30%,30%,30%)" font-size="5" font-family="auto" text-anchor="end" dx="-0.5ex" dy="0.5ex" transform="none" id="">0</text><text x="20.0" y="32.0" stroke="none" fill="rgb(30%,30%,30%)" font-size="5" font-family="auto" text-anchor="end" dx="-0.5ex" dy="0.5ex" transform="none" id="">1</text></g><polygon points="37.855072463768124,66.0 178.14492753623188,26.0 178.14492753623188,26.607594936708864 37.855072463768124,66.60759493670886" stroke="none" stroke-width="1" fill="#9B3459" /><polygon points="37.855072463768124,66.0 178.14492753623188,106.0 178.14492753623188,106.60759493670886 37.855072463768124,66.60759493670886" stroke="none" stroke-width="1" fill="#8C1527" /><polygon points="37.855072463768124,66.75949367088607 178.14492753623188,106.75949367088609 178.14492753623188,107.36708860759494 37.855072463768124,67.36708860759494" stroke="none" stroke-width="1" fill="#4422B3" /><polygon points="37.855072463768124,66.75949367088607 178.14492753623188,26.759493670886073 178.14492753623188,27.367088607594937 37.855072463768124,67.36708860759494" stroke="none" stroke-width="1" fill="#003087" /><polygon points="37.855072463768124,67.51898734177216 178.14492753623188,107.51898734177215 178.14492753623188,108.12658227848101 37.855072463768124,68.12658227848101" stroke="none" stroke-width="1" fill="#0085CA" /><polygon points="37.855072463768124,68.27848101265822 178.14492753623188,108.27848101265823 178.14492753623188,108.8860759493671 37.855072463768124,68.8860759493671" stroke="none" stroke-width="1" fill="#DC4405" /><polygon points="37.855072463768124,67.51898734177216 178.14492753623188,27.51898734177216 178.14492753623188,28.126582278480996 37.855072463768124,68.12658227848101" stroke="none" stroke-width="1" fill="#C23D04" /><polygon points="37.855072463768124,69.0379746835443 178.14492753623188,109.0379746835443 178.14492753623188,109.64556962025317 37.855072463768124,69.64556962025316" stroke="none" stroke-width="1" fill="#804D00" /><polygon points="37.855072463768124,69.79746835443038 178.14492753623188,109.79746835443038 178.14492753623188,110.40506329113924 37.855072463768124,70.40506329113924" stroke="none" stroke-width="1" fill="#174278" /><polygon points="37.855072463768124,68.27848101265822 178.14492753623188,28.278481012658233 178.14492753623188,28.886075949367083 37.855072463768124,68.8860759493671" stroke="none" stroke-width="1" fill="#FC6602" /><polygon points="37.855072463768124,70.55696202531647 178.14492753623188,110.55696202531647 178.14492753623188,111.16455696202532 37.855072463768124,71.1645569620253" stroke="none" stroke-width="1" fill="#0069B1" /><polygon points="37.855072463768124,69.0379746835443 178.14492753623188,29.037974683544306 178.14492753623188,29.645569620253156 37.855072463768124,69.64556962025316" stroke="none" stroke-width="1" fill="#387362" /><polygon points="37.855072463768124,71.31645569620252 178.14492753623188,111.31645569620254 178.14492753623188,111.92405063291139 37.855072463768124,71.92405063291139" stroke="none" stroke-width="1" fill="#E4002B" /><polygon points="37.855072463768124,69.79746835443038 178.14492753623188,29.797468354430364 178.14492753623188,30.40506329113923 37.855072463768124,70.40506329113924" stroke="none" stroke-width="1" fill="#004E96" /><polygon points="37.855072463768124,70.55696202531647 178.14492753623188,30.55696202531645 178.14492753623188,31.164556962025316 37.855072463768124,71.1645569620253" stroke="none" stroke-width="1" fill="#006271" /><polygon points="37.855072463768124,72.07594936708861 178.14492753623188,112.07594936708861 178.14492753623188,112.68354430379748 37.855072463768124,72.68354430379748" stroke="none" stroke-width="1" fill="#D9627B" /><polygon points="37.855072463768124,71.31645569620252 178.14492753623188,31.316455696202524 178.14492753623188,31.92405063291139 37.855072463768124,71.92405063291139" stroke="none" stroke-width="1" fill="#010101" /><polygon points="37.855072463768124,72.07594936708861 178.14492753623188,32.07594936708861 178.14492753623188,32.683544303797476 37.855072463768124,72.68354430379748" stroke="none" stroke-width="1" fill="#0072CE" /><polygon points="37.855072463768124,72.83544303797468 178.14492753623188,32.835443037974684 178.14492753623188,33.44303797468355 37.855072463768124,73.44303797468353" stroke="none" stroke-width="1" fill="#1E22AA" /><polygon points="37.855072463768124,72.83544303797468 178.14492753623188,112.8354430379747 178.14492753623188,113.44303797468355 37.855072463768124,73.44303797468353" stroke="none" stroke-width="1" fill="#008C95" /><polygon points="37.855072463768124,73.59493670886076 178.14492753623188,33.59493670886076 178.14492753623188,34.20253164556961 37.855072463768124,74.20253164556962" stroke="none" stroke-width="1" fill="#582C83" /><polygon points="37.855072463768124,73.59493670886076 178.14492753623188,113.59493670886076 178.14492753623188,114.20253164556962 37.855072463768124,74.20253164556962" stroke="none" stroke-width="1" fill="#C8102E" /><polygon points="37.855072463768124,74.35443037974684 178.14492753623188,114.35443037974684 178.14492753623188,114.9620253164557 37.855072463768124,74.9620253164557" stroke="none" stroke-width="1" fill="#D3BC8D" /><polygon points="37.855072463768124,75.1139240506329 178.14492753623188,115.11392405063292 178.14492753623188,115.72151898734178 37.855072463768124,75.72151898734177" stroke="none" stroke-width="1" fill="#A6192E" /><polygon points="37.855072463768124,75.87341772151899 178.14492753623188,115.87341772151899 178.14492753623188,116.48101265822785 37.855072463768124,76.48101265822785" stroke="none" stroke-width="1" fill="#115740" /><polygon points="37.855072463768124,74.35443037974684 178.14492753623188,34.354430379746816 178.14492753623188,34.962025316455694 37.855072463768124,74.9620253164557" stroke="none" stroke-width="1" fill="#008580" /><polygon points="37.855072463768124,75.1139240506329 178.14492753623188,35.1139240506329 178.14492753623188,35.72151898734177 37.855072463768124,75.72151898734177" stroke="none" stroke-width="1" fill="#FFB81C" /><polygon points="37.855072463768124,75.87341772151899 178.14492753623188,35.87341772151899 178.14492753623188,36.48101265822784 37.855072463768124,76.48101265822785" stroke="none" stroke-width="1" fill="#B9975B" /><polygon points="37.855072463768124,76.63291139240506 178.14492753623188,116.63291139240506 178.14492753623188,117.24050632911393 37.855072463768124,77.24050632911391" stroke="none" stroke-width="1" fill="#78BE21" /><polygon points="37.855072463768124,76.63291139240506 178.14492753623188,36.63291139240505 178.14492753623188,37.24050632911391 37.855072463768124,77.24050632911391" stroke="none" stroke-width="1" fill="#FF8200" /><polygon points="37.855072463768124,77.39240506329114 178.14492753623188,117.39240506329114 178.14492753623188,118.0 37.855072463768124,78.0" stroke="none" stroke-width="1" fill="#418FDE" /><polygon points="37.855072463768124,77.39240506329114 178.14492753623188,37.392405063291136 178.14492753623188,38.0 37.855072463768124,78.0" stroke="none" stroke-width="1" fill="#732058" /><g><path d="M 36.055072,67.800000A1.800000,1.800000 0 0 1 39.655072,67.800000L39.655072,76.200000A1.800000,1.800000 0 0 1 36.055072,76.200000Z" fill="rgb(30%,30%,30%)" /><rect x="36.05507246376813" y="71.78999999999999" width="3.6" height="0.42000000000000004" stroke="none" stroke-width="1" fill="white" /></g><g><path d="M 176.344928,27.800000A1.800000,1.800000 0 0 1 179.944928,27.800000L179.944928,36.200000A1.800000,1.800000 0 0 1 176.344928,36.200000Z" fill="rgb(30%,30%,30%)" /><rect x="176.34492753623186" y="31.79" width="3.6" height="0.42000000000000004" stroke="none" stroke-width="1" fill="white" /></g><g><path d="M 36.055072,67.800000A1.800000,1.800000 0 0 1 39.655072,67.800000L39.655072,76.200000A1.800000,1.800000 0 0 1 36.055072,76.200000Z" fill="rgb(30%,30%,30%)" /><rect x="36.05507246376813" y="71.78999999999999" width="3.6" height="0.42000000000000004" stroke="none" stroke-width="1" fill="white" /></g><g><path d="M 176.344928,107.800000A1.800000,1.800000 0 0 1 179.944928,107.800000L179.944928,116.200000A1.800000,1.800000 0 0 1 176.344928,116.200000Z" fill="rgb(30%,30%,30%)" /><rect x="176.34492753623186" y="111.78999999999999" width="3.6" height="0.42000000000000004" stroke="none" stroke-width="1" fill="white" /></g><g><path d="M 36.055072,67.800000A1.800000,1.800000 0 0 1 39.655072,67.800000L39.655072,76.200000A1.800000,1.800000 0 0 1 36.055072,76.200000Z" fill="rgb(30%,30%,30%)" /><rect x="36.05507246376813" y="71.78999999999999" width="3.6" height="0.42000000000000004" stroke="none" stroke-width="1" fill="white" /></g><g><path d="M 176.344928,107.800000A1.800000,1.800000 0 0 1 179.944928,107.800000L179.944928,116.200000A1.800000,1.800000 0 0 1 176.344928,116.200000Z" fill="rgb(30%,30%,30%)" /><rect x="176.34492753623186" y="111.78999999999999" width="3.6" height="0.42000000000000004" stroke="none" stroke-width="1" fill="white" /></g><g><path d="M 36.055072,67.800000A1.800000,1.800000 0 0 1 39.655072,67.800000L39.655072,76.200000A1.800000,1.800000 0 0 1 36.055072,76.200000Z" fill="rgb(30%,30%,30%)" /><rect x="36.05507246376813" y="71.78999999999999" width="3.6" height="0.42000000000000004" stroke="none" stroke-width="1" fill="white" /></g><g><path d="M 176.344928,27.800000A1.800000,1.800000 0 0 1 179.944928,27.800000L179.944928,36.200000A1.800000,1.800000 0 0 1 176.344928,36.200000Z" fill="rgb(30%,30%,30%)" /><rect x="176.34492753623186" y="31.79" width="3.6" height="0.42000000000000004" stroke="none" stroke-width="1" fill="white" /></g><g><path d="M 36.055072,67.800000A1.800000,1.800000 0 0 1 39.655072,67.800000L39.655072,76.200000A1.800000,1.800000 0 0 1 36.055072,76.200000Z" fill="rgb(30%,30%,30%)" /><rect x="36.05507246376813" y="71.78999999999999" width="3.6" height="0.42000000000000004" stroke="none" stroke-width="1" fill="white" /></g><g><path d="M 176.344928,107.800000A1.800000,1.800000 0 0 1 179.944928,107.800000L179.944928,116.200000A1.800000,1.800000 0 0 1 176.344928,116.200000Z" fill="rgb(30%,30%,30%)" /><rect x="176.34492753623186" y="111.78999999999999" width="3.6" height="0.42000000000000004" stroke="none" stroke-width="1" fill="white" /></g><g><path d="M 36.055072,67.800000A1.800000,1.800000 0 0 1 39.655072,67.800000L39.655072,76.200000A1.800000,1.800000 0 0 1 36.055072,76.200000Z" fill="rgb(30%,30%,30%)" /><rect x="36.05507246376813" y="71.78999999999999" width="3.6" height="0.42000000000000004" stroke="none" stroke-width="1" fill="white" /></g><g><path d="M 176.344928,107.800000A1.800000,1.800000 0 0 1 179.944928,107.800000L179.944928,116.200000A1.800000,1.800000 0 0 1 176.344928,116.200000Z" fill="rgb(30%,30%,30%)" /><rect x="176.34492753623186" y="111.78999999999999" width="3.6" height="0.42000000000000004" stroke="none" stroke-width="1" fill="white" /></g><g><path d="M 36.055072,67.800000A1.800000,1.800000 0 0 1 39.655072,67.800000L39.655072,76.200000A1.800000,1.800000 0 0 1 36.055072,76.200000Z" fill="rgb(30%,30%,30%)" /><rect x="36.05507246376813" y="71.78999999999999" width="3.6" height="0.42000000000000004" stroke="none" stroke-width="1" fill="white" /></g><g><path d="M 176.344928,27.800000A1.800000,1.800000 0 0 1 179.944928,27.800000L179.944928,36.200000A1.800000,1.800000 0 0 1 176.344928,36.200000Z" fill="rgb(30%,30%,30%)" /><rect x="176.34492753623186" y="31.79" width="3.6" height="0.42000000000000004" stroke="none" stroke-width="1" fill="white" /></g><g><path d="M 36.055072,67.800000A1.800000,1.800000 0 0 1 39.655072,67.800000L39.655072,76.200000A1.800000,1.800000 0 0 1 36.055072,76.200000Z" fill="rgb(30%,30%,30%)" /><rect x="36.05507246376813" y="71.78999999999999" width="3.6" height="0.42000000000000004" stroke="none" stroke-width="1" fill="white" /></g><g><path d="M 176.344928,107.800000A1.800000,1.800000 0 0 1 179.944928,107.800000L179.944928,116.200000A1.800000,1.800000 0 0 1 176.344928,116.200000Z" fill="rgb(30%,30%,30%)" /><rect x="176.34492753623186" y="111.78999999999999" width="3.6" height="0.42000000000000004" stroke="none" stroke-width="1" fill="white" /></g><g><path d="M 36.055072,67.800000A1.800000,1.800000 0 0 1 39.655072,67.800000L39.655072,76.200000A1.800000,1.800000 0 0 1 36.055072,76.200000Z" fill="rgb(30%,30%,30%)" /><rect x="36.05507246376813" y="71.78999999999999" width="3.6" height="0.42000000000000004" stroke="none" stroke-width="1" fill="white" /></g><g><path d="M 176.344928,107.800000A1.800000,1.800000 0 0 1 179.944928,107.800000L179.944928,116.200000A1.800000,1.800000 0 0 1 176.344928,116.200000Z" fill="rgb(30%,30%,30%)" /><rect x="176.34492753623186" y="111.78999999999999" width="3.6" height="0.42000000000000004" stroke="none" stroke-width="1" fill="white" /></g><g><path d="M 36.055072,67.800000A1.800000,1.800000 0 0 1 39.655072,67.800000L39.655072,76.200000A1.800000,1.800000 0 0 1 36.055072,76.200000Z" fill="rgb(30%,30%,30%)" /><rect x="36.05507246376813" y="71.78999999999999" width="3.6" height="0.42000000000000004" stroke="none" stroke-width="1" fill="white" /></g><g><path d="M 176.344928,27.800000A1.800000,1.800000 0 0 1 179.944928,27.800000L179.944928,36.200000A1.800000,1.800000 0 0 1 176.344928,36.200000Z" fill="rgb(30%,30%,30%)" /><rect x="176.34492753623186" y="31.79" width="3.6" height="0.42000000000000004" stroke="none" stroke-width="1" fill="white" /></g><g><path d="M 36.055072,67.800000A1.800000,1.800000 0 0 1 39.655072,67.800000L39.655072,76.200000A1.800000,1.800000 0 0 1 36.055072,76.200000Z" fill="rgb(30%,30%,30%)" /><rect x="36.05507246376813" y="71.78999999999999" width="3.6" height="0.42000000000000004" stroke="none" stroke-width="1" fill="white" /></g><g><path d="M 176.344928,107.800000A1.800000,1.800000 0 0 1 179.944928,107.800000L179.944928,116.200000A1.800000,1.800000 0 0 1 176.344928,116.200000Z" fill="rgb(30%,30%,30%)" /><rect x="176.34492753623186" y="111.78999999999999" width="3.6" height="0.42000000000000004" stroke="none" stroke-width="1" fill="white" /></g><g><path d="M 36.055072,67.800000A1.800000,1.800000 0 0 1 39.655072,67.800000L39.655072,76.200000A1.800000,1.800000 0 0 1 36.055072,76.200000Z" fill="rgb(30%,30%,30%)" /><rect x="36.05507246376813" y="71.78999999999999" width="3.6" height="0.42000000000000004" stroke="none" stroke-width="1" fill="white" /></g><g><path d="M 176.344928,27.800000A1.800000,1.800000 0 0 1 179.944928,27.800000L179.944928,36.200000A1.800000,1.800000 0 0 1 176.344928,36.200000Z" fill="rgb(30%,30%,30%)" /><rect x="176.34492753623186" y="31.79" width="3.6" height="0.42000000000000004" stroke="none" stroke-width="1" fill="white" /></g><g><path d="M 36.055072,67.800000A1.800000,1.800000 0 0 1 39.655072,67.800000L39.655072,76.200000A1.800000,1.800000 0 0 1 36.055072,76.200000Z" fill="rgb(30%,30%,30%)" /><rect x="36.05507246376813" y="71.78999999999999" width="3.6" height="0.42000000000000004" stroke="none" stroke-width="1" fill="white" /></g><g><path d="M 176.344928,107.800000A1.800000,1.800000 0 0 1 179.944928,107.800000L179.944928,116.200000A1.800000,1.800000 0 0 1 176.344928,116.200000Z" fill="rgb(30%,30%,30%)" /><rect x="176.34492753623186" y="111.78999999999999" width="3.6" height="0.42000000000000004" stroke="none" stroke-width="1" fill="white" /></g><g><path d="M 36.055072,67.800000A1.800000,1.800000 0 0 1 39.655072,67.800000L39.655072,76.200000A1.800000,1.800000 0 0 1 36.055072,76.200000Z" fill="rgb(30%,30%,30%)" /><rect x="36.05507246376813" y="71.78999999999999" width="3.6" height="0.42000000000000004" stroke="none" stroke-width="1" fill="white" /></g><g><path d="M 176.344928,27.800000A1.800000,1.800000 0 0 1 179.944928,27.800000L179.944928,36.200000A1.800000,1.800000 0 0 1 176.344928,36.200000Z" fill="rgb(30%,30%,30%)" /><rect x="176.34492753623186" y="31.79" width="3.6" height="0.42000000000000004" stroke="none" stroke-width="1" fill="white" /></g><g><path d="M 36.055072,67.800000A1.800000,1.800000 0 0 1 39.655072,67.800000L39.655072,76.200000A1.800000,1.800000 0 0 1 36.055072,76.200000Z" fill="rgb(30%,30%,30%)" /><rect x="36.05507246376813" y="71.78999999999999" width="3.6" height="0.42000000000000004" stroke="none" stroke-width="1" fill="white" /></g><g><path d="M 176.344928,27.800000A1.800000,1.800000 0 0 1 179.944928,27.800000L179.944928,36.200000A1.800000,1.800000 0 0 1 176.344928,36.200000Z" fill="rgb(30%,30%,30%)" /><rect x="176.34492753623186" y="31.79" width="3.6" height="0.42000000000000004" stroke="none" stroke-width="1" fill="white" /></g><g><path d="M 36.055072,67.800000A1.800000,1.800000 0 0 1 39.655072,67.800000L39.655072,76.200000A1.800000,1.800000 0 0 1 36.055072,76.200000Z" fill="rgb(30%,30%,30%)" /><rect x="36.05507246376813" y="71.78999999999999" width="3.6" height="0.42000000000000004" stroke="none" stroke-width="1" fill="white" /></g><g><path d="M 176.344928,107.800000A1.800000,1.800000 0 0 1 179.944928,107.800000L179.944928,116.200000A1.800000,1.800000 0 0 1 176.344928,116.200000Z" fill="rgb(30%,30%,30%)" /><rect x="176.34492753623186" y="111.78999999999999" width="3.6" height="0.42000000000000004" stroke="none" stroke-width="1" fill="white" /></g><g><path d="M 36.055072,67.800000A1.800000,1.800000 0 0 1 39.655072,67.800000L39.655072,76.200000A1.800000,1.800000 0 0 1 36.055072,76.200000Z" fill="rgb(30%,30%,30%)" /><rect x="36.05507246376813" y="71.78999999999999" width="3.6" height="0.42000000000000004" stroke="none" stroke-width="1" fill="white" /></g><g><path d="M 176.344928,27.800000A1.800000,1.800000 0 0 1 179.944928,27.800000L179.944928,36.200000A1.800000,1.800000 0 0 1 176.344928,36.200000Z" fill="rgb(30%,30%,30%)" /><rect x="176.34492753623186" y="31.79" width="3.6" height="0.42000000000000004" stroke="none" stroke-width="1" fill="white" /></g><g><path d="M 36.055072,67.800000A1.800000,1.800000 0 0 1 39.655072,67.800000L39.655072,76.200000A1.800000,1.800000 0 0 1 36.055072,76.200000Z" fill="rgb(30%,30%,30%)" /><rect x="36.05507246376813" y="71.78999999999999" width="3.6" height="0.42000000000000004" stroke="none" stroke-width="1" fill="white" /></g><g><path d="M 176.344928,27.800000A1.800000,1.800000 0 0 1 179.944928,27.800000L179.944928,36.200000A1.800000,1.800000 0 0 1 176.344928,36.200000Z" fill="rgb(30%,30%,30%)" /><rect x="176.34492753623186" y="31.79" width="3.6" height="0.42000000000000004" stroke="none" stroke-width="1" fill="white" /></g><g><path d="M 36.055072,67.800000A1.800000,1.800000 0 0 1 39.655072,67.800000L39.655072,76.200000A1.800000,1.800000 0 0 1 36.055072,76.200000Z" fill="rgb(30%,30%,30%)" /><rect x="36.05507246376813" y="71.78999999999999" width="3.6" height="0.42000000000000004" stroke="none" stroke-width="1" fill="white" /></g><g><path d="M 176.344928,27.800000A1.800000,1.800000 0 0 1 179.944928,27.800000L179.944928,36.200000A1.800000,1.800000 0 0 1 176.344928,36.200000Z" fill="rgb(30%,30%,30%)" /><rect x="176.34492753623186" y="31.79" width="3.6" height="0.42000000000000004" stroke="none" stroke-width="1" fill="white" /></g><g><path d="M 36.055072,67.800000A1.800000,1.800000 0 0 1 39.655072,67.800000L39.655072,76.200000A1.800000,1.800000 0 0 1 36.055072,76.200000Z" fill="rgb(30%,30%,30%)" /><rect x="36.05507246376813" y="71.78999999999999" width="3.6" height="0.42000000000000004" stroke="none" stroke-width="1" fill="white" /></g><g><path d="M 176.344928,107.800000A1.800000,1.800000 0 0 1 179.944928,107.800000L179.944928,116.200000A1.800000,1.800000 0 0 1 176.344928,116.200000Z" fill="rgb(30%,30%,30%)" /><rect x="176.34492753623186" y="111.78999999999999" width="3.6" height="0.42000000000000004" stroke="none" stroke-width="1" fill="white" /></g><g><path d="M 36.055072,67.800000A1.800000,1.800000 0 0 1 39.655072,67.800000L39.655072,76.200000A1.800000,1.800000 0 0 1 36.055072,76.200000Z" fill="rgb(30%,30%,30%)" /><rect x="36.05507246376813" y="71.78999999999999" width="3.6" height="0.42000000000000004" stroke="none" stroke-width="1" fill="white" /></g><g><path d="M 176.344928,27.800000A1.800000,1.800000 0 0 1 179.944928,27.800000L179.944928,36.200000A1.800000,1.800000 0 0 1 176.344928,36.200000Z" fill="rgb(30%,30%,30%)" /><rect x="176.34492753623186" y="31.79" width="3.6" height="0.42000000000000004" stroke="none" stroke-width="1" fill="white" /></g><g><path d="M 36.055072,67.800000A1.800000,1.800000 0 0 1 39.655072,67.800000L39.655072,76.200000A1.800000,1.800000 0 0 1 36.055072,76.200000Z" fill="rgb(30%,30%,30%)" /><rect x="36.05507246376813" y="71.78999999999999" width="3.6" height="0.42000000000000004" stroke="none" stroke-width="1" fill="white" /></g><g><path d="M 176.344928,107.800000A1.800000,1.800000 0 0 1 179.944928,107.800000L179.944928,116.200000A1.800000,1.800000 0 0 1 176.344928,116.200000Z" fill="rgb(30%,30%,30%)" /><rect x="176.34492753623186" y="111.78999999999999" width="3.6" height="0.42000000000000004" stroke="none" stroke-width="1" fill="white" /></g><g><path d="M 36.055072,67.800000A1.800000,1.800000 0 0 1 39.655072,67.800000L39.655072,76.200000A1.800000,1.800000 0 0 1 36.055072,76.200000Z" fill="rgb(30%,30%,30%)" /><rect x="36.05507246376813" y="71.78999999999999" width="3.6" height="0.42000000000000004" stroke="none" stroke-width="1" fill="white" /></g><g><path d="M 176.344928,107.800000A1.800000,1.800000 0 0 1 179.944928,107.800000L179.944928,116.200000A1.800000,1.800000 0 0 1 176.344928,116.200000Z" fill="rgb(30%,30%,30%)" /><rect x="176.34492753623186" y="111.78999999999999" width="3.6" height="0.42000000000000004" stroke="none" stroke-width="1" fill="white" /></g><g><path d="M 36.055072,67.800000A1.800000,1.800000 0 0 1 39.655072,67.800000L39.655072,76.200000A1.800000,1.800000 0 0 1 36.055072,76.200000Z" fill="rgb(30%,30%,30%)" /><rect x="36.05507246376813" y="71.78999999999999" width="3.6" height="0.42000000000000004" stroke="none" stroke-width="1" fill="white" /></g><g><path d="M 176.344928,107.800000A1.800000,1.800000 0 0 1 179.944928,107.800000L179.944928,116.200000A1.800000,1.800000 0 0 1 176.344928,116.200000Z" fill="rgb(30%,30%,30%)" /><rect x="176.34492753623186" y="111.78999999999999" width="3.6" height="0.42000000000000004" stroke="none" stroke-width="1" fill="white" /></g><g><path d="M 36.055072,67.800000A1.800000,1.800000 0 0 1 39.655072,67.800000L39.655072,76.200000A1.800000,1.800000 0 0 1 36.055072,76.200000Z" fill="rgb(30%,30%,30%)" /><rect x="36.05507246376813" y="71.78999999999999" width="3.6" height="0.42000000000000004" stroke="none" stroke-width="1" fill="white" /></g><g><path d="M 176.344928,107.800000A1.800000,1.800000 0 0 1 179.944928,107.800000L179.944928,116.200000A1.800000,1.800000 0 0 1 176.344928,116.200000Z" fill="rgb(30%,30%,30%)" /><rect x="176.34492753623186" y="111.78999999999999" width="3.6" height="0.42000000000000004" stroke="none" stroke-width="1" fill="white" /></g><g><path d="M 36.055072,67.800000A1.800000,1.800000 0 0 1 39.655072,67.800000L39.655072,76.200000A1.800000,1.800000 0 0 1 36.055072,76.200000Z" fill="rgb(30%,30%,30%)" /><rect x="36.05507246376813" y="71.78999999999999" width="3.6" height="0.42000000000000004" stroke="none" stroke-width="1" fill="white" /></g><g><path d="M 176.344928,27.800000A1.800000,1.800000 0 0 1 179.944928,27.800000L179.944928,36.200000A1.800000,1.800000 0 0 1 176.344928,36.200000Z" fill="rgb(30%,30%,30%)" /><rect x="176.34492753623186" y="31.79" width="3.6" height="0.42000000000000004" stroke="none" stroke-width="1" fill="white" /></g><g><path d="M 36.055072,67.800000A1.800000,1.800000 0 0 1 39.655072,67.800000L39.655072,76.200000A1.800000,1.800000 0 0 1 36.055072,76.200000Z" fill="rgb(30%,30%,30%)" /><rect x="36.05507246376813" y="71.78999999999999" width="3.6" height="0.42000000000000004" stroke="none" stroke-width="1" fill="white" /></g><g><path d="M 176.344928,27.800000A1.800000,1.800000 0 0 1 179.944928,27.800000L179.944928,36.200000A1.800000,1.800000 0 0 1 176.344928,36.200000Z" fill="rgb(30%,30%,30%)" /><rect x="176.34492753623186" y="31.79" width="3.6" height="0.42000000000000004" stroke="none" stroke-width="1" fill="white" /></g><g><path d="M 36.055072,67.800000A1.800000,1.800000 0 0 1 39.655072,67.800000L39.655072,76.200000A1.800000,1.800000 0 0 1 36.055072,76.200000Z" fill="rgb(30%,30%,30%)" /><rect x="36.05507246376813" y="71.78999999999999" width="3.6" height="0.42000000000000004" stroke="none" stroke-width="1" fill="white" /></g><g><path d="M 176.344928,27.800000A1.800000,1.800000 0 0 1 179.944928,27.800000L179.944928,36.200000A1.800000,1.800000 0 0 1 176.344928,36.200000Z" fill="rgb(30%,30%,30%)" /><rect x="176.34492753623186" y="31.79" width="3.6" height="0.42000000000000004" stroke="none" stroke-width="1" fill="white" /></g><g><path d="M 36.055072,67.800000A1.800000,1.800000 0 0 1 39.655072,67.800000L39.655072,76.200000A1.800000,1.800000 0 0 1 36.055072,76.200000Z" fill="rgb(30%,30%,30%)" /><rect x="36.05507246376813" y="71.78999999999999" width="3.6" height="0.42000000000000004" stroke="none" stroke-width="1" fill="white" /></g><g><path d="M 176.344928,107.800000A1.800000,1.800000 0 0 1 179.944928,107.800000L179.944928,116.200000A1.800000,1.800000 0 0 1 176.344928,116.200000Z" fill="rgb(30%,30%,30%)" /><rect x="176.34492753623186" y="111.78999999999999" width="3.6" height="0.42000000000000004" stroke="none" stroke-width="1" fill="white" /></g><g><path d="M 36.055072,67.800000A1.800000,1.800000 0 0 1 39.655072,67.800000L39.655072,76.200000A1.800000,1.800000 0 0 1 36.055072,76.200000Z" fill="rgb(30%,30%,30%)" /><rect x="36.05507246376813" y="71.78999999999999" width="3.6" height="0.42000000000000004" stroke="none" stroke-width="1" fill="white" /></g><g><path d="M 176.344928,27.800000A1.800000,1.800000 0 0 1 179.944928,27.800000L179.944928,36.200000A1.800000,1.800000 0 0 1 176.344928,36.200000Z" fill="rgb(30%,30%,30%)" /><rect x="176.34492753623186" y="31.79" width="3.6" height="0.42000000000000004" stroke="none" stroke-width="1" fill="white" /></g><g><path d="M 36.055072,67.800000A1.800000,1.800000 0 0 1 39.655072,67.800000L39.655072,76.200000A1.800000,1.800000 0 0 1 36.055072,76.200000Z" fill="rgb(30%,30%,30%)" /><rect x="36.05507246376813" y="71.78999999999999" width="3.6" height="0.42000000000000004" stroke="none" stroke-width="1" fill="white" /></g><g><path d="M 176.344928,107.800000A1.800000,1.800000 0 0 1 179.944928,107.800000L179.944928,116.200000A1.800000,1.800000 0 0 1 176.344928,116.200000Z" fill="rgb(30%,30%,30%)" /><rect x="176.34492753623186" y="111.78999999999999" width="3.6" height="0.42000000000000004" stroke="none" stroke-width="1" fill="white" /></g><g><path d="M 36.055072,67.800000A1.800000,1.800000 0 0 1 39.655072,67.800000L39.655072,76.200000A1.800000,1.800000 0 0 1 36.055072,76.200000Z" fill="rgb(30%,30%,30%)" /><rect x="36.05507246376813" y="71.78999999999999" width="3.6" height="0.42000000000000004" stroke="none" stroke-width="1" fill="white" /></g><g><path d="M 176.344928,27.800000A1.800000,1.800000 0 0 1 179.944928,27.800000L179.944928,36.200000A1.800000,1.800000 0 0 1 176.344928,36.200000Z" fill="rgb(30%,30%,30%)" /><rect x="176.34492753623186" y="31.79" width="3.6" height="0.42000000000000004" stroke="none" stroke-width="1" fill="white" /></g><image x="164.11594202898553" y="10.199999999999989" width="56.115942028985515" height="16.000000000000004" xlink:href="./../outputs/logos/nfl/ARI.png" href="./../outputs/logos/nfl/ARI.png" /><image x="164.11594202898553" y="90.2" width="56.115942028985515" height="16.000000000000004" xlink:href="./../outputs/logos/nfl/ATL.png" href="./../outputs/logos/nfl/ATL.png" /><image x="180.9507246376812" y="90.2" width="56.115942028985515" height="16.000000000000004" xlink:href="./../outputs/logos/nfl/BAL.png" href="./../outputs/logos/nfl/BAL.png" /><image x="180.9507246376812" y="10.199999999999989" width="56.115942028985515" height="16.000000000000004" xlink:href="./../outputs/logos/nfl/BUF.png" href="./../outputs/logos/nfl/BUF.png" /><image x="197.78550724637682" y="90.2" width="56.115942028985515" height="16.000000000000004" xlink:href="./../outputs/logos/nfl/CAR.png" href="./../outputs/logos/nfl/CAR.png" /><image x="214.62028985507246" y="90.2" width="56.115942028985515" height="16.000000000000004" xlink:href="./../outputs/logos/nfl/CHI.png" href="./../outputs/logos/nfl/CHI.png" /><image x="197.78550724637682" y="10.199999999999989" width="56.115942028985515" height="16.000000000000004" xlink:href="./../outputs/logos/nfl/CIN.png" href="./../outputs/logos/nfl/CIN.png" /><image x="164.11594202898553" y="99.4" width="56.115942028985515" height="16.000000000000004" xlink:href="./../outputs/logos/nfl/CLE.png" href="./../outputs/logos/nfl/CLE.png" /><image x="180.9507246376812" y="99.4" width="56.115942028985515" height="16.000000000000004" xlink:href="./../outputs/logos/nfl/DAL.png" href="./../outputs/logos/nfl/DAL.png" /><image x="214.62028985507246" y="10.199999999999989" width="56.115942028985515" height="16.000000000000004" xlink:href="./../outputs/logos/nfl/DEN.png" href="./../outputs/logos/nfl/DEN.png" /><image x="197.78550724637682" y="99.4" width="56.115942028985515" height="16.000000000000004" xlink:href="./../outputs/logos/nfl/DET.png" href="./../outputs/logos/nfl/DET.png" /><image x="164.11594202898553" y="19.400000000000006" width="56.115942028985515" height="16.000000000000004" xlink:href="./../outputs/logos/nfl/GB.png" href="./../outputs/logos/nfl/GB.png" /><image x="214.62028985507246" y="99.4" width="56.115942028985515" height="16.000000000000004" xlink:href="./../outputs/logos/nfl/HOU.png" href="./../outputs/logos/nfl/HOU.png" /><image x="180.9507246376812" y="19.400000000000006" width="56.115942028985515" height="16.000000000000004" xlink:href="./../outputs/logos/nfl/IND.png" href="./../outputs/logos/nfl/IND.png" /><image x="197.78550724637682" y="19.400000000000006" width="56.115942028985515" height="16.000000000000004" xlink:href="./../outputs/logos/nfl/JAX.png" href="./../outputs/logos/nfl/JAX.png" /><image x="164.11594202898553" y="108.60000000000001" width="56.115942028985515" height="16.000000000000004" xlink:href="./../outputs/logos/nfl/KC.png" href="./../outputs/logos/nfl/KC.png" /><image x="214.62028985507246" y="19.400000000000006" width="56.115942028985515" height="16.000000000000004" xlink:href="./../outputs/logos/nfl/LV.png" href="./../outputs/logos/nfl/LV.png" /><image x="164.11594202898553" y="28.599999999999994" width="56.115942028985515" height="16.000000000000004" xlink:href="./../outputs/logos/nfl/LAC.png" href="./../outputs/logos/nfl/LAC.png" /><image x="180.9507246376812" y="28.599999999999994" width="56.115942028985515" height="16.000000000000004" xlink:href="./../outputs/logos/nfl/LAR.png" href="./../outputs/logos/nfl/LAR.png" /><image x="180.9507246376812" y="108.60000000000001" width="56.115942028985515" height="16.000000000000004" xlink:href="./../outputs/logos/nfl/MIA.png" href="./../outputs/logos/nfl/MIA.png" /><image x="197.78550724637682" y="28.599999999999994" width="56.115942028985515" height="16.000000000000004" xlink:href="./../outputs/logos/nfl/MIN.png" href="./../outputs/logos/nfl/MIN.png" /><image x="197.78550724637682" y="108.60000000000001" width="56.115942028985515" height="16.000000000000004" xlink:href="./../outputs/logos/nfl/NE.png" href="./../outputs/logos/nfl/NE.png" /><image x="214.62028985507246" y="108.60000000000001" width="56.115942028985515" height="16.000000000000004" xlink:href="./../outputs/logos/nfl/NO.png" href="./../outputs/logos/nfl/NO.png" /><image x="164.11594202898553" y="117.80000000000001" width="56.115942028985515" height="16.000000000000004" xlink:href="./../outputs/logos/nfl/NYG.png" href="./../outputs/logos/nfl/NYG.png" /><image x="180.9507246376812" y="117.80000000000001" width="56.115942028985515" height="16.000000000000004" xlink:href="./../outputs/logos/nfl/NYJ.png" href="./../outputs/logos/nfl/NYJ.png" /><image x="214.62028985507246" y="28.599999999999994" width="56.115942028985515" height="16.000000000000004" xlink:href="./../outputs/logos/nfl/PHI.png" href="./../outputs/logos/nfl/PHI.png" /><image x="164.11594202898553" y="37.8" width="56.115942028985515" height="16.000000000000004" xlink:href="./../outputs/logos/nfl/PIT.png" href="./../outputs/logos/nfl/PIT.png" /><image x="180.9507246376812" y="37.8" width="56.115942028985515" height="16.000000000000004" xlink:href="./../outputs/logos/nfl/SF.png" href="./../outputs/logos/nfl/SF.png" /><image x="197.78550724637682" y="117.80000000000001" width="56.115942028985515" height="16.000000000000004" xlink:href="./../outputs/logos/nfl/SEA.png" href="./../outputs/logos/nfl/SEA.png" /><image x="197.78550724637682" y="37.8" width="56.115942028985515" height="16.000000000000004" xlink:href="./../outputs/logos/nfl/TB.png" href="./../outputs/logos/nfl/TB.png" /><image x="214.62028985507246" y="117.80000000000001" width="56.115942028985515" height="16.000000000000004" xlink:href="./../outputs/logos/nfl/TEN.png" href="./../outputs/logos/nfl/TEN.png" /><image x="214.62028985507246" y="37.8" width="56.115942028985515" height="16.000000000000004" xlink:href="./../outputs/logos/nfl/WAS.png" href="./../outputs/logos/nfl/WAS.png" /></g><text x="254.5" y="142" stroke="none" fill="black" font-size="4" font-family="auto" text-anchor="end" dx="0" dy="0" transform="none" id="">Graphic by Vivian (vbbcla)</text></svg>