<svg width="256" height="144" xmlns="http://www.w3.org/2000/svg" xmlns:xlink="http://www.w3.org/1999/xlink" version="2.0"><style>
* {
font-family: "Merriweather Sans";
font-weight: 300;
}
#title {
font-weight: normal
}
</style><rect x="0" y="0" width="256" height="144" stroke="none" stroke-width="1" fill="#ffeceb" /><text x="128" y="12" stroke="none" fill="black" font-size="8" font-family="auto" text-anchor="middle" dx="0" dy="0" transform="none" id="title">NFL Graphical Standings &#8211; Week 1, 2025 &#8211; AFC</text><text x="8" y="72" stroke="none" fill="black" font-size="6" font-family="auto" text-anchor="middle" dx="0" dy="0" transform="rotate(-90,8,72)" id="">Wins above .500</text><text x="108.0" y="140" stroke="none" fill="black" font-size="6" font-family="auto" text-anchor="middle" dx="0" dy="0" transform="none" id="">Week</text><g><g><line x1="37.855072463768124" x2="37.855072463768124" y1="128.0" y2="16.0" stroke="rgb(90%,90%,90%)" stroke-width="0.5" stroke-linecap="square" /><line x1="178.14492753623188" x2="178.14492753623188" y1="128.0" y2="16.0" stroke="rgb(90%,90%,90%)" stroke-width="0.5" stroke-linecap="square" /><line x1="20.0" x2="196.0" y1="112.0" y2="112.0" stroke="rgb(90%,90%,90%)" stroke-width="0.5" stroke-linecap="square" /><line x1="20.0" x2="196.0" y1="72.0" y2="72.0" stroke="rgb(90%,90%,90%)" stroke-width="0.5" stroke-linecap="square" /><line x1="20.0" x2="196.0" y1="32.0" y2="32.0" stroke="rgb(90%,90%,90%)" stroke-width="0.5" stroke-linecap="square" /></g><g><line x1="37.855072463768124" x2="37.855072463768124" y1="128.0" y2="16.0" stroke="rgb(80%,80%,80%)" stroke-width="0.5" stroke-linecap="square" /><line x1="178.14492753623188" x2="178.14492753623188" y1="128.0" y2="16.0" stroke="rgb(80%,80%,80%)" stroke-width="0.5" stroke-linecap="square" /><line x1="20.0" x2="196.0" y1="112.0" y2="112.0" stroke="rgb(80%,80%,80%)" stroke-width="0.5" stroke-linecap="square" /><line x1="20.0" x2="196.0" y1="72.0" y2="72.0" stroke="rgb(80%,80%,80%)" stroke-width="0.5" stroke-linecap="square" /><line x1="20.0" x2="196.0" y1="32.0" y2="32.0" stroke="rgb(80%,80%,80%)" stroke-width="0.5" stroke-linecap="square" /></g><g><line x1="37.855072463768124" x2="37.855072463768124" y1="128.0" y2="16.0" stroke="rgb(50%,50%,50%)" stroke-width="0.5" stroke-linecap="square" /><line x1="20.0" x2="196.0" y1="72.0" y2="72.0" stroke="rgb(50%,50%,50%)" stroke-width="0.5" stroke-linecap="square" /></g><g><text x="37.855072463768124" y="128.0" stroke="none" fill="rgb(30%,30%,30%)" font-size="5" font-family="auto" text-anchor="middle" dx="0" dy="1em" transform="none" id="">0</text><text x="178.14492753623188" y="128.0" stroke="none" fill="rgb(30%,30%,30%)" font-size="5" font-family="auto" text-anchor="middle" dx="0" dy="1em" transform="none" id="">1</text><text x="20.0" y="112.0" stroke="none" fill="rgb(30%,30%,30%)" font-size="5" font-family="auto" text-anchor="end" dx="-0.5ex" dy="0.5ex" transform="none" id="">-1</text><text x="20.0" y="72.0" stroke="none" fill="rgb(30%,30%,30%)" font-size="5" font-family="auto" text-anchor="end" dx="-0.5ex" dy="0.5ex" transform="none" id="">0</text><text x="20.0" y="32.0" stroke="none" fill="rgb(30%,30%,30%)" font-size="5" font-family="auto" text-anchor="end" dx="-0.5ex" dy="0.5ex" transform="none" id="">1</text></g><polygon points="37.855072463768124,66.0 178.14492753623188,106.0 178.14492753623188,107.23076923076923 37.855072463768124,67.23076923076923" stroke="none" stroke-width="1" fill="#4422B3" /><polygon points="37.855072463768124,66.0 178.14492753623188,26.0 178.14492753623188,27.230769230769226 37.855072463768124,67.23076923076923" stroke="none" stroke-width="1" fill="#003087" /><polygon points="37.855072463768124,67.53846153846155 178.14492753623188,27.538461538461533 178.14492753623188,28.76923076923076 37.855072463768124,68.76923076923077" stroke="none" stroke-width="1" fill="#C23D04" /><polygon points="37.855072463768124,67.53846153846155 178.14492753623188,107.53846153846155 178.14492753623188,108.76923076923077 37.855072463768124,68.76923076923077" stroke="none" stroke-width="1" fill="#804D00" /><polygon points="37.855072463768124,69.07692307692307 178.14492753623188,29.076923076923066 178.14492753623188,30.307692307692292 37.855072463768124,70.30769230769229" stroke="none" stroke-width="1" fill="#FC6602" /><polygon points="37.855072463768124,69.07692307692307 178.14492753623188,109.07692307692308 178.14492753623188,110.3076923076923 37.855072463768124,70.30769230769229" stroke="none" stroke-width="1" fill="#E4002B" /><polygon points="37.855072463768124,70.61538461538461 178.14492753623188,30.615384615384613 178.14492753623188,31.84615384615384 37.855072463768124,71.84615384615384" stroke="none" stroke-width="1" fill="#004E96" /><polygon points="37.855072463768124,72.15384615384616 178.14492753623188,32.153846153846146 178.14492753623188,33.38461538461537 37.855072463768124,73.38461538461539" stroke="none" stroke-width="1" fill="#006271" /><polygon points="37.855072463768124,70.61538461538461 178.14492753623188,110.61538461538461 178.14492753623188,111.84615384615385 37.855072463768124,71.84615384615384" stroke="none" stroke-width="1" fill="#D9627B" /><polygon points="37.855072463768124,73.6923076923077 178.14492753623188,33.69230769230768 178.14492753623188,34.923076923076934 37.855072463768124,74.92307692307692" stroke="none" stroke-width="1" fill="#010101" /><polygon points="37.855072463768124,75.23076923076923 178.14492753623188,35.23076923076924 178.14492753623188,36.46153846153847 37.855072463768124,76.46153846153847" stroke="none" stroke-width="1" fill="#0072CE" /><polygon points="37.855072463768124,72.15384615384616 178.14492753623188,112.15384615384616 178.14492753623188,113.38461538461539 37.855072463768124,73.38461538461539" stroke="none" stroke-width="1" fill="#008C95" /><polygon points="37.855072463768124,73.6923076923077 178.14492753623188,113.6923076923077 178.14492753623188,114.92307692307692 37.855072463768124,74.92307692307692" stroke="none" stroke-width="1" fill="#C8102E" /><polygon points="37.855072463768124,75.23076923076923 178.14492753623188,115.23076923076923 178.14492753623188,116.46153846153847 37.855072463768124,76.46153846153847" stroke="none" stroke-width="1" fill="#115740" /><polygon points="37.855072463768124,76.76923076923077 178.14492753623188,36.769230769230774 178.14492753623188,38.0 37.855072463768124,78.0" stroke="none" stroke-width="1" fill="#FFB81C" /><polygon points="37.855072463768124,76.76923076923077 178.14492753623188,116.76923076923077 178.14492753623188,118.0 37.855072463768124,78.0" stroke="none" stroke-width="1" fill="#418FDE" /><g><path d="M 36.055072,67.800000A1.800000,1.800000 0 0 1 39.655072,67.800000L39.655072,76.200000A1.800000,1.800000 0 0 1 36.055072,76.200000Z" fill="rgb(30%,30%,30%)" /><rect x="36.05507246376813" y="71.78999999999999" width="3.6" height="0.42000000000000004" stroke="none" stroke-width="1" fill="white" /></g><g><path d="M 176.344928,107.800000A1.800000,1.800000 0 0 1 179.944928,107.800000L179.944928,116.200000A1.800000,1.800000 0 0 1 176.344928,116.200000Z" fill="rgb(30%,30%,30%)" /><rect x="176.34492753623186" y="111.78999999999999" width="3.6" height="0.42000000000000004" stroke="none" stroke-width="1" fill="white" /></g><g><path d="M 36.055072,67.800000A1.800000,1.800000 0 0 1 39.655072,67.800000L39.655072,76.200000A1.800000,1.800000 0 0 1 36.055072,76.200000Z" fill="rgb(30%,30%,30%)" /><rect x="36.05507246376813" y="71.78999999999999" width="3.6" height="0.42000000000000004" stroke="none" stroke-width="1" fill="white" /></g><g><path d="M 176.344928,27.800000A1.800000,1.800000 0 0 1 179.944928,27.800000L179.944928,36.200000A1.800000,1.800000 0 0 1 176.344928,36.200000Z" fill="rgb(30%,30%,30%)" /><rect x="176.34492753623186" y="31.79" width="3.6" height="0.42000000000000004" stroke="none" stroke-width="1" fill="white" /></g><g><path d="M 36.055072,67.800000A1.800000,1.800000 0 0 1 39.655072,67.800000L39.655072,76.200000A1.800000,1.800000 0 0 1 36.055072,76.200000Z" fill="rgb(30%,30%,30%)" /><rect x="36.05507246376813" y="71.78999999999999" width="3.6" height="0.42000000000000004" stroke="none" stroke-width="1" fill="white" /></g><g><path d="M 176.344928,27.800000A1.800000,1.800000 0 0 1 179.944928,27.800000L179.944928,36.200000A1.800000,1.800000 0 0 1 176.344928,36.200000Z" fill="rgb(30%,30%,30%)" /><rect x="176.34492753623186" y="31.79" width="3.6" height="0.42000000000000004" stroke="none" stroke-width="1" fill="white" /></g><g><path d="M 36.055072,67.800000A1.800000,1.800000 0 0 1 39.655072,67.800000L39.655072,76.200000A1.800000,1.800000 0 0 1 36.055072,76.200000Z" fill="rgb(30%,30%,30%)" /><rect x="36.05507246376813" y="71.78999999999999" width="3.6" height="0.42000000000000004" stroke="none" stroke-width="1" fill="white" /></g><g><path d="M 176.344928,107.800000A1.800000,1.800000 0 0 1 179.944928,107.800000L179.944928,116.200000A1.800000,1.800000 0 0 1 176.344928,116.200000Z" fill="rgb(30%,30%,30%)" /><rect x="176.34492753623186" y="111.78999999999999" width="3.6" height="0.42000000000000004" stroke="none" stroke-width="1" fill="white" /></g><g><path d="M 36.055072,67.800000A1.800000,1.800000 0 0 1 39.655072,67.800000L39.655072,76.200000A1.800000,1.800000 0 0 1 36.055072,76.200000Z" fill="rgb(30%,30%,30%)" /><rect x="36.05507246376813" y="71.78999999999999" width="3.6" height="0.42000000000000004" stroke="none" stroke-width="1" fill="white" /></g><g><path d="M 176.344928,27.800000A1.800000,1.800000 0 0 1 179.944928,27.800000L179.944928,36.200000A1.800000,1.800000 0 0 1 176.344928,36.200000Z" fill="rgb(30%,30%,30%)" /><rect x="176.34492753623186" y="31.79" width="3.6" height="0.42000000000000004" stroke="none" stroke-width="1" fill="white" /></g><g><path d="M 36.055072,67.800000A1.800000,1.800000 0 0 1 39.655072,67.800000L39.655072,76.200000A1.800000,1.800000 0 0 1 36.055072,76.200000Z" fill="rgb(30%,30%,30%)" /><rect x="36.05507246376813" y="71.78999999999999" width="3.6" height="0.42000000000000004" stroke="none" stroke-width="1" fill="white" /></g><g><path d="M 176.344928,107.800000A1.800000,1.800000 0 0 1 179.944928,107.800000L179.944928,116.200000A1.800000,1.800000 0 0 1 176.344928,116.200000Z" fill="rgb(30%,30%,30%)" /><rect x="176.34492753623186" y="111.78999999999999" width="3.6" height="0.42000000000000004" stroke="none" stroke-width="1" fill="white" /></g><g><path d="M 36.055072,67.800000A1.800000,1.800000 0 0 1 39.655072,67.800000L39.655072,76.200000A1.800000,1.800000 0 0 1 36.055072,76.200000Z" fill="rgb(30%,30%,30%)" /><rect x="36.05507246376813" y="71.78999999999999" width="3.6" height="0.42000000000000004" stroke="none" stroke-width="1" fill="white" /></g><g><path d="M 176.344928,27.800000A1.800000,1.800000 0 0 1 179.944928,27.800000L179.944928,36.200000A1.800000,1.800000 0 0 1 176.344928,36.200000Z" fill="rgb(30%,30%,30%)" /><rect x="176.34492753623186" y="31.79" width="3.6" height="0.42000000000000004" stroke="none" stroke-width="1" fill="white" /></g><g><path d="M 36.055072,67.800000A1.800000,1.800000 0 0 1 39.655072,67.800000L39.655072,76.200000A1.800000,1.800000 0 0 1 36.055072,76.200000Z" fill="rgb(30%,30%,30%)" /><rect x="36.05507246376813" y="71.78999999999999" width="3.6" height="0.42000000000000004" stroke="none" stroke-width="1" fill="white" /></g><g><path d="M 176.344928,27.800000A1.800000,1.800000 0 0 1 179.944928,27.800000L179.944928,36.200000A1.800000,1.800000 0 0 1 176.344928,36.200000Z" fill="rgb(30%,30%,30%)" /><rect x="176.34492753623186" y="31.79" width="3.6" height="0.42000000000000004" stroke="none" stroke-width="1" fill="white" /></g><g><path d="M 36.055072,67.800000A1.800000,1.800000 0 0 1 39.655072,67.800000L39.655072,76.200000A1.800000,1.800000 0 0 1 36.055072,76.200000Z" fill="rgb(30%,30%,30%)" /><rect x="36.05507246376813" y="71.78999999999999" width="3.6" height="0.42000000000000004" stroke="none" stroke-width="1" fill="white" /></g><g><path d="M 176.344928,107.800000A1.800000,1.800000 0 0 1 179.944928,107.800000L179.944928,116.200000A1.800000,1.800000 0 0 1 176.344928,116.200000Z" fill="rgb(30%,30%,30%)" /><rect x="176.34492753623186" y="111.78999999999999" width="3.6" height="0.42000000000000004" stroke="none" stroke-width="1" fill="white" /></g><g><path d="M 36.055072,67.800000A1.800000,1.800000 0 0 1 39.655072,67.800000L39.655072,76.200000A1.800000,1.800000 0 0 1 36.055072,76.200000Z" fill="rgb(30%,30%,30%)" /><rect x="36.05507246376813" y="71.78999999999999" width="3.6" height="0.42000000000000004" stroke="none" stroke-width="1" fill="white" /></g><g><path d="M 176.344928,27.800000A1.800000,1.800000 0 0 1 179.944928,27.800000L179.944928,36.200000A1.800000,1.800000 0 0 1 176.344928,36.200000Z" fill="rgb(30%,30%,30%)" /><rect x="176.34492753623186" y="31.79" width="3.6" height="0.42000000000000004" stroke="none" stroke-width="1" fill="white" /></g><g><path d="M 36.055072,67.800000A1.800000,1.800000 0 0 1 39.655072,67.800000L39.655072,76.200000A1.800000,1.800000 0 0 1 36.055072,76.200000Z" fill="rgb(30%,30%,30%)" /><rect x="36.05507246376813" y="71.78999999999999" width="3.6" height="0.42000000000000004" stroke="none" stroke-width="1" fill="white" /></g><g><path d="M 176.344928,27.800000A1.800000,1.800000 0 0 1 179.944928,27.800000L179.944928,36.200000A1.800000,1.800000 0 0 1 176.344928,36.200000Z" fill="rgb(30%,30%,30%)" /><rect x="176.34492753623186" y="31.79" width="3.6" height="0.42000000000000004" stroke="none" stroke-width="1" fill="white" /></g><g><path d="M 36.055072,67.800000A1.800000,1.800000 0 0 1 39.655072,67.800000L39.655072,76.200000A1.800000,1.800000 0 0 1 36.055072,76.200000Z" fill="rgb(30%,30%,30%)" /><rect x="36.05507246376813" y="71.78999999999999" width="3.6" height="0.42000000000000004" stroke="none" stroke-width="1" fill="white" /></g><g><path d="M 176.344928,107.800000A1.800000,1.800000 0 0 1 179.944928,107.800000L179.944928,116.200000A1.800000,1.800000 0 0 1 176.344928,116.200000Z" fill="rgb(30%,30%,30%)" /><rect x="176.34492753623186" y="111.78999999999999" width="3.6" height="0.42000000000000004" stroke="none" stroke-width="1" fill="white" /></g><g><path d="M 36.055072,67.800000A1.800000,1.800000 0 0 1 39.655072,67.800000L39.655072,76.200000A1.800000,1.800000 0 0 1 36.055072,76.200000Z" fill="rgb(30%,30%,30%)" /><rect x="36.05507246376813" y="71.78999999999999" width="3.6" height="0.42000000000000004" stroke="none" stroke-width="1" fill="white" /></g><g><path d="M 176.344928,107.800000A1.800000,1.800000 0 0 1 179.944928,107.800000L179.944928,116.200000A1.800000,1.800000 0 0 1 176.344928,116.200000Z" fill="rgb(30%,30%,30%)" /><rect x="176.34492753623186" y="111.78999999999999" width="3.6" height="0.42000000000000004" stroke="none" stroke-width="1" fill="white" /></g><g><path d="M 36.055072,67.800000A1.800000,1.800000 0 0 1 39.655072,67.800000L39.655072,76.200000A1.800000,1.800000 0 0 1 36.055072,76.200000Z" fill="rgb(30%,30%,30%)" /><rect x="36.05507246376813" y="71.78999999999999" width="3.6" height="0.42000000000000004" stroke="none" stroke-width="1" fill="white" /></g><g><path d="M 176.344928,107.800000A1.800000,1.800000 0 0 1 179.944928,107.800000L179.944928,116.200000A1.800000,1.800000 0 0 1 176.344928,116.200000Z" fill="rgb(30%,30%,30%)" /><rect x="176.34492753623186" y="111.78999999999999" width="3.6" height="0.42000000000000004" stroke="none" stroke-width="1" fill="white" /></g><g><path d="M 36.055072,67.800000A1.800000,1.800000 0 0 1 39.655072,67.800000L39.655072,76.200000A1.800000,1.800000 0 0 1 36.055072,76.200000Z" fill="rgb(30%,30%,30%)" /><rect x="36.05507246376813" y="71.78999999999999" width="3.6" height="0.42000000000000004" stroke="none" stroke-width="1" fill="white" /></g><g><path d="M 176.344928,27.800000A1.800000,1.800000 0 0 1 179.944928,27.800000L179.944928,36.200000A1.800000,1.800000 0 0 1 176.344928,36.200000Z" fill="rgb(30%,30%,30%)" /><rect x="176.34492753623186" y="31.79" width="3.6" height="0.42000000000000004" stroke="none" stroke-width="1" fill="white" /></g><g><path d="M 36.055072,67.800000A1.800000,1.800000 0 0 1 39.655072,67.800000L39.655072,76.200000A1.800000,1.800000 0 0 1 36.055072,76.200000Z" fill="rgb(30%,30%,30%)" /><rect x="36.05507246376813" y="71.78999999999999" width="3.6" height="0.42000000000000004" stroke="none" stroke-width="1" fill="white" /></g><g><path d="M 176.344928,107.800000A1.800000,1.800000 0 0 1 179.944928,107.800000L179.944928,116.200000A1.800000,1.800000 0 0 1 176.344928,116.200000Z" fill="rgb(30%,30%,30%)" /><rect x="176.34492753623186" y="111.78999999999999" width="3.6" height="0.42000000000000004" stroke="none" stroke-width="1" fill="white" /></g><image x="164.11594202898553" y="99.4" width="56.115942028985515" height="16.000000000000004" xlink:href="./../outputs/logos/nfl/BAL.png" href="./../outputs/logos/nfl/BAL.png" /><image x="164.11594202898553" y="19.400000000000006" width="56.115942028985515" height="16.000000000000004" xlink:href="./../outputs/logos/nfl/BUF.png" href="./../outputs/logos/nfl/BUF.png" /><image x="180.9507246376812" y="19.400000000000006" width="56.115942028985515" height="16.000000000000004" xlink:href="./../outputs/logos/nfl/CIN.png" href="./../outputs/logos/nfl/CIN.png" /><image x="180.9507246376812" y="99.4" width="56.115942028985515" height="16.000000000000004" xlink:href="./../outputs/logos/nfl/CLE.png" href="./../outputs/logos/nfl/CLE.png" /><image x="197.78550724637682" y="19.400000000000006" width="56.115942028985515" height="16.000000000000004" xlink:href="./../outputs/logos/nfl/DEN.png" href="./../outputs/logos/nfl/DEN.png" /><image x="197.78550724637682" y="99.4" width="56.115942028985515" height="16.000000000000004" xlink:href="./../outputs/logos/nfl/HOU.png" href="./../outputs/logos/nfl/HOU.png" /><image x="214.62028985507246" y="19.400000000000006" width="56.115942028985515" height="16.000000000000004" xlink:href="./../outputs/logos/nfl/IND.png" href="./../outputs/logos/nfl/IND.png" /><image x="164.11594202898553" y="28.599999999999994" width="56.115942028985515" height="16.000000000000004" xlink:href="./../outputs/logos/nfl/JAX.png" href="./../outputs/logos/nfl/JAX.png" /><image x="214.62028985507246" y="99.4" width="56.115942028985515" height="16.000000000000004" xlink:href="./../outputs/logos/nfl/KC.png" href="./../outputs/logos/nfl/KC.png" /><image x="180.9507246376812" y="28.599999999999994" width="56.115942028985515" height="16.000000000000004" xlink:href="./../outputs/logos/nfl/LV.png" href="./../outputs/logos/nfl/LV.png" /><image x="197.78550724637682" y="28.599999999999994" width="56.115942028985515" height="16.000000000000004" xlink:href="./../outputs/logos/nfl/LAC.png" href="./../outputs/logos/nfl/LAC.png" /><image x="164.11594202898553" y="108.60000000000001" width="56.115942028985515" height="16.000000000000004" xlink:href="./../outputs/logos/nfl/MIA.png" href="./../outputs/logos/nfl/MIA.png" /><image x="180.9507246376812" y="108.60000000000001" width="56.115942028985515" height="16.000000000000004" xlink:href="./../outputs/logos/nfl/NE.png" href="./../outputs/logos/nfl/NE.png" /><image x="197.78550724637682" y="108.60000000000001" width="56.115942028985515" height="16.000000000000004" xlink:href="./../outputs/logos/nfl/NYJ.png" href="./../outputs/logos/nfl/NYJ.png" /><image x="214.62028985507246" y="28.599999999999994" width="56.115942028985515" height="16.000000000000004" xlink:href="./../outputs/logos/nfl/PIT.png" href="./../outputs/logos/nfl/PIT.png" /><image x="214.62028985507246" y="108.60000000000001" width="56.115942028985515" height="16.000000000000004" xlink:href="./../outputs/logos/nfl/TEN.png" href="./../outputs/logos/nfl/TEN.png" /></g><text x="254.5" y="142" stroke="none" fill="black" font-size="4" font-family="auto" text-anchor="end" dx="0" dy="0" transform="none" id="">Graphic by Vivian (vbbcla)</text></svg>