<svg width="256" height="144" xmlns="http://www.w3.org/2000/svg" xmlns:xlink="http://www.w3.org/1999/xlink" version="2.0"><style>
* {
font-family: "Merriweather Sans";
font-weight: 300;
}
#title {
font-weight: normal
}
</style><rect x="0" y="0" width="256" height="144" stroke="none" stroke-width="1" fill="#f2f2e6" /><text x="128" y="12" stroke="none" fill="black" font-size="8" font-family="auto" text-anchor="middle" dx="0" dy="0" transform="none" id="title">NSL Graphical Standings &#8211; Matchweek 25</text><text x="8" y="72" stroke="none" fill="black" font-size="6" font-family="auto" text-anchor="middle" dx="0" dy="0" transform="rotate(-90,8,72)" id="">Points above average</text><text x="132.0" y="140" stroke="none" fill="black" font-size="6" font-family="auto" text-anchor="middle" dx="0" dy="0" transform="none" id="">Match</text><g><g><line x1="20.695652173913043" x2="20.695652173913043" y1="128.0" y2="16.0" stroke="rgb(90%,90%,90%)" stroke-width="0.5" stroke-linecap="square" /><line x1="29.6" x2="29.6" y1="128.0" y2="16.0" stroke="rgb(90%,90%,90%)" stroke-width="0.5" stroke-linecap="square" /><line x1="38.504347826086956" x2="38.504347826086956" y1="128.0" y2="16.0" stroke="rgb(90%,90%,90%)" stroke-width="0.5" stroke-linecap="square" /><line x1="47.40869565217392" x2="47.40869565217392" y1="128.0" y2="16.0" stroke="rgb(90%,90%,90%)" stroke-width="0.5" stroke-linecap="square" /><line x1="56.31304347826087" x2="56.31304347826087" y1="128.0" y2="16.0" stroke="rgb(90%,90%,90%)" stroke-width="0.5" stroke-linecap="square" /><line x1="65.21739130434783" x2="65.21739130434783" y1="128.0" y2="16.0" stroke="rgb(90%,90%,90%)" stroke-width="0.5" stroke-linecap="square" /><line x1="74.12173913043478" x2="74.12173913043478" y1="128.0" y2="16.0" stroke="rgb(90%,90%,90%)" stroke-width="0.5" stroke-linecap="square" /><line x1="83.02608695652174" x2="83.02608695652174" y1="128.0" y2="16.0" stroke="rgb(90%,90%,90%)" stroke-width="0.5" stroke-linecap="square" /><line x1="91.9304347826087" x2="91.9304347826087" y1="128.0" y2="16.0" stroke="rgb(90%,90%,90%)" stroke-width="0.5" stroke-linecap="square" /><line x1="100.83478260869566" x2="100.83478260869566" y1="128.0" y2="16.0" stroke="rgb(90%,90%,90%)" stroke-width="0.5" stroke-linecap="square" /><line x1="109.73913043478261" x2="109.73913043478261" y1="128.0" y2="16.0" stroke="rgb(90%,90%,90%)" stroke-width="0.5" stroke-linecap="square" /><line x1="118.64347826086956" x2="118.64347826086956" y1="128.0" y2="16.0" stroke="rgb(90%,90%,90%)" stroke-width="0.5" stroke-linecap="square" /><line x1="127.54782608695652" x2="127.54782608695652" y1="128.0" y2="16.0" stroke="rgb(90%,90%,90%)" stroke-width="0.5" stroke-linecap="square" /><line x1="136.45217391304345" x2="136.45217391304345" y1="128.0" y2="16.0" stroke="rgb(90%,90%,90%)" stroke-width="0.5" stroke-linecap="square" /><line x1="145.35652173913041" x2="145.35652173913041" y1="128.0" y2="16.0" stroke="rgb(90%,90%,90%)" stroke-width="0.5" stroke-linecap="square" /><line x1="154.26086956521738" x2="154.26086956521738" y1="128.0" y2="16.0" stroke="rgb(90%,90%,90%)" stroke-width="0.5" stroke-linecap="square" /><line x1="163.16521739130434" x2="163.16521739130434" y1="128.0" y2="16.0" stroke="rgb(90%,90%,90%)" stroke-width="0.5" stroke-linecap="square" /><line x1="172.0695652173913" x2="172.0695652173913" y1="128.0" y2="16.0" stroke="rgb(90%,90%,90%)" stroke-width="0.5" stroke-linecap="square" /><line x1="180.97391304347826" x2="180.97391304347826" y1="128.0" y2="16.0" stroke="rgb(90%,90%,90%)" stroke-width="0.5" stroke-linecap="square" /><line x1="189.87826086956522" x2="189.87826086956522" y1="128.0" y2="16.0" stroke="rgb(90%,90%,90%)" stroke-width="0.5" stroke-linecap="square" /><line x1="198.7826086956522" x2="198.7826086956522" y1="128.0" y2="16.0" stroke="rgb(90%,90%,90%)" stroke-width="0.5" stroke-linecap="square" /><line x1="207.68695652173915" x2="207.68695652173915" y1="128.0" y2="16.0" stroke="rgb(90%,90%,90%)" stroke-width="0.5" stroke-linecap="square" /><line x1="216.59130434782608" x2="216.59130434782608" y1="128.0" y2="16.0" stroke="rgb(90%,90%,90%)" stroke-width="0.5" stroke-linecap="square" /><line x1="225.49565217391304" x2="225.49565217391304" y1="128.0" y2="16.0" stroke="rgb(90%,90%,90%)" stroke-width="0.5" stroke-linecap="square" /><line x1="234.4" x2="234.4" y1="128.0" y2="16.0" stroke="rgb(90%,90%,90%)" stroke-width="0.5" stroke-linecap="square" /><line x1="243.30434782608697" x2="243.30434782608697" y1="128.0" y2="16.0" stroke="rgb(90%,90%,90%)" stroke-width="0.5" stroke-linecap="square" /><line x1="20.0" x2="244.0" y1="127.30864197530865" y2="127.30864197530865" stroke="rgb(90%,90%,90%)" stroke-width="0.5" stroke-linecap="square" /><line x1="20.0" x2="244.0" y1="123.85185185185185" y2="123.85185185185185" stroke="rgb(90%,90%,90%)" stroke-width="0.5" stroke-linecap="square" /><line x1="20.0" x2="244.0" y1="120.39506172839506" y2="120.39506172839506" stroke="rgb(90%,90%,90%)" stroke-width="0.5" stroke-linecap="square" /><line x1="20.0" x2="244.0" y1="116.93827160493828" y2="116.93827160493828" stroke="rgb(90%,90%,90%)" stroke-width="0.5" stroke-linecap="square" /><line x1="20.0" x2="244.0" y1="113.48148148148148" y2="113.48148148148148" stroke="rgb(90%,90%,90%)" stroke-width="0.5" stroke-linecap="square" /><line x1="20.0" x2="244.0" y1="110.0246913580247" y2="110.0246913580247" stroke="rgb(90%,90%,90%)" stroke-width="0.5" stroke-linecap="square" /><line x1="20.0" x2="244.0" y1="106.5679012345679" y2="106.5679012345679" stroke="rgb(90%,90%,90%)" stroke-width="0.5" stroke-linecap="square" /><line x1="20.0" x2="244.0" y1="103.11111111111111" y2="103.11111111111111" stroke="rgb(90%,90%,90%)" stroke-width="0.5" stroke-linecap="square" /><line x1="20.0" x2="244.0" y1="99.65432098765432" y2="99.65432098765432" stroke="rgb(90%,90%,90%)" stroke-width="0.5" stroke-linecap="square" /><line x1="20.0" x2="244.0" y1="96.19753086419753" y2="96.19753086419753" stroke="rgb(90%,90%,90%)" stroke-width="0.5" stroke-linecap="square" /><line x1="20.0" x2="244.0" y1="92.74074074074073" y2="92.74074074074073" stroke="rgb(90%,90%,90%)" stroke-width="0.5" stroke-linecap="square" /><line x1="20.0" x2="244.0" y1="89.28395061728395" y2="89.28395061728395" stroke="rgb(90%,90%,90%)" stroke-width="0.5" stroke-linecap="square" /><line x1="20.0" x2="244.0" y1="85.82716049382717" y2="85.82716049382717" stroke="rgb(90%,90%,90%)" stroke-width="0.5" stroke-linecap="square" /><line x1="20.0" x2="244.0" y1="82.37037037037038" y2="82.37037037037038" stroke="rgb(90%,90%,90%)" stroke-width="0.5" stroke-linecap="square" /><line x1="20.0" x2="244.0" y1="78.91358024691358" y2="78.91358024691358" stroke="rgb(90%,90%,90%)" stroke-width="0.5" stroke-linecap="square" /><line x1="20.0" x2="244.0" y1="75.45679012345678" y2="75.45679012345678" stroke="rgb(90%,90%,90%)" stroke-width="0.5" stroke-linecap="square" /><line x1="20.0" x2="244.0" y1="72.0" y2="72.0" stroke="rgb(90%,90%,90%)" stroke-width="0.5" stroke-linecap="square" /><line x1="20.0" x2="244.0" y1="68.54320987654322" y2="68.54320987654322" stroke="rgb(90%,90%,90%)" stroke-width="0.5" stroke-linecap="square" /><line x1="20.0" x2="244.0" y1="65.08641975308642" y2="65.08641975308642" stroke="rgb(90%,90%,90%)" stroke-width="0.5" stroke-linecap="square" /><line x1="20.0" x2="244.0" y1="61.62962962962963" y2="61.62962962962963" stroke="rgb(90%,90%,90%)" stroke-width="0.5" stroke-linecap="square" /><line x1="20.0" x2="244.0" y1="58.172839506172835" y2="58.172839506172835" stroke="rgb(90%,90%,90%)" stroke-width="0.5" stroke-linecap="square" /><line x1="20.0" x2="244.0" y1="54.71604938271605" y2="54.71604938271605" stroke="rgb(90%,90%,90%)" stroke-width="0.5" stroke-linecap="square" /><line x1="20.0" x2="244.0" y1="51.25925925925925" y2="51.25925925925925" stroke="rgb(90%,90%,90%)" stroke-width="0.5" stroke-linecap="square" /><line x1="20.0" x2="244.0" y1="47.80246913580247" y2="47.80246913580247" stroke="rgb(90%,90%,90%)" stroke-width="0.5" stroke-linecap="square" /><line x1="20.0" x2="244.0" y1="44.345679012345684" y2="44.345679012345684" stroke="rgb(90%,90%,90%)" stroke-width="0.5" stroke-linecap="square" /><line x1="20.0" x2="244.0" y1="40.888888888888886" y2="40.888888888888886" stroke="rgb(90%,90%,90%)" stroke-width="0.5" stroke-linecap="square" /><line x1="20.0" x2="244.0" y1="37.4320987654321" y2="37.4320987654321" stroke="rgb(90%,90%,90%)" stroke-width="0.5" stroke-linecap="square" /><line x1="20.0" x2="244.0" y1="33.9753086419753" y2="33.9753086419753" stroke="rgb(90%,90%,90%)" stroke-width="0.5" stroke-linecap="square" /><line x1="20.0" x2="244.0" y1="30.51851851851852" y2="30.51851851851852" stroke="rgb(90%,90%,90%)" stroke-width="0.5" stroke-linecap="square" /><line x1="20.0" x2="244.0" y1="27.06172839506172" y2="27.06172839506172" stroke="rgb(90%,90%,90%)" stroke-width="0.5" stroke-linecap="square" /><line x1="20.0" x2="244.0" y1="23.604938271604937" y2="23.604938271604937" stroke="rgb(90%,90%,90%)" stroke-width="0.5" stroke-linecap="square" /><line x1="20.0" x2="244.0" y1="20.148148148148138" y2="20.148148148148138" stroke="rgb(90%,90%,90%)" stroke-width="0.5" stroke-linecap="square" /><line x1="20.0" x2="244.0" y1="16.691358024691354" y2="16.691358024691354" stroke="rgb(90%,90%,90%)" stroke-width="0.5" stroke-linecap="square" /></g><g><line x1="20.695652173913043" x2="20.695652173913043" y1="128.0" y2="16.0" stroke="rgb(80%,80%,80%)" stroke-width="0.5" stroke-linecap="square" /><line x1="65.21739130434783" x2="65.21739130434783" y1="128.0" y2="16.0" stroke="rgb(80%,80%,80%)" stroke-width="0.5" stroke-linecap="square" /><line x1="109.73913043478261" x2="109.73913043478261" y1="128.0" y2="16.0" stroke="rgb(80%,80%,80%)" stroke-width="0.5" stroke-linecap="square" /><line x1="154.26086956521738" x2="154.26086956521738" y1="128.0" y2="16.0" stroke="rgb(80%,80%,80%)" stroke-width="0.5" stroke-linecap="square" /><line x1="198.7826086956522" x2="198.7826086956522" y1="128.0" y2="16.0" stroke="rgb(80%,80%,80%)" stroke-width="0.5" stroke-linecap="square" /><line x1="243.30434782608697" x2="243.30434782608697" y1="128.0" y2="16.0" stroke="rgb(80%,80%,80%)" stroke-width="0.5" stroke-linecap="square" /><line x1="20.0" x2="244.0" y1="120.39506172839506" y2="120.39506172839506" stroke="rgb(80%,80%,80%)" stroke-width="0.5" stroke-linecap="square" /><line x1="20.0" x2="244.0" y1="103.11111111111111" y2="103.11111111111111" stroke="rgb(80%,80%,80%)" stroke-width="0.5" stroke-linecap="square" /><line x1="20.0" x2="244.0" y1="85.82716049382717" y2="85.82716049382717" stroke="rgb(80%,80%,80%)" stroke-width="0.5" stroke-linecap="square" /><line x1="20.0" x2="244.0" y1="68.54320987654322" y2="68.54320987654322" stroke="rgb(80%,80%,80%)" stroke-width="0.5" stroke-linecap="square" /><line x1="20.0" x2="244.0" y1="51.25925925925925" y2="51.25925925925925" stroke="rgb(80%,80%,80%)" stroke-width="0.5" stroke-linecap="square" /><line x1="20.0" x2="244.0" y1="33.9753086419753" y2="33.9753086419753" stroke="rgb(80%,80%,80%)" stroke-width="0.5" stroke-linecap="square" /><line x1="20.0" x2="244.0" y1="16.691358024691354" y2="16.691358024691354" stroke="rgb(80%,80%,80%)" stroke-width="0.5" stroke-linecap="square" /></g><g><line x1="20.695652173913043" x2="20.695652173913043" y1="128.0" y2="16.0" stroke="rgb(50%,50%,50%)" stroke-width="0.5" stroke-linecap="square" /><line x1="20.0" x2="244.0" y1="68.54320987654322" y2="68.54320987654322" stroke="rgb(50%,50%,50%)" stroke-width="0.5" stroke-linecap="square" /></g><g><text x="20.695652173913043" y="128.0" stroke="none" fill="rgb(30%,30%,30%)" font-size="5" font-family="auto" text-anchor="middle" dx="0" dy="1em" transform="none" id="">0</text><text x="65.21739130434783" y="128.0" stroke="none" fill="rgb(30%,30%,30%)" font-size="5" font-family="auto" text-anchor="middle" dx="0" dy="1em" transform="none" id="">5</text><text x="109.73913043478261" y="128.0" stroke="none" fill="rgb(30%,30%,30%)" font-size="5" font-family="auto" text-anchor="middle" dx="0" dy="1em" transform="none" id="">10</text><text x="154.26086956521738" y="128.0" stroke="none" fill="rgb(30%,30%,30%)" font-size="5" font-family="auto" text-anchor="middle" dx="0" dy="1em" transform="none" id="">15</text><text x="198.7826086956522" y="128.0" stroke="none" fill="rgb(30%,30%,30%)" font-size="5" font-family="auto" text-anchor="middle" dx="0" dy="1em" transform="none" id="">20</text><text x="243.30434782608697" y="128.0" stroke="none" fill="rgb(30%,30%,30%)" font-size="5" font-family="auto" text-anchor="middle" dx="0" dy="1em" transform="none" id="">25</text><text x="19.5" y="120.39506172839506" stroke="none" fill="rgb(30%,30%,30%)" font-size="5" font-family="auto" text-anchor="end" dx="0" dy="0.5ex" transform="none" id="">-15</text><text x="19.5" y="103.11111111111111" stroke="none" fill="rgb(30%,30%,30%)" font-size="5" font-family="auto" text-anchor="end" dx="0" dy="0.5ex" transform="none" id="">-10</text><text x="19.5" y="85.82716049382717" stroke="none" fill="rgb(30%,30%,30%)" font-size="5" font-family="auto" text-anchor="end" dx="0" dy="0.5ex" transform="none" id="">-5</text><text x="19.5" y="68.54320987654322" stroke="none" fill="rgb(30%,30%,30%)" font-size="5" font-family="auto" text-anchor="end" dx="0" dy="0.5ex" transform="none" id="">0</text><text x="19.5" y="51.25925925925925" stroke="none" fill="rgb(30%,30%,30%)" font-size="5" font-family="auto" text-anchor="end" dx="0" dy="0.5ex" transform="none" id="">5</text><text x="19.5" y="33.9753086419753" stroke="none" fill="rgb(30%,30%,30%)" font-size="5" font-family="auto" text-anchor="end" dx="0" dy="0.5ex" transform="none" id="">10</text><text x="19.5" y="16.691358024691354" stroke="none" fill="rgb(30%,30%,30%)" font-size="5" font-family="auto" text-anchor="end" dx="0" dy="0.5ex" transform="none" id="">15</text></g><polygon points="20.695652173913043,67.1604938271605 29.6,71.97530864197532 29.6,72.76543209876543 20.695652173913043,67.95061728395062" stroke="none" stroke-width="1" fill="#FF0028" /><polygon points="29.6,71.97530864197532 38.504347826086956,76.79012345679013 38.504347826086956,77.58024691358025 29.6,72.76543209876543" stroke="none" stroke-width="1" fill="#FF0028" /><polygon points="38.504347826086956,76.79012345679013 47.40869565217392,71.23456790123457 47.40869565217392,72.46364883401921 38.504347826086956,78.01920438957475" stroke="none" stroke-width="1" fill="#FF0028" /><polygon points="47.40869565217392,71.23456790123457 56.31304347826087,76.04938271604938 56.31304347826087,78.81481481481481 47.40869565217392,74.0" stroke="none" stroke-width="1" fill="#FF0028" /><polygon points="56.31304347826087,76.04938271604938 65.21739130434783,77.4074074074074 65.21739130434783,80.17283950617283 56.31304347826087,78.81481481481481" stroke="none" stroke-width="1" fill="#FF0028" /><polygon points="65.21739130434783,77.4074074074074 74.12173913043478,71.85185185185185 74.12173913043478,74.61728395061729 65.21739130434783,80.17283950617283" stroke="none" stroke-width="1" fill="#FF0028" /><polygon points="74.12173913043478,71.85185185185185 83.02608695652174,73.20987654320987 83.02608695652174,75.97530864197532 74.12173913043478,74.61728395061729" stroke="none" stroke-width="1" fill="#FF0028" /><polygon points="83.02608695652174,73.20987654320987 91.9304347826087,67.65432098765433 91.9304347826087,70.41975308641975 83.02608695652174,75.97530864197532" stroke="none" stroke-width="1" fill="#FF0028" /><polygon points="91.9304347826087,67.65432098765433 100.83478260869566,72.46913580246914 100.83478260869566,75.23456790123456 91.9304347826087,70.41975308641975" stroke="none" stroke-width="1" fill="#FF0028" /><polygon points="100.83478260869566,72.46913580246914 109.73913043478261,77.28395061728395 109.73913043478261,80.04938271604938 100.83478260869566,75.23456790123456" stroke="none" stroke-width="1" fill="#FF0028" /><polygon points="109.73913043478261,77.28395061728395 118.64347826086956,82.09876543209876 118.64347826086956,84.8641975308642 109.73913043478261,80.04938271604938" stroke="none" stroke-width="1" fill="#FF0028" /><polygon points="118.64347826086956,82.09876543209876 127.54782608695652,76.54320987654322 127.54782608695652,79.30864197530865 118.64347826086956,84.8641975308642" stroke="none" stroke-width="1" fill="#FF0028" /><polygon points="127.54782608695652,76.54320987654322 136.45217391304345,81.35802469135803 136.45217391304345,84.12345679012347 127.54782608695652,79.30864197530865" stroke="none" stroke-width="1" fill="#FF0028" /><polygon points="136.45217391304345,81.35802469135803 145.35652173913041,86.17283950617283 145.35652173913041,88.93827160493828 136.45217391304345,84.12345679012347" stroke="none" stroke-width="1" fill="#FF0028" /><polygon points="145.35652173913041,86.17283950617283 154.26086956521738,90.98765432098764 154.26086956521738,93.75308641975309 145.35652173913041,88.93827160493828" stroke="none" stroke-width="1" fill="#FF0028" /><polygon points="154.26086956521738,90.98765432098764 163.16521739130434,85.4320987654321 163.16521739130434,88.19753086419753 154.26086956521738,93.75308641975309" stroke="none" stroke-width="1" fill="#FF0028" /><polygon points="163.16521739130434,85.4320987654321 172.0695652173913,79.87654320987653 172.0695652173913,82.64197530864197 163.16521739130434,88.19753086419753" stroke="none" stroke-width="1" fill="#FF0028" /><polygon points="172.0695652173913,79.87654320987653 180.97391304347826,84.69135802469134 180.97391304347826,87.45679012345678 172.0695652173913,82.64197530864197" stroke="none" stroke-width="1" fill="#FF0028" /><polygon points="180.97391304347826,84.69135802469134 189.87826086956522,89.50617283950616 189.87826086956522,92.2716049382716 180.97391304347826,87.45679012345678" stroke="none" stroke-width="1" fill="#FF0028" /><polygon points="189.87826086956522,89.50617283950616 198.7826086956522,94.32098765432097 198.7826086956522,97.0864197530864 189.87826086956522,92.2716049382716" stroke="none" stroke-width="1" fill="#FF0028" /><polygon points="198.7826086956522,94.32098765432097 207.68695652173915,99.1358024691358 207.68695652173915,101.90123456790124 198.7826086956522,97.0864197530864" stroke="none" stroke-width="1" fill="#FF0028" /><polygon points="207.68695652173915,99.1358024691358 216.59130434782608,103.95061728395062 216.59130434782608,106.71604938271605 207.68695652173915,101.90123456790124" stroke="none" stroke-width="1" fill="#FF0028" /><polygon points="216.59130434782608,103.95061728395062 225.49565217391304,98.39506172839506 225.49565217391304,101.1604938271605 216.59130434782608,106.71604938271605" stroke="none" stroke-width="1" fill="#FF0028" /><polygon points="225.49565217391304,98.39506172839506 234.4,103.20987654320989 234.4,105.97530864197532 225.49565217391304,101.1604938271605" stroke="none" stroke-width="1" fill="#FF0028" /><polygon points="20.695652173913043,68.14814814814815 29.6,72.96296296296296 29.6,73.75308641975309 20.695652173913043,68.93827160493827" stroke="none" stroke-width="1" fill="#4ac3c7" /><polygon points="29.6,72.96296296296296 38.504347826086956,77.77777777777777 38.504347826086956,78.5679012345679 29.6,73.75308641975309" stroke="none" stroke-width="1" fill="#4ac3c7" /><polygon points="38.504347826086956,76.79012345679013 47.40869565217392,78.14814814814815 47.40869565217392,80.91358024691358 38.504347826086956,79.55555555555556" stroke="none" stroke-width="1" fill="#4ac3c7" /><polygon points="47.40869565217392,78.14814814814815 56.31304347826087,82.96296296296296 56.31304347826087,85.7283950617284 47.40869565217392,80.91358024691358" stroke="none" stroke-width="1" fill="#4ac3c7" /><polygon points="56.31304347826087,82.96296296296296 65.21739130434783,87.77777777777777 65.21739130434783,90.54320987654322 56.31304347826087,85.7283950617284" stroke="none" stroke-width="1" fill="#4ac3c7" /><polygon points="65.21739130434783,87.77777777777777 74.12173913043478,92.5925925925926 74.12173913043478,95.35802469135803 65.21739130434783,90.54320987654322" stroke="none" stroke-width="1" fill="#4ac3c7" /><polygon points="74.12173913043478,92.5925925925926 83.02608695652174,87.03703703703704 83.02608695652174,89.80246913580248 74.12173913043478,95.35802469135803" stroke="none" stroke-width="1" fill="#4ac3c7" /><polygon points="83.02608695652174,87.03703703703704 91.9304347826087,91.85185185185185 91.9304347826087,94.61728395061729 83.02608695652174,89.80246913580248" stroke="none" stroke-width="1" fill="#4ac3c7" /><polygon points="91.9304347826087,91.85185185185185 100.83478260869566,86.29629629629629 100.83478260869566,89.06172839506172 91.9304347826087,94.61728395061729" stroke="none" stroke-width="1" fill="#4ac3c7" /><polygon points="100.83478260869566,86.29629629629629 109.73913043478261,80.74074074074073 109.73913043478261,83.50617283950618 100.83478260869566,89.06172839506172" stroke="none" stroke-width="1" fill="#4ac3c7" /><polygon points="109.73913043478261,80.74074074074073 118.64347826086956,85.55555555555556 118.64347826086956,88.32098765432099 109.73913043478261,83.50617283950618" stroke="none" stroke-width="1" fill="#4ac3c7" /><polygon points="118.64347826086956,85.55555555555556 127.54782608695652,90.37037037037038 127.54782608695652,93.13580246913581 118.64347826086956,88.32098765432099" stroke="none" stroke-width="1" fill="#4ac3c7" /><polygon points="127.54782608695652,90.37037037037038 136.45217391304345,95.18518518518519 136.45217391304345,97.95061728395062 127.54782608695652,93.13580246913581" stroke="none" stroke-width="1" fill="#4ac3c7" /><polygon points="136.45217391304345,95.18518518518519 145.35652173913041,96.54320987654322 145.35652173913041,99.30864197530865 136.45217391304345,97.95061728395062" stroke="none" stroke-width="1" fill="#4ac3c7" /><polygon points="145.35652173913041,96.54320987654322 154.26086956521738,97.90123456790124 154.26086956521738,100.66666666666667 145.35652173913041,99.30864197530865" stroke="none" stroke-width="1" fill="#4ac3c7" /><polygon points="154.26086956521738,97.90123456790124 163.16521739130434,102.71604938271605 163.16521739130434,105.48148148148148 154.26086956521738,100.66666666666667" stroke="none" stroke-width="1" fill="#4ac3c7" /><polygon points="163.16521739130434,102.71604938271605 172.0695652173913,107.53086419753086 172.0695652173913,110.29629629629629 163.16521739130434,105.48148148148148" stroke="none" stroke-width="1" fill="#4ac3c7" /><polygon points="172.0695652173913,107.53086419753086 180.97391304347826,112.34567901234567 180.97391304347826,115.11111111111111 172.0695652173913,110.29629629629629" stroke="none" stroke-width="1" fill="#4ac3c7" /><polygon points="180.97391304347826,112.34567901234567 189.87826086956522,113.7037037037037 189.87826086956522,116.46913580246913 180.97391304347826,115.11111111111111" stroke="none" stroke-width="1" fill="#4ac3c7" /><polygon points="189.87826086956522,113.7037037037037 198.7826086956522,118.5185185185185 198.7826086956522,121.28395061728395 189.87826086956522,116.46913580246913" stroke="none" stroke-width="1" fill="#4ac3c7" /><polygon points="198.7826086956522,118.5185185185185 207.68695652173915,119.87654320987654 207.68695652173915,122.64197530864197 198.7826086956522,121.28395061728395" stroke="none" stroke-width="1" fill="#4ac3c7" /><polygon points="207.68695652173915,119.87654320987654 216.59130434782608,121.23456790123457 216.59130434782608,124.0 207.68695652173915,122.64197530864197" stroke="none" stroke-width="1" fill="#4ac3c7" /><polygon points="216.59130434782608,121.23456790123457 225.49565217391304,122.5925925925926 225.49565217391304,125.35802469135803 216.59130434782608,124.0" stroke="none" stroke-width="1" fill="#4ac3c7" /><polygon points="20.695652173913043,67.1604938271605 29.6,61.60493827160494 29.6,62.39506172839506 20.695652173913043,67.95061728395062" stroke="none" stroke-width="1" fill="#647DFF" /><polygon points="29.6,61.60493827160494 38.504347826086956,56.049382716049394 38.504347826086956,57.278463648834006 29.6,62.83401920438958" stroke="none" stroke-width="1" fill="#647DFF" /><polygon points="38.504347826086956,56.049382716049394 47.40869565217392,50.49382716049382 47.40869565217392,53.25925925925927 38.504347826086956,58.814814814814824" stroke="none" stroke-width="1" fill="#647DFF" /><polygon points="47.40869565217392,50.49382716049382 56.31304347826087,51.85185185185185 56.31304347826087,54.61728395061729 47.40869565217392,53.25925925925927" stroke="none" stroke-width="1" fill="#647DFF" /><polygon points="56.31304347826087,51.85185185185185 65.21739130434783,56.66666666666666 65.21739130434783,59.43209876543209 56.31304347826087,54.61728395061729" stroke="none" stroke-width="1" fill="#647DFF" /><polygon points="65.21739130434783,56.66666666666666 74.12173913043478,61.481481481481495 74.12173913043478,62.71056241426612 65.21739130434783,57.8957475994513" stroke="none" stroke-width="1" fill="#647DFF" /><polygon points="74.12173913043478,61.481481481481495 83.02608695652174,62.83950617283952 83.02608695652174,65.60493827160494 74.12173913043478,64.24691358024691" stroke="none" stroke-width="1" fill="#647DFF" /><polygon points="83.02608695652174,62.83950617283952 91.9304347826087,57.28395061728395 91.9304347826087,60.04938271604938 83.02608695652174,65.60493827160494" stroke="none" stroke-width="1" fill="#647DFF" /><polygon points="91.9304347826087,57.28395061728395 100.83478260869566,51.72839506172838 100.83478260869566,54.49382716049382 91.9304347826087,60.04938271604938" stroke="none" stroke-width="1" fill="#647DFF" /><polygon points="100.83478260869566,51.72839506172838 109.73913043478261,53.08641975308642 109.73913043478261,55.85185185185183 100.83478260869566,54.49382716049382" stroke="none" stroke-width="1" fill="#647DFF" /><polygon points="109.73913043478261,53.08641975308642 118.64347826086956,57.90123456790124 118.64347826086956,60.66666666666667 109.73913043478261,55.85185185185183" stroke="none" stroke-width="1" fill="#647DFF" /><polygon points="118.64347826086956,57.90123456790124 127.54782608695652,52.34567901234567 127.54782608695652,55.111111111111114 118.64347826086956,60.66666666666667" stroke="none" stroke-width="1" fill="#647DFF" /><polygon points="127.54782608695652,52.34567901234567 136.45217391304345,46.79012345679013 136.45217391304345,49.55555555555554 127.54782608695652,55.111111111111114" stroke="none" stroke-width="1" fill="#647DFF" /><polygon points="136.45217391304345,46.79012345679013 145.35652173913041,48.14814814814814 145.35652173913041,50.91358024691358 136.45217391304345,49.55555555555554" stroke="none" stroke-width="1" fill="#647DFF" /><polygon points="145.35652173913041,48.14814814814814 154.26086956521738,52.96296296296296 154.26086956521738,55.72839506172839 145.35652173913041,50.91358024691358" stroke="none" stroke-width="1" fill="#647DFF" /><polygon points="154.26086956521738,52.96296296296296 163.16521739130434,57.77777777777777 163.16521739130434,60.5432098765432 154.26086956521738,55.72839506172839" stroke="none" stroke-width="1" fill="#647DFF" /><polygon points="163.16521739130434,57.77777777777777 172.0695652173913,52.222222222222214 172.0695652173913,54.987654320987644 163.16521739130434,60.5432098765432" stroke="none" stroke-width="1" fill="#647DFF" /><polygon points="172.0695652173913,52.222222222222214 180.97391304347826,57.03703703703704 180.97391304347826,59.802469135802454 172.0695652173913,54.987654320987644" stroke="none" stroke-width="1" fill="#647DFF" /><polygon points="180.97391304347826,57.03703703703704 189.87826086956522,58.39506172839506 189.87826086956522,59.62414266117969 180.97391304347826,58.266117969821664" stroke="none" stroke-width="1" fill="#647DFF" /><polygon points="189.87826086956522,58.39506172839506 198.7826086956522,52.83950617283949 198.7826086956522,55.60493827160492 189.87826086956522,61.16049382716048" stroke="none" stroke-width="1" fill="#647DFF" /><polygon points="198.7826086956522,52.83950617283949 207.68695652173915,47.283950617283935 207.68695652173915,50.04938271604938 198.7826086956522,55.60493827160492" stroke="none" stroke-width="1" fill="#647DFF" /><polygon points="207.68695652173915,47.283950617283935 216.59130434782608,52.09876543209877 216.59130434782608,53.3278463648834 207.68695652173915,48.51303155006859" stroke="none" stroke-width="1" fill="#647DFF" /><polygon points="216.59130434782608,52.09876543209877 225.49565217391304,53.456790123456784 225.49565217391304,54.685871056241425 216.59130434782608,53.3278463648834" stroke="none" stroke-width="1" fill="#647DFF" /><polygon points="20.695652173913043,68.14814814814815 29.6,62.592592592592595 29.6,63.38271604938271 20.695652173913043,68.93827160493827" stroke="none" stroke-width="1" fill="#6fe0ff" /><polygon points="29.6,61.60493827160494 38.504347826086956,66.41975308641975 38.504347826086956,69.18518518518519 29.6,64.37037037037037" stroke="none" stroke-width="1" fill="#6fe0ff" /><polygon points="38.504347826086956,66.41975308641975 47.40869565217392,67.77777777777777 47.40869565217392,70.54320987654322 38.504347826086956,69.18518518518519" stroke="none" stroke-width="1" fill="#6fe0ff" /><polygon points="47.40869565217392,67.77777777777777 56.31304347826087,62.222222222222214 56.31304347826087,64.98765432098764 47.40869565217392,70.54320987654322" stroke="none" stroke-width="1" fill="#6fe0ff" /><polygon points="56.31304347826087,62.222222222222214 65.21739130434783,63.58024691358024 65.21739130434783,66.34567901234567 56.31304347826087,64.98765432098764" stroke="none" stroke-width="1" fill="#6fe0ff" /><polygon points="65.21739130434783,63.58024691358024 74.12173913043478,58.0246913580247 74.12173913043478,60.79012345679011 65.21739130434783,66.34567901234567" stroke="none" stroke-width="1" fill="#6fe0ff" /><polygon points="74.12173913043478,58.0246913580247 83.02608695652174,62.83950617283952 83.02608695652174,65.60493827160494 74.12173913043478,60.79012345679011" stroke="none" stroke-width="1" fill="#6fe0ff" /><polygon points="83.02608695652174,62.83950617283952 91.9304347826087,67.65432098765433 91.9304347826087,70.41975308641975 83.02608695652174,65.60493827160494" stroke="none" stroke-width="1" fill="#6fe0ff" /><polygon points="91.9304347826087,67.65432098765433 100.83478260869566,62.09876543209876 100.83478260869566,64.86419753086419 91.9304347826087,70.41975308641975" stroke="none" stroke-width="1" fill="#6fe0ff" /><polygon points="100.83478260869566,62.09876543209876 109.73913043478261,66.91358024691358 109.73913043478261,68.14266117969822 100.83478260869566,63.3278463648834" stroke="none" stroke-width="1" fill="#6fe0ff" /><polygon points="109.73913043478261,66.91358024691358 118.64347826086956,61.358024691358025 118.64347826086956,64.12345679012347 109.73913043478261,69.679012345679" stroke="none" stroke-width="1" fill="#6fe0ff" /><polygon points="118.64347826086956,61.358024691358025 127.54782608695652,55.80246913580248 127.54782608695652,58.5679012345679 118.64347826086956,64.12345679012347" stroke="none" stroke-width="1" fill="#6fe0ff" /><polygon points="127.54782608695652,55.80246913580248 136.45217391304345,57.160493827160494 136.45217391304345,59.925925925925924 127.54782608695652,58.5679012345679" stroke="none" stroke-width="1" fill="#6fe0ff" /><polygon points="136.45217391304345,57.160493827160494 145.35652173913041,61.97530864197532 145.35652173913041,64.74074074074073 136.45217391304345,59.925925925925924" stroke="none" stroke-width="1" fill="#6fe0ff" /><polygon points="145.35652173913041,61.97530864197532 154.26086956521738,63.33333333333334 154.26086956521738,64.56241426611797 145.35652173913041,63.204389574759944" stroke="none" stroke-width="1" fill="#6fe0ff" /><polygon points="154.26086956521738,63.33333333333334 163.16521739130434,57.77777777777777 163.16521739130434,60.5432098765432 154.26086956521738,66.09876543209876" stroke="none" stroke-width="1" fill="#6fe0ff" /><polygon points="163.16521739130434,57.77777777777777 172.0695652173913,62.592592592592595 172.0695652173913,65.35802469135803 163.16521739130434,60.5432098765432" stroke="none" stroke-width="1" fill="#6fe0ff" /><polygon points="172.0695652173913,62.592592592592595 180.97391304347826,57.03703703703704 180.97391304347826,59.802469135802454 172.0695652173913,65.35802469135803" stroke="none" stroke-width="1" fill="#6fe0ff" /><polygon points="180.97391304347826,58.57338820301783 189.87826086956522,59.93141289437585 189.87826086956522,61.16049382716048 180.97391304347826,59.802469135802454" stroke="none" stroke-width="1" fill="#6fe0ff" /><polygon points="189.87826086956522,58.39506172839506 198.7826086956522,59.753086419753075 198.7826086956522,62.518518518518505 189.87826086956522,61.16049382716048" stroke="none" stroke-width="1" fill="#6fe0ff" /><polygon points="198.7826086956522,59.753086419753075 207.68695652173915,54.19753086419753 207.68695652173915,56.96296296296296 198.7826086956522,62.518518518518505" stroke="none" stroke-width="1" fill="#6fe0ff" /><polygon points="207.68695652173915,54.19753086419753 216.59130434782608,48.641975308641975 216.59130434782608,51.40740740740739 207.68695652173915,56.96296296296296" stroke="none" stroke-width="1" fill="#6fe0ff" /><polygon points="216.59130434782608,48.641975308641975 225.49565217391304,53.456790123456784 225.49565217391304,56.222222222222214 216.59130434782608,51.40740740740739" stroke="none" stroke-width="1" fill="#6fe0ff" /><polygon points="20.695652173913043,69.1358024691358 29.6,73.95061728395062 29.6,74.74074074074073 20.695652173913043,69.92592592592592" stroke="none" stroke-width="1" fill="#ec3800" /><polygon points="29.6,73.95061728395062 38.504347826086956,78.76543209876543 38.504347826086956,79.55555555555556 29.6,74.74074074074073" stroke="none" stroke-width="1" fill="#ec3800" /><polygon points="38.504347826086956,78.32647462277092 47.40869565217392,72.77091906721537 47.40869565217392,74.0 38.504347826086956,79.55555555555556" stroke="none" stroke-width="1" fill="#ec3800" /><polygon points="47.40869565217392,71.23456790123457 56.31304347826087,72.5925925925926 56.31304347826087,75.35802469135803 47.40869565217392,74.0" stroke="none" stroke-width="1" fill="#ec3800" /><polygon points="56.31304347826087,72.5925925925926 65.21739130434783,67.03703703703704 65.21739130434783,69.80246913580247 56.31304347826087,75.35802469135803" stroke="none" stroke-width="1" fill="#ec3800" /><polygon points="65.21739130434783,67.03703703703704 74.12173913043478,61.481481481481495 74.12173913043478,64.24691358024691 65.21739130434783,69.80246913580247" stroke="none" stroke-width="1" fill="#ec3800" /><polygon points="74.12173913043478,61.481481481481495 83.02608695652174,66.2962962962963 83.02608695652174,69.06172839506172 74.12173913043478,64.24691358024691" stroke="none" stroke-width="1" fill="#ec3800" /><polygon points="83.02608695652174,66.2962962962963 91.9304347826087,60.74074074074075 91.9304347826087,63.50617283950616 83.02608695652174,69.06172839506172" stroke="none" stroke-width="1" fill="#ec3800" /><polygon points="91.9304347826087,60.74074074074075 100.83478260869566,55.18518518518519 100.83478260869566,57.950617283950606 91.9304347826087,63.50617283950616" stroke="none" stroke-width="1" fill="#ec3800" /><polygon points="100.83478260869566,55.18518518518519 109.73913043478261,49.62962962962962 109.73913043478261,52.39506172839505 100.83478260869566,57.950617283950606" stroke="none" stroke-width="1" fill="#ec3800" /><polygon points="109.73913043478261,49.62962962962962 118.64347826086956,44.07407407407406 118.64347826086956,46.839506172839506 109.73913043478261,52.39506172839505" stroke="none" stroke-width="1" fill="#ec3800" /><polygon points="118.64347826086956,44.07407407407406 127.54782608695652,38.51851851851852 127.54782608695652,41.28395061728396 118.64347826086956,46.839506172839506" stroke="none" stroke-width="1" fill="#ec3800" /><polygon points="127.54782608695652,38.51851851851852 136.45217391304345,43.33333333333334 136.45217391304345,46.09876543209876 127.54782608695652,41.28395061728396" stroke="none" stroke-width="1" fill="#ec3800" /><polygon points="136.45217391304345,43.33333333333334 145.35652173913041,48.14814814814814 145.35652173913041,50.91358024691358 136.45217391304345,46.09876543209876" stroke="none" stroke-width="1" fill="#ec3800" /><polygon points="145.35652173913041,48.14814814814814 154.26086956521738,42.592592592592595 154.26086956521738,45.35802469135801 145.35652173913041,50.91358024691358" stroke="none" stroke-width="1" fill="#ec3800" /><polygon points="154.26086956521738,42.592592592592595 163.16521739130434,37.037037037037024 163.16521739130434,39.80246913580248 154.26086956521738,45.35802469135801" stroke="none" stroke-width="1" fill="#ec3800" /><polygon points="163.16521739130434,37.037037037037024 172.0695652173913,38.39506172839506 172.0695652173913,41.16049382716048 163.16521739130434,39.80246913580248" stroke="none" stroke-width="1" fill="#ec3800" /><polygon points="172.0695652173913,38.39506172839506 180.97391304347826,43.20987654320986 180.97391304347826,45.9753086419753 172.0695652173913,41.16049382716048" stroke="none" stroke-width="1" fill="#ec3800" /><polygon points="180.97391304347826,43.20987654320986 189.87826086956522,37.654320987654316 189.87826086956522,40.41975308641973 180.97391304347826,45.9753086419753" stroke="none" stroke-width="1" fill="#ec3800" /><polygon points="189.87826086956522,37.654320987654316 198.7826086956522,32.098765432098745 198.7826086956522,34.86419753086419 189.87826086956522,40.41975308641973" stroke="none" stroke-width="1" fill="#ec3800" /><polygon points="198.7826086956522,32.098765432098745 207.68695652173915,26.543209876543187 207.68695652173915,29.308641975308646 198.7826086956522,34.86419753086419" stroke="none" stroke-width="1" fill="#ec3800" /><polygon points="207.68695652173915,26.543209876543187 216.59130434782608,27.901234567901227 216.59130434782608,30.666666666666657 207.68695652173915,29.308641975308646" stroke="none" stroke-width="1" fill="#ec3800" /><polygon points="216.59130434782608,27.901234567901227 225.49565217391304,22.34567901234567 225.49565217391304,25.111111111111114 216.59130434782608,30.666666666666657" stroke="none" stroke-width="1" fill="#ec3800" /><polygon points="225.49565217391304,22.34567901234567 234.4,16.790123456790127 234.4,19.55555555555557 225.49565217391304,25.111111111111114" stroke="none" stroke-width="1" fill="#ec3800" /><polygon points="20.695652173913043,69.1358024691358 29.6,63.58024691358024 29.6,64.37037037037037 20.695652173913043,69.92592592592592" stroke="none" stroke-width="1" fill="#84AE99" /><polygon points="29.6,63.141289437585726 38.504347826086956,57.58573388203017 38.504347826086956,58.814814814814824 29.6,64.37037037037037" stroke="none" stroke-width="1" fill="#84AE99" /><polygon points="38.504347826086956,56.049382716049394 47.40869565217392,60.86419753086419 47.40869565217392,63.62962962962962 38.504347826086956,58.814814814814824" stroke="none" stroke-width="1" fill="#84AE99" /><polygon points="47.40869565217392,60.86419753086419 56.31304347826087,55.30864197530863 56.31304347826087,58.074074074074076 47.40869565217392,63.62962962962962" stroke="none" stroke-width="1" fill="#84AE99" /><polygon points="56.31304347826087,55.30864197530863 65.21739130434783,56.66666666666666 65.21739130434783,59.43209876543209 56.31304347826087,58.074074074074076" stroke="none" stroke-width="1" fill="#84AE99" /><polygon points="65.21739130434783,58.20301783264746 74.12173913043478,63.01783264746227 74.12173913043478,64.24691358024691 65.21739130434783,59.43209876543209" stroke="none" stroke-width="1" fill="#84AE99" /><polygon points="74.12173913043478,61.481481481481495 83.02608695652174,55.925925925925924 83.02608695652174,58.691358024691354 74.12173913043478,64.24691358024691" stroke="none" stroke-width="1" fill="#84AE99" /><polygon points="83.02608695652174,55.925925925925924 91.9304347826087,57.28395061728395 91.9304347826087,60.04938271604938 83.02608695652174,58.691358024691354" stroke="none" stroke-width="1" fill="#84AE99" /><polygon points="91.9304347826087,57.28395061728395 100.83478260869566,62.09876543209876 100.83478260869566,64.86419753086419 91.9304347826087,60.04938271604938" stroke="none" stroke-width="1" fill="#84AE99" /><polygon points="100.83478260869566,63.63511659807956 109.73913043478261,68.44993141289437 109.73913043478261,69.679012345679 100.83478260869566,64.86419753086419" stroke="none" stroke-width="1" fill="#84AE99" /><polygon points="109.73913043478261,66.91358024691358 118.64347826086956,68.27160493827161 118.64347826086956,71.03703703703704 109.73913043478261,69.679012345679" stroke="none" stroke-width="1" fill="#84AE99" /><polygon points="118.64347826086956,68.27160493827161 127.54782608695652,73.08641975308643 127.54782608695652,75.85185185185185 118.64347826086956,71.03703703703704" stroke="none" stroke-width="1" fill="#84AE99" /><polygon points="127.54782608695652,73.08641975308643 136.45217391304345,67.53086419753087 136.45217391304345,70.29629629629629 127.54782608695652,75.85185185185185" stroke="none" stroke-width="1" fill="#84AE99" /><polygon points="136.45217391304345,67.53086419753087 145.35652173913041,61.97530864197532 145.35652173913041,64.74074074074073 136.45217391304345,70.29629629629629" stroke="none" stroke-width="1" fill="#84AE99" /><polygon points="145.35652173913041,63.51165980795609 154.26086956521738,64.86968449931413 154.26086956521738,66.09876543209876 145.35652173913041,64.74074074074073" stroke="none" stroke-width="1" fill="#84AE99" /><polygon points="154.26086956521738,63.33333333333334 163.16521739130434,64.69135802469137 163.16521739130434,67.45679012345678 154.26086956521738,66.09876543209876" stroke="none" stroke-width="1" fill="#84AE99" /><polygon points="163.16521739130434,64.69135802469137 172.0695652173913,59.1358024691358 172.0695652173913,61.90123456790123 163.16521739130434,67.45679012345678" stroke="none" stroke-width="1" fill="#84AE99" /><polygon points="172.0695652173913,59.1358024691358 180.97391304347826,53.580246913580226 180.97391304347826,56.34567901234567 172.0695652173913,61.90123456790123" stroke="none" stroke-width="1" fill="#84AE99" /><polygon points="180.97391304347826,53.580246913580226 189.87826086956522,48.02469135802468 189.87826086956522,50.79012345679011 180.97391304347826,56.34567901234567" stroke="none" stroke-width="1" fill="#84AE99" /><polygon points="189.87826086956522,48.02469135802468 198.7826086956522,42.469135802469125 198.7826086956522,45.23456790123457 189.87826086956522,50.79012345679011" stroke="none" stroke-width="1" fill="#84AE99" /><polygon points="198.7826086956522,42.469135802469125 207.68695652173915,47.283950617283935 207.68695652173915,50.04938271604938 198.7826086956522,45.23456790123457" stroke="none" stroke-width="1" fill="#84AE99" /><polygon points="207.68695652173915,48.82030178326475 216.59130434782608,53.63511659807955 216.59130434782608,54.86419753086419 207.68695652173915,50.04938271604938" stroke="none" stroke-width="1" fill="#84AE99" /><polygon points="216.59130434782608,53.63511659807955 225.49565217391304,54.993141289437574 225.49565217391304,56.222222222222214 216.59130434782608,54.86419753086419" stroke="none" stroke-width="1" fill="#84AE99" /><g><path d="M 20.280837,67.575309A0.414815,0.414815 0 0 1 21.110467,67.575309L21.110467,69.511111A0.414815,0.414815 0 0 1 20.280837,69.511111Z" fill="rgb(30%,30%,30%)" /><rect x="20.28083735909823" y="68.49481481481482" width="0.8296296296296296" height="0.09679012345679011" stroke="none" stroke-width="1" fill="white" /></g><g><path d="M 29.185185,72.390123A0.414815,0.414815 0 0 1 30.014815,72.390123L30.014815,74.325926A0.414815,0.414815 0 0 1 29.185185,74.325926Z" fill="rgb(30%,30%,30%)" /><rect x="29.185185185185187" y="73.30962962962963" width="0.8296296296296296" height="0.09679012345679011" stroke="none" stroke-width="1" fill="white" /></g><g><path d="M 38.089533,77.204938A0.414815,0.414815 0 0 1 38.919163,77.204938L38.919163,79.140741A0.414815,0.414815 0 0 1 38.089533,79.140741Z" fill="rgb(30%,30%,30%)" /><rect x="38.08953301127214" y="78.12444444444444" width="0.8296296296296296" height="0.09679012345679011" stroke="none" stroke-width="1" fill="white" /></g><g><path d="M 46.993881,71.649383A0.414815,0.414815 0 0 1 47.823510,71.649383L47.823510,73.585185A0.414815,0.414815 0 0 1 46.993881,73.585185Z" fill="rgb(30%,30%,30%)" /><rect x="46.9938808373591" y="72.56888888888888" width="0.8296296296296296" height="0.09679012345679011" stroke="none" stroke-width="1" fill="white" /></g><g><path d="M 55.898229,76.464198A0.414815,0.414815 0 0 1 56.727858,76.464198L56.727858,78.400000A0.414815,0.414815 0 0 1 55.898229,78.400000Z" fill="rgb(30%,30%,30%)" /><rect x="55.898228663446055" y="77.3837037037037" width="0.8296296296296296" height="0.09679012345679011" stroke="none" stroke-width="1" fill="white" /></g><g><path d="M 64.802576,77.822222A0.414815,0.414815 0 0 1 65.632206,77.822222L65.632206,79.758025A0.414815,0.414815 0 0 1 64.802576,79.758025Z" fill="rgb(30%,30%,30%)" /><rect x="64.80257648953301" y="78.74172839506173" width="0.8296296296296296" height="0.09679012345679011" stroke="none" stroke-width="1" fill="white" /></g><g><path d="M 73.706924,72.266667A0.414815,0.414815 0 0 1 74.536554,72.266667L74.536554,74.202469A0.414815,0.414815 0 0 1 73.706924,74.202469Z" fill="rgb(30%,30%,30%)" /><rect x="73.70692431561996" y="73.18617283950617" width="0.8296296296296296" height="0.09679012345679011" stroke="none" stroke-width="1" fill="white" /></g><g><path d="M 82.611272,73.624691A0.414815,0.414815 0 0 1 83.440902,73.624691L83.440902,75.560494A0.414815,0.414815 0 0 1 82.611272,75.560494Z" fill="rgb(30%,30%,30%)" /><rect x="82.61127214170692" y="74.5441975308642" width="0.8296296296296296" height="0.09679012345679011" stroke="none" stroke-width="1" fill="white" /></g><g><path d="M 91.515620,68.069136A0.414815,0.414815 0 0 1 92.345250,68.069136L92.345250,70.004938A0.414815,0.414815 0 0 1 91.515620,70.004938Z" fill="rgb(30%,30%,30%)" /><rect x="91.51561996779388" y="68.98864197530864" width="0.8296296296296296" height="0.09679012345679011" stroke="none" stroke-width="1" fill="white" /></g><g><path d="M 100.419968,72.883951A0.414815,0.414815 0 0 1 101.249597,72.883951L101.249597,74.819753A0.414815,0.414815 0 0 1 100.419968,74.819753Z" fill="rgb(30%,30%,30%)" /><rect x="100.41996779388084" y="73.80345679012345" width="0.8296296296296296" height="0.09679012345679011" stroke="none" stroke-width="1" fill="white" /></g><g><path d="M 109.324316,77.698765A0.414815,0.414815 0 0 1 110.153945,77.698765L110.153945,79.634568A0.414815,0.414815 0 0 1 109.324316,79.634568Z" fill="rgb(30%,30%,30%)" /><rect x="109.32431561996779" y="78.61827160493826" width="0.8296296296296296" height="0.09679012345679011" stroke="none" stroke-width="1" fill="white" /></g><g><path d="M 118.228663,82.513580A0.414815,0.414815 0 0 1 119.058293,82.513580L119.058293,84.449383A0.414815,0.414815 0 0 1 118.228663,84.449383Z" fill="rgb(30%,30%,30%)" /><rect x="118.22866344605474" y="83.43308641975308" width="0.8296296296296296" height="0.09679012345679011" stroke="none" stroke-width="1" fill="white" /></g><g><path d="M 127.133011,76.958025A0.414815,0.414815 0 0 1 127.962641,76.958025L127.962641,78.893827A0.414815,0.414815 0 0 1 127.133011,78.893827Z" fill="rgb(30%,30%,30%)" /><rect x="127.1330112721417" y="77.87753086419752" width="0.8296296296296296" height="0.09679012345679011" stroke="none" stroke-width="1" fill="white" /></g><g><path d="M 136.037359,81.772840A0.414815,0.414815 0 0 1 136.866989,81.772840L136.866989,83.708642A0.414815,0.414815 0 0 1 136.037359,83.708642Z" fill="rgb(30%,30%,30%)" /><rect x="136.03735909822865" y="82.69234567901235" width="0.8296296296296296" height="0.09679012345679011" stroke="none" stroke-width="1" fill="white" /></g><g><path d="M 144.941707,86.587654A0.414815,0.414815 0 0 1 145.771337,86.587654L145.771337,88.523457A0.414815,0.414815 0 0 1 144.941707,88.523457Z" fill="rgb(30%,30%,30%)" /><rect x="144.9417069243156" y="87.50716049382716" width="0.8296296296296296" height="0.09679012345679011" stroke="none" stroke-width="1" fill="white" /></g><g><path d="M 153.846055,91.402469A0.414815,0.414815 0 0 1 154.675684,91.402469L154.675684,93.338272A0.414815,0.414815 0 0 1 153.846055,93.338272Z" fill="rgb(30%,30%,30%)" /><rect x="153.84605475040257" y="92.32197530864197" width="0.8296296296296296" height="0.09679012345679011" stroke="none" stroke-width="1" fill="white" /></g><g><path d="M 162.750403,85.846914A0.414815,0.414815 0 0 1 163.580032,85.846914L163.580032,87.782716A0.414815,0.414815 0 0 1 162.750403,87.782716Z" fill="rgb(30%,30%,30%)" /><rect x="162.75040257648953" y="86.76641975308641" width="0.8296296296296296" height="0.09679012345679011" stroke="none" stroke-width="1" fill="white" /></g><g><path d="M 171.654750,80.291358A0.414815,0.414815 0 0 1 172.484380,80.291358L172.484380,82.227160A0.414815,0.414815 0 0 1 171.654750,82.227160Z" fill="rgb(30%,30%,30%)" /><rect x="171.6547504025765" y="81.21086419753085" width="0.8296296296296296" height="0.09679012345679011" stroke="none" stroke-width="1" fill="white" /></g><g><path d="M 180.559098,85.106173A0.414815,0.414815 0 0 1 181.388728,85.106173L181.388728,87.041975A0.414815,0.414815 0 0 1 180.559098,87.041975Z" fill="rgb(30%,30%,30%)" /><rect x="180.55909822866346" y="86.02567901234566" width="0.8296296296296296" height="0.09679012345679011" stroke="none" stroke-width="1" fill="white" /></g><g><path d="M 189.463446,89.920988A0.414815,0.414815 0 0 1 190.293076,89.920988L190.293076,91.856790A0.414815,0.414815 0 0 1 189.463446,91.856790Z" fill="rgb(30%,30%,30%)" /><rect x="189.46344605475042" y="90.84049382716049" width="0.8296296296296296" height="0.09679012345679011" stroke="none" stroke-width="1" fill="white" /></g><g><path d="M 198.367794,94.735802A0.414815,0.414815 0 0 1 199.197424,94.735802L199.197424,96.671605A0.414815,0.414815 0 0 1 198.367794,96.671605Z" fill="rgb(30%,30%,30%)" /><rect x="198.36779388083738" y="95.6553086419753" width="0.8296296296296296" height="0.09679012345679011" stroke="none" stroke-width="1" fill="white" /></g><g><path d="M 207.272142,99.550617A0.414815,0.414815 0 0 1 208.101771,99.550617L208.101771,101.486420A0.414815,0.414815 0 0 1 207.272142,101.486420Z" fill="rgb(30%,30%,30%)" /><rect x="207.27214170692434" y="100.47012345679012" width="0.8296296296296296" height="0.09679012345679011" stroke="none" stroke-width="1" fill="white" /></g><g><path d="M 216.176490,104.365432A0.414815,0.414815 0 0 1 217.006119,104.365432L217.006119,106.301235A0.414815,0.414815 0 0 1 216.176490,106.301235Z" fill="rgb(30%,30%,30%)" /><rect x="216.17648953301128" y="105.28493827160493" width="0.8296296296296296" height="0.09679012345679011" stroke="none" stroke-width="1" fill="white" /></g><g><path d="M 225.080837,98.809877A0.414815,0.414815 0 0 1 225.910467,98.809877L225.910467,100.745679A0.414815,0.414815 0 0 1 225.080837,100.745679Z" fill="rgb(30%,30%,30%)" /><rect x="225.08083735909824" y="99.72938271604937" width="0.8296296296296296" height="0.09679012345679011" stroke="none" stroke-width="1" fill="white" /></g><g><path d="M 233.985185,103.624691A0.414815,0.414815 0 0 1 234.814815,103.624691L234.814815,105.560494A0.414815,0.414815 0 0 1 233.985185,105.560494Z" fill="rgb(30%,30%,30%)" /><rect x="233.9851851851852" y="104.5441975308642" width="0.8296296296296296" height="0.09679012345679011" stroke="none" stroke-width="1" fill="white" /></g><g><path d="M 20.280837,67.575309A0.414815,0.414815 0 0 1 21.110467,67.575309L21.110467,69.511111A0.414815,0.414815 0 0 1 20.280837,69.511111Z" fill="rgb(30%,30%,30%)" /><rect x="20.28083735909823" y="68.49481481481482" width="0.8296296296296296" height="0.09679012345679011" stroke="none" stroke-width="1" fill="white" /></g><g><path d="M 29.185185,72.390123A0.414815,0.414815 0 0 1 30.014815,72.390123L30.014815,74.325926A0.414815,0.414815 0 0 1 29.185185,74.325926Z" fill="rgb(30%,30%,30%)" /><rect x="29.185185185185187" y="73.30962962962963" width="0.8296296296296296" height="0.09679012345679011" stroke="none" stroke-width="1" fill="white" /></g><g><path d="M 38.089533,77.204938A0.414815,0.414815 0 0 1 38.919163,77.204938L38.919163,79.140741A0.414815,0.414815 0 0 1 38.089533,79.140741Z" fill="rgb(30%,30%,30%)" /><rect x="38.08953301127214" y="78.12444444444444" width="0.8296296296296296" height="0.09679012345679011" stroke="none" stroke-width="1" fill="white" /></g><g><path d="M 46.993881,78.562963A0.414815,0.414815 0 0 1 47.823510,78.562963L47.823510,80.498765A0.414815,0.414815 0 0 1 46.993881,80.498765Z" fill="rgb(30%,30%,30%)" /><rect x="46.9938808373591" y="79.48246913580246" width="0.8296296296296296" height="0.09679012345679011" stroke="none" stroke-width="1" fill="white" /></g><g><path d="M 55.898229,83.377778A0.414815,0.414815 0 0 1 56.727858,83.377778L56.727858,85.313580A0.414815,0.414815 0 0 1 55.898229,85.313580Z" fill="rgb(30%,30%,30%)" /><rect x="55.898228663446055" y="84.29728395061728" width="0.8296296296296296" height="0.09679012345679011" stroke="none" stroke-width="1" fill="white" /></g><g><path d="M 64.802576,88.192593A0.414815,0.414815 0 0 1 65.632206,88.192593L65.632206,90.128395A0.414815,0.414815 0 0 1 64.802576,90.128395Z" fill="rgb(30%,30%,30%)" /><rect x="64.80257648953301" y="89.1120987654321" width="0.8296296296296296" height="0.09679012345679011" stroke="none" stroke-width="1" fill="white" /></g><g><path d="M 73.706924,93.007407A0.414815,0.414815 0 0 1 74.536554,93.007407L74.536554,94.943210A0.414815,0.414815 0 0 1 73.706924,94.943210Z" fill="rgb(30%,30%,30%)" /><rect x="73.70692431561996" y="93.92691358024692" width="0.8296296296296296" height="0.09679012345679011" stroke="none" stroke-width="1" fill="white" /></g><g><path d="M 82.611272,87.451852A0.414815,0.414815 0 0 1 83.440902,87.451852L83.440902,89.387654A0.414815,0.414815 0 0 1 82.611272,89.387654Z" fill="rgb(30%,30%,30%)" /><rect x="82.61127214170692" y="88.37135802469135" width="0.8296296296296296" height="0.09679012345679011" stroke="none" stroke-width="1" fill="white" /></g><g><path d="M 91.515620,92.266667A0.414815,0.414815 0 0 1 92.345250,92.266667L92.345250,94.202469A0.414815,0.414815 0 0 1 91.515620,94.202469Z" fill="rgb(30%,30%,30%)" /><rect x="91.51561996779388" y="93.18617283950617" width="0.8296296296296296" height="0.09679012345679011" stroke="none" stroke-width="1" fill="white" /></g><g><path d="M 100.419968,86.711111A0.414815,0.414815 0 0 1 101.249597,86.711111L101.249597,88.646914A0.414815,0.414815 0 0 1 100.419968,88.646914Z" fill="rgb(30%,30%,30%)" /><rect x="100.41996779388084" y="87.63061728395061" width="0.8296296296296296" height="0.09679012345679011" stroke="none" stroke-width="1" fill="white" /></g><g><path d="M 109.324316,81.155556A0.414815,0.414815 0 0 1 110.153945,81.155556L110.153945,83.091358A0.414815,0.414815 0 0 1 109.324316,83.091358Z" fill="rgb(30%,30%,30%)" /><rect x="109.32431561996779" y="82.07506172839506" width="0.8296296296296296" height="0.09679012345679011" stroke="none" stroke-width="1" fill="white" /></g><g><path d="M 118.228663,85.970370A0.414815,0.414815 0 0 1 119.058293,85.970370L119.058293,87.906173A0.414815,0.414815 0 0 1 118.228663,87.906173Z" fill="rgb(30%,30%,30%)" /><rect x="118.22866344605474" y="86.88987654320988" width="0.8296296296296296" height="0.09679012345679011" stroke="none" stroke-width="1" fill="white" /></g><g><path d="M 127.133011,90.785185A0.414815,0.414815 0 0 1 127.962641,90.785185L127.962641,92.720988A0.414815,0.414815 0 0 1 127.133011,92.720988Z" fill="rgb(30%,30%,30%)" /><rect x="127.1330112721417" y="91.70469135802469" width="0.8296296296296296" height="0.09679012345679011" stroke="none" stroke-width="1" fill="white" /></g><g><path d="M 136.037359,95.600000A0.414815,0.414815 0 0 1 136.866989,95.600000L136.866989,97.535802A0.414815,0.414815 0 0 1 136.037359,97.535802Z" fill="rgb(30%,30%,30%)" /><rect x="136.03735909822865" y="96.5195061728395" width="0.8296296296296296" height="0.09679012345679011" stroke="none" stroke-width="1" fill="white" /></g><g><path d="M 144.941707,96.958025A0.414815,0.414815 0 0 1 145.771337,96.958025L145.771337,98.893827A0.414815,0.414815 0 0 1 144.941707,98.893827Z" fill="rgb(30%,30%,30%)" /><rect x="144.9417069243156" y="97.87753086419752" width="0.8296296296296296" height="0.09679012345679011" stroke="none" stroke-width="1" fill="white" /></g><g><path d="M 153.846055,98.316049A0.414815,0.414815 0 0 1 154.675684,98.316049L154.675684,100.251852A0.414815,0.414815 0 0 1 153.846055,100.251852Z" fill="rgb(30%,30%,30%)" /><rect x="153.84605475040257" y="99.23555555555555" width="0.8296296296296296" height="0.09679012345679011" stroke="none" stroke-width="1" fill="white" /></g><g><path d="M 162.750403,103.130864A0.414815,0.414815 0 0 1 163.580032,103.130864L163.580032,105.066667A0.414815,0.414815 0 0 1 162.750403,105.066667Z" fill="rgb(30%,30%,30%)" /><rect x="162.75040257648953" y="104.05037037037036" width="0.8296296296296296" height="0.09679012345679011" stroke="none" stroke-width="1" fill="white" /></g><g><path d="M 171.654750,107.945679A0.414815,0.414815 0 0 1 172.484380,107.945679L172.484380,109.881481A0.414815,0.414815 0 0 1 171.654750,109.881481Z" fill="rgb(30%,30%,30%)" /><rect x="171.6547504025765" y="108.86518518518517" width="0.8296296296296296" height="0.09679012345679011" stroke="none" stroke-width="1" fill="white" /></g><g><path d="M 180.559098,112.760494A0.414815,0.414815 0 0 1 181.388728,112.760494L181.388728,114.696296A0.414815,0.414815 0 0 1 180.559098,114.696296Z" fill="rgb(30%,30%,30%)" /><rect x="180.55909822866346" y="113.67999999999999" width="0.8296296296296296" height="0.09679012345679011" stroke="none" stroke-width="1" fill="white" /></g><g><path d="M 189.463446,114.118519A0.414815,0.414815 0 0 1 190.293076,114.118519L190.293076,116.054321A0.414815,0.414815 0 0 1 189.463446,116.054321Z" fill="rgb(30%,30%,30%)" /><rect x="189.46344605475042" y="115.03802469135802" width="0.8296296296296296" height="0.09679012345679011" stroke="none" stroke-width="1" fill="white" /></g><g><path d="M 198.367794,118.933333A0.414815,0.414815 0 0 1 199.197424,118.933333L199.197424,120.869136A0.414815,0.414815 0 0 1 198.367794,120.869136Z" fill="rgb(30%,30%,30%)" /><rect x="198.36779388083738" y="119.85283950617283" width="0.8296296296296296" height="0.09679012345679011" stroke="none" stroke-width="1" fill="white" /></g><g><path d="M 207.272142,120.291358A0.414815,0.414815 0 0 1 208.101771,120.291358L208.101771,122.227160A0.414815,0.414815 0 0 1 207.272142,122.227160Z" fill="rgb(30%,30%,30%)" /><rect x="207.27214170692434" y="121.21086419753087" width="0.8296296296296296" height="0.09679012345679011" stroke="none" stroke-width="1" fill="white" /></g><g><path d="M 216.176490,121.649383A0.414815,0.414815 0 0 1 217.006119,121.649383L217.006119,123.585185A0.414815,0.414815 0 0 1 216.176490,123.585185Z" fill="rgb(30%,30%,30%)" /><rect x="216.17648953301128" y="122.56888888888888" width="0.8296296296296296" height="0.09679012345679011" stroke="none" stroke-width="1" fill="white" /></g><g><path d="M 225.080837,123.007407A0.414815,0.414815 0 0 1 225.910467,123.007407L225.910467,124.943210A0.414815,0.414815 0 0 1 225.080837,124.943210Z" fill="rgb(30%,30%,30%)" /><rect x="225.08083735909824" y="123.9269135802469" width="0.8296296296296296" height="0.09679012345679011" stroke="none" stroke-width="1" fill="white" /></g><g><path d="M 20.280837,67.575309A0.414815,0.414815 0 0 1 21.110467,67.575309L21.110467,69.511111A0.414815,0.414815 0 0 1 20.280837,69.511111Z" fill="rgb(30%,30%,30%)" /><rect x="20.28083735909823" y="68.49481481481482" width="0.8296296296296296" height="0.09679012345679011" stroke="none" stroke-width="1" fill="white" /></g><g><path d="M 29.185185,62.019753A0.414815,0.414815 0 0 1 30.014815,62.019753L30.014815,63.955556A0.414815,0.414815 0 0 1 29.185185,63.955556Z" fill="rgb(30%,30%,30%)" /><rect x="29.185185185185187" y="62.939259259259245" width="0.8296296296296296" height="0.09679012345679011" stroke="none" stroke-width="1" fill="white" /></g><g><path d="M 38.089533,56.464198A0.414815,0.414815 0 0 1 38.919163,56.464198L38.919163,58.400000A0.414815,0.414815 0 0 1 38.089533,58.400000Z" fill="rgb(30%,30%,30%)" /><rect x="38.08953301127214" y="57.3837037037037" width="0.8296296296296296" height="0.09679012345679011" stroke="none" stroke-width="1" fill="white" /></g><g><path d="M 46.993881,50.908642A0.414815,0.414815 0 0 1 47.823510,50.908642L47.823510,52.844444A0.414815,0.414815 0 0 1 46.993881,52.844444Z" fill="rgb(30%,30%,30%)" /><rect x="46.9938808373591" y="51.82814814814813" width="0.8296296296296296" height="0.09679012345679011" stroke="none" stroke-width="1" fill="white" /></g><g><path d="M 55.898229,52.266667A0.414815,0.414815 0 0 1 56.727858,52.266667L56.727858,54.202469A0.414815,0.414815 0 0 1 55.898229,54.202469Z" fill="rgb(30%,30%,30%)" /><rect x="55.898228663446055" y="53.18617283950617" width="0.8296296296296296" height="0.09679012345679011" stroke="none" stroke-width="1" fill="white" /></g><g><path d="M 64.802576,57.081481A0.414815,0.414815 0 0 1 65.632206,57.081481L65.632206,59.017284A0.414815,0.414815 0 0 1 64.802576,59.017284Z" fill="rgb(30%,30%,30%)" /><rect x="64.80257648953301" y="58.000987654320966" width="0.8296296296296296" height="0.09679012345679011" stroke="none" stroke-width="1" fill="white" /></g><g><path d="M 73.706924,61.896296A0.414815,0.414815 0 0 1 74.536554,61.896296L74.536554,63.832099A0.414815,0.414815 0 0 1 73.706924,63.832099Z" fill="rgb(30%,30%,30%)" /><rect x="73.70692431561996" y="62.815802469135804" width="0.8296296296296296" height="0.09679012345679011" stroke="none" stroke-width="1" fill="white" /></g><g><path d="M 82.611272,63.254321A0.414815,0.414815 0 0 1 83.440902,63.254321L83.440902,65.190123A0.414815,0.414815 0 0 1 82.611272,65.190123Z" fill="rgb(30%,30%,30%)" /><rect x="82.61127214170692" y="64.17382716049383" width="0.8296296296296296" height="0.09679012345679011" stroke="none" stroke-width="1" fill="white" /></g><g><path d="M 91.515620,57.698765A0.414815,0.414815 0 0 1 92.345250,57.698765L92.345250,59.634568A0.414815,0.414815 0 0 1 91.515620,59.634568Z" fill="rgb(30%,30%,30%)" /><rect x="91.51561996779388" y="58.61827160493826" width="0.8296296296296296" height="0.09679012345679011" stroke="none" stroke-width="1" fill="white" /></g><g><path d="M 100.419968,52.143210A0.414815,0.414815 0 0 1 101.249597,52.143210L101.249597,54.079012A0.414815,0.414815 0 0 1 100.419968,54.079012Z" fill="rgb(30%,30%,30%)" /><rect x="100.41996779388084" y="53.0627160493827" width="0.8296296296296296" height="0.09679012345679011" stroke="none" stroke-width="1" fill="white" /></g><g><path d="M 109.324316,53.501235A0.414815,0.414815 0 0 1 110.153945,53.501235L110.153945,55.437037A0.414815,0.414815 0 0 1 109.324316,55.437037Z" fill="rgb(30%,30%,30%)" /><rect x="109.32431561996779" y="54.420740740740726" width="0.8296296296296296" height="0.09679012345679011" stroke="none" stroke-width="1" fill="white" /></g><g><path d="M 118.228663,58.316049A0.414815,0.414815 0 0 1 119.058293,58.316049L119.058293,60.251852A0.414815,0.414815 0 0 1 118.228663,60.251852Z" fill="rgb(30%,30%,30%)" /><rect x="118.22866344605474" y="59.235555555555564" width="0.8296296296296296" height="0.09679012345679011" stroke="none" stroke-width="1" fill="white" /></g><g><path d="M 127.133011,52.760494A0.414815,0.414815 0 0 1 127.962641,52.760494L127.962641,54.696296A0.414815,0.414815 0 0 1 127.133011,54.696296Z" fill="rgb(30%,30%,30%)" /><rect x="127.1330112721417" y="53.68000000000001" width="0.8296296296296296" height="0.09679012345679011" stroke="none" stroke-width="1" fill="white" /></g><g><path d="M 136.037359,47.204938A0.414815,0.414815 0 0 1 136.866989,47.204938L136.866989,49.140741A0.414815,0.414815 0 0 1 136.037359,49.140741Z" fill="rgb(30%,30%,30%)" /><rect x="136.03735909822865" y="48.124444444444435" width="0.8296296296296296" height="0.09679012345679011" stroke="none" stroke-width="1" fill="white" /></g><g><path d="M 144.941707,48.562963A0.414815,0.414815 0 0 1 145.771337,48.562963L145.771337,50.498765A0.414815,0.414815 0 0 1 144.941707,50.498765Z" fill="rgb(30%,30%,30%)" /><rect x="144.9417069243156" y="49.48246913580246" width="0.8296296296296296" height="0.09679012345679011" stroke="none" stroke-width="1" fill="white" /></g><g><path d="M 153.846055,53.377778A0.414815,0.414815 0 0 1 154.675684,53.377778L154.675684,55.313580A0.414815,0.414815 0 0 1 153.846055,55.313580Z" fill="rgb(30%,30%,30%)" /><rect x="153.84605475040257" y="54.297283950617285" width="0.8296296296296296" height="0.09679012345679011" stroke="none" stroke-width="1" fill="white" /></g><g><path d="M 162.750403,58.192593A0.414815,0.414815 0 0 1 163.580032,58.192593L163.580032,60.128395A0.414815,0.414815 0 0 1 162.750403,60.128395Z" fill="rgb(30%,30%,30%)" /><rect x="162.75040257648953" y="59.112098765432094" width="0.8296296296296296" height="0.09679012345679011" stroke="none" stroke-width="1" fill="white" /></g><g><path d="M 171.654750,52.637037A0.414815,0.414815 0 0 1 172.484380,52.637037L172.484380,54.572840A0.414815,0.414815 0 0 1 171.654750,54.572840Z" fill="rgb(30%,30%,30%)" /><rect x="171.6547504025765" y="53.55654320987652" width="0.8296296296296296" height="0.09679012345679011" stroke="none" stroke-width="1" fill="white" /></g><g><path d="M 180.559098,57.451852A0.414815,0.414815 0 0 1 181.388728,57.451852L181.388728,59.387654A0.414815,0.414815 0 0 1 180.559098,59.387654Z" fill="rgb(30%,30%,30%)" /><rect x="180.55909822866346" y="58.37135802469135" width="0.8296296296296296" height="0.09679012345679011" stroke="none" stroke-width="1" fill="white" /></g><g><path d="M 189.463446,58.809877A0.414815,0.414815 0 0 1 190.293076,58.809877L190.293076,60.745679A0.414815,0.414815 0 0 1 189.463446,60.745679Z" fill="rgb(30%,30%,30%)" /><rect x="189.46344605475042" y="59.72938271604937" width="0.8296296296296296" height="0.09679012345679011" stroke="none" stroke-width="1" fill="white" /></g><g><path d="M 198.367794,53.254321A0.414815,0.414815 0 0 1 199.197424,53.254321L199.197424,55.190123A0.414815,0.414815 0 0 1 198.367794,55.190123Z" fill="rgb(30%,30%,30%)" /><rect x="198.36779388083738" y="54.173827160493815" width="0.8296296296296296" height="0.09679012345679011" stroke="none" stroke-width="1" fill="white" /></g><g><path d="M 207.272142,47.698765A0.414815,0.414815 0 0 1 208.101771,47.698765L208.101771,49.634568A0.414815,0.414815 0 0 1 207.272142,49.634568Z" fill="rgb(30%,30%,30%)" /><rect x="207.27214170692434" y="48.61827160493826" width="0.8296296296296296" height="0.09679012345679011" stroke="none" stroke-width="1" fill="white" /></g><g><path d="M 216.176490,52.513580A0.414815,0.414815 0 0 1 217.006119,52.513580L217.006119,54.449383A0.414815,0.414815 0 0 1 216.176490,54.449383Z" fill="rgb(30%,30%,30%)" /><rect x="216.17648953301128" y="53.43308641975308" width="0.8296296296296296" height="0.09679012345679011" stroke="none" stroke-width="1" fill="white" /></g><g><path d="M 225.080837,53.871605A0.414815,0.414815 0 0 1 225.910467,53.871605L225.910467,55.807407A0.414815,0.414815 0 0 1 225.080837,55.807407Z" fill="rgb(30%,30%,30%)" /><rect x="225.08083735909824" y="54.79111111111111" width="0.8296296296296296" height="0.09679012345679011" stroke="none" stroke-width="1" fill="white" /></g><g><path d="M 20.280837,67.575309A0.414815,0.414815 0 0 1 21.110467,67.575309L21.110467,69.511111A0.414815,0.414815 0 0 1 20.280837,69.511111Z" fill="rgb(30%,30%,30%)" /><rect x="20.28083735909823" y="68.49481481481482" width="0.8296296296296296" height="0.09679012345679011" stroke="none" stroke-width="1" fill="white" /></g><g><path d="M 29.185185,62.019753A0.414815,0.414815 0 0 1 30.014815,62.019753L30.014815,63.955556A0.414815,0.414815 0 0 1 29.185185,63.955556Z" fill="rgb(30%,30%,30%)" /><rect x="29.185185185185187" y="62.939259259259245" width="0.8296296296296296" height="0.09679012345679011" stroke="none" stroke-width="1" fill="white" /></g><g><path d="M 38.089533,66.834568A0.414815,0.414815 0 0 1 38.919163,66.834568L38.919163,68.770370A0.414815,0.414815 0 0 1 38.089533,68.770370Z" fill="rgb(30%,30%,30%)" /><rect x="38.08953301127214" y="67.75407407407407" width="0.8296296296296296" height="0.09679012345679011" stroke="none" stroke-width="1" fill="white" /></g><g><path d="M 46.993881,68.192593A0.414815,0.414815 0 0 1 47.823510,68.192593L47.823510,70.128395A0.414815,0.414815 0 0 1 46.993881,70.128395Z" fill="rgb(30%,30%,30%)" /><rect x="46.9938808373591" y="69.1120987654321" width="0.8296296296296296" height="0.09679012345679011" stroke="none" stroke-width="1" fill="white" /></g><g><path d="M 55.898229,62.637037A0.414815,0.414815 0 0 1 56.727858,62.637037L56.727858,64.572840A0.414815,0.414815 0 0 1 55.898229,64.572840Z" fill="rgb(30%,30%,30%)" /><rect x="55.898228663446055" y="63.55654320987654" width="0.8296296296296296" height="0.09679012345679011" stroke="none" stroke-width="1" fill="white" /></g><g><path d="M 64.802576,63.995062A0.414815,0.414815 0 0 1 65.632206,63.995062L65.632206,65.930864A0.414815,0.414815 0 0 1 64.802576,65.930864Z" fill="rgb(30%,30%,30%)" /><rect x="64.80257648953301" y="64.91456790123456" width="0.8296296296296296" height="0.09679012345679011" stroke="none" stroke-width="1" fill="white" /></g><g><path d="M 73.706924,58.439506A0.414815,0.414815 0 0 1 74.536554,58.439506L74.536554,60.375309A0.414815,0.414815 0 0 1 73.706924,60.375309Z" fill="rgb(30%,30%,30%)" /><rect x="73.70692431561996" y="59.359012345679005" width="0.8296296296296296" height="0.09679012345679011" stroke="none" stroke-width="1" fill="white" /></g><g><path d="M 82.611272,63.254321A0.414815,0.414815 0 0 1 83.440902,63.254321L83.440902,65.190123A0.414815,0.414815 0 0 1 82.611272,65.190123Z" fill="rgb(30%,30%,30%)" /><rect x="82.61127214170692" y="64.17382716049383" width="0.8296296296296296" height="0.09679012345679011" stroke="none" stroke-width="1" fill="white" /></g><g><path d="M 91.515620,68.069136A0.414815,0.414815 0 0 1 92.345250,68.069136L92.345250,70.004938A0.414815,0.414815 0 0 1 91.515620,70.004938Z" fill="rgb(30%,30%,30%)" /><rect x="91.51561996779388" y="68.98864197530864" width="0.8296296296296296" height="0.09679012345679011" stroke="none" stroke-width="1" fill="white" /></g><g><path d="M 100.419968,62.513580A0.414815,0.414815 0 0 1 101.249597,62.513580L101.249597,64.449383A0.414815,0.414815 0 0 1 100.419968,64.449383Z" fill="rgb(30%,30%,30%)" /><rect x="100.41996779388084" y="63.43308641975308" width="0.8296296296296296" height="0.09679012345679011" stroke="none" stroke-width="1" fill="white" /></g><g><path d="M 109.324316,67.328395A0.414815,0.414815 0 0 1 110.153945,67.328395L110.153945,69.264198A0.414815,0.414815 0 0 1 109.324316,69.264198Z" fill="rgb(30%,30%,30%)" /><rect x="109.32431561996779" y="68.24790123456789" width="0.8296296296296296" height="0.09679012345679011" stroke="none" stroke-width="1" fill="white" /></g><g><path d="M 118.228663,61.772840A0.414815,0.414815 0 0 1 119.058293,61.772840L119.058293,63.708642A0.414815,0.414815 0 0 1 118.228663,63.708642Z" fill="rgb(30%,30%,30%)" /><rect x="118.22866344605474" y="62.692345679012334" width="0.8296296296296296" height="0.09679012345679011" stroke="none" stroke-width="1" fill="white" /></g><g><path d="M 127.133011,56.217284A0.414815,0.414815 0 0 1 127.962641,56.217284L127.962641,58.153086A0.414815,0.414815 0 0 1 127.133011,58.153086Z" fill="rgb(30%,30%,30%)" /><rect x="127.1330112721417" y="57.13679012345679" width="0.8296296296296296" height="0.09679012345679011" stroke="none" stroke-width="1" fill="white" /></g><g><path d="M 136.037359,57.575309A0.414815,0.414815 0 0 1 136.866989,57.575309L136.866989,59.511111A0.414815,0.414815 0 0 1 136.037359,59.511111Z" fill="rgb(30%,30%,30%)" /><rect x="136.03735909822865" y="58.4948148148148" width="0.8296296296296296" height="0.09679012345679011" stroke="none" stroke-width="1" fill="white" /></g><g><path d="M 144.941707,62.390123A0.414815,0.414815 0 0 1 145.771337,62.390123L145.771337,64.325926A0.414815,0.414815 0 0 1 144.941707,64.325926Z" fill="rgb(30%,30%,30%)" /><rect x="144.9417069243156" y="63.309629629629626" width="0.8296296296296296" height="0.09679012345679011" stroke="none" stroke-width="1" fill="white" /></g><g><path d="M 153.846055,63.748148A0.414815,0.414815 0 0 1 154.675684,63.748148L154.675684,65.683951A0.414815,0.414815 0 0 1 153.846055,65.683951Z" fill="rgb(30%,30%,30%)" /><rect x="153.84605475040257" y="64.66765432098765" width="0.8296296296296296" height="0.09679012345679011" stroke="none" stroke-width="1" fill="white" /></g><g><path d="M 162.750403,58.192593A0.414815,0.414815 0 0 1 163.580032,58.192593L163.580032,60.128395A0.414815,0.414815 0 0 1 162.750403,60.128395Z" fill="rgb(30%,30%,30%)" /><rect x="162.75040257648953" y="59.112098765432094" width="0.8296296296296296" height="0.09679012345679011" stroke="none" stroke-width="1" fill="white" /></g><g><path d="M 171.654750,63.007407A0.414815,0.414815 0 0 1 172.484380,63.007407L172.484380,64.943210A0.414815,0.414815 0 0 1 171.654750,64.943210Z" fill="rgb(30%,30%,30%)" /><rect x="171.6547504025765" y="63.926913580246904" width="0.8296296296296296" height="0.09679012345679011" stroke="none" stroke-width="1" fill="white" /></g><g><path d="M 180.559098,57.451852A0.414815,0.414815 0 0 1 181.388728,57.451852L181.388728,59.387654A0.414815,0.414815 0 0 1 180.559098,59.387654Z" fill="rgb(30%,30%,30%)" /><rect x="180.55909822866346" y="58.37135802469135" width="0.8296296296296296" height="0.09679012345679011" stroke="none" stroke-width="1" fill="white" /></g><g><path d="M 189.463446,58.809877A0.414815,0.414815 0 0 1 190.293076,58.809877L190.293076,60.745679A0.414815,0.414815 0 0 1 189.463446,60.745679Z" fill="rgb(30%,30%,30%)" /><rect x="189.46344605475042" y="59.72938271604937" width="0.8296296296296296" height="0.09679012345679011" stroke="none" stroke-width="1" fill="white" /></g><g><path d="M 198.367794,60.167901A0.414815,0.414815 0 0 1 199.197424,60.167901L199.197424,62.103704A0.414815,0.414815 0 0 1 198.367794,62.103704Z" fill="rgb(30%,30%,30%)" /><rect x="198.36779388083738" y="61.0874074074074" width="0.8296296296296296" height="0.09679012345679011" stroke="none" stroke-width="1" fill="white" /></g><g><path d="M 207.272142,54.612346A0.414815,0.414815 0 0 1 208.101771,54.612346L208.101771,56.548148A0.414815,0.414815 0 0 1 207.272142,56.548148Z" fill="rgb(30%,30%,30%)" /><rect x="207.27214170692434" y="55.531851851851854" width="0.8296296296296296" height="0.09679012345679011" stroke="none" stroke-width="1" fill="white" /></g><g><path d="M 216.176490,49.056790A0.414815,0.414815 0 0 1 217.006119,49.056790L217.006119,50.992593A0.414815,0.414815 0 0 1 216.176490,50.992593Z" fill="rgb(30%,30%,30%)" /><rect x="216.17648953301128" y="49.97629629629628" width="0.8296296296296296" height="0.09679012345679011" stroke="none" stroke-width="1" fill="white" /></g><g><path d="M 225.080837,53.871605A0.414815,0.414815 0 0 1 225.910467,53.871605L225.910467,55.807407A0.414815,0.414815 0 0 1 225.080837,55.807407Z" fill="rgb(30%,30%,30%)" /><rect x="225.08083735909824" y="54.79111111111111" width="0.8296296296296296" height="0.09679012345679011" stroke="none" stroke-width="1" fill="white" /></g><g><path d="M 20.280837,67.575309A0.414815,0.414815 0 0 1 21.110467,67.575309L21.110467,69.511111A0.414815,0.414815 0 0 1 20.280837,69.511111Z" fill="rgb(30%,30%,30%)" /><rect x="20.28083735909823" y="68.49481481481482" width="0.8296296296296296" height="0.09679012345679011" stroke="none" stroke-width="1" fill="white" /></g><g><path d="M 29.185185,72.390123A0.414815,0.414815 0 0 1 30.014815,72.390123L30.014815,74.325926A0.414815,0.414815 0 0 1 29.185185,74.325926Z" fill="rgb(30%,30%,30%)" /><rect x="29.185185185185187" y="73.30962962962963" width="0.8296296296296296" height="0.09679012345679011" stroke="none" stroke-width="1" fill="white" /></g><g><path d="M 38.089533,77.204938A0.414815,0.414815 0 0 1 38.919163,77.204938L38.919163,79.140741A0.414815,0.414815 0 0 1 38.089533,79.140741Z" fill="rgb(30%,30%,30%)" /><rect x="38.08953301127214" y="78.12444444444444" width="0.8296296296296296" height="0.09679012345679011" stroke="none" stroke-width="1" fill="white" /></g><g><path d="M 46.993881,71.649383A0.414815,0.414815 0 0 1 47.823510,71.649383L47.823510,73.585185A0.414815,0.414815 0 0 1 46.993881,73.585185Z" fill="rgb(30%,30%,30%)" /><rect x="46.9938808373591" y="72.56888888888888" width="0.8296296296296296" height="0.09679012345679011" stroke="none" stroke-width="1" fill="white" /></g><g><path d="M 55.898229,73.007407A0.414815,0.414815 0 0 1 56.727858,73.007407L56.727858,74.943210A0.414815,0.414815 0 0 1 55.898229,74.943210Z" fill="rgb(30%,30%,30%)" /><rect x="55.898228663446055" y="73.92691358024692" width="0.8296296296296296" height="0.09679012345679011" stroke="none" stroke-width="1" fill="white" /></g><g><path d="M 64.802576,67.451852A0.414815,0.414815 0 0 1 65.632206,67.451852L65.632206,69.387654A0.414815,0.414815 0 0 1 64.802576,69.387654Z" fill="rgb(30%,30%,30%)" /><rect x="64.80257648953301" y="68.37135802469135" width="0.8296296296296296" height="0.09679012345679011" stroke="none" stroke-width="1" fill="white" /></g><g><path d="M 73.706924,61.896296A0.414815,0.414815 0 0 1 74.536554,61.896296L74.536554,63.832099A0.414815,0.414815 0 0 1 73.706924,63.832099Z" fill="rgb(30%,30%,30%)" /><rect x="73.70692431561996" y="62.815802469135804" width="0.8296296296296296" height="0.09679012345679011" stroke="none" stroke-width="1" fill="white" /></g><g><path d="M 82.611272,66.711111A0.414815,0.414815 0 0 1 83.440902,66.711111L83.440902,68.646914A0.414815,0.414815 0 0 1 82.611272,68.646914Z" fill="rgb(30%,30%,30%)" /><rect x="82.61127214170692" y="67.63061728395061" width="0.8296296296296296" height="0.09679012345679011" stroke="none" stroke-width="1" fill="white" /></g><g><path d="M 91.515620,61.155556A0.414815,0.414815 0 0 1 92.345250,61.155556L92.345250,63.091358A0.414815,0.414815 0 0 1 91.515620,63.091358Z" fill="rgb(30%,30%,30%)" /><rect x="91.51561996779388" y="62.075061728395056" width="0.8296296296296296" height="0.09679012345679011" stroke="none" stroke-width="1" fill="white" /></g><g><path d="M 100.419968,55.600000A0.414815,0.414815 0 0 1 101.249597,55.600000L101.249597,57.535802A0.414815,0.414815 0 0 1 100.419968,57.535802Z" fill="rgb(30%,30%,30%)" /><rect x="100.41996779388084" y="56.5195061728395" width="0.8296296296296296" height="0.09679012345679011" stroke="none" stroke-width="1" fill="white" /></g><g><path d="M 109.324316,50.044444A0.414815,0.414815 0 0 1 110.153945,50.044444L110.153945,51.980247A0.414815,0.414815 0 0 1 109.324316,51.980247Z" fill="rgb(30%,30%,30%)" /><rect x="109.32431561996779" y="50.96395061728394" width="0.8296296296296296" height="0.09679012345679011" stroke="none" stroke-width="1" fill="white" /></g><g><path d="M 118.228663,44.488889A0.414815,0.414815 0 0 1 119.058293,44.488889L119.058293,46.424691A0.414815,0.414815 0 0 1 118.228663,46.424691Z" fill="rgb(30%,30%,30%)" /><rect x="118.22866344605474" y="45.4083950617284" width="0.8296296296296296" height="0.09679012345679011" stroke="none" stroke-width="1" fill="white" /></g><g><path d="M 127.133011,38.933333A0.414815,0.414815 0 0 1 127.962641,38.933333L127.962641,40.869136A0.414815,0.414815 0 0 1 127.133011,40.869136Z" fill="rgb(30%,30%,30%)" /><rect x="127.1330112721417" y="39.85283950617284" width="0.8296296296296296" height="0.09679012345679011" stroke="none" stroke-width="1" fill="white" /></g><g><path d="M 136.037359,43.748148A0.414815,0.414815 0 0 1 136.866989,43.748148L136.866989,45.683951A0.414815,0.414815 0 0 1 136.037359,45.683951Z" fill="rgb(30%,30%,30%)" /><rect x="136.03735909822865" y="44.66765432098765" width="0.8296296296296296" height="0.09679012345679011" stroke="none" stroke-width="1" fill="white" /></g><g><path d="M 144.941707,48.562963A0.414815,0.414815 0 0 1 145.771337,48.562963L145.771337,50.498765A0.414815,0.414815 0 0 1 144.941707,50.498765Z" fill="rgb(30%,30%,30%)" /><rect x="144.9417069243156" y="49.48246913580246" width="0.8296296296296296" height="0.09679012345679011" stroke="none" stroke-width="1" fill="white" /></g><g><path d="M 153.846055,43.007407A0.414815,0.414815 0 0 1 154.675684,43.007407L154.675684,44.943210A0.414815,0.414815 0 0 1 153.846055,44.943210Z" fill="rgb(30%,30%,30%)" /><rect x="153.84605475040257" y="43.926913580246904" width="0.8296296296296296" height="0.09679012345679011" stroke="none" stroke-width="1" fill="white" /></g><g><path d="M 162.750403,37.451852A0.414815,0.414815 0 0 1 163.580032,37.451852L163.580032,39.387654A0.414815,0.414815 0 0 1 162.750403,39.387654Z" fill="rgb(30%,30%,30%)" /><rect x="162.75040257648953" y="38.37135802469135" width="0.8296296296296296" height="0.09679012345679011" stroke="none" stroke-width="1" fill="white" /></g><g><path d="M 171.654750,38.809877A0.414815,0.414815 0 0 1 172.484380,38.809877L172.484380,40.745679A0.414815,0.414815 0 0 1 171.654750,40.745679Z" fill="rgb(30%,30%,30%)" /><rect x="171.6547504025765" y="39.72938271604937" width="0.8296296296296296" height="0.09679012345679011" stroke="none" stroke-width="1" fill="white" /></g><g><path d="M 180.559098,43.624691A0.414815,0.414815 0 0 1 181.388728,43.624691L181.388728,45.560494A0.414815,0.414815 0 0 1 180.559098,45.560494Z" fill="rgb(30%,30%,30%)" /><rect x="180.55909822866346" y="44.54419753086418" width="0.8296296296296296" height="0.09679012345679011" stroke="none" stroke-width="1" fill="white" /></g><g><path d="M 189.463446,38.069136A0.414815,0.414815 0 0 1 190.293076,38.069136L190.293076,40.004938A0.414815,0.414815 0 0 1 189.463446,40.004938Z" fill="rgb(30%,30%,30%)" /><rect x="189.46344605475042" y="38.988641975308624" width="0.8296296296296296" height="0.09679012345679011" stroke="none" stroke-width="1" fill="white" /></g><g><path d="M 198.367794,32.513580A0.414815,0.414815 0 0 1 199.197424,32.513580L199.197424,34.449383A0.414815,0.414815 0 0 1 198.367794,34.449383Z" fill="rgb(30%,30%,30%)" /><rect x="198.36779388083738" y="33.43308641975307" width="0.8296296296296296" height="0.09679012345679011" stroke="none" stroke-width="1" fill="white" /></g><g><path d="M 207.272142,26.958025A0.414815,0.414815 0 0 1 208.101771,26.958025L208.101771,28.893827A0.414815,0.414815 0 0 1 207.272142,28.893827Z" fill="rgb(30%,30%,30%)" /><rect x="207.27214170692434" y="27.877530864197528" width="0.8296296296296296" height="0.09679012345679011" stroke="none" stroke-width="1" fill="white" /></g><g><path d="M 216.176490,28.316049A0.414815,0.414815 0 0 1 217.006119,28.316049L217.006119,30.251852A0.414815,0.414815 0 0 1 216.176490,30.251852Z" fill="rgb(30%,30%,30%)" /><rect x="216.17648953301128" y="29.235555555555553" width="0.8296296296296296" height="0.09679012345679011" stroke="none" stroke-width="1" fill="white" /></g><g><path d="M 225.080837,22.760494A0.414815,0.414815 0 0 1 225.910467,22.760494L225.910467,24.696296A0.414815,0.414815 0 0 1 225.080837,24.696296Z" fill="rgb(30%,30%,30%)" /><rect x="225.08083735909824" y="23.679999999999996" width="0.8296296296296296" height="0.09679012345679011" stroke="none" stroke-width="1" fill="white" /></g><g><path d="M 233.985185,17.204938A0.414815,0.414815 0 0 1 234.814815,17.204938L234.814815,19.140741A0.414815,0.414815 0 0 1 233.985185,19.140741Z" fill="rgb(30%,30%,30%)" /><rect x="233.9851851851852" y="18.124444444444453" width="0.8296296296296296" height="0.09679012345679011" stroke="none" stroke-width="1" fill="white" /></g><g><path d="M 20.280837,67.575309A0.414815,0.414815 0 0 1 21.110467,67.575309L21.110467,69.511111A0.414815,0.414815 0 0 1 20.280837,69.511111Z" fill="rgb(30%,30%,30%)" /><rect x="20.28083735909823" y="68.49481481481482" width="0.8296296296296296" height="0.09679012345679011" stroke="none" stroke-width="1" fill="white" /></g><g><path d="M 29.185185,62.019753A0.414815,0.414815 0 0 1 30.014815,62.019753L30.014815,63.955556A0.414815,0.414815 0 0 1 29.185185,63.955556Z" fill="rgb(30%,30%,30%)" /><rect x="29.185185185185187" y="62.939259259259245" width="0.8296296296296296" height="0.09679012345679011" stroke="none" stroke-width="1" fill="white" /></g><g><path d="M 38.089533,56.464198A0.414815,0.414815 0 0 1 38.919163,56.464198L38.919163,58.400000A0.414815,0.414815 0 0 1 38.089533,58.400000Z" fill="rgb(30%,30%,30%)" /><rect x="38.08953301127214" y="57.3837037037037" width="0.8296296296296296" height="0.09679012345679011" stroke="none" stroke-width="1" fill="white" /></g><g><path d="M 46.993881,61.279012A0.414815,0.414815 0 0 1 47.823510,61.279012L47.823510,63.214815A0.414815,0.414815 0 0 1 46.993881,63.214815Z" fill="rgb(30%,30%,30%)" /><rect x="46.9938808373591" y="62.19851851851851" width="0.8296296296296296" height="0.09679012345679011" stroke="none" stroke-width="1" fill="white" /></g><g><path d="M 55.898229,55.723457A0.414815,0.414815 0 0 1 56.727858,55.723457L56.727858,57.659259A0.414815,0.414815 0 0 1 55.898229,57.659259Z" fill="rgb(30%,30%,30%)" /><rect x="55.898228663446055" y="56.64296296296297" width="0.8296296296296296" height="0.09679012345679011" stroke="none" stroke-width="1" fill="white" /></g><g><path d="M 64.802576,57.081481A0.414815,0.414815 0 0 1 65.632206,57.081481L65.632206,59.017284A0.414815,0.414815 0 0 1 64.802576,59.017284Z" fill="rgb(30%,30%,30%)" /><rect x="64.80257648953301" y="58.000987654320966" width="0.8296296296296296" height="0.09679012345679011" stroke="none" stroke-width="1" fill="white" /></g><g><path d="M 73.706924,61.896296A0.414815,0.414815 0 0 1 74.536554,61.896296L74.536554,63.832099A0.414815,0.414815 0 0 1 73.706924,63.832099Z" fill="rgb(30%,30%,30%)" /><rect x="73.70692431561996" y="62.815802469135804" width="0.8296296296296296" height="0.09679012345679011" stroke="none" stroke-width="1" fill="white" /></g><g><path d="M 82.611272,56.340741A0.414815,0.414815 0 0 1 83.440902,56.340741L83.440902,58.276543A0.414815,0.414815 0 0 1 82.611272,58.276543Z" fill="rgb(30%,30%,30%)" /><rect x="82.61127214170692" y="57.26024691358023" width="0.8296296296296296" height="0.09679012345679011" stroke="none" stroke-width="1" fill="white" /></g><g><path d="M 91.515620,57.698765A0.414815,0.414815 0 0 1 92.345250,57.698765L92.345250,59.634568A0.414815,0.414815 0 0 1 91.515620,59.634568Z" fill="rgb(30%,30%,30%)" /><rect x="91.51561996779388" y="58.61827160493826" width="0.8296296296296296" height="0.09679012345679011" stroke="none" stroke-width="1" fill="white" /></g><g><path d="M 100.419968,62.513580A0.414815,0.414815 0 0 1 101.249597,62.513580L101.249597,64.449383A0.414815,0.414815 0 0 1 100.419968,64.449383Z" fill="rgb(30%,30%,30%)" /><rect x="100.41996779388084" y="63.43308641975308" width="0.8296296296296296" height="0.09679012345679011" stroke="none" stroke-width="1" fill="white" /></g><g><path d="M 109.324316,67.328395A0.414815,0.414815 0 0 1 110.153945,67.328395L110.153945,69.264198A0.414815,0.414815 0 0 1 109.324316,69.264198Z" fill="rgb(30%,30%,30%)" /><rect x="109.32431561996779" y="68.24790123456789" width="0.8296296296296296" height="0.09679012345679011" stroke="none" stroke-width="1" fill="white" /></g><g><path d="M 118.228663,68.686420A0.414815,0.414815 0 0 1 119.058293,68.686420L119.058293,70.622222A0.414815,0.414815 0 0 1 118.228663,70.622222Z" fill="rgb(30%,30%,30%)" /><rect x="118.22866344605474" y="69.60592592592593" width="0.8296296296296296" height="0.09679012345679011" stroke="none" stroke-width="1" fill="white" /></g><g><path d="M 127.133011,73.501235A0.414815,0.414815 0 0 1 127.962641,73.501235L127.962641,75.437037A0.414815,0.414815 0 0 1 127.133011,75.437037Z" fill="rgb(30%,30%,30%)" /><rect x="127.1330112721417" y="74.42074074074074" width="0.8296296296296296" height="0.09679012345679011" stroke="none" stroke-width="1" fill="white" /></g><g><path d="M 136.037359,67.945679A0.414815,0.414815 0 0 1 136.866989,67.945679L136.866989,69.881481A0.414815,0.414815 0 0 1 136.037359,69.881481Z" fill="rgb(30%,30%,30%)" /><rect x="136.03735909822865" y="68.86518518518518" width="0.8296296296296296" height="0.09679012345679011" stroke="none" stroke-width="1" fill="white" /></g><g><path d="M 144.941707,62.390123A0.414815,0.414815 0 0 1 145.771337,62.390123L145.771337,64.325926A0.414815,0.414815 0 0 1 144.941707,64.325926Z" fill="rgb(30%,30%,30%)" /><rect x="144.9417069243156" y="63.309629629629626" width="0.8296296296296296" height="0.09679012345679011" stroke="none" stroke-width="1" fill="white" /></g><g><path d="M 153.846055,63.748148A0.414815,0.414815 0 0 1 154.675684,63.748148L154.675684,65.683951A0.414815,0.414815 0 0 1 153.846055,65.683951Z" fill="rgb(30%,30%,30%)" /><rect x="153.84605475040257" y="64.66765432098765" width="0.8296296296296296" height="0.09679012345679011" stroke="none" stroke-width="1" fill="white" /></g><g><path d="M 162.750403,65.106173A0.414815,0.414815 0 0 1 163.580032,65.106173L163.580032,67.041975A0.414815,0.414815 0 0 1 162.750403,67.041975Z" fill="rgb(30%,30%,30%)" /><rect x="162.75040257648953" y="66.02567901234568" width="0.8296296296296296" height="0.09679012345679011" stroke="none" stroke-width="1" fill="white" /></g><g><path d="M 171.654750,59.550617A0.414815,0.414815 0 0 1 172.484380,59.550617L172.484380,61.486420A0.414815,0.414815 0 0 1 171.654750,61.486420Z" fill="rgb(30%,30%,30%)" /><rect x="171.6547504025765" y="60.47012345679012" width="0.8296296296296296" height="0.09679012345679011" stroke="none" stroke-width="1" fill="white" /></g><g><path d="M 180.559098,53.995062A0.414815,0.414815 0 0 1 181.388728,53.995062L181.388728,55.930864A0.414815,0.414815 0 0 1 180.559098,55.930864Z" fill="rgb(30%,30%,30%)" /><rect x="180.55909822866346" y="54.91456790123455" width="0.8296296296296296" height="0.09679012345679011" stroke="none" stroke-width="1" fill="white" /></g><g><path d="M 189.463446,48.439506A0.414815,0.414815 0 0 1 190.293076,48.439506L190.293076,50.375309A0.414815,0.414815 0 0 1 189.463446,50.375309Z" fill="rgb(30%,30%,30%)" /><rect x="189.46344605475042" y="49.35901234567899" width="0.8296296296296296" height="0.09679012345679011" stroke="none" stroke-width="1" fill="white" /></g><g><path d="M 198.367794,42.883951A0.414815,0.414815 0 0 1 199.197424,42.883951L199.197424,44.819753A0.414815,0.414815 0 0 1 198.367794,44.819753Z" fill="rgb(30%,30%,30%)" /><rect x="198.36779388083738" y="43.80345679012345" width="0.8296296296296296" height="0.09679012345679011" stroke="none" stroke-width="1" fill="white" /></g><g><path d="M 207.272142,47.698765A0.414815,0.414815 0 0 1 208.101771,47.698765L208.101771,49.634568A0.414815,0.414815 0 0 1 207.272142,49.634568Z" fill="rgb(30%,30%,30%)" /><rect x="207.27214170692434" y="48.61827160493826" width="0.8296296296296296" height="0.09679012345679011" stroke="none" stroke-width="1" fill="white" /></g><g><path d="M 216.176490,52.513580A0.414815,0.414815 0 0 1 217.006119,52.513580L217.006119,54.449383A0.414815,0.414815 0 0 1 216.176490,54.449383Z" fill="rgb(30%,30%,30%)" /><rect x="216.17648953301128" y="53.43308641975308" width="0.8296296296296296" height="0.09679012345679011" stroke="none" stroke-width="1" fill="white" /></g><g><path d="M 225.080837,53.871605A0.414815,0.414815 0 0 1 225.910467,53.871605L225.910467,55.807407A0.414815,0.414815 0 0 1 225.080837,55.807407Z" fill="rgb(30%,30%,30%)" /><rect x="225.08083735909824" y="54.79111111111111" width="0.8296296296296296" height="0.09679012345679011" stroke="none" stroke-width="1" fill="white" /></g><image x="129.52347826086958" y="97.67901234567903" width="224" height="13.827160493827162" xlink:href="./../outputs/logos/nsl/CGY.svg" href="./../outputs/logos/nsl/CGY.svg" /><image x="120.61913043478262" y="117.06172839506172" width="224" height="13.827160493827162" xlink:href="./../outputs/logos/nsl/HFX.svg" href="./../outputs/logos/nsl/HFX.svg" /><image x="120.61913043478262" y="47.925925925925924" width="224" height="13.827160493827162" xlink:href="./../outputs/logos/nsl/MTL.svg" href="./../outputs/logos/nsl/MTL.svg" /><image x="127.7426086956522" y="47.925925925925924" width="224" height="13.827160493827162" xlink:href="./../outputs/logos/nsl/OTT.svg" href="./../outputs/logos/nsl/OTT.svg" /><image x="129.52347826086958" y="11.259259259259267" width="224" height="13.827160493827162" xlink:href="./../outputs/logos/nsl/TOR.svg" href="./../outputs/logos/nsl/TOR.svg" /><image x="134.86608695652174" y="47.925925925925924" width="224" height="13.827160493827162" xlink:href="./../outputs/logos/nsl/VAN.svg" href="./../outputs/logos/nsl/VAN.svg" /></g><text x="254.5" y="142" stroke="none" fill="black" font-size="4" font-family="auto" text-anchor="end" dx="0" dy="0" transform="none" id="">Graphic by Vivian (vbbcla)</text><text x="1.5" y="142" stroke="none" fill="black" font-size="3" font-family="auto" text-anchor="start" dx="0" dy="0" transform="none" id="">Average points per match: 1.39</text><text x="1.5" y="138" stroke="none" fill="black" font-size="3" font-family="auto" text-anchor="start" dx="0" dy="0" transform="none" id="">Tiebreakers not visualized</text></svg>