<svg width="256" height="144" xmlns="http://www.w3.org/2000/svg" xmlns:xlink="http://www.w3.org/1999/xlink" version="2.0"><style>
* {
font-family: "Merriweather Sans";
font-weight: 300;
}
#title {
font-weight: normal
}
</style><rect x="0" y="0" width="256" height="144" stroke="none" stroke-width="1" fill="#e6f2e7" /><text x="128" y="12" stroke="none" fill="black" font-size="8" font-family="auto" text-anchor="middle" dx="0" dy="0" transform="none" id="title">WSL Graphical Standings &#8211; Matchweek 5</text><text x="8" y="72" stroke="none" fill="black" font-size="6" font-family="auto" text-anchor="middle" dx="0" dy="0" transform="rotate(-90,8,72)" id="">Points above average</text><text x="126.0" y="140" stroke="none" fill="black" font-size="6" font-family="auto" text-anchor="middle" dx="0" dy="0" transform="none" id="">Match</text><g><g><line x1="21.47258744728355" x2="21.47258744728355" y1="128.0" y2="16.0" stroke="rgb(90%,90%,90%)" stroke-width="0.5" stroke-linecap="square" /><line x1="63.28355246837013" x2="63.28355246837013" y1="128.0" y2="16.0" stroke="rgb(90%,90%,90%)" stroke-width="0.5" stroke-linecap="square" /><line x1="105.0945174894567" x2="105.0945174894567" y1="128.0" y2="16.0" stroke="rgb(90%,90%,90%)" stroke-width="0.5" stroke-linecap="square" /><line x1="146.9054825105433" x2="146.9054825105433" y1="128.0" y2="16.0" stroke="rgb(90%,90%,90%)" stroke-width="0.5" stroke-linecap="square" /><line x1="188.71644753162985" x2="188.71644753162985" y1="128.0" y2="16.0" stroke="rgb(90%,90%,90%)" stroke-width="0.5" stroke-linecap="square" /><line x1="230.52741255271644" x2="230.52741255271644" y1="128.0" y2="16.0" stroke="rgb(90%,90%,90%)" stroke-width="0.5" stroke-linecap="square" /><line x1="20.0" x2="232.0" y1="126.54545454545455" y2="126.54545454545455" stroke="rgb(90%,90%,90%)" stroke-width="0.5" stroke-linecap="square" /><line x1="20.0" x2="232.0" y1="119.27272727272728" y2="119.27272727272728" stroke="rgb(90%,90%,90%)" stroke-width="0.5" stroke-linecap="square" /><line x1="20.0" x2="232.0" y1="112.0" y2="112.0" stroke="rgb(90%,90%,90%)" stroke-width="0.5" stroke-linecap="square" /><line x1="20.0" x2="232.0" y1="104.72727272727273" y2="104.72727272727273" stroke="rgb(90%,90%,90%)" stroke-width="0.5" stroke-linecap="square" /><line x1="20.0" x2="232.0" y1="97.45454545454545" y2="97.45454545454545" stroke="rgb(90%,90%,90%)" stroke-width="0.5" stroke-linecap="square" /><line x1="20.0" x2="232.0" y1="90.18181818181819" y2="90.18181818181819" stroke="rgb(90%,90%,90%)" stroke-width="0.5" stroke-linecap="square" /><line x1="20.0" x2="232.0" y1="82.9090909090909" y2="82.9090909090909" stroke="rgb(90%,90%,90%)" stroke-width="0.5" stroke-linecap="square" /><line x1="20.0" x2="232.0" y1="75.63636363636364" y2="75.63636363636364" stroke="rgb(90%,90%,90%)" stroke-width="0.5" stroke-linecap="square" /><line x1="20.0" x2="232.0" y1="68.36363636363637" y2="68.36363636363637" stroke="rgb(90%,90%,90%)" stroke-width="0.5" stroke-linecap="square" /><line x1="20.0" x2="232.0" y1="61.09090909090909" y2="61.09090909090909" stroke="rgb(90%,90%,90%)" stroke-width="0.5" stroke-linecap="square" /><line x1="20.0" x2="232.0" y1="53.81818181818181" y2="53.81818181818181" stroke="rgb(90%,90%,90%)" stroke-width="0.5" stroke-linecap="square" /><line x1="20.0" x2="232.0" y1="46.54545454545455" y2="46.54545454545455" stroke="rgb(90%,90%,90%)" stroke-width="0.5" stroke-linecap="square" /><line x1="20.0" x2="232.0" y1="39.272727272727266" y2="39.272727272727266" stroke="rgb(90%,90%,90%)" stroke-width="0.5" stroke-linecap="square" /><line x1="20.0" x2="232.0" y1="32.0" y2="32.0" stroke="rgb(90%,90%,90%)" stroke-width="0.5" stroke-linecap="square" /><line x1="20.0" x2="232.0" y1="24.72727272727272" y2="24.72727272727272" stroke="rgb(90%,90%,90%)" stroke-width="0.5" stroke-linecap="square" /><line x1="20.0" x2="232.0" y1="17.454545454545453" y2="17.454545454545453" stroke="rgb(90%,90%,90%)" stroke-width="0.5" stroke-linecap="square" /></g><g><line x1="21.47258744728355" x2="21.47258744728355" y1="128.0" y2="16.0" stroke="rgb(80%,80%,80%)" stroke-width="0.5" stroke-linecap="square" /><line x1="63.28355246837013" x2="63.28355246837013" y1="128.0" y2="16.0" stroke="rgb(80%,80%,80%)" stroke-width="0.5" stroke-linecap="square" /><line x1="105.0945174894567" x2="105.0945174894567" y1="128.0" y2="16.0" stroke="rgb(80%,80%,80%)" stroke-width="0.5" stroke-linecap="square" /><line x1="146.9054825105433" x2="146.9054825105433" y1="128.0" y2="16.0" stroke="rgb(80%,80%,80%)" stroke-width="0.5" stroke-linecap="square" /><line x1="188.71644753162985" x2="188.71644753162985" y1="128.0" y2="16.0" stroke="rgb(80%,80%,80%)" stroke-width="0.5" stroke-linecap="square" /><line x1="230.52741255271644" x2="230.52741255271644" y1="128.0" y2="16.0" stroke="rgb(80%,80%,80%)" stroke-width="0.5" stroke-linecap="square" /><line x1="20.0" x2="232.0" y1="126.54545454545455" y2="126.54545454545455" stroke="rgb(80%,80%,80%)" stroke-width="0.5" stroke-linecap="square" /><line x1="20.0" x2="232.0" y1="119.27272727272728" y2="119.27272727272728" stroke="rgb(80%,80%,80%)" stroke-width="0.5" stroke-linecap="square" /><line x1="20.0" x2="232.0" y1="112.0" y2="112.0" stroke="rgb(80%,80%,80%)" stroke-width="0.5" stroke-linecap="square" /><line x1="20.0" x2="232.0" y1="104.72727272727273" y2="104.72727272727273" stroke="rgb(80%,80%,80%)" stroke-width="0.5" stroke-linecap="square" /><line x1="20.0" x2="232.0" y1="97.45454545454545" y2="97.45454545454545" stroke="rgb(80%,80%,80%)" stroke-width="0.5" stroke-linecap="square" /><line x1="20.0" x2="232.0" y1="90.18181818181819" y2="90.18181818181819" stroke="rgb(80%,80%,80%)" stroke-width="0.5" stroke-linecap="square" /><line x1="20.0" x2="232.0" y1="82.9090909090909" y2="82.9090909090909" stroke="rgb(80%,80%,80%)" stroke-width="0.5" stroke-linecap="square" /><line x1="20.0" x2="232.0" y1="75.63636363636364" y2="75.63636363636364" stroke="rgb(80%,80%,80%)" stroke-width="0.5" stroke-linecap="square" /><line x1="20.0" x2="232.0" y1="68.36363636363637" y2="68.36363636363637" stroke="rgb(80%,80%,80%)" stroke-width="0.5" stroke-linecap="square" /><line x1="20.0" x2="232.0" y1="61.09090909090909" y2="61.09090909090909" stroke="rgb(80%,80%,80%)" stroke-width="0.5" stroke-linecap="square" /><line x1="20.0" x2="232.0" y1="53.81818181818181" y2="53.81818181818181" stroke="rgb(80%,80%,80%)" stroke-width="0.5" stroke-linecap="square" /><line x1="20.0" x2="232.0" y1="46.54545454545455" y2="46.54545454545455" stroke="rgb(80%,80%,80%)" stroke-width="0.5" stroke-linecap="square" /><line x1="20.0" x2="232.0" y1="39.272727272727266" y2="39.272727272727266" stroke="rgb(80%,80%,80%)" stroke-width="0.5" stroke-linecap="square" /><line x1="20.0" x2="232.0" y1="32.0" y2="32.0" stroke="rgb(80%,80%,80%)" stroke-width="0.5" stroke-linecap="square" /><line x1="20.0" x2="232.0" y1="24.72727272727272" y2="24.72727272727272" stroke="rgb(80%,80%,80%)" stroke-width="0.5" stroke-linecap="square" /><line x1="20.0" x2="232.0" y1="17.454545454545453" y2="17.454545454545453" stroke="rgb(80%,80%,80%)" stroke-width="0.5" stroke-linecap="square" /></g><g><line x1="21.47258744728355" x2="21.47258744728355" y1="128.0" y2="16.0" stroke="rgb(50%,50%,50%)" stroke-width="0.5" stroke-linecap="square" /><line x1="20.0" x2="232.0" y1="68.36363636363637" y2="68.36363636363637" stroke="rgb(50%,50%,50%)" stroke-width="0.5" stroke-linecap="square" /></g><g><text x="21.47258744728355" y="128.0" stroke="none" fill="rgb(30%,30%,30%)" font-size="5" font-family="auto" text-anchor="middle" dx="0" dy="1em" transform="none" id="">0</text><text x="63.28355246837013" y="128.0" stroke="none" fill="rgb(30%,30%,30%)" font-size="5" font-family="auto" text-anchor="middle" dx="0" dy="1em" transform="none" id="">1</text><text x="105.0945174894567" y="128.0" stroke="none" fill="rgb(30%,30%,30%)" font-size="5" font-family="auto" text-anchor="middle" dx="0" dy="1em" transform="none" id="">2</text><text x="146.9054825105433" y="128.0" stroke="none" fill="rgb(30%,30%,30%)" font-size="5" font-family="auto" text-anchor="middle" dx="0" dy="1em" transform="none" id="">3</text><text x="188.71644753162985" y="128.0" stroke="none" fill="rgb(30%,30%,30%)" font-size="5" font-family="auto" text-anchor="middle" dx="0" dy="1em" transform="none" id="">4</text><text x="230.52741255271644" y="128.0" stroke="none" fill="rgb(30%,30%,30%)" font-size="5" font-family="auto" text-anchor="middle" dx="0" dy="1em" transform="none" id="">5</text><text x="19.5" y="126.54545454545455" stroke="none" fill="rgb(30%,30%,30%)" font-size="5" font-family="auto" text-anchor="end" dx="0" dy="0.5ex" transform="none" id="">-8</text><text x="19.5" y="119.27272727272728" stroke="none" fill="rgb(30%,30%,30%)" font-size="5" font-family="auto" text-anchor="end" dx="0" dy="0.5ex" transform="none" id="">-7</text><text x="19.5" y="112.0" stroke="none" fill="rgb(30%,30%,30%)" font-size="5" font-family="auto" text-anchor="end" dx="0" dy="0.5ex" transform="none" id="">-6</text><text x="19.5" y="104.72727272727273" stroke="none" fill="rgb(30%,30%,30%)" font-size="5" font-family="auto" text-anchor="end" dx="0" dy="0.5ex" transform="none" id="">-5</text><text x="19.5" y="97.45454545454545" stroke="none" fill="rgb(30%,30%,30%)" font-size="5" font-family="auto" text-anchor="end" dx="0" dy="0.5ex" transform="none" id="">-4</text><text x="19.5" y="90.18181818181819" stroke="none" fill="rgb(30%,30%,30%)" font-size="5" font-family="auto" text-anchor="end" dx="0" dy="0.5ex" transform="none" id="">-3</text><text x="19.5" y="82.9090909090909" stroke="none" fill="rgb(30%,30%,30%)" font-size="5" font-family="auto" text-anchor="end" dx="0" dy="0.5ex" transform="none" id="">-2</text><text x="19.5" y="75.63636363636364" stroke="none" fill="rgb(30%,30%,30%)" font-size="5" font-family="auto" text-anchor="end" dx="0" dy="0.5ex" transform="none" id="">-1</text><text x="19.5" y="68.36363636363637" stroke="none" fill="rgb(30%,30%,30%)" font-size="5" font-family="auto" text-anchor="end" dx="0" dy="0.5ex" transform="none" id="">0</text><text x="19.5" y="61.09090909090909" stroke="none" fill="rgb(30%,30%,30%)" font-size="5" font-family="auto" text-anchor="end" dx="0" dy="0.5ex" transform="none" id="">1</text><text x="19.5" y="53.81818181818181" stroke="none" fill="rgb(30%,30%,30%)" font-size="5" font-family="auto" text-anchor="end" dx="0" dy="0.5ex" transform="none" id="">2</text><text x="19.5" y="46.54545454545455" stroke="none" fill="rgb(30%,30%,30%)" font-size="5" font-family="auto" text-anchor="end" dx="0" dy="0.5ex" transform="none" id="">3</text><text x="19.5" y="39.272727272727266" stroke="none" fill="rgb(30%,30%,30%)" font-size="5" font-family="auto" text-anchor="end" dx="0" dy="0.5ex" transform="none" id="">4</text><text x="19.5" y="32.0" stroke="none" fill="rgb(30%,30%,30%)" font-size="5" font-family="auto" text-anchor="end" dx="0" dy="0.5ex" transform="none" id="">5</text><text x="19.5" y="24.72727272727272" stroke="none" fill="rgb(30%,30%,30%)" font-size="5" font-family="auto" text-anchor="end" dx="0" dy="0.5ex" transform="none" id="">6</text><text x="19.5" y="17.454545454545453" stroke="none" fill="rgb(30%,30%,30%)" font-size="5" font-family="auto" text-anchor="end" dx="0" dy="0.5ex" transform="none" id="">7</text></g><polygon points="21.47258744728355,66.18181818181819 63.28355246837013,54.64576802507837 63.28355246837013,55.3730407523511 21.47258744728355,66.9090909090909" stroke="none" stroke-width="1" fill="#CA1149" /><polygon points="63.28355246837013,54.64576802507837 105.0945174894567,43.10971786833855 105.0945174894567,44.0283781554199 63.28355246837013,55.564428312159706" stroke="none" stroke-width="1" fill="#CA1149" /><polygon points="105.0945174894567,43.10971786833855 146.9054825105433,46.11912225705329 146.9054825105433,48.05851619644723 105.0945174894567,45.04911180773249" stroke="none" stroke-width="1" fill="#CA1149" /><polygon points="146.9054825105433,46.11912225705329 188.71644753162985,49.128526645768005 188.71644753162985,53.49216300940439 146.9054825105433,50.48275862068965" stroke="none" stroke-width="1" fill="#CA1149" /><polygon points="188.71644753162985,49.128526645768005 230.52741255271644,59.410658307210014 230.52741255271644,63.7742946708464 188.71644753162985,53.49216300940439" stroke="none" stroke-width="1" fill="#CA1149" /><polygon points="21.47258744728355,66.18181818181819 63.28355246837013,69.19122257053291 63.28355246837013,71.13061650992685 21.47258744728355,68.12121212121212" stroke="none" stroke-width="1" fill="#8A2A56" /><polygon points="63.28355246837013,69.19122257053291 105.0945174894567,79.47335423197492 105.0945174894567,81.41274817136886 63.28355246837013,71.13061650992685" stroke="none" stroke-width="1" fill="#8A2A56" /><polygon points="105.0945174894567,79.47335423197492 146.9054825105433,82.48275862068965 146.9054825105433,86.84639498432603 105.0945174894567,83.83699059561128" stroke="none" stroke-width="1" fill="#8A2A56" /><polygon points="146.9054825105433,82.48275862068965 188.71644753162985,70.94670846394985 188.71644753162985,75.3103448275862 146.9054825105433,86.84639498432603" stroke="none" stroke-width="1" fill="#8A2A56" /><polygon points="21.47258744728355,68.60606060606061 63.28355246837013,71.61546499477535 63.28355246837013,73.55485893416927 21.47258744728355,70.54545454545455" stroke="none" stroke-width="1" fill="#FFAB01" /><polygon points="63.28355246837013,71.61546499477535 105.0945174894567,81.89759665621735 105.0945174894567,83.83699059561128 63.28355246837013,73.55485893416927" stroke="none" stroke-width="1" fill="#FFAB01" /><polygon points="105.0945174894567,79.47335423197492 146.9054825105433,67.9373040752351 146.9054825105433,72.30094043887146 105.0945174894567,83.83699059561128" stroke="none" stroke-width="1" fill="#FFAB01" /><polygon points="146.9054825105433,67.9373040752351 188.71644753162985,56.401253918495286 188.71644753162985,60.76489028213166 146.9054825105433,72.30094043887146" stroke="none" stroke-width="1" fill="#FFAB01" /><polygon points="188.71644753162985,56.401253918495286 230.52741255271644,66.6833855799373 230.52741255271644,71.04702194357367 188.71644753162985,60.76489028213166" stroke="none" stroke-width="1" fill="#FFAB01" /><polygon points="21.47258744728355,67.0909090909091 63.28355246837013,55.55485893416926 63.28355246837013,56.28213166144201 21.47258744728355,67.81818181818181" stroke="none" stroke-width="1" fill="#00019E" /><polygon points="63.28355246837013,55.79409338393005 105.0945174894567,44.25804322719023 105.0945174894567,45.176703514271566 63.28355246837013,56.712753671011384" stroke="none" stroke-width="1" fill="#00019E" /><polygon points="105.0945174894567,43.10971786833855 146.9054825105433,31.57366771159876 146.9054825105433,35.93730407523509 105.0945174894567,47.47335423197492" stroke="none" stroke-width="1" fill="#00019E" /><polygon points="146.9054825105433,31.57366771159876 188.71644753162985,20.037617554858926 188.71644753162985,24.4012539184953 146.9054825105433,35.93730407523509" stroke="none" stroke-width="1" fill="#00019E" /><polygon points="188.71644753162985,20.037617554858926 230.52741255271644,23.047021943573668 230.52741255271644,27.410658307210028 188.71644753162985,24.4012539184953" stroke="none" stroke-width="1" fill="#00019E" /><polygon points="21.47258744728355,67.99999999999999 63.28355246837013,56.46394984326018 63.28355246837013,57.191222570532915 21.47258744728355,68.72727272727273" stroke="none" stroke-width="1" fill="#0022F9" /><polygon points="63.28355246837013,54.64576802507837 105.0945174894567,64.92789968652036 105.0945174894567,69.29153605015675 63.28355246837013,59.00940438871474" stroke="none" stroke-width="1" fill="#0022F9" /><polygon points="105.0945174894567,64.92789968652036 146.9054825105433,75.21003134796237 146.9054825105433,77.14942528735632 105.0945174894567,66.86729362591433" stroke="none" stroke-width="1" fill="#0022F9" /><polygon points="146.9054825105433,75.21003134796237 188.71644753162985,85.49216300940438 188.71644753162985,86.73891625615764 146.9054825105433,76.45678459471563" stroke="none" stroke-width="1" fill="#0022F9" /><polygon points="188.71644753162985,85.49216300940438 230.52741255271644,88.50156739811912 230.52741255271644,90.44096133751307 188.71644753162985,87.43155694879833" stroke="none" stroke-width="1" fill="#0022F9" /><polygon points="21.47258744728355,66.18181818181819 63.28355246837013,76.4639498432602 63.28355246837013,77.19122257053291 21.47258744728355,66.9090909090909" stroke="none" stroke-width="1" fill="#234E97" /><polygon points="63.28355246837013,76.4639498432602 105.0945174894567,64.92789968652036 105.0945174894567,66.86729362591433 63.28355246837013,78.40334378265413" stroke="none" stroke-width="1" fill="#234E97" /><polygon points="105.0945174894567,67.3521421107628 146.9054825105433,77.6342737722048 146.9054825105433,79.57366771159874 105.0945174894567,69.29153605015675" stroke="none" stroke-width="1" fill="#234E97" /><polygon points="146.9054825105433,76.76847290640394 188.71644753162985,87.05060456784595 188.71644753162985,88.2973578145992 146.9054825105433,78.01522615315719" stroke="none" stroke-width="1" fill="#234E97" /><polygon points="188.71644753162985,87.91640543364682 230.52741255271644,90.92580982236154 230.52741255271644,92.86520376175548 188.71644753162985,89.85579937304075" stroke="none" stroke-width="1" fill="#234E97" /><polygon points="21.47258744728355,67.0909090909091 63.28355246837013,77.3730407523511 63.28355246837013,78.10031347962382 21.47258744728355,67.81818181818181" stroke="none" stroke-width="1" fill="#E7251B" /><polygon points="63.28355246837013,76.4639498432602 105.0945174894567,86.7460815047022 105.0945174894567,87.99283475145545 63.28355246837013,77.71070309001344" stroke="none" stroke-width="1" fill="#E7251B" /><polygon points="105.0945174894567,86.7460815047022 146.9054825105433,97.02821316614421 146.9054825105433,98.96760710553815 105.0945174894567,88.68547544409614" stroke="none" stroke-width="1" fill="#E7251B" /><polygon points="146.9054825105433,97.02821316614421 188.71644753162985,107.3103448275862 188.71644753162985,109.24973876698016 146.9054825105433,98.96760710553815" stroke="none" stroke-width="1" fill="#E7251B" /><polygon points="21.47258744728355,67.99999999999999 63.28355246837013,78.28213166144201 63.28355246837013,79.00940438871473 21.47258744728355,68.72727272727273" stroke="none" stroke-width="1" fill="#00B1C1" /><polygon points="63.28355246837013,78.02239140170175 105.0945174894567,88.30452306314376 105.0945174894567,89.55127630989699 63.28355246837013,79.26914464845498" stroke="none" stroke-width="1" fill="#00B1C1" /><polygon points="105.0945174894567,86.7460815047022 146.9054825105433,75.21003134796237 146.9054825105433,79.57366771159874 105.0945174894567,91.10971786833855" stroke="none" stroke-width="1" fill="#00B1C1" /><polygon points="146.9054825105433,78.32691446484549 188.71644753162985,88.6090461262875 188.71644753162985,89.85579937304075 146.9054825105433,79.57366771159874" stroke="none" stroke-width="1" fill="#00B1C1" /><polygon points="188.71644753162985,85.49216300940438 230.52741255271644,73.95611285266457 230.52741255271644,78.31974921630093 188.71644753162985,89.85579937304075" stroke="none" stroke-width="1" fill="#00B1C1" /><polygon points="21.47258744728355,68.9090909090909 63.28355246837013,79.19122257053291 63.28355246837013,79.91849529780563 21.47258744728355,69.63636363636364" stroke="none" stroke-width="1" fill="#6CADDF" /><polygon points="63.28355246837013,78.8881922675026 105.0945174894567,67.3521421107628 105.0945174894567,69.29153605015675 63.28355246837013,80.82758620689656" stroke="none" stroke-width="1" fill="#6CADDF" /><polygon points="105.0945174894567,64.92789968652036 146.9054825105433,53.39184952978057 146.9054825105433,57.75548589341693 105.0945174894567,69.29153605015675" stroke="none" stroke-width="1" fill="#6CADDF" /><polygon points="146.9054825105433,53.39184952978057 188.71644753162985,41.85579937304074 188.71644753162985,43.79519331243469 146.9054825105433,55.331243469174495" stroke="none" stroke-width="1" fill="#6CADDF" /><polygon points="188.71644753162985,41.85579937304074 230.52741255271644,30.31974921630095 230.52741255271644,32.259143155694886 188.71644753162985,43.79519331243469" stroke="none" stroke-width="1" fill="#6CADDF" /><polygon points="21.47258744728355,68.9090909090909 63.28355246837013,57.37304075235109 63.28355246837013,58.10031347962382 21.47258744728355,69.63636363636364" stroke="none" stroke-width="1" fill="#DE6202" /><polygon points="63.28355246837013,56.94241874278171 105.0945174894567,45.40636858604191 105.0945174894567,46.325028873123244 63.28355246837013,57.86107902986305" stroke="none" stroke-width="1" fill="#DE6202" /><polygon points="105.0945174894567,45.53396029258097 146.9054825105433,48.543364681295714 146.9054825105433,50.48275862068965 105.0945174894567,47.47335423197492" stroke="none" stroke-width="1" fill="#DE6202" /><polygon points="146.9054825105433,46.11912225705329 188.71644753162985,34.58307210031347 188.71644753162985,38.94670846394985 146.9054825105433,50.48275862068965" stroke="none" stroke-width="1" fill="#DE6202" /><polygon points="188.71644753162985,34.58307210031347 230.52741255271644,37.592476489028215 230.52741255271644,41.95611285266456 188.71644753162985,38.94670846394985" stroke="none" stroke-width="1" fill="#DE6202" /><polygon points="21.47258744728355,69.81818181818183 63.28355246837013,58.282131661441994 63.28355246837013,59.00940438871474 21.47258744728355,70.54545454545455" stroke="none" stroke-width="1" fill="#08235B" /><polygon points="63.28355246837013,58.09074410163339 105.0945174894567,46.554693944893586 105.0945174894567,47.47335423197492 63.28355246837013,59.00940438871474" stroke="none" stroke-width="1" fill="#08235B" /><polygon points="105.0945174894567,43.10971786833855 146.9054825105433,53.39184952978057 146.9054825105433,57.75548589341693 105.0945174894567,47.47335423197492" stroke="none" stroke-width="1" fill="#08235B" /><polygon points="146.9054825105433,55.81609195402298 188.71644753162985,44.28004179728316 188.71644753162985,46.21943573667711 146.9054825105433,57.75548589341693" stroke="none" stroke-width="1" fill="#08235B" /><polygon points="188.71644753162985,44.28004179728316 230.52741255271644,32.743991640543356 230.52741255271644,34.68338557993728 188.71644753162985,46.21943573667711" stroke="none" stroke-width="1" fill="#08235B" /><polygon points="21.47258744728355,69.81818181818183 63.28355246837013,80.10031347962382 63.28355246837013,80.82758620689656 21.47258744728355,70.54545454545455" stroke="none" stroke-width="1" fill="#5E1523" /><polygon points="63.28355246837013,79.58083296014331 105.0945174894567,89.8629646215853 105.0945174894567,91.10971786833855 63.28355246837013,80.82758620689656" stroke="none" stroke-width="1" fill="#5E1523" /><polygon points="105.0945174894567,89.17032392894461 146.9054825105433,99.45245559038662 146.9054825105433,101.39184952978056 105.0945174894567,91.10971786833855" stroke="none" stroke-width="1" fill="#5E1523" /><polygon points="146.9054825105433,99.45245559038662 188.71644753162985,109.73458725182863 188.71644753162985,111.67398119122257 146.9054825105433,101.39184952978056" stroke="none" stroke-width="1" fill="#5E1523" /><polygon points="188.71644753162985,107.3103448275862 230.52741255271644,117.59247648902821 230.52741255271644,121.95611285266457 188.71644753162985,111.67398119122257" stroke="none" stroke-width="1" fill="#5E1523" /><g><path d="M 20.818042,66.836364A0.654545,0.654545 0 0 1 22.127133,66.836364L22.127133,69.890909A0.654545,0.654545 0 0 1 20.818042,69.890909Z" fill="rgb(30%,30%,30%)" /><rect x="20.818041992738095" y="68.28727272727274" width="1.3090909090909093" height="0.15272727272727274" stroke="none" stroke-width="1" fill="white" /></g><g><path d="M 62.629007,55.300313A0.654545,0.654545 0 0 1 63.938098,55.300313L63.938098,58.354859A0.654545,0.654545 0 0 1 62.629007,58.354859Z" fill="rgb(30%,30%,30%)" /><rect x="62.629007013824676" y="56.75122257053292" width="1.3090909090909093" height="0.15272727272727274" stroke="none" stroke-width="1" fill="white" /></g><g><path d="M 104.439972,43.764263A0.654545,0.654545 0 0 1 105.749063,43.764263L105.749063,46.818809A0.654545,0.654545 0 0 1 104.439972,46.818809Z" fill="rgb(30%,30%,30%)" /><rect x="104.43997203491125" y="45.2151724137931" width="1.3090909090909093" height="0.15272727272727274" stroke="none" stroke-width="1" fill="white" /></g><g><path d="M 146.250937,46.773668A0.654545,0.654545 0 0 1 147.560028,46.773668L147.560028,49.828213A0.654545,0.654545 0 0 1 146.250937,49.828213Z" fill="rgb(30%,30%,30%)" /><rect x="146.25093705599784" y="48.224576802507826" width="1.3090909090909093" height="0.15272727272727274" stroke="none" stroke-width="1" fill="white" /></g><g><path d="M 188.061902,49.783072A0.654545,0.654545 0 0 1 189.370993,49.783072L189.370993,52.837618A0.654545,0.654545 0 0 1 188.061902,52.837618Z" fill="rgb(30%,30%,30%)" /><rect x="188.0619020770844" y="51.23398119122257" width="1.3090909090909093" height="0.15272727272727274" stroke="none" stroke-width="1" fill="white" /></g><g><path d="M 229.872867,60.065204A0.654545,0.654545 0 0 1 231.181958,60.065204L231.181958,63.119749A0.654545,0.654545 0 0 1 229.872867,63.119749Z" fill="rgb(30%,30%,30%)" /><rect x="229.87286709817099" y="61.51611285266458" width="1.3090909090909093" height="0.15272727272727274" stroke="none" stroke-width="1" fill="white" /></g><g><path d="M 20.818042,66.836364A0.654545,0.654545 0 0 1 22.127133,66.836364L22.127133,69.890909A0.654545,0.654545 0 0 1 20.818042,69.890909Z" fill="rgb(30%,30%,30%)" /><rect x="20.818041992738095" y="68.28727272727274" width="1.3090909090909093" height="0.15272727272727274" stroke="none" stroke-width="1" fill="white" /></g><g><path d="M 62.629007,69.845768A0.654545,0.654545 0 0 1 63.938098,69.845768L63.938098,72.900313A0.654545,0.654545 0 0 1 62.629007,72.900313Z" fill="rgb(30%,30%,30%)" /><rect x="62.629007013824676" y="71.29667711598746" width="1.3090909090909093" height="0.15272727272727274" stroke="none" stroke-width="1" fill="white" /></g><g><path d="M 104.439972,80.127900A0.654545,0.654545 0 0 1 105.749063,80.127900L105.749063,83.182445A0.654545,0.654545 0 0 1 104.439972,83.182445Z" fill="rgb(30%,30%,30%)" /><rect x="104.43997203491125" y="81.57880877742947" width="1.3090909090909093" height="0.15272727272727274" stroke="none" stroke-width="1" fill="white" /></g><g><path d="M 146.250937,83.137304A0.654545,0.654545 0 0 1 147.560028,83.137304L147.560028,86.191850A0.654545,0.654545 0 0 1 146.250937,86.191850Z" fill="rgb(30%,30%,30%)" /><rect x="146.25093705599784" y="84.5882131661442" width="1.3090909090909093" height="0.15272727272727274" stroke="none" stroke-width="1" fill="white" /></g><g><path d="M 188.061902,71.601254A0.654545,0.654545 0 0 1 189.370993,71.601254L189.370993,74.655799A0.654545,0.654545 0 0 1 188.061902,74.655799Z" fill="rgb(30%,30%,30%)" /><rect x="188.0619020770844" y="73.05216300940438" width="1.3090909090909093" height="0.15272727272727274" stroke="none" stroke-width="1" fill="white" /></g><g><path d="M 20.818042,66.836364A0.654545,0.654545 0 0 1 22.127133,66.836364L22.127133,69.890909A0.654545,0.654545 0 0 1 20.818042,69.890909Z" fill="rgb(30%,30%,30%)" /><rect x="20.818041992738095" y="68.28727272727274" width="1.3090909090909093" height="0.15272727272727274" stroke="none" stroke-width="1" fill="white" /></g><g><path d="M 62.629007,69.845768A0.654545,0.654545 0 0 1 63.938098,69.845768L63.938098,72.900313A0.654545,0.654545 0 0 1 62.629007,72.900313Z" fill="rgb(30%,30%,30%)" /><rect x="62.629007013824676" y="71.29667711598746" width="1.3090909090909093" height="0.15272727272727274" stroke="none" stroke-width="1" fill="white" /></g><g><path d="M 104.439972,80.127900A0.654545,0.654545 0 0 1 105.749063,80.127900L105.749063,83.182445A0.654545,0.654545 0 0 1 104.439972,83.182445Z" fill="rgb(30%,30%,30%)" /><rect x="104.43997203491125" y="81.57880877742947" width="1.3090909090909093" height="0.15272727272727274" stroke="none" stroke-width="1" fill="white" /></g><g><path d="M 146.250937,68.591850A0.654545,0.654545 0 0 1 147.560028,68.591850L147.560028,71.646395A0.654545,0.654545 0 0 1 146.250937,71.646395Z" fill="rgb(30%,30%,30%)" /><rect x="146.25093705599784" y="70.04275862068965" width="1.3090909090909093" height="0.15272727272727274" stroke="none" stroke-width="1" fill="white" /></g><g><path d="M 188.061902,57.055799A0.654545,0.654545 0 0 1 189.370993,57.055799L189.370993,60.110345A0.654545,0.654545 0 0 1 188.061902,60.110345Z" fill="rgb(30%,30%,30%)" /><rect x="188.0619020770844" y="58.506708463949835" width="1.3090909090909093" height="0.15272727272727274" stroke="none" stroke-width="1" fill="white" /></g><g><path d="M 229.872867,67.337931A0.654545,0.654545 0 0 1 231.181958,67.337931L231.181958,70.392476A0.654545,0.654545 0 0 1 229.872867,70.392476Z" fill="rgb(30%,30%,30%)" /><rect x="229.87286709817099" y="68.78884012539184" width="1.3090909090909093" height="0.15272727272727274" stroke="none" stroke-width="1" fill="white" /></g><g><path d="M 20.818042,66.836364A0.654545,0.654545 0 0 1 22.127133,66.836364L22.127133,69.890909A0.654545,0.654545 0 0 1 20.818042,69.890909Z" fill="rgb(30%,30%,30%)" /><rect x="20.818041992738095" y="68.28727272727274" width="1.3090909090909093" height="0.15272727272727274" stroke="none" stroke-width="1" fill="white" /></g><g><path d="M 62.629007,55.300313A0.654545,0.654545 0 0 1 63.938098,55.300313L63.938098,58.354859A0.654545,0.654545 0 0 1 62.629007,58.354859Z" fill="rgb(30%,30%,30%)" /><rect x="62.629007013824676" y="56.75122257053292" width="1.3090909090909093" height="0.15272727272727274" stroke="none" stroke-width="1" fill="white" /></g><g><path d="M 104.439972,43.764263A0.654545,0.654545 0 0 1 105.749063,43.764263L105.749063,46.818809A0.654545,0.654545 0 0 1 104.439972,46.818809Z" fill="rgb(30%,30%,30%)" /><rect x="104.43997203491125" y="45.2151724137931" width="1.3090909090909093" height="0.15272727272727274" stroke="none" stroke-width="1" fill="white" /></g><g><path d="M 146.250937,32.228213A0.654545,0.654545 0 0 1 147.560028,32.228213L147.560028,35.282759A0.654545,0.654545 0 0 1 146.250937,35.282759Z" fill="rgb(30%,30%,30%)" /><rect x="146.25093705599784" y="33.67912225705328" width="1.3090909090909093" height="0.15272727272727274" stroke="none" stroke-width="1" fill="white" /></g><g><path d="M 188.061902,20.692163A0.654545,0.654545 0 0 1 189.370993,20.692163L189.370993,23.746708A0.654545,0.654545 0 0 1 188.061902,23.746708Z" fill="rgb(30%,30%,30%)" /><rect x="188.0619020770844" y="22.143072100313475" width="1.3090909090909093" height="0.15272727272727274" stroke="none" stroke-width="1" fill="white" /></g><g><path d="M 229.872867,23.701567A0.654545,0.654545 0 0 1 231.181958,23.701567L231.181958,26.756113A0.654545,0.654545 0 0 1 229.872867,26.756113Z" fill="rgb(30%,30%,30%)" /><rect x="229.87286709817099" y="25.152476489028203" width="1.3090909090909093" height="0.15272727272727274" stroke="none" stroke-width="1" fill="white" /></g><g><path d="M 20.818042,66.836364A0.654545,0.654545 0 0 1 22.127133,66.836364L22.127133,69.890909A0.654545,0.654545 0 0 1 20.818042,69.890909Z" fill="rgb(30%,30%,30%)" /><rect x="20.818041992738095" y="68.28727272727274" width="1.3090909090909093" height="0.15272727272727274" stroke="none" stroke-width="1" fill="white" /></g><g><path d="M 62.629007,55.300313A0.654545,0.654545 0 0 1 63.938098,55.300313L63.938098,58.354859A0.654545,0.654545 0 0 1 62.629007,58.354859Z" fill="rgb(30%,30%,30%)" /><rect x="62.629007013824676" y="56.75122257053292" width="1.3090909090909093" height="0.15272727272727274" stroke="none" stroke-width="1" fill="white" /></g><g><path d="M 104.439972,65.582445A0.654545,0.654545 0 0 1 105.749063,65.582445L105.749063,68.636991A0.654545,0.654545 0 0 1 104.439972,68.636991Z" fill="rgb(30%,30%,30%)" /><rect x="104.43997203491125" y="67.03335423197493" width="1.3090909090909093" height="0.15272727272727274" stroke="none" stroke-width="1" fill="white" /></g><g><path d="M 146.250937,75.864577A0.654545,0.654545 0 0 1 147.560028,75.864577L147.560028,78.919122A0.654545,0.654545 0 0 1 146.250937,78.919122Z" fill="rgb(30%,30%,30%)" /><rect x="146.25093705599784" y="77.31548589341692" width="1.3090909090909093" height="0.15272727272727274" stroke="none" stroke-width="1" fill="white" /></g><g><path d="M 188.061902,86.146708A0.654545,0.654545 0 0 1 189.370993,86.146708L189.370993,89.201254A0.654545,0.654545 0 0 1 188.061902,89.201254Z" fill="rgb(30%,30%,30%)" /><rect x="188.0619020770844" y="87.59761755485893" width="1.3090909090909093" height="0.15272727272727274" stroke="none" stroke-width="1" fill="white" /></g><g><path d="M 229.872867,89.156113A0.654545,0.654545 0 0 1 231.181958,89.156113L231.181958,92.210658A0.654545,0.654545 0 0 1 229.872867,92.210658Z" fill="rgb(30%,30%,30%)" /><rect x="229.87286709817099" y="90.60702194357366" width="1.3090909090909093" height="0.15272727272727274" stroke="none" stroke-width="1" fill="white" /></g><g><path d="M 20.818042,66.836364A0.654545,0.654545 0 0 1 22.127133,66.836364L22.127133,69.890909A0.654545,0.654545 0 0 1 20.818042,69.890909Z" fill="rgb(30%,30%,30%)" /><rect x="20.818041992738095" y="68.28727272727274" width="1.3090909090909093" height="0.15272727272727274" stroke="none" stroke-width="1" fill="white" /></g><g><path d="M 62.629007,77.118495A0.654545,0.654545 0 0 1 63.938098,77.118495L63.938098,80.173041A0.654545,0.654545 0 0 1 62.629007,80.173041Z" fill="rgb(30%,30%,30%)" /><rect x="62.629007013824676" y="78.56940438871473" width="1.3090909090909093" height="0.15272727272727274" stroke="none" stroke-width="1" fill="white" /></g><g><path d="M 104.439972,65.582445A0.654545,0.654545 0 0 1 105.749063,65.582445L105.749063,68.636991A0.654545,0.654545 0 0 1 104.439972,68.636991Z" fill="rgb(30%,30%,30%)" /><rect x="104.43997203491125" y="67.03335423197493" width="1.3090909090909093" height="0.15272727272727274" stroke="none" stroke-width="1" fill="white" /></g><g><path d="M 146.250937,75.864577A0.654545,0.654545 0 0 1 147.560028,75.864577L147.560028,78.919122A0.654545,0.654545 0 0 1 146.250937,78.919122Z" fill="rgb(30%,30%,30%)" /><rect x="146.25093705599784" y="77.31548589341692" width="1.3090909090909093" height="0.15272727272727274" stroke="none" stroke-width="1" fill="white" /></g><g><path d="M 188.061902,86.146708A0.654545,0.654545 0 0 1 189.370993,86.146708L189.370993,89.201254A0.654545,0.654545 0 0 1 188.061902,89.201254Z" fill="rgb(30%,30%,30%)" /><rect x="188.0619020770844" y="87.59761755485893" width="1.3090909090909093" height="0.15272727272727274" stroke="none" stroke-width="1" fill="white" /></g><g><path d="M 229.872867,89.156113A0.654545,0.654545 0 0 1 231.181958,89.156113L231.181958,92.210658A0.654545,0.654545 0 0 1 229.872867,92.210658Z" fill="rgb(30%,30%,30%)" /><rect x="229.87286709817099" y="90.60702194357366" width="1.3090909090909093" height="0.15272727272727274" stroke="none" stroke-width="1" fill="white" /></g><g><path d="M 20.818042,66.836364A0.654545,0.654545 0 0 1 22.127133,66.836364L22.127133,69.890909A0.654545,0.654545 0 0 1 20.818042,69.890909Z" fill="rgb(30%,30%,30%)" /><rect x="20.818041992738095" y="68.28727272727274" width="1.3090909090909093" height="0.15272727272727274" stroke="none" stroke-width="1" fill="white" /></g><g><path d="M 62.629007,77.118495A0.654545,0.654545 0 0 1 63.938098,77.118495L63.938098,80.173041A0.654545,0.654545 0 0 1 62.629007,80.173041Z" fill="rgb(30%,30%,30%)" /><rect x="62.629007013824676" y="78.56940438871473" width="1.3090909090909093" height="0.15272727272727274" stroke="none" stroke-width="1" fill="white" /></g><g><path d="M 104.439972,87.400627A0.654545,0.654545 0 0 1 105.749063,87.400627L105.749063,90.455172A0.654545,0.654545 0 0 1 104.439972,90.455172Z" fill="rgb(30%,30%,30%)" /><rect x="104.43997203491125" y="88.85153605015674" width="1.3090909090909093" height="0.15272727272727274" stroke="none" stroke-width="1" fill="white" /></g><g><path d="M 146.250937,97.682759A0.654545,0.654545 0 0 1 147.560028,97.682759L147.560028,100.737304A0.654545,0.654545 0 0 1 146.250937,100.737304Z" fill="rgb(30%,30%,30%)" /><rect x="146.25093705599784" y="99.13366771159875" width="1.3090909090909093" height="0.15272727272727274" stroke="none" stroke-width="1" fill="white" /></g><g><path d="M 188.061902,107.964890A0.654545,0.654545 0 0 1 189.370993,107.964890L189.370993,111.019436A0.654545,0.654545 0 0 1 188.061902,111.019436Z" fill="rgb(30%,30%,30%)" /><rect x="188.0619020770844" y="109.41579937304076" width="1.3090909090909093" height="0.15272727272727274" stroke="none" stroke-width="1" fill="white" /></g><g><path d="M 20.818042,66.836364A0.654545,0.654545 0 0 1 22.127133,66.836364L22.127133,69.890909A0.654545,0.654545 0 0 1 20.818042,69.890909Z" fill="rgb(30%,30%,30%)" /><rect x="20.818041992738095" y="68.28727272727274" width="1.3090909090909093" height="0.15272727272727274" stroke="none" stroke-width="1" fill="white" /></g><g><path d="M 62.629007,77.118495A0.654545,0.654545 0 0 1 63.938098,77.118495L63.938098,80.173041A0.654545,0.654545 0 0 1 62.629007,80.173041Z" fill="rgb(30%,30%,30%)" /><rect x="62.629007013824676" y="78.56940438871473" width="1.3090909090909093" height="0.15272727272727274" stroke="none" stroke-width="1" fill="white" /></g><g><path d="M 104.439972,87.400627A0.654545,0.654545 0 0 1 105.749063,87.400627L105.749063,90.455172A0.654545,0.654545 0 0 1 104.439972,90.455172Z" fill="rgb(30%,30%,30%)" /><rect x="104.43997203491125" y="88.85153605015674" width="1.3090909090909093" height="0.15272727272727274" stroke="none" stroke-width="1" fill="white" /></g><g><path d="M 146.250937,75.864577A0.654545,0.654545 0 0 1 147.560028,75.864577L147.560028,78.919122A0.654545,0.654545 0 0 1 146.250937,78.919122Z" fill="rgb(30%,30%,30%)" /><rect x="146.25093705599784" y="77.31548589341692" width="1.3090909090909093" height="0.15272727272727274" stroke="none" stroke-width="1" fill="white" /></g><g><path d="M 188.061902,86.146708A0.654545,0.654545 0 0 1 189.370993,86.146708L189.370993,89.201254A0.654545,0.654545 0 0 1 188.061902,89.201254Z" fill="rgb(30%,30%,30%)" /><rect x="188.0619020770844" y="87.59761755485893" width="1.3090909090909093" height="0.15272727272727274" stroke="none" stroke-width="1" fill="white" /></g><g><path d="M 229.872867,74.610658A0.654545,0.654545 0 0 1 231.181958,74.610658L231.181958,77.665204A0.654545,0.654545 0 0 1 229.872867,77.665204Z" fill="rgb(30%,30%,30%)" /><rect x="229.87286709817099" y="76.06156739811912" width="1.3090909090909093" height="0.15272727272727274" stroke="none" stroke-width="1" fill="white" /></g><g><path d="M 20.818042,66.836364A0.654545,0.654545 0 0 1 22.127133,66.836364L22.127133,69.890909A0.654545,0.654545 0 0 1 20.818042,69.890909Z" fill="rgb(30%,30%,30%)" /><rect x="20.818041992738095" y="68.28727272727274" width="1.3090909090909093" height="0.15272727272727274" stroke="none" stroke-width="1" fill="white" /></g><g><path d="M 62.629007,77.118495A0.654545,0.654545 0 0 1 63.938098,77.118495L63.938098,80.173041A0.654545,0.654545 0 0 1 62.629007,80.173041Z" fill="rgb(30%,30%,30%)" /><rect x="62.629007013824676" y="78.56940438871473" width="1.3090909090909093" height="0.15272727272727274" stroke="none" stroke-width="1" fill="white" /></g><g><path d="M 104.439972,65.582445A0.654545,0.654545 0 0 1 105.749063,65.582445L105.749063,68.636991A0.654545,0.654545 0 0 1 104.439972,68.636991Z" fill="rgb(30%,30%,30%)" /><rect x="104.43997203491125" y="67.03335423197493" width="1.3090909090909093" height="0.15272727272727274" stroke="none" stroke-width="1" fill="white" /></g><g><path d="M 146.250937,54.046395A0.654545,0.654545 0 0 1 147.560028,54.046395L147.560028,57.100940A0.654545,0.654545 0 0 1 146.250937,57.100940Z" fill="rgb(30%,30%,30%)" /><rect x="146.25093705599784" y="55.49730407523511" width="1.3090909090909093" height="0.15272727272727274" stroke="none" stroke-width="1" fill="white" /></g><g><path d="M 188.061902,42.510345A0.654545,0.654545 0 0 1 189.370993,42.510345L189.370993,45.564890A0.654545,0.654545 0 0 1 188.061902,45.564890Z" fill="rgb(30%,30%,30%)" /><rect x="188.0619020770844" y="43.96125391849529" width="1.3090909090909093" height="0.15272727272727274" stroke="none" stroke-width="1" fill="white" /></g><g><path d="M 229.872867,30.974295A0.654545,0.654545 0 0 1 231.181958,30.974295L231.181958,34.028840A0.654545,0.654545 0 0 1 229.872867,34.028840Z" fill="rgb(30%,30%,30%)" /><rect x="229.87286709817099" y="32.42520376175548" width="1.3090909090909093" height="0.15272727272727274" stroke="none" stroke-width="1" fill="white" /></g><g><path d="M 20.818042,66.836364A0.654545,0.654545 0 0 1 22.127133,66.836364L22.127133,69.890909A0.654545,0.654545 0 0 1 20.818042,69.890909Z" fill="rgb(30%,30%,30%)" /><rect x="20.818041992738095" y="68.28727272727274" width="1.3090909090909093" height="0.15272727272727274" stroke="none" stroke-width="1" fill="white" /></g><g><path d="M 62.629007,55.300313A0.654545,0.654545 0 0 1 63.938098,55.300313L63.938098,58.354859A0.654545,0.654545 0 0 1 62.629007,58.354859Z" fill="rgb(30%,30%,30%)" /><rect x="62.629007013824676" y="56.75122257053292" width="1.3090909090909093" height="0.15272727272727274" stroke="none" stroke-width="1" fill="white" /></g><g><path d="M 104.439972,43.764263A0.654545,0.654545 0 0 1 105.749063,43.764263L105.749063,46.818809A0.654545,0.654545 0 0 1 104.439972,46.818809Z" fill="rgb(30%,30%,30%)" /><rect x="104.43997203491125" y="45.2151724137931" width="1.3090909090909093" height="0.15272727272727274" stroke="none" stroke-width="1" fill="white" /></g><g><path d="M 146.250937,46.773668A0.654545,0.654545 0 0 1 147.560028,46.773668L147.560028,49.828213A0.654545,0.654545 0 0 1 146.250937,49.828213Z" fill="rgb(30%,30%,30%)" /><rect x="146.25093705599784" y="48.224576802507826" width="1.3090909090909093" height="0.15272727272727274" stroke="none" stroke-width="1" fill="white" /></g><g><path d="M 188.061902,35.237618A0.654545,0.654545 0 0 1 189.370993,35.237618L189.370993,38.292163A0.654545,0.654545 0 0 1 188.061902,38.292163Z" fill="rgb(30%,30%,30%)" /><rect x="188.0619020770844" y="36.68852664576801" width="1.3090909090909093" height="0.15272727272727274" stroke="none" stroke-width="1" fill="white" /></g><g><path d="M 229.872867,38.247022A0.654545,0.654545 0 0 1 231.181958,38.247022L231.181958,41.301567A0.654545,0.654545 0 0 1 229.872867,41.301567Z" fill="rgb(30%,30%,30%)" /><rect x="229.87286709817099" y="39.69793103448275" width="1.3090909090909093" height="0.15272727272727274" stroke="none" stroke-width="1" fill="white" /></g><g><path d="M 20.818042,66.836364A0.654545,0.654545 0 0 1 22.127133,66.836364L22.127133,69.890909A0.654545,0.654545 0 0 1 20.818042,69.890909Z" fill="rgb(30%,30%,30%)" /><rect x="20.818041992738095" y="68.28727272727274" width="1.3090909090909093" height="0.15272727272727274" stroke="none" stroke-width="1" fill="white" /></g><g><path d="M 62.629007,55.300313A0.654545,0.654545 0 0 1 63.938098,55.300313L63.938098,58.354859A0.654545,0.654545 0 0 1 62.629007,58.354859Z" fill="rgb(30%,30%,30%)" /><rect x="62.629007013824676" y="56.75122257053292" width="1.3090909090909093" height="0.15272727272727274" stroke="none" stroke-width="1" fill="white" /></g><g><path d="M 104.439972,43.764263A0.654545,0.654545 0 0 1 105.749063,43.764263L105.749063,46.818809A0.654545,0.654545 0 0 1 104.439972,46.818809Z" fill="rgb(30%,30%,30%)" /><rect x="104.43997203491125" y="45.2151724137931" width="1.3090909090909093" height="0.15272727272727274" stroke="none" stroke-width="1" fill="white" /></g><g><path d="M 146.250937,54.046395A0.654545,0.654545 0 0 1 147.560028,54.046395L147.560028,57.100940A0.654545,0.654545 0 0 1 146.250937,57.100940Z" fill="rgb(30%,30%,30%)" /><rect x="146.25093705599784" y="55.49730407523511" width="1.3090909090909093" height="0.15272727272727274" stroke="none" stroke-width="1" fill="white" /></g><g><path d="M 188.061902,42.510345A0.654545,0.654545 0 0 1 189.370993,42.510345L189.370993,45.564890A0.654545,0.654545 0 0 1 188.061902,45.564890Z" fill="rgb(30%,30%,30%)" /><rect x="188.0619020770844" y="43.96125391849529" width="1.3090909090909093" height="0.15272727272727274" stroke="none" stroke-width="1" fill="white" /></g><g><path d="M 229.872867,30.974295A0.654545,0.654545 0 0 1 231.181958,30.974295L231.181958,34.028840A0.654545,0.654545 0 0 1 229.872867,34.028840Z" fill="rgb(30%,30%,30%)" /><rect x="229.87286709817099" y="32.42520376175548" width="1.3090909090909093" height="0.15272727272727274" stroke="none" stroke-width="1" fill="white" /></g><g><path d="M 20.818042,66.836364A0.654545,0.654545 0 0 1 22.127133,66.836364L22.127133,69.890909A0.654545,0.654545 0 0 1 20.818042,69.890909Z" fill="rgb(30%,30%,30%)" /><rect x="20.818041992738095" y="68.28727272727274" width="1.3090909090909093" height="0.15272727272727274" stroke="none" stroke-width="1" fill="white" /></g><g><path d="M 62.629007,77.118495A0.654545,0.654545 0 0 1 63.938098,77.118495L63.938098,80.173041A0.654545,0.654545 0 0 1 62.629007,80.173041Z" fill="rgb(30%,30%,30%)" /><rect x="62.629007013824676" y="78.56940438871473" width="1.3090909090909093" height="0.15272727272727274" stroke="none" stroke-width="1" fill="white" /></g><g><path d="M 104.439972,87.400627A0.654545,0.654545 0 0 1 105.749063,87.400627L105.749063,90.455172A0.654545,0.654545 0 0 1 104.439972,90.455172Z" fill="rgb(30%,30%,30%)" /><rect x="104.43997203491125" y="88.85153605015674" width="1.3090909090909093" height="0.15272727272727274" stroke="none" stroke-width="1" fill="white" /></g><g><path d="M 146.250937,97.682759A0.654545,0.654545 0 0 1 147.560028,97.682759L147.560028,100.737304A0.654545,0.654545 0 0 1 146.250937,100.737304Z" fill="rgb(30%,30%,30%)" /><rect x="146.25093705599784" y="99.13366771159875" width="1.3090909090909093" height="0.15272727272727274" stroke="none" stroke-width="1" fill="white" /></g><g><path d="M 188.061902,107.964890A0.654545,0.654545 0 0 1 189.370993,107.964890L189.370993,111.019436A0.654545,0.654545 0 0 1 188.061902,111.019436Z" fill="rgb(30%,30%,30%)" /><rect x="188.0619020770844" y="109.41579937304076" width="1.3090909090909093" height="0.15272727272727274" stroke="none" stroke-width="1" fill="white" /></g><g><path d="M 229.872867,118.247022A0.654545,0.654545 0 0 1 231.181958,118.247022L231.181958,121.301567A0.654545,0.654545 0 0 1 229.872867,121.301567Z" fill="rgb(30%,30%,30%)" /><rect x="229.87286709817099" y="119.69793103448276" width="1.3090909090909093" height="0.15272727272727274" stroke="none" stroke-width="1" fill="white" /></g><image x="130.79905730587944" y="56.13793103448276" width="212" height="10.90909090909091" xlink:href="./../outputs/logos/wsl/ARS.png" href="./../outputs/logos/wsl/ARS.png" /><image x="88.98809228479286" y="67.67398119122257" width="212" height="10.90909090909091" xlink:href="./../outputs/logos/wsl/AVL.png" href="./../outputs/logos/wsl/AVL.png" /><image x="130.79905730587944" y="63.41065830721003" width="212" height="10.90909090909091" xlink:href="./../outputs/logos/wsl/BHA.png" href="./../outputs/logos/wsl/BHA.png" /><image x="130.79905730587944" y="19.774294670846388" width="212" height="10.90909090909091" xlink:href="./../outputs/logos/wsl/CHE.png" href="./../outputs/logos/wsl/CHE.png" /><image x="130.79905730587944" y="85.22884012539186" width="212" height="10.90909090909091" xlink:href="./../outputs/logos/wsl/EVE.png" href="./../outputs/logos/wsl/EVE.png" /><image x="139.16125031009676" y="85.22884012539186" width="212" height="10.90909090909091" xlink:href="./../outputs/logos/wsl/LEI.png" href="./../outputs/logos/wsl/LEI.png" /><image x="88.98809228479286" y="104.03761755485894" width="212" height="10.90909090909091" xlink:href="./../outputs/logos/wsl/LIV.png" href="./../outputs/logos/wsl/LIV.png" /><image x="130.79905730587944" y="70.68338557993731" width="212" height="10.90909090909091" xlink:href="./../outputs/logos/wsl/LCL.png" href="./../outputs/logos/wsl/LCL.png" /><image x="130.79905730587944" y="27.047021943573654" width="212" height="10.90909090909091" xlink:href="./../outputs/logos/wsl/MCI.png" href="./../outputs/logos/wsl/MCI.png" /><image x="130.79905730587944" y="34.319749216300934" width="212" height="10.90909090909091" xlink:href="./../outputs/logos/wsl/MUN.png" href="./../outputs/logos/wsl/MUN.png" /><image x="139.16125031009676" y="27.047021943573654" width="212" height="10.90909090909091" xlink:href="./../outputs/logos/wsl/TOT.png" href="./../outputs/logos/wsl/TOT.png" /><image x="130.79905730587944" y="114.31974921630095" width="212" height="10.90909090909091" xlink:href="./../outputs/logos/wsl/WHU.png" href="./../outputs/logos/wsl/WHU.png" /></g><text x="254.5" y="142" stroke="none" fill="black" font-size="4" font-family="auto" text-anchor="end" dx="0" dy="0" transform="none" id="">Graphic by Vivian (vbbcla)</text><text x="1.5" y="142" stroke="none" fill="black" font-size="3" font-family="auto" text-anchor="start" dx="0" dy="0" transform="none" id="">Average points per match: 1.41</text><text x="1.5" y="138" stroke="none" fill="black" font-size="3" font-family="auto" text-anchor="start" dx="0" dy="0" transform="none" id="">Tiebreakers not visualized</text></svg>