<svg width="256" height="144" xmlns="http://www.w3.org/2000/svg" xmlns:xlink="http://www.w3.org/1999/xlink" version="2.0"><style>
* {
font-family: "Merriweather Sans";
font-weight: 300;
}
#title {
font-weight: normal
}
</style><rect x="0" y="0" width="256" height="144" stroke="none" stroke-width="1" fill="#e6f2e7" /><text x="128" y="12" stroke="none" fill="black" font-size="8" font-family="auto" text-anchor="middle" dx="0" dy="0" transform="none" id="title">WSL Graphical Standings &#8211; Sep 09, 2025</text><text x="8" y="72" stroke="none" fill="black" font-size="6" font-family="auto" text-anchor="middle" dx="0" dy="0" transform="rotate(-90,8,72)" id="">Points above average</text><text x="100.0" y="140" stroke="none" fill="black" font-size="6" font-family="auto" text-anchor="middle" dx="0" dy="0" transform="none" id="">Match</text><g><g><line x1="25.233644859813086" x2="25.233644859813086" y1="128.0" y2="16.0" stroke="rgb(90%,90%,90%)" stroke-width="0.5" stroke-linecap="square" /><line x1="174.76635514018693" x2="174.76635514018693" y1="128.0" y2="16.0" stroke="rgb(90%,90%,90%)" stroke-width="0.5" stroke-linecap="square" /><line x1="20.0" x2="180.0" y1="122.9090909090909" y2="122.9090909090909" stroke="rgb(90%,90%,90%)" stroke-width="0.5" stroke-linecap="square" /><line x1="20.0" x2="180.0" y1="97.45454545454545" y2="97.45454545454545" stroke="rgb(90%,90%,90%)" stroke-width="0.5" stroke-linecap="square" /><line x1="20.0" x2="180.0" y1="72.0" y2="72.0" stroke="rgb(90%,90%,90%)" stroke-width="0.5" stroke-linecap="square" /><line x1="20.0" x2="180.0" y1="46.54545454545455" y2="46.54545454545455" stroke="rgb(90%,90%,90%)" stroke-width="0.5" stroke-linecap="square" /><line x1="20.0" x2="180.0" y1="21.090909090909093" y2="21.090909090909093" stroke="rgb(90%,90%,90%)" stroke-width="0.5" stroke-linecap="square" /></g><g><line x1="25.233644859813086" x2="25.233644859813086" y1="128.0" y2="16.0" stroke="rgb(80%,80%,80%)" stroke-width="0.5" stroke-linecap="square" /><line x1="174.76635514018693" x2="174.76635514018693" y1="128.0" y2="16.0" stroke="rgb(80%,80%,80%)" stroke-width="0.5" stroke-linecap="square" /><line x1="20.0" x2="180.0" y1="122.9090909090909" y2="122.9090909090909" stroke="rgb(80%,80%,80%)" stroke-width="0.5" stroke-linecap="square" /><line x1="20.0" x2="180.0" y1="97.45454545454545" y2="97.45454545454545" stroke="rgb(80%,80%,80%)" stroke-width="0.5" stroke-linecap="square" /><line x1="20.0" x2="180.0" y1="72.0" y2="72.0" stroke="rgb(80%,80%,80%)" stroke-width="0.5" stroke-linecap="square" /><line x1="20.0" x2="180.0" y1="46.54545454545455" y2="46.54545454545455" stroke="rgb(80%,80%,80%)" stroke-width="0.5" stroke-linecap="square" /><line x1="20.0" x2="180.0" y1="21.090909090909093" y2="21.090909090909093" stroke="rgb(80%,80%,80%)" stroke-width="0.5" stroke-linecap="square" /></g><g><line x1="25.233644859813086" x2="25.233644859813086" y1="128.0" y2="16.0" stroke="rgb(50%,50%,50%)" stroke-width="0.5" stroke-linecap="square" /><line x1="20.0" x2="180.0" y1="72.0" y2="72.0" stroke="rgb(50%,50%,50%)" stroke-width="0.5" stroke-linecap="square" /></g><g><text x="25.233644859813086" y="128.0" stroke="none" fill="rgb(30%,30%,30%)" font-size="5" font-family="auto" text-anchor="middle" dx="0" dy="1em" transform="none" id="">0</text><text x="174.76635514018693" y="128.0" stroke="none" fill="rgb(30%,30%,30%)" font-size="5" font-family="auto" text-anchor="middle" dx="0" dy="1em" transform="none" id="">1</text><text x="20.0" y="122.9090909090909" stroke="none" fill="rgb(30%,30%,30%)" font-size="5" font-family="auto" text-anchor="end" dx="-0.5ex" dy="0.5ex" transform="none" id="">-2</text><text x="20.0" y="97.45454545454545" stroke="none" fill="rgb(30%,30%,30%)" font-size="5" font-family="auto" text-anchor="end" dx="-0.5ex" dy="0.5ex" transform="none" id="">-1</text><text x="20.0" y="72.0" stroke="none" fill="rgb(30%,30%,30%)" font-size="5" font-family="auto" text-anchor="end" dx="-0.5ex" dy="0.5ex" transform="none" id="">0</text><text x="20.0" y="46.54545454545455" stroke="none" fill="rgb(30%,30%,30%)" font-size="5" font-family="auto" text-anchor="end" dx="-0.5ex" dy="0.5ex" transform="none" id="">1</text><text x="20.0" y="21.090909090909093" stroke="none" fill="rgb(30%,30%,30%)" font-size="5" font-family="auto" text-anchor="end" dx="-0.5ex" dy="0.5ex" transform="none" id="">2</text></g><polygon points="25.233644859813086,68.18181818181819 174.76635514018693,27.878787878787875 174.76635514018693,29.15151515151517 25.233644859813086,69.45454545454545" stroke="none" stroke-width="1" fill="#CA1149" /><polygon points="25.233644859813086,68.18181818181819 174.76635514018693,78.78787878787878 174.76635514018693,82.18181818181819 25.233644859813086,71.57575757575758" stroke="none" stroke-width="1" fill="#8A2A56" /><polygon points="25.233644859813086,72.42424242424242 174.76635514018693,83.03030303030303 174.76635514018693,86.42424242424244 25.233644859813086,75.81818181818181" stroke="none" stroke-width="1" fill="#FFAB01" /><polygon points="25.233644859813086,69.77272727272728 174.76635514018693,29.46969696969697 174.76635514018693,30.74242424242425 25.233644859813086,71.04545454545455" stroke="none" stroke-width="1" fill="#00019E" /><polygon points="25.233644859813086,71.36363636363637 174.76635514018693,31.060606060606062 174.76635514018693,32.33333333333333 25.233644859813086,72.63636363636363" stroke="none" stroke-width="1" fill="#0022F9" /><polygon points="25.233644859813086,68.18181818181819 174.76635514018693,104.24242424242425 174.76635514018693,105.51515151515152 25.233644859813086,69.45454545454545" stroke="none" stroke-width="1" fill="#234E97" /><polygon points="25.233644859813086,69.77272727272728 174.76635514018693,105.83333333333334 174.76635514018693,107.10606060606061 25.233644859813086,71.04545454545455" stroke="none" stroke-width="1" fill="#E7251B" /><polygon points="25.233644859813086,71.36363636363637 174.76635514018693,107.42424242424242 174.76635514018693,108.69696969696969 25.233644859813086,72.63636363636363" stroke="none" stroke-width="1" fill="#00B1C1" /><polygon points="25.233644859813086,72.95454545454545 174.76635514018693,109.01515151515152 174.76635514018693,110.28787878787878 25.233644859813086,74.22727272727272" stroke="none" stroke-width="1" fill="#6CADDF" /><polygon points="25.233644859813086,72.95454545454545 174.76635514018693,32.651515151515156 174.76635514018693,33.92424242424242 25.233644859813086,74.22727272727272" stroke="none" stroke-width="1" fill="#DE6202" /><polygon points="25.233644859813086,74.54545454545455 174.76635514018693,34.242424242424235 174.76635514018693,35.515151515151516 25.233644859813086,75.81818181818181" stroke="none" stroke-width="1" fill="#08235B" /><polygon points="25.233644859813086,74.54545454545455 174.76635514018693,110.60606060606061 174.76635514018693,111.87878787878788 25.233644859813086,75.81818181818181" stroke="none" stroke-width="1" fill="#5E1523" /><g><path d="M 24.088190,69.327273A1.145455,1.145455 0 0 1 26.379099,69.327273L26.379099,74.672727A1.145455,1.145455 0 0 1 24.088190,74.672727Z" fill="rgb(30%,30%,30%)" /><rect x="24.088190314358542" y="71.86636363636363" width="2.2909090909090906" height="0.2672727272727273" stroke="none" stroke-width="1" fill="white" /></g><g><path d="M 173.620901,29.024242A1.145455,1.145455 0 0 1 175.911810,29.024242L175.911810,34.369697A1.145455,1.145455 0 0 1 173.620901,34.369697Z" fill="rgb(30%,30%,30%)" /><rect x="173.62090059473238" y="31.56333333333334" width="2.2909090909090906" height="0.2672727272727273" stroke="none" stroke-width="1" fill="white" /></g><g><path d="M 24.088190,69.327273A1.145455,1.145455 0 0 1 26.379099,69.327273L26.379099,74.672727A1.145455,1.145455 0 0 1 24.088190,74.672727Z" fill="rgb(30%,30%,30%)" /><rect x="24.088190314358542" y="71.86636363636363" width="2.2909090909090906" height="0.2672727272727273" stroke="none" stroke-width="1" fill="white" /></g><g><path d="M 173.620901,79.933333A1.145455,1.145455 0 0 1 175.911810,79.933333L175.911810,85.278788A1.145455,1.145455 0 0 1 173.620901,85.278788Z" fill="rgb(30%,30%,30%)" /><rect x="173.62090059473238" y="82.47242424242424" width="2.2909090909090906" height="0.2672727272727273" stroke="none" stroke-width="1" fill="white" /></g><g><path d="M 24.088190,69.327273A1.145455,1.145455 0 0 1 26.379099,69.327273L26.379099,74.672727A1.145455,1.145455 0 0 1 24.088190,74.672727Z" fill="rgb(30%,30%,30%)" /><rect x="24.088190314358542" y="71.86636363636363" width="2.2909090909090906" height="0.2672727272727273" stroke="none" stroke-width="1" fill="white" /></g><g><path d="M 173.620901,79.933333A1.145455,1.145455 0 0 1 175.911810,79.933333L175.911810,85.278788A1.145455,1.145455 0 0 1 173.620901,85.278788Z" fill="rgb(30%,30%,30%)" /><rect x="173.62090059473238" y="82.47242424242424" width="2.2909090909090906" height="0.2672727272727273" stroke="none" stroke-width="1" fill="white" /></g><g><path d="M 24.088190,69.327273A1.145455,1.145455 0 0 1 26.379099,69.327273L26.379099,74.672727A1.145455,1.145455 0 0 1 24.088190,74.672727Z" fill="rgb(30%,30%,30%)" /><rect x="24.088190314358542" y="71.86636363636363" width="2.2909090909090906" height="0.2672727272727273" stroke="none" stroke-width="1" fill="white" /></g><g><path d="M 173.620901,29.024242A1.145455,1.145455 0 0 1 175.911810,29.024242L175.911810,34.369697A1.145455,1.145455 0 0 1 173.620901,34.369697Z" fill="rgb(30%,30%,30%)" /><rect x="173.62090059473238" y="31.56333333333334" width="2.2909090909090906" height="0.2672727272727273" stroke="none" stroke-width="1" fill="white" /></g><g><path d="M 24.088190,69.327273A1.145455,1.145455 0 0 1 26.379099,69.327273L26.379099,74.672727A1.145455,1.145455 0 0 1 24.088190,74.672727Z" fill="rgb(30%,30%,30%)" /><rect x="24.088190314358542" y="71.86636363636363" width="2.2909090909090906" height="0.2672727272727273" stroke="none" stroke-width="1" fill="white" /></g><g><path d="M 173.620901,29.024242A1.145455,1.145455 0 0 1 175.911810,29.024242L175.911810,34.369697A1.145455,1.145455 0 0 1 173.620901,34.369697Z" fill="rgb(30%,30%,30%)" /><rect x="173.62090059473238" y="31.56333333333334" width="2.2909090909090906" height="0.2672727272727273" stroke="none" stroke-width="1" fill="white" /></g><g><path d="M 24.088190,69.327273A1.145455,1.145455 0 0 1 26.379099,69.327273L26.379099,74.672727A1.145455,1.145455 0 0 1 24.088190,74.672727Z" fill="rgb(30%,30%,30%)" /><rect x="24.088190314358542" y="71.86636363636363" width="2.2909090909090906" height="0.2672727272727273" stroke="none" stroke-width="1" fill="white" /></g><g><path d="M 173.620901,105.387879A1.145455,1.145455 0 0 1 175.911810,105.387879L175.911810,110.733333A1.145455,1.145455 0 0 1 173.620901,110.733333Z" fill="rgb(30%,30%,30%)" /><rect x="173.62090059473238" y="107.92696969696969" width="2.2909090909090906" height="0.2672727272727273" stroke="none" stroke-width="1" fill="white" /></g><g><path d="M 24.088190,69.327273A1.145455,1.145455 0 0 1 26.379099,69.327273L26.379099,74.672727A1.145455,1.145455 0 0 1 24.088190,74.672727Z" fill="rgb(30%,30%,30%)" /><rect x="24.088190314358542" y="71.86636363636363" width="2.2909090909090906" height="0.2672727272727273" stroke="none" stroke-width="1" fill="white" /></g><g><path d="M 173.620901,105.387879A1.145455,1.145455 0 0 1 175.911810,105.387879L175.911810,110.733333A1.145455,1.145455 0 0 1 173.620901,110.733333Z" fill="rgb(30%,30%,30%)" /><rect x="173.62090059473238" y="107.92696969696969" width="2.2909090909090906" height="0.2672727272727273" stroke="none" stroke-width="1" fill="white" /></g><g><path d="M 24.088190,69.327273A1.145455,1.145455 0 0 1 26.379099,69.327273L26.379099,74.672727A1.145455,1.145455 0 0 1 24.088190,74.672727Z" fill="rgb(30%,30%,30%)" /><rect x="24.088190314358542" y="71.86636363636363" width="2.2909090909090906" height="0.2672727272727273" stroke="none" stroke-width="1" fill="white" /></g><g><path d="M 173.620901,105.387879A1.145455,1.145455 0 0 1 175.911810,105.387879L175.911810,110.733333A1.145455,1.145455 0 0 1 173.620901,110.733333Z" fill="rgb(30%,30%,30%)" /><rect x="173.62090059473238" y="107.92696969696969" width="2.2909090909090906" height="0.2672727272727273" stroke="none" stroke-width="1" fill="white" /></g><g><path d="M 24.088190,69.327273A1.145455,1.145455 0 0 1 26.379099,69.327273L26.379099,74.672727A1.145455,1.145455 0 0 1 24.088190,74.672727Z" fill="rgb(30%,30%,30%)" /><rect x="24.088190314358542" y="71.86636363636363" width="2.2909090909090906" height="0.2672727272727273" stroke="none" stroke-width="1" fill="white" /></g><g><path d="M 173.620901,105.387879A1.145455,1.145455 0 0 1 175.911810,105.387879L175.911810,110.733333A1.145455,1.145455 0 0 1 173.620901,110.733333Z" fill="rgb(30%,30%,30%)" /><rect x="173.62090059473238" y="107.92696969696969" width="2.2909090909090906" height="0.2672727272727273" stroke="none" stroke-width="1" fill="white" /></g><g><path d="M 24.088190,69.327273A1.145455,1.145455 0 0 1 26.379099,69.327273L26.379099,74.672727A1.145455,1.145455 0 0 1 24.088190,74.672727Z" fill="rgb(30%,30%,30%)" /><rect x="24.088190314358542" y="71.86636363636363" width="2.2909090909090906" height="0.2672727272727273" stroke="none" stroke-width="1" fill="white" /></g><g><path d="M 173.620901,29.024242A1.145455,1.145455 0 0 1 175.911810,29.024242L175.911810,34.369697A1.145455,1.145455 0 0 1 173.620901,34.369697Z" fill="rgb(30%,30%,30%)" /><rect x="173.62090059473238" y="31.56333333333334" width="2.2909090909090906" height="0.2672727272727273" stroke="none" stroke-width="1" fill="white" /></g><g><path d="M 24.088190,69.327273A1.145455,1.145455 0 0 1 26.379099,69.327273L26.379099,74.672727A1.145455,1.145455 0 0 1 24.088190,74.672727Z" fill="rgb(30%,30%,30%)" /><rect x="24.088190314358542" y="71.86636363636363" width="2.2909090909090906" height="0.2672727272727273" stroke="none" stroke-width="1" fill="white" /></g><g><path d="M 173.620901,29.024242A1.145455,1.145455 0 0 1 175.911810,29.024242L175.911810,34.369697A1.145455,1.145455 0 0 1 173.620901,34.369697Z" fill="rgb(30%,30%,30%)" /><rect x="173.62090059473238" y="31.56333333333334" width="2.2909090909090906" height="0.2672727272727273" stroke="none" stroke-width="1" fill="white" /></g><g><path d="M 24.088190,69.327273A1.145455,1.145455 0 0 1 26.379099,69.327273L26.379099,74.672727A1.145455,1.145455 0 0 1 24.088190,74.672727Z" fill="rgb(30%,30%,30%)" /><rect x="24.088190314358542" y="71.86636363636363" width="2.2909090909090906" height="0.2672727272727273" stroke="none" stroke-width="1" fill="white" /></g><g><path d="M 173.620901,105.387879A1.145455,1.145455 0 0 1 175.911810,105.387879L175.911810,110.733333A1.145455,1.145455 0 0 1 173.620901,110.733333Z" fill="rgb(30%,30%,30%)" /><rect x="173.62090059473238" y="107.92696969696969" width="2.2909090909090906" height="0.2672727272727273" stroke="none" stroke-width="1" fill="white" /></g><image x="144.85981308411218" y="25.333333333333343" width="74.76635514018693" height="12.727272727272727" xlink:href="./../outputs/logos/wsl/ARS.png" href="./../outputs/logos/wsl/ARS.png" /><image x="144.85981308411218" y="76.24242424242425" width="74.76635514018693" height="12.727272727272727" xlink:href="./../outputs/logos/wsl/AVL.png" href="./../outputs/logos/wsl/AVL.png" /><image x="155.32710280373837" y="76.24242424242425" width="74.76635514018693" height="12.727272727272727" xlink:href="./../outputs/logos/wsl/BHA.png" href="./../outputs/logos/wsl/BHA.png" /><image x="155.32710280373837" y="25.333333333333343" width="74.76635514018693" height="12.727272727272727" xlink:href="./../outputs/logos/wsl/CHE.png" href="./../outputs/logos/wsl/CHE.png" /><image x="165.7943925233645" y="25.333333333333343" width="74.76635514018693" height="12.727272727272727" xlink:href="./../outputs/logos/wsl/EVE.png" href="./../outputs/logos/wsl/EVE.png" /><image x="144.85981308411218" y="101.69696969696969" width="74.76635514018693" height="12.727272727272727" xlink:href="./../outputs/logos/wsl/LEI.png" href="./../outputs/logos/wsl/LEI.png" /><image x="155.32710280373837" y="101.69696969696969" width="74.76635514018693" height="12.727272727272727" xlink:href="./../outputs/logos/wsl/LIV.png" href="./../outputs/logos/wsl/LIV.png" /><image x="165.7943925233645" y="101.69696969696969" width="74.76635514018693" height="12.727272727272727" xlink:href="./../outputs/logos/wsl/LCL.png" href="./../outputs/logos/wsl/LCL.png" /><image x="176.26168224299067" y="101.69696969696969" width="74.76635514018693" height="12.727272727272727" xlink:href="./../outputs/logos/wsl/MCI.png" href="./../outputs/logos/wsl/MCI.png" /><image x="176.26168224299067" y="25.333333333333343" width="74.76635514018693" height="12.727272727272727" xlink:href="./../outputs/logos/wsl/MUN.png" href="./../outputs/logos/wsl/MUN.png" /><image x="186.72897196261684" y="25.333333333333343" width="74.76635514018693" height="12.727272727272727" xlink:href="./../outputs/logos/wsl/TOT.png" href="./../outputs/logos/wsl/TOT.png" /><image x="186.72897196261684" y="101.69696969696969" width="74.76635514018693" height="12.727272727272727" xlink:href="./../outputs/logos/wsl/WHU.png" href="./../outputs/logos/wsl/WHU.png" /></g><text x="254.5" y="142" stroke="none" fill="black" font-size="4" font-family="auto" text-anchor="end" dx="0" dy="0" transform="none" id="">Graphic by Vivian (vbbcla)</text><text x="254.5" y="137" stroke="none" fill="black" font-size="4" font-family="auto" text-anchor="end" dx="0" dy="0" transform="none" id="">Average points per match: 1.42</text></svg>